<svg width="32" height="32" fill="none" xmlns="http://www.w3.org/2000/svg"><path d="M5 5.667A2.667 2.667 0 0 1 7.667 3h16.666A2.667 2.667 0 0 1 27 5.667V29H5V5.667Z" fill="#C8CAD0"/><path d="M12 22.333c0-.736.597-1.333 1.333-1.333h5.334c.736 0 1.333.597 1.333 1.333V29h-8v-6.667Z" fill="#F2F3F5"/><rect x="9" y="14" width="6" height="2" rx="1" fill="#F2F3F5"/><rect x="9" y="9" width="6" height="2" rx="1" fill="#F2F3F5"/><rect x="17" y="14" width="6" height="2" rx="1" fill="#F2F3F5"/><rect x="17" y="9" width="6" height="2" rx="1" fill="#F2F3F5"/></svg>