<svg width="32" height="32" fill="none" xmlns="http://www.w3.org/2000/svg"><circle cx="25.333" cy="8" r="4" fill="#C8CAD0"/><circle cx="6.667" cy="8" r="4" fill="#C8CAD0"/><path d="M26.667 29.333a10.667 10.667 0 0 0-21.334 0h21.334ZM6.667 13.333c.904 0 1.803.115 2.675.341a6.631 6.631 0 0 0 1.203 3.493 13.333 13.333 0 0 0-6.582 6.432.694.694 0 0 1-.624.401.673.673 0 0 1-.672-.673v-9.215a10.667 10.667 0 0 1 4-.779Z" fill="#C8CAD0"/><path d="M25.238 24H6.762a10.663 10.663 0 0 1 6.009-4.833c.956.53 2.057.833 3.229.833a6.637 6.637 0 0 0 3.229-.833A10.667 10.667 0 0 1 25.238 24ZM28.037 23.6c.115.24.356.4.624.4a.673.673 0 0 0 .672-.673v-9.215a10.667 10.667 0 0 0-6.675-.438 6.631 6.631 0 0 1-1.203 3.493 13.331 13.331 0 0 1 6.582 6.432ZM18.707 16.278a4.01 4.01 0 0 0 .942-1.304c-.553.348-1.073.747-1.554 1.192.205.032.41.07.612.112ZM13.905 16.166a10.664 10.664 0 0 0-1.554-1.192c.224.497.546.94.941 1.304.204-.042.408-.08.613-.112Z" fill="#C8CAD0"/><path d="M20 13.333a4 4 0 1 1-8 0 4 4 0 0 1 8 0Z" fill="#C8CAD0"/></svg>