<svg width="32" height="32" fill="none" xmlns="http://www.w3.org/2000/svg"><g clip-path="url('#clip0_1307_11589')"><g opacity=".2" stroke="#000" stroke-width=".1"><rect opacity=".2" x="4.05" y="4.05" width="23.9" height="23.9" rx="2.95"/><rect opacity=".2" x="3.05" y="5.05" width="25.9" height="21.9" rx="2.95"/><circle opacity=".2" cx="16" cy="16" r="12.95"/><circle opacity=".2" cx="16" cy="16" r="6.95"/><path opacity=".2" d="M0 32 32 0M0 0l32 32"/><rect opacity=".2" x="5.05" y="3.05" width="21.9" height="25.9" rx="2.95"/></g><path fill-rule="evenodd" clip-rule="evenodd" d="M14.621 3h2.758c1.523 0 2.757 1.164 2.757 2.6 0 1.643 1.759 2.688 3.202 1.902l.146-.08c1.32-.717 3.006-.291 3.767.952l1.38 2.252c.76 1.243.309 2.834-1.01 3.552-1.444.785-1.444 2.858 0 3.645 1.319.718 1.77 2.308 1.01 3.551l-1.38 2.252c-.761 1.243-2.448 1.67-3.767.951l-.146-.08c-1.444-.785-3.202.26-3.202 1.903 0 1.436-1.234 2.6-2.757 2.6H14.62c-1.523 0-2.757-1.164-2.757-2.6 0-1.643-1.759-2.688-3.202-1.902l-.146.08c-1.32.718-3.006.291-3.767-.952l-1.38-2.252c-.76-1.243-.309-2.833 1.01-3.551 1.444-.787 1.444-2.86 0-3.646-1.319-.717-1.77-2.308-1.01-3.551l1.38-2.252c.761-1.243 2.448-1.67 3.767-.952l.146.08c1.443.786 3.202-.259 3.202-1.902 0-1.436 1.234-2.6 2.757-2.6ZM16 20.333a4.333 4.333 0 1 0 0-8.666 4.333 4.333 0 0 0 0 8.666Z" fill="#C8CAD0"/></g><defs><clipPath id="clip0_1307_11589"><path fill="#fff" d="M0 0h32v32H0z"/></clipPath></defs></svg>