<svg width="32" height="26" fill="none" xmlns="http://www.w3.org/2000/svg"><path fill-rule="evenodd" clip-rule="evenodd" d="M2.191 11.19c8.588-3.65 14.305-6.075 17.176-7.252C27.538.6 29.256.024 30.36 0c.246 0 .785.048 1.154.336.294.24.367.552.417.793.049.24.098.744.049 1.128-.442 4.563-2.356 15.633-3.337 20.724-.418 2.161-1.227 2.881-2.012 2.953-1.718.145-3.019-1.104-4.663-2.16-2.6-1.658-4.048-2.69-6.576-4.323-2.92-1.873-1.03-2.906.638-4.587.442-.432 7.975-7.156 8.122-7.756.025-.072.025-.36-.147-.504-.172-.144-.417-.096-.613-.048-.27.048-4.393 2.737-12.416 8.044-1.178.793-2.233 1.177-3.19 1.153-1.056-.024-3.068-.576-4.589-1.057-1.84-.576-3.313-.888-3.19-1.897.074-.528.81-1.056 2.184-1.609Z" fill="#fff"/></svg>