<svg width="32" height="32" fill="none" xmlns="http://www.w3.org/2000/svg"><circle cx="16" cy="17.997" r="3" fill="#fff"/><path d="M15 19.997h2v4a1 1 0 1 1-2 0v-4Z" fill="#fff"/><path d="M25.067 12.189c-.874-.046-1.634.413-1.972 1.082v-.818c0-1.027-.917-1.857-2.043-1.857-.746 0-1.397.365-1.752.904v-.11c0-1.027-.917-1.858-2.043-1.858-.977 0-1.795.624-1.997 1.46v-5.06c-.004-.953-.757-1.809-1.798-1.922-1.24-.133-2.292.743-2.292 1.845v10.916c0 .126-.188.168-.252.055l-2.022-3.61c-.476-.93-1.692-1.334-2.715-.898-1.023.433-1.467 1.538-.988 2.469l3.483 8.437 2.668 4.436a.724.724 0 0 0 .626.337h12.415c.334 0 .622-.21.693-.508l1.759-7.296c.106-.382.163-.773.163-1.164v-4.905c0-.97-.863-1.88-1.93-1.935h-.003Z" fill="#fff"/></svg>