<svg xmlns="http://www.w3.org/2000/svg" width="90" height="90" viewBox="0 0 90 90">
    <g fill="#FFF" fill-rule="nonzero">
        <path fill-opacity="0" d="M0 0h90v90H0z"/>
        <path d="M0 0h3.6v3.6H0V0zm3.6 0h3.6v3.6H3.6V0zm3.6 0h3.6v3.6H7.2V0zm3.6 0h3.6v3.6h-3.6V0zm3.6 0H18v3.6h-3.6V0zM18 0h3.6v3.6H18V0zm3.6 0h3.6v3.6h-3.6V0zM36 0h3.6v3.6H36V0zm7.2 0h3.6v3.6h-3.6V0zm3.6 0h3.6v3.6h-3.6V0zm10.8 0h3.6v3.6h-3.6V0zm7.2 0h3.6v3.6h-3.6V0zm3.6 0H72v3.6h-3.6V0zM72 0h3.6v3.6H72V0zm3.6 0h3.6v3.6h-3.6V0zm3.6 0h3.6v3.6h-3.6V0zm3.6 0h3.6v3.6h-3.6V0zm3.6 0H90v3.6h-3.6V0zM0 3.6h3.6v3.6H0V3.6zm21.6 0h3.6v3.6h-3.6V3.6zm7.2 0h3.6v3.6h-3.6V3.6zm7.2 0h3.6v3.6H36V3.6zm14.4 0H54v3.6h-3.6V3.6zm3.6 0h3.6v3.6H54V3.6zm3.6 0h3.6v3.6h-3.6V3.6zm7.2 0h3.6v3.6h-3.6V3.6zm21.6 0H90v3.6h-3.6V3.6zM0 7.2h3.6v3.6H0V7.2zm7.2 0h3.6v3.6H7.2V7.2zm3.6 0h3.6v3.6h-3.6V7.2zm3.6 0H18v3.6h-3.6V7.2zm7.2 0h3.6v3.6h-3.6V7.2zm21.6 0h3.6v3.6h-3.6V7.2zm7.2 0H54v3.6h-3.6V7.2zm7.2 0h3.6v3.6h-3.6V7.2zm7.2 0h3.6v3.6h-3.6V7.2zm7.2 0h3.6v3.6H72V7.2zm3.6 0h3.6v3.6h-3.6V7.2zm3.6 0h3.6v3.6h-3.6V7.2zm7.2 0H90v3.6h-3.6V7.2zM0 10.8h3.6v3.6H0v-3.6zm7.2 0h3.6v3.6H7.2v-3.6zm3.6 0h3.6v3.6h-3.6v-3.6zm3.6 0H18v3.6h-3.6v-3.6zm7.2 0h3.6v3.6h-3.6v-3.6zm7.2 0h3.6v3.6h-3.6v-3.6zm3.6 0H36v3.6h-3.6v-3.6zm3.6 0h3.6v3.6H36v-3.6zm7.2 0h3.6v3.6h-3.6v-3.6zm3.6 0h3.6v3.6h-3.6v-3.6zm3.6 0H54v3.6h-3.6v-3.6zm14.4 0h3.6v3.6h-3.6v-3.6zm7.2 0h3.6v3.6H72v-3.6zm3.6 0h3.6v3.6h-3.6v-3.6zm3.6 0h3.6v3.6h-3.6v-3.6zm7.2 0H90v3.6h-3.6v-3.6zM0 14.4h3.6V18H0v-3.6zm7.2 0h3.6V18H7.2v-3.6zm3.6 0h3.6V18h-3.6v-3.6zm3.6 0H18V18h-3.6v-3.6zm7.2 0h3.6V18h-3.6v-3.6zm10.8 0H36V18h-3.6v-3.6zm14.4 0h3.6V18h-3.6v-3.6zm3.6 0H54V18h-3.6v-3.6zm14.4 0h3.6V18h-3.6v-3.6zm7.2 0h3.6V18H72v-3.6zm3.6 0h3.6V18h-3.6v-3.6zm3.6 0h3.6V18h-3.6v-3.6zm7.2 0H90V18h-3.6v-3.6zM0 18h3.6v3.6H0V18zm21.6 0h3.6v3.6h-3.6V18zm7.2 0h3.6v3.6h-3.6V18zm3.6 0H36v3.6h-3.6V18zm7.2 0h3.6v3.6h-3.6V18zm3.6 0h3.6v3.6h-3.6V18zM54 18h3.6v3.6H54V18zm3.6 0h3.6v3.6h-3.6V18zm7.2 0h3.6v3.6h-3.6V18zm21.6 0H90v3.6h-3.6V18zM0 21.6h3.6v3.6H0v-3.6zm3.6 0h3.6v3.6H3.6v-3.6zm3.6 0h3.6v3.6H7.2v-3.6zm3.6 0h3.6v3.6h-3.6v-3.6zm3.6 0H18v3.6h-3.6v-3.6zm3.6 0h3.6v3.6H18v-3.6zm3.6 0h3.6v3.6h-3.6v-3.6zm7.2 0h3.6v3.6h-3.6v-3.6zm7.2 0h3.6v3.6H36v-3.6zm7.2 0h3.6v3.6h-3.6v-3.6zm7.2 0H54v3.6h-3.6v-3.6zm7.2 0h3.6v3.6h-3.6v-3.6zm7.2 0h3.6v3.6h-3.6v-3.6zm3.6 0H72v3.6h-3.6v-3.6zm3.6 0h3.6v3.6H72v-3.6zm3.6 0h3.6v3.6h-3.6v-3.6zm3.6 0h3.6v3.6h-3.6v-3.6zm3.6 0h3.6v3.6h-3.6v-3.6zm3.6 0H90v3.6h-3.6v-3.6zm-54 3.6H36v3.6h-3.6v-3.6zm3.6 0h3.6v3.6H36v-3.6zm3.6 0h3.6v3.6h-3.6v-3.6zm10.8 0H54v3.6h-3.6v-3.6zm3.6 0h3.6v3.6H54v-3.6zm3.6 0h3.6v3.6h-3.6v-3.6zM0 28.8h3.6v3.6H0v-3.6zm3.6 0h3.6v3.6H3.6v-3.6zm3.6 0h3.6v3.6H7.2v-3.6zm3.6 0h3.6v3.6h-3.6v-3.6zm3.6 0H18v3.6h-3.6v-3.6zm7.2 0h3.6v3.6h-3.6v-3.6zm3.6 0h3.6v3.6h-3.6v-3.6zm3.6 0h3.6v3.6h-3.6v-3.6zm3.6 0H36v3.6h-3.6v-3.6zm7.2 0h3.6v3.6h-3.6v-3.6zm14.4 0h3.6v3.6H54v-3.6zm3.6 0h3.6v3.6h-3.6v-3.6zm3.6 0h3.6v3.6h-3.6v-3.6zm7.2 0H72v3.6h-3.6v-3.6zm7.2 0h3.6v3.6h-3.6v-3.6zm7.2 0h3.6v3.6h-3.6v-3.6zM3.6 32.4h3.6V36H3.6v-3.6zm3.6 0h3.6V36H7.2v-3.6zm3.6 0h3.6V36h-3.6v-3.6zm3.6 0H18V36h-3.6v-3.6zm21.6 0h3.6V36H36v-3.6zm7.2 0h3.6V36h-3.6v-3.6zm3.6 0h3.6V36h-3.6v-3.6zm10.8 0h3.6V36h-3.6v-3.6zm10.8 0H72V36h-3.6v-3.6zm14.4 0h3.6V36h-3.6v-3.6zM0 36h3.6v3.6H0V36zm7.2 0h3.6v3.6H7.2V36zm3.6 0h3.6v3.6h-3.6V36zm10.8 0h3.6v3.6h-3.6V36zm7.2 0h3.6v3.6h-3.6V36zm7.2 0h3.6v3.6H36V36zm10.8 0h3.6v3.6h-3.6V36zm3.6 0H54v3.6h-3.6V36zm3.6 0h3.6v3.6H54V36zm7.2 0h3.6v3.6h-3.6V36zm3.6 0h3.6v3.6h-3.6V36zm10.8 0h3.6v3.6h-3.6V36zm7.2 0h3.6v3.6h-3.6V36zm3.6 0H90v3.6h-3.6V36zM3.6 39.6h3.6v3.6H3.6v-3.6zm3.6 0h3.6v3.6H7.2v-3.6zm3.6 0h3.6v3.6h-3.6v-3.6zm7.2 0h3.6v3.6H18v-3.6zm7.2 0h3.6v3.6h-3.6v-3.6zm3.6 0h3.6v3.6h-3.6v-3.6zm14.4 0h3.6v3.6h-3.6v-3.6zm3.6 0h3.6v3.6h-3.6v-3.6zm14.4 0h3.6v3.6h-3.6v-3.6zm3.6 0h3.6v3.6h-3.6v-3.6zm3.6 0H72v3.6h-3.6v-3.6zm18 0H90v3.6h-3.6v-3.6zM0 43.2h3.6v3.6H0v-3.6zm18 0h3.6v3.6H18v-3.6zm3.6 0h3.6v3.6h-3.6v-3.6zm7.2 0h3.6v3.6h-3.6v-3.6zm3.6 0H36v3.6h-3.6v-3.6zm3.6 0h3.6v3.6H36v-3.6zm7.2 0h3.6v3.6h-3.6v-3.6zm7.2 0H54v3.6h-3.6v-3.6zm3.6 0h3.6v3.6H54v-3.6zm3.6 0h3.6v3.6h-3.6v-3.6zm3.6 0h3.6v3.6h-3.6v-3.6zm3.6 0h3.6v3.6h-3.6v-3.6zm3.6 0H72v3.6h-3.6v-3.6zm3.6 0h3.6v3.6H72v-3.6zm7.2 0h3.6v3.6h-3.6v-3.6zm3.6 0h3.6v3.6h-3.6v-3.6zm3.6 0H90v3.6h-3.6v-3.6zM0 46.8h3.6v3.6H0v-3.6zm3.6 0h3.6v3.6H3.6v-3.6zm3.6 0h3.6v3.6H7.2v-3.6zm3.6 0h3.6v3.6h-3.6v-3.6zm3.6 0H18v3.6h-3.6v-3.6zm10.8 0h3.6v3.6h-3.6v-3.6zm3.6 0h3.6v3.6h-3.6v-3.6zm3.6 0H36v3.6h-3.6v-3.6zm25.2 0h3.6v3.6h-3.6v-3.6zm10.8 0H72v3.6h-3.6v-3.6zm7.2 0h3.6v3.6h-3.6v-3.6zm7.2 0h3.6v3.6h-3.6v-3.6zM0 50.4h3.6V54H0v-3.6zm21.6 0h3.6V54h-3.6v-3.6zm3.6 0h3.6V54h-3.6v-3.6zm14.4 0h3.6V54h-3.6v-3.6zm3.6 0h3.6V54h-3.6v-3.6zm10.8 0h3.6V54H54v-3.6zm7.2 0h3.6V54h-3.6v-3.6zm7.2 0H72V54h-3.6v-3.6zm3.6 0h3.6V54H72v-3.6zm3.6 0h3.6V54h-3.6v-3.6zm7.2 0h3.6V54h-3.6v-3.6zm3.6 0H90V54h-3.6v-3.6zM0 54h3.6v3.6H0V54zm7.2 0h3.6v3.6H7.2V54zm3.6 0h3.6v3.6h-3.6V54zm7.2 0h3.6v3.6H18V54zm18 0h3.6v3.6H36V54zm3.6 0h3.6v3.6h-3.6V54zm10.8 0H54v3.6h-3.6V54zm7.2 0h3.6v3.6h-3.6V54zm7.2 0h3.6v3.6h-3.6V54zm3.6 0H72v3.6h-3.6V54zm3.6 0h3.6v3.6H72V54zm14.4 0H90v3.6h-3.6V54zM0 57.6h3.6v3.6H0v-3.6zm7.2 0h3.6v3.6H7.2v-3.6zm14.4 0h3.6v3.6h-3.6v-3.6zm14.4 0h3.6v3.6H36v-3.6zm3.6 0h3.6v3.6h-3.6v-3.6zm18 0h3.6v3.6h-3.6v-3.6zm3.6 0h3.6v3.6h-3.6v-3.6zm3.6 0h3.6v3.6h-3.6v-3.6zm3.6 0H72v3.6h-3.6v-3.6zm3.6 0h3.6v3.6H72v-3.6zm7.2 0h3.6v3.6h-3.6v-3.6zm-50.4 3.6h3.6v3.6h-3.6v-3.6zm7.2 0h3.6v3.6H36v-3.6zm7.2 0h3.6v3.6h-3.6v-3.6zm3.6 0h3.6v3.6h-3.6v-3.6zm3.6 0H54v3.6h-3.6v-3.6zm3.6 0h3.6v3.6H54v-3.6zm3.6 0h3.6v3.6h-3.6v-3.6zm14.4 0h3.6v3.6H72v-3.6zm3.6 0h3.6v3.6h-3.6v-3.6zM0 64.8h3.6v3.6H0v-3.6zm3.6 0h3.6v3.6H3.6v-3.6zm3.6 0h3.6v3.6H7.2v-3.6zm3.6 0h3.6v3.6h-3.6v-3.6zm3.6 0H18v3.6h-3.6v-3.6zm3.6 0h3.6v3.6H18v-3.6zm3.6 0h3.6v3.6h-3.6v-3.6zm7.2 0h3.6v3.6h-3.6v-3.6zm3.6 0H36v3.6h-3.6v-3.6zm3.6 0h3.6v3.6H36v-3.6zm10.8 0h3.6v3.6h-3.6v-3.6zm3.6 0H54v3.6h-3.6v-3.6zm7.2 0h3.6v3.6h-3.6v-3.6zm7.2 0h3.6v3.6h-3.6v-3.6zm7.2 0h3.6v3.6H72v-3.6zm7.2 0h3.6v3.6h-3.6v-3.6zm3.6 0h3.6v3.6h-3.6v-3.6zm3.6 0H90v3.6h-3.6v-3.6zM0 68.4h3.6V72H0v-3.6zm21.6 0h3.6V72h-3.6v-3.6zm10.8 0H36V72h-3.6v-3.6zm3.6 0h3.6V72H36v-3.6zm7.2 0h3.6V72h-3.6v-3.6zm3.6 0h3.6V72h-3.6v-3.6zm7.2 0h3.6V72H54v-3.6zm3.6 0h3.6V72h-3.6v-3.6zm14.4 0h3.6V72H72v-3.6zm3.6 0h3.6V72h-3.6v-3.6zm7.2 0h3.6V72h-3.6v-3.6zM0 72h3.6v3.6H0V72zm7.2 0h3.6v3.6H7.2V72zm3.6 0h3.6v3.6h-3.6V72zm3.6 0H18v3.6h-3.6V72zm7.2 0h3.6v3.6h-3.6V72zm7.2 0h3.6v3.6h-3.6V72zm3.6 0H36v3.6h-3.6V72zm10.8 0h3.6v3.6h-3.6V72zm7.2 0H54v3.6h-3.6V72zm3.6 0h3.6v3.6H54V72zm3.6 0h3.6v3.6h-3.6V72zm3.6 0h3.6v3.6h-3.6V72zm3.6 0h3.6v3.6h-3.6V72zm3.6 0H72v3.6h-3.6V72zm3.6 0h3.6v3.6H72V72zm7.2 0h3.6v3.6h-3.6V72zm7.2 0H90v3.6h-3.6V72zM0 75.6h3.6v3.6H0v-3.6zm7.2 0h3.6v3.6H7.2v-3.6zm3.6 0h3.6v3.6h-3.6v-3.6zm3.6 0H18v3.6h-3.6v-3.6zm7.2 0h3.6v3.6h-3.6v-3.6zm7.2 0h3.6v3.6h-3.6v-3.6zm7.2 0h3.6v3.6H36v-3.6zm18 0h3.6v3.6H54v-3.6zm3.6 0h3.6v3.6h-3.6v-3.6zm3.6 0h3.6v3.6h-3.6v-3.6zm3.6 0h3.6v3.6h-3.6v-3.6zm7.2 0h3.6v3.6H72v-3.6zm3.6 0h3.6v3.6h-3.6v-3.6zm3.6 0h3.6v3.6h-3.6v-3.6zm3.6 0h3.6v3.6h-3.6v-3.6zm3.6 0H90v3.6h-3.6v-3.6zM0 79.2h3.6v3.6H0v-3.6zm7.2 0h3.6v3.6H7.2v-3.6zm3.6 0h3.6v3.6h-3.6v-3.6zm3.6 0H18v3.6h-3.6v-3.6zm7.2 0h3.6v3.6h-3.6v-3.6zm7.2 0h3.6v3.6h-3.6v-3.6zm3.6 0H36v3.6h-3.6v-3.6zm7.2 0h3.6v3.6h-3.6v-3.6zm3.6 0h3.6v3.6h-3.6v-3.6zm10.8 0h3.6v3.6H54v-3.6zm21.6 0h3.6v3.6h-3.6v-3.6zm3.6 0h3.6v3.6h-3.6v-3.6zm7.2 0H90v3.6h-3.6v-3.6zM0 82.8h3.6v3.6H0v-3.6zm21.6 0h3.6v3.6h-3.6v-3.6zm7.2 0h3.6v3.6h-3.6v-3.6zm7.2 0h3.6v3.6H36v-3.6zm3.6 0h3.6v3.6h-3.6v-3.6zm10.8 0H54v3.6h-3.6v-3.6zm7.2 0h3.6v3.6h-3.6v-3.6zm3.6 0h3.6v3.6h-3.6v-3.6zm3.6 0h3.6v3.6h-3.6v-3.6zm3.6 0H72v3.6h-3.6v-3.6zm3.6 0h3.6v3.6H72v-3.6zm3.6 0h3.6v3.6h-3.6v-3.6zm10.8 0H90v3.6h-3.6v-3.6zM0 86.4h3.6V90H0v-3.6zm3.6 0h3.6V90H3.6v-3.6zm3.6 0h3.6V90H7.2v-3.6zm3.6 0h3.6V90h-3.6v-3.6zm3.6 0H18V90h-3.6v-3.6zm3.6 0h3.6V90H18v-3.6zm3.6 0h3.6V90h-3.6v-3.6zm7.2 0h3.6V90h-3.6v-3.6zm7.2 0h3.6V90H36v-3.6zm3.6 0h3.6V90h-3.6v-3.6zm14.4 0h3.6V90H54v-3.6zm7.2 0h3.6V90h-3.6v-3.6zm3.6 0h3.6V90h-3.6v-3.6zm3.6 0H72V90h-3.6v-3.6zm3.6 0h3.6V90H72v-3.6zm3.6 0h3.6V90h-3.6v-3.6zm3.6 0h3.6V90h-3.6v-3.6zm3.6 0h3.6V90h-3.6v-3.6zm3.6 0H90V90h-3.6v-3.6z"/>
    </g>
</svg>
