<svg width="32" height="32" viewBox="0 0 32 32" fill="none" xmlns="http://www.w3.org/2000/svg">
<g clip-path="url(#clip0_1307_11589)">
<g opacity="0.2">
<rect opacity="0.2" x="4.05" y="4.05" width="23.9" height="23.9" rx="2.95" stroke="black" stroke-width="0.1"/>
<rect opacity="0.2" x="3.05" y="5.05" width="25.9" height="21.9" rx="2.95" stroke="black" stroke-width="0.1"/>
<circle opacity="0.2" cx="16" cy="16" r="12.95" stroke="black" stroke-width="0.1"/>
<circle opacity="0.2" cx="16" cy="16" r="6.95" stroke="black" stroke-width="0.1"/>
<path opacity="0.2" d="M0 32L32 0" stroke="black" stroke-width="0.1"/>
<path opacity="0.2" d="M0 0L32 32" stroke="black" stroke-width="0.1"/>
<rect opacity="0.2" x="5.05" y="3.05" width="21.9" height="25.9" rx="2.95" stroke="black" stroke-width="0.1"/>
</g>
<path fill-rule="evenodd" clip-rule="evenodd" d="M14.6212 3H17.3788C18.9018 3 20.1364 4.16406 20.1364 5.6C20.1364 7.24323 21.8945 8.28794 23.3378 7.5023L23.4844 7.42251C24.8033 6.70454 26.4898 7.13062 27.2513 8.37418L28.6301 10.6258C29.3916 11.8694 28.9397 13.4595 27.6207 14.1775C26.1768 14.9635 26.1768 17.0365 27.6207 17.8225C28.9397 18.5405 29.3916 20.1306 28.6301 21.3742L27.2513 23.6258C26.4898 24.8694 24.8033 25.2955 23.4844 24.5775L23.3378 24.4977C21.8945 23.7121 20.1364 24.7568 20.1364 26.4C20.1364 27.8359 18.9018 29 17.3788 29H14.6212C13.0982 29 11.8636 27.8359 11.8636 26.4C11.8636 24.7568 10.1055 23.7121 8.66222 24.4977L8.51563 24.5775C7.1967 25.2955 5.51019 24.8694 4.7487 23.6258L3.36991 21.3742C2.60842 20.1306 3.06032 18.5405 4.37925 17.8225C5.82318 17.0365 5.82318 14.9635 4.37926 14.1775C3.06032 13.4595 2.60842 11.8694 3.36991 10.6258L4.7487 8.37416C5.51019 7.1306 7.1967 6.70452 8.51563 7.42249L8.66222 7.50229C10.1055 8.28793 11.8636 7.24322 11.8636 5.6C11.8636 4.16406 13.0982 3 14.6212 3ZM16 20.3333C18.3932 20.3333 20.3333 18.3932 20.3333 16C20.3333 13.6068 18.3932 11.6667 16 11.6667C13.6068 11.6667 11.6667 13.6068 11.6667 16C11.6667 18.3932 13.6068 20.3333 16 20.3333Z" fill="#C8CAD0"/>
</g>
<defs>
<clipPath id="clip0_1307_11589">
<rect width="32" height="32" fill="white"/>
</clipPath>
</defs>
</svg>
