<svg width="32" height="32" viewBox="0 0 32 32" fill="none" xmlns="http://www.w3.org/2000/svg">
<circle cx="25.3334" cy="8" r="4" fill="#C8CAD0"/>
<circle cx="6.66663" cy="8" r="4" fill="#C8CAD0"/>
<path d="M26.6667 29.3333C26.6667 27.9326 26.3908 26.5455 25.8548 25.2514C25.3187 23.9572 24.533 22.7814 23.5425 21.7909C22.552 20.8004 21.3761 20.0147 20.082 19.4786C18.7879 18.9426 17.4008 18.6667 16 18.6667C14.5993 18.6667 13.2122 18.9426 11.9181 19.4786C10.6239 20.0147 9.44806 20.8004 8.45757 21.7909C7.46708 22.7814 6.68138 23.9572 6.14533 25.2514C5.60928 26.5455 5.33337 27.9326 5.33337 29.3333L26.6667 29.3333Z" fill="#C8CAD0"/>
<path d="M6.66663 13.3333C7.5712 13.3333 8.47005 13.4484 9.34186 13.6743C9.40716 14.9707 9.84279 16.1694 10.5451 17.1669C9.06614 17.83 7.71946 18.7576 6.57187 19.9052C5.49689 20.9802 4.61488 22.2299 3.96255 23.5993C3.84752 23.8408 3.60684 24 3.33935 24C2.96782 24 2.66663 23.6988 2.66663 23.3273V14.1117C3.93729 13.5977 5.29538 13.3333 6.66663 13.3333Z" fill="#C8CAD0"/>
<path d="M25.2376 24H6.76235C7.22744 23.1944 7.79692 22.4514 8.45749 21.7909C9.44798 20.8004 10.6239 20.0147 11.918 19.4786C12.1982 19.3626 12.4828 19.2587 12.7709 19.1672C13.7275 19.6978 14.8285 20 16 20C17.1715 20 18.2724 19.6978 19.229 19.1672C19.5172 19.2587 19.8017 19.3625 20.0819 19.4786C21.3761 20.0147 22.5519 20.8004 23.5424 21.7909C24.203 22.4514 24.7725 23.1944 25.2376 24Z" fill="#C8CAD0"/>
<path d="M28.0374 23.5993C28.1524 23.8408 28.3931 24 28.6606 24C29.0321 24 29.3333 23.6988 29.3333 23.3273V14.1117C28.0626 13.5977 26.7045 13.3333 25.3333 13.3333C24.4287 13.3333 23.5299 13.4484 22.6581 13.6743C22.5928 14.9707 22.1571 16.1694 21.4548 17.1669C22.9338 17.83 24.2805 18.7576 25.428 19.9052C26.503 20.9802 27.385 22.2299 28.0374 23.5993Z" fill="#C8CAD0"/>
<path d="M18.7074 16.2778C19.1032 15.9137 19.4253 15.4708 19.649 14.9741C19.0963 15.3222 18.5758 15.7209 18.0946 16.1656C18.2997 16.1982 18.5041 16.2356 18.7074 16.2778Z" fill="#C8CAD0"/>
<path d="M13.9054 16.1656C13.4241 15.7209 12.9037 15.3222 12.3509 14.9741C12.5746 15.4708 12.8967 15.9137 13.2925 16.2778C13.4959 16.2356 13.7002 16.1982 13.9054 16.1656Z" fill="#C8CAD0"/>
<path d="M20 13.3333C20 15.5425 18.2091 17.3333 16 17.3333C13.7909 17.3333 12 15.5425 12 13.3333C12 11.1242 13.7909 9.33333 16 9.33333C18.2091 9.33333 20 11.1242 20 13.3333Z" fill="#C8CAD0"/>
</svg>
