<svg xmlns="http://www.w3.org/2000/svg" width="28" height="28" viewBox="0 0 28 28">
    <g fill="none" fill-rule="evenodd">
        <g>
            <g>
                <g>
                    <g>
                        <path fill="#FFF" fill-rule="nonzero" d="M14 0C6.268 0 0 6.268 0 14s6.268 14 14 14 14-6.268 14-14S21.732 0 14 0z" transform="translate(-112 -9447) translate(18 9110) translate(60 337) translate(34)"/>
                        <path fill="#000" d="M20.482 11.562c.004.116.007.233.007.35 0 4.222-3.27 8.588-8.744 8.588-1.673 0-3.302-.469-4.71-1.356-.03-.019-.042-.054-.03-.087.011-.032.044-.051.078-.048.237.028.478.042.718.042 1.302 0 2.534-.395 3.576-1.145-1.249-.104-2.323-.934-2.709-2.119-.008-.024-.002-.051.015-.07.018-.02.044-.029.07-.024.346.065.698.069 1.037.015-1.288-.394-2.194-1.58-2.194-2.929v-.039c.001-.026.016-.05.038-.062.023-.013.05-.013.073 0 .336.183.708.3 1.09.346-.741-.58-1.176-1.459-1.176-2.399 0-.542.146-1.075.423-1.541.012-.02.034-.034.059-.036.024-.002.048.008.063.027 1.516 1.825 3.745 2.95 6.129 3.094-.04-.196-.06-.399-.06-.603 0-1.69 1.4-3.066 3.121-3.066.846 0 1.664.341 2.25.938.66-.132 1.29-.37 1.872-.709.026-.015.06-.013.084.006.024.019.034.05.024.08-.197.605-.58 1.132-1.097 1.514.486-.084.958-.224 1.406-.42.03-.013.066-.004.088.02.021.026.023.061.004.088-.408.601-.915 1.12-1.505 1.545z" transform="translate(-112 -9447) translate(18 9110) translate(60 337) translate(34)"/>
                    </g>
                </g>
            </g>
        </g>
    </g>
</svg>
