<svg xmlns="http://www.w3.org/2000/svg" width="28" height="28" viewBox="0 0 28 28">
    <g fill="none" fill-rule="evenodd">
        <g>
            <g>
                <g>
                    <g transform="translate(-180 -9447) translate(18 9110) translate(60 337) translate(102)">
                        <circle cx="14" cy="14" r="14" fill="#FFF"/>
                        <path fill="#000" fill-rule="nonzero" d="M13.601 7.778c1.742.005 3.14 1.43 3.13 3.19-.008 1.72-1.429 3.114-3.168 3.109-1.72-.006-3.132-1.433-3.122-3.157.01-1.742 1.422-3.147 3.16-3.142zm3.528 7.536c-.386.395-.85.681-1.364.881-.487.189-1.02.284-1.548.347.08.087.118.13.167.18.717.72 1.437 1.436 2.15 2.158.244.246.295.552.16.838-.145.312-.473.518-.795.496-.204-.014-.363-.115-.504-.258-.54-.544-1.092-1.078-1.621-1.632-.155-.162-.229-.131-.365.01-.544.56-1.097 1.11-1.653 1.659-.25.246-.547.29-.836.15-.308-.15-.504-.464-.49-.78.012-.213.117-.377.263-.523.71-.708 1.417-1.418 2.124-2.127.047-.047.09-.097.159-.17-.965-.1-1.835-.338-2.58-.92-.092-.073-.188-.143-.272-.224-.326-.313-.359-.672-.1-1.041.22-.316.59-.4.975-.22.075.036.146.08.214.127 1.388.954 3.294.98 4.688.042.138-.105.285-.192.456-.235.333-.086.643.036.821.327.204.333.202.657-.05.915zm-3.54-5.765c-.81 0-1.467.657-1.467 1.466 0 .81.657 1.466 1.466 1.466.81 0 1.466-.656 1.466-1.466 0-.81-.656-1.466-1.466-1.466z"/>
                    </g>
                </g>
            </g>
        </g>
    </g>
</svg>
