<svg xmlns="http://www.w3.org/2000/svg" width="28" height="28" viewBox="0 0 28 28">
    <g fill="none" fill-rule="evenodd">
        <g>
            <g>
                <g>
                    <g transform="translate(-146 -9447) translate(18 9110) translate(60 337) translate(68)">
                        <circle cx="14" cy="14" r="14" fill="#FFF"/>
                        <path fill="#000" fill-rule="nonzero" d="M17.704 15.14c.406.396.836.77 1.2 1.207.162.194.314.394.43.62.166.32.016.673-.271.692h-1.786c-.461.038-.828-.148-1.138-.464-.247-.25-.476-.52-.714-.78-.097-.106-.2-.206-.321-.285-.244-.158-.455-.11-.595.144-.142.26-.174.546-.188.834-.02.42-.146.531-.569.55-.902.043-1.759-.094-2.555-.549-.702-.401-1.246-.968-1.72-1.61-.922-1.25-1.628-2.623-2.263-4.034-.143-.318-.038-.489.312-.495.583-.011 1.166-.01 1.749 0 .237.003.394.139.485.363.315.774.701 1.512 1.185 2.195.129.183.26.364.448.493.207.142.364.095.462-.136.062-.147.09-.304.103-.461.046-.539.052-1.078-.028-1.614-.05-.336-.24-.553-.574-.616-.17-.033-.146-.096-.063-.193.144-.169.28-.273.549-.273h2.017c.318.062.39.205.433.525l.001 2.242c-.003.124.063.492.285.573.179.059.296-.084.403-.197.484-.514.828-1.12 1.137-1.747.136-.276.254-.563.368-.85.085-.211.217-.316.456-.312l1.943.002c.057 0 .116 0 .172.01.328.056.417.197.316.517-.16.502-.47.92-.772 1.339-.325.448-.67.881-.992 1.332-.295.412-.272.62.095.977z"/>
                    </g>
                </g>
            </g>
        </g>
    </g>
</svg>
