<svg xmlns="http://www.w3.org/2000/svg" width="28" height="28" viewBox="0 0 28 28">
    <g fill="none" fill-rule="evenodd">
        <g>
            <g>
                <g>
                    <g transform="translate(-214 -9447) translate(18 9110) translate(60 337) translate(136)">
                        <circle cx="14" cy="14" r="14" fill="#FFF"/>
                        <g fill="#000">
                            <path d="M10.884.172c.652.073 1.193.561 1.345 1.223.217.943.215 1.972.215 2.942 0 .97 0 2-.217 2.942-.153.661-.694 1.15-1.345 1.222-1.323.148-2.66.17-3.993.173h-.667c-1.555 0-3.117 0-4.66-.173C.91 8.43.369 7.941.217 7.28.03 6.47.004 5.599 0 4.756L0 4.337c0-.97.003-2 .22-2.942C.371.734.912.245 1.563.172 2.887.025 4.224.003 5.558 0h.666c1.555 0 3.117 0 4.66.172zM4.616 2.153V6.27l3.957-2.052-3.957-2.064z" transform="translate(7.778 9.852)"/>
                        </g>
                    </g>
                </g>
            </g>
        </g>
    </g>
</svg>
