<svg xmlns="http://www.w3.org/2000/svg" width="32" height="32" viewBox="0 0 32 32">
    <g fill="none" fill-rule="evenodd">
        <g fill="#1F2229">
            <path d="M4.368 4.2c.372-.29.904-.264 1.243.075L16 14.663 26.39 4.275c.338-.339.87-.365 1.242-.075l.09.08c.369.368.372.964.004 1.331L17.337 16l10.39 10.39c.338.339.362.873.073 1.243l-.079.09-.09.078c-.371.29-.903.264-1.242-.074L16 17.337 5.61 27.727c-.338.338-.87.365-1.242.074l-.09-.079c-.369-.369-.372-.965-.004-1.332L14.662 16 4.274 5.611c-.34-.339-.363-.872-.074-1.243l.079-.089z" transform="translate(-651 -85) translate(38 49) translate(613 36)"/>
        </g>
    </g>
</svg>
