<svg width="32" height="26" viewBox="0 0 32 26" fill="none" xmlns="http://www.w3.org/2000/svg">
<path fill-rule="evenodd" clip-rule="evenodd" d="M2.191 11.1903C10.7792 7.54023 16.4964 5.11487 19.3673 3.93821C27.5384 0.600337 29.256 0.0240135 30.3602 0C30.6056 0 31.1454 0.0480273 31.5135 0.336189C31.8079 0.576323 31.8815 0.888499 31.9306 1.12863C31.9797 1.36877 32.0287 1.87305 31.9797 2.25727C31.538 6.81982 29.6241 17.89 28.6426 22.9809C28.2254 25.1421 27.4157 25.8625 26.6305 25.9345C24.9128 26.0786 23.6123 24.8299 21.9683 23.7733C19.3673 22.1164 17.9196 21.0838 15.3922 19.4509C12.4723 17.5779 14.3617 16.5453 16.0302 14.8643C16.4719 14.4321 24.0049 7.70832 24.1522 7.10799C24.1767 7.03595 24.1767 6.74778 24.0049 6.6037C23.8332 6.45962 23.5878 6.50765 23.3915 6.55568C23.1216 6.6037 18.9993 9.29321 10.9755 14.6002C9.79766 15.3926 8.74254 15.7768 7.78558 15.7528C6.73046 15.7288 4.71837 15.1765 3.19704 14.6962C1.35672 14.1199 -0.115539 13.8077 0.00714956 12.7992C0.0807624 12.2709 0.816891 11.7426 2.191 11.1903Z" fill="white"/>
</svg>
