<svg width="32" height="32" viewBox="0 0 32 32" fill="none" xmlns="http://www.w3.org/2000/svg">
<circle cx="16" cy="17.9966" r="3" fill="white"/>
<path d="M15 19.9966H17V23.9966C17 24.5489 16.5523 24.9966 16 24.9966C15.4477 24.9966 15 24.5489 15 23.9966V19.9966Z" fill="white"/>
<path d="M25.067 12.1886C24.1929 12.1433 23.4325 12.6022 23.0949 13.2711V12.4535C23.0949 11.4259 22.1782 10.5955 21.0518 10.5955C20.3056 10.5955 19.6553 10.9606 19.3 11.5003V11.3904C19.3 10.3628 18.3832 9.53234 17.2568 9.53234C16.2797 9.53234 15.4624 10.156 15.2599 10.9929V5.93256C15.2563 4.97929 14.503 4.12297 13.4619 4.00987C12.2218 3.87738 11.17 4.75309 11.17 5.855V16.7707C11.17 16.8967 10.9817 16.9387 10.9177 16.8256L8.89587 13.2161C8.41973 12.2855 7.2045 11.8816 6.18114 12.3178C5.15779 12.7508 4.71363 13.856 5.19332 14.7866L8.67557 23.2238L11.3441 27.6605C11.4685 27.8673 11.7065 27.9966 11.9695 27.9966H24.3848C24.7188 27.9966 25.0066 27.7865 25.0777 27.4893L26.8365 20.1927C26.9431 19.8114 27 19.4204 27 19.0294V14.1242C27 13.1547 26.1365 12.2435 25.0706 12.1886H25.067Z" fill="white"/>
</svg>
