<svg xmlns="http://www.w3.org/2000/svg"
     width="17" height="30" viewBox="0 0 17 30">
   <g fill="#000" fill-rule="nonzero">
      <path d="M15.662 14.177L1.96.339C1.51-.114.784-.113.336.342c-.448.454-.447 1.19.002 1.644L13.225 15 .337 28.014c-.449.453-.45 1.19-.002 1.644.225.228.52.342.814.342.293 0 .586-.113.81-.34l13.703-13.837c.217-.218.338-.514.338-.823 0-.309-.122-.605-.338-.823z" transform="translate(-1161 -5520) translate(162 5056) translate(953 464) translate(46.857)"/>
   </g>
</svg>
