<svg width="202" height="138" viewBox="0 0 202 138" fill="none" xmlns="http://www.w3.org/2000/svg">
<path d="M108.734 97.2559C103.289 97.4237 97.8175 97.385 92.4496 97.2559C60.5657 96.2238 31.9931 93.2305 15.7213 90.534C6.74462 74.4712 1.10505 46.5386 1.10505 46.5386C0.755811 54.2797 0.652391 63.8013 2.61846 72.2649C4.70094 81.1543 9.08577 91.8629 15.0487 105.926C15.0487 105.926 76.7859 116.544 118.927 112.609C115.213 107.708 111.809 102.58 108.734 97.2559Z" fill="#C882FF"/>
<path d="M169.398 67.208C163.668 83.464 149.013 91.2824 131.5 94.7916C137.411 96.9591 139.454 103.823 137.618 109.306C139.247 108.854 140.813 108.364 142.274 107.809C161.818 100.571 167.471 91.1663 169.553 82.1481C169.553 82.1997 169.321 70.0593 169.398 67.208Z" fill="#C882FF"/>
<path d="M121.735 96.6368L121.605 95.3467C138.42 93.6436 150.062 90.0052 156.529 84.522C167.886 74.794 171.352 65.9047 166.877 58.112C162.686 50.8999 151.252 44.5522 135.51 40.6946C122.718 37.5724 108.994 36.6563 103.575 38.5787L102.436 38.9786L102.734 37.8175C105.023 28.6443 102.436 20.413 95.2575 14.0137C81.3269 1.58928 50.9046 -2.53935 30.1574 5.17593C24.0903 7.31105 18.4945 10.5969 13.6787 14.8523L12.7991 13.9105C17.737 9.53631 23.4781 6.15822 29.7048 3.96316C50.84 -3.89404 81.8702 0.350654 96.1242 12.9944C103.393 19.4453 106.187 27.7541 104.234 36.9789C116.82 33.8179 158.327 40.772 168.002 57.4153C172.891 65.8272 169.296 75.2585 157.435 85.4509C150.734 91.1793 138.744 94.9209 121.735 96.6368Z" fill="white"/>
<path d="M97.0808 97.746C57.837 97.746 15.1138 90.8565 14.6482 90.779H14.2989L14.1567 90.4436C2.20505 62.4467 -1.365 47.4676 0.976171 35.1722C1.8455 30.4448 3.6008 25.9233 6.15004 21.8447L7.24945 22.5285C4.78885 26.4774 3.09924 30.855 2.26964 35.4303C0.0190064 47.2483 3.66658 62.5241 15.2043 89.6179C19.822 90.3404 68.7021 97.9009 108.683 96.2881V97.5783C104.919 97.6815 101.013 97.746 97.0808 97.746Z" fill="white"/>
<path d="M131.578 111.448L131.346 110.158C135.227 109.47 139.044 108.455 142.754 107.125C162.35 99.8618 166.89 91.0371 168.856 82.6123V71.5942H170.15V82.7671V82.8316C168.119 91.6822 163.449 100.894 143.22 108.377C139.434 109.728 135.539 110.756 131.578 111.448Z" fill="white"/>
<path d="M98.9299 113.925C59.7896 113.925 15.1652 106.378 14.6478 106.288H14.2985L14.1563 105.965C7.99937 91.5664 4.1836 80.7803 2.13992 72.0327C0.0962432 63.2852 0.225628 53.9055 0.561929 46.7578H1.85539C1.51909 53.8281 1.40262 63.04 3.40749 71.6844C5.41236 80.3287 9.16341 90.9083 15.2039 105.088C20.2613 105.926 78.5838 115.409 118.759 111.861L118.875 113.151C112.576 113.655 105.785 113.925 98.9299 113.925Z" fill="white"/>
<path d="M15.453 89.7217H14.1595V105.539H15.453V89.7217Z" fill="white"/>
<path d="M199.202 111.074L199.073 129.046L181.65 136.168L165.883 128.711L148.602 137.02L118.516 93.2956L118.231 75.8525L148.059 117.512L165.637 110.7L180.822 117.809L199.241 110.223L199.202 111.074Z" fill="white"/>
<path d="M165.882 110.428L148.601 118.815L118.515 75.0903L201.013 93.0497L182.904 102.081L199.9 110.48L181.688 118.002L165.882 110.428Z" fill="black"/>
<path d="M148.888 119.344L148.073 119.124L117.987 75.3996L118.66 74.4062L201.144 92.3657L201.299 93.5784L184.329 101.991L200.213 109.783V110.957L182.014 118.479H181.483L165.962 111.138L148.888 119.344ZM120.018 76.0061L148.862 117.937L165.677 109.848H166.246L181.768 117.202L198.389 110.338L182.673 102.597V101.436L199.165 93.2559L120.018 76.0061Z" fill="white"/>
<path d="M148.885 137.549L148.07 137.343L117.997 93.6053L117.88 93.244V75.0396H119.174V93.0377L148.82 136.156L165.609 128.079H166.166L181.674 135.407L198.438 128.556L198.567 111.023L199.86 111.036L199.718 128.995L199.317 129.589L181.907 136.71L181.377 136.698L165.894 129.382L148.885 137.549Z" fill="white"/>
<path d="M201.105 92.2114H199.811V105.772H201.105V92.2114Z" fill="white"/>
<path d="M182.258 118.557H180.964V137.084H182.258V118.557Z" fill="black"/>
<path d="M166.733 108.583H165.439V129.769H166.733V108.583Z" fill="black"/>
<path d="M149.416 119.176H148.122V138H149.416V119.176Z" fill="black"/>
</svg>
