<svg width="1115" height="327" viewBox="0 0 1115 327" fill="none" xmlns="http://www.w3.org/2000/svg">
<path d="M7.33 291.75H17.457V306H14.683V294.277H10.104V306H7.33V291.75ZM24.0662 306.19C23.4075 306.19 22.7932 306.082 22.2232 305.867C21.6532 305.639 21.1592 305.316 20.7412 304.898C20.3232 304.467 19.9938 303.948 19.7532 303.34C19.5125 302.719 19.3922 302.01 19.3922 301.212C19.3922 300.414 19.5125 299.705 19.7532 299.084C19.9938 298.463 20.3232 297.938 20.7412 297.507C21.1592 297.064 21.6532 296.728 22.2232 296.5C22.7932 296.272 23.4075 296.158 24.0662 296.158C24.7248 296.158 25.3392 296.272 25.9092 296.5C26.4792 296.728 26.9732 297.057 27.3912 297.488C27.8218 297.919 28.1575 298.444 28.3982 299.065C28.6388 299.686 28.7592 300.395 28.7592 301.193C28.7592 301.991 28.6388 302.7 28.3982 303.321C28.1575 303.929 27.8282 304.448 27.4102 304.879C26.9922 305.31 26.4918 305.639 25.9092 305.867C25.3392 306.082 24.7248 306.19 24.0662 306.19ZM24.0662 303.758C24.3322 303.758 24.5792 303.714 24.8072 303.625C25.0478 303.524 25.2505 303.372 25.4152 303.169C25.5925 302.966 25.7318 302.707 25.8332 302.39C25.9345 302.061 25.9852 301.662 25.9852 301.193C25.9852 300.724 25.9345 300.325 25.8332 299.996C25.7318 299.667 25.5925 299.401 25.4152 299.198C25.2378 298.983 25.0352 298.831 24.8072 298.742C24.5792 298.641 24.3322 298.59 24.0662 298.59C23.5342 298.59 23.0845 298.793 22.7172 299.198C22.3625 299.591 22.1852 300.262 22.1852 301.212C22.1852 302.137 22.3625 302.795 22.7172 303.188C23.0845 303.568 23.5342 303.758 24.0662 303.758ZM35.6198 303.644V298.723H33.6248C33.6248 299.04 33.6058 299.42 33.5678 299.863C33.5298 300.306 33.4665 300.762 33.3778 301.231C33.3018 301.7 33.1941 302.149 33.0548 302.58C32.9281 303.011 32.7635 303.365 32.5608 303.644H35.6198ZM31.5538 308.508H29.1408V303.644H29.9578C30.2365 303.353 30.4708 302.973 30.6608 302.504C30.8508 302.035 31.0028 301.491 31.1168 300.87C31.2308 300.237 31.3131 299.54 31.3638 298.78C31.4145 298.02 31.4461 297.209 31.4588 296.348H38.3178V303.644H39.7998V308.508H37.4058L37.2158 306H31.7438L31.5538 308.508ZM44.4992 303.948C44.7019 303.948 44.9045 303.91 45.1072 303.834C45.3099 303.758 45.4935 303.638 45.6582 303.473C45.8229 303.308 45.9495 303.106 46.0382 302.865C46.1395 302.624 46.1902 302.339 46.1902 302.01V301.668C45.2402 301.668 44.5245 301.757 44.0432 301.934C43.5619 302.111 43.3212 302.434 43.3212 302.903C43.3212 303.207 43.4225 303.46 43.6252 303.663C43.8405 303.853 44.1319 303.948 44.4992 303.948ZM43.3782 306.19C42.5042 306.19 41.8265 305.937 41.3452 305.43C40.8639 304.923 40.6232 304.252 40.6232 303.416C40.6232 302.884 40.7182 302.422 40.9082 302.029C41.1109 301.624 41.4339 301.282 41.8772 301.003C42.3205 300.724 42.8905 300.515 43.5872 300.376C44.2965 300.237 45.1642 300.167 46.1902 300.167V299.749C46.1902 299.331 46.0509 299.008 45.7722 298.78C45.4935 298.552 45.0629 298.438 44.4802 298.438C43.8975 298.438 43.3402 298.501 42.8082 298.628C42.2889 298.755 41.7885 298.964 41.3072 299.255V296.88C41.7759 296.627 42.3015 296.443 42.8842 296.329C43.4669 296.215 44.0812 296.158 44.7272 296.158C46.1459 296.158 47.1909 296.468 47.8622 297.089C48.5335 297.71 48.8692 298.615 48.8692 299.806V306H46.2852V304.499H46.1522C46.0255 304.727 45.8862 304.949 45.7342 305.164C45.5822 305.367 45.3922 305.544 45.1642 305.696C44.9489 305.848 44.6955 305.968 44.4042 306.057C44.1129 306.146 43.7709 306.19 43.3782 306.19ZM50.9463 296.348H53.6253V301.782H53.7773L56.8933 296.348H59.3633V306H56.6843V300.547H56.5513L53.3973 306H50.9463V296.348ZM55.0883 295.417C54.6703 295.417 54.2586 295.373 53.8533 295.284C53.4606 295.183 53.1059 295.012 52.7893 294.771C52.4726 294.518 52.2129 294.182 52.0103 293.764C51.8203 293.346 51.7253 292.814 51.7253 292.168H54.0623C54.0623 292.535 54.1319 292.827 54.2713 293.042C54.4106 293.257 54.6829 293.365 55.0883 293.365C55.4683 293.365 55.7343 293.257 55.8863 293.042C56.0383 292.827 56.1143 292.535 56.1143 292.168H58.4513C58.4513 292.814 58.3499 293.346 58.1473 293.764C57.9573 294.182 57.7039 294.518 57.3873 294.771C57.0706 295.012 56.7096 295.183 56.3043 295.284C55.9116 295.373 55.5063 295.417 55.0883 295.417ZM63.2705 298.704H60.6295V296.348H68.5905V298.704H65.9305V306H63.2705V298.704ZM74.2275 306.19C72.6315 306.19 71.3965 305.785 70.5225 304.974C69.6485 304.151 69.2115 302.897 69.2115 301.212C69.2115 300.427 69.3128 299.724 69.5155 299.103C69.7308 298.482 70.0285 297.957 70.4085 297.526C70.8012 297.083 71.2762 296.747 71.8335 296.519C72.3908 296.278 73.0115 296.158 73.6955 296.158C74.2908 296.158 74.8355 296.24 75.3295 296.405C75.8362 296.57 76.2668 296.817 76.6215 297.146C76.9888 297.475 77.2675 297.887 77.4575 298.381C77.6602 298.875 77.7615 299.458 77.7615 300.129C77.7615 300.471 77.7362 300.781 77.6855 301.06C77.6475 301.339 77.6095 301.541 77.5715 301.668H72.1375C72.1882 302.39 72.3972 302.941 72.7645 303.321C73.1445 303.688 73.7082 303.872 74.4555 303.872C74.9875 303.872 75.5005 303.821 75.9945 303.72C76.5012 303.606 76.9572 303.422 77.3625 303.169V305.468C77.0332 305.683 76.5898 305.861 76.0325 306C75.4878 306.127 74.8862 306.19 74.2275 306.19ZM75.1965 300.072C75.1712 299.477 75.0192 299.027 74.7405 298.723C74.4745 298.406 74.1008 298.248 73.6195 298.248C73.1128 298.248 72.7328 298.419 72.4795 298.761C72.2388 299.09 72.0868 299.527 72.0235 300.072H75.1965ZM86.9897 306.19C86.7364 306.19 86.4704 306.177 86.1917 306.152C85.9131 306.127 85.6344 306.089 85.3557 306.038C85.0897 305.987 84.8237 305.924 84.5577 305.848C84.2917 305.759 84.0574 305.652 83.8547 305.525V303.207C84.7794 303.777 85.7421 304.062 86.7427 304.062C87.7054 304.062 88.1867 303.726 88.1867 303.055C88.1867 302.726 88.0664 302.491 87.8257 302.352C87.5851 302.2 87.2557 302.124 86.8377 302.124H85.2607V300.053H86.7047C87.0974 300.053 87.3824 299.977 87.5597 299.825C87.7371 299.673 87.8257 299.47 87.8257 299.217C87.8257 298.888 87.7054 298.653 87.4647 298.514C87.2241 298.375 86.8821 298.305 86.4387 298.305C85.9827 298.305 85.5584 298.362 85.1657 298.476C84.7857 298.577 84.3931 298.755 83.9877 299.008V296.709C84.3804 296.532 84.8237 296.399 85.3177 296.31C85.8244 296.209 86.3311 296.158 86.8377 296.158C87.4964 296.158 88.0537 296.221 88.5097 296.348C88.9657 296.475 89.3394 296.652 89.6307 296.88C89.9221 297.095 90.1311 297.355 90.2577 297.659C90.3971 297.963 90.4667 298.292 90.4667 298.647C90.4667 299.128 90.3527 299.565 90.1247 299.958C89.8967 300.338 89.4787 300.629 88.8707 300.832V300.965C89.5167 301.117 90.0044 301.402 90.3337 301.82C90.6631 302.225 90.8277 302.745 90.8277 303.378C90.8277 303.733 90.7644 304.081 90.6377 304.423C90.5237 304.752 90.3211 305.05 90.0297 305.316C89.7384 305.582 89.3457 305.797 88.8517 305.962C88.3577 306.114 87.7371 306.19 86.9897 306.19ZM96.0627 303.948C96.2653 303.948 96.468 303.91 96.6707 303.834C96.8733 303.758 97.057 303.638 97.2217 303.473C97.3863 303.308 97.513 303.106 97.6017 302.865C97.703 302.624 97.7537 302.339 97.7537 302.01V301.668C96.8037 301.668 96.088 301.757 95.6067 301.934C95.1253 302.111 94.8847 302.434 94.8847 302.903C94.8847 303.207 94.986 303.46 95.1887 303.663C95.404 303.853 95.6953 303.948 96.0627 303.948ZM94.9417 306.19C94.0677 306.19 93.39 305.937 92.9087 305.43C92.4273 304.923 92.1867 304.252 92.1867 303.416C92.1867 302.884 92.2817 302.422 92.4717 302.029C92.6743 301.624 92.9973 301.282 93.4407 301.003C93.884 300.724 94.454 300.515 95.1507 300.376C95.86 300.237 96.7277 300.167 97.7537 300.167V299.749C97.7537 299.331 97.6143 299.008 97.3357 298.78C97.057 298.552 96.6263 298.438 96.0437 298.438C95.461 298.438 94.9037 298.501 94.3717 298.628C93.8523 298.755 93.352 298.964 92.8707 299.255V296.88C93.3393 296.627 93.865 296.443 94.4477 296.329C95.0303 296.215 95.6447 296.158 96.2907 296.158C97.7093 296.158 98.7543 296.468 99.4257 297.089C100.097 297.71 100.433 298.615 100.433 299.806V306H97.8487V304.499H97.7157C97.589 304.727 97.4497 304.949 97.2977 305.164C97.1457 305.367 96.9557 305.544 96.7277 305.696C96.5123 305.848 96.259 305.968 95.9677 306.057C95.6763 306.146 95.3343 306.19 94.9417 306.19ZM107.507 301.079V298.457H106.5C106.006 298.457 105.638 298.596 105.398 298.875C105.157 299.141 105.037 299.439 105.037 299.768C105.037 300.11 105.157 300.414 105.398 300.68C105.638 300.946 106.006 301.079 106.5 301.079H107.507ZM106.975 303.036L104.828 306H101.826L104.372 302.447C103.7 302.232 103.181 301.883 102.814 301.402C102.446 300.908 102.263 300.294 102.263 299.559C102.263 299.192 102.326 298.818 102.453 298.438C102.592 298.058 102.814 297.716 103.118 297.412C103.422 297.095 103.814 296.842 104.296 296.652C104.79 296.449 105.385 296.348 106.082 296.348H110.205V306H107.507V303.036H106.975ZM112.362 296.348H116.048C116.808 296.348 117.448 296.411 117.967 296.538C118.487 296.652 118.905 296.817 119.221 297.032C119.551 297.247 119.785 297.507 119.924 297.811C120.064 298.115 120.133 298.451 120.133 298.818C120.133 299.401 119.975 299.863 119.658 300.205C119.342 300.534 118.917 300.756 118.385 300.87V301.003C119.044 301.104 119.557 301.351 119.924 301.744C120.304 302.124 120.494 302.624 120.494 303.245C120.494 303.625 120.431 303.98 120.304 304.309C120.178 304.638 119.962 304.93 119.658 305.183C119.354 305.436 118.943 305.639 118.423 305.791C117.917 305.93 117.283 306 116.523 306H112.362V296.348ZM115.972 300.148C116.454 300.148 116.802 300.053 117.017 299.863C117.233 299.673 117.34 299.432 117.34 299.141C117.34 298.85 117.22 298.628 116.979 298.476C116.751 298.311 116.416 298.229 115.972 298.229H115.041V300.148H115.972ZM116.276 304.138C116.72 304.138 117.068 304.049 117.321 303.872C117.587 303.682 117.72 303.416 117.72 303.074C117.72 302.707 117.587 302.434 117.321 302.257C117.068 302.08 116.72 301.991 116.276 301.991H115.041V304.138H116.276ZM124.912 306H122.233V296.348H124.912V300.243L125.425 300.148L128.028 296.348H130.669L127.705 300.68L130.878 306H127.705L125.444 302.333L124.912 302.485V306ZM132.756 310.75L134.314 306.152L130.742 296.348H133.554L135.587 302.352H135.72L137.639 296.348H140.185L135.302 310.75H132.756Z" fill="#1F2229"/>
<path d="M253.061 179V164.75H257.64C258.451 164.75 259.147 164.845 259.73 165.035C260.313 165.212 260.794 165.466 261.174 165.795C261.554 166.112 261.833 166.498 262.01 166.954C262.187 167.397 262.276 167.891 262.276 168.436C262.276 169.158 262.086 169.772 261.706 170.279C261.326 170.773 260.8 171.147 260.129 171.4V171.533C260.965 171.71 261.617 172.084 262.086 172.654C262.567 173.211 262.808 173.927 262.808 174.801C262.808 175.396 262.719 175.954 262.542 176.473C262.365 176.98 262.08 177.423 261.687 177.803C261.294 178.17 260.788 178.462 260.167 178.677C259.546 178.892 258.793 179 257.906 179H253.061ZM257.317 170.526C257.9 170.526 258.387 170.393 258.78 170.127C259.185 169.848 259.388 169.392 259.388 168.759C259.388 168.455 259.331 168.202 259.217 167.999C259.116 167.784 258.97 167.613 258.78 167.486C258.603 167.359 258.387 167.271 258.134 167.22C257.881 167.157 257.608 167.125 257.317 167.125H255.835V170.526H257.317ZM257.583 176.625C257.9 176.625 258.197 176.6 258.476 176.549C258.767 176.486 259.021 176.384 259.236 176.245C259.451 176.093 259.616 175.903 259.73 175.675C259.857 175.434 259.92 175.13 259.92 174.763C259.92 174.383 259.85 174.073 259.711 173.832C259.584 173.591 259.413 173.401 259.198 173.262C258.983 173.11 258.729 173.009 258.438 172.958C258.147 172.895 257.849 172.863 257.545 172.863H255.835V176.625H257.583ZM264.652 169.348H267.331V172.122H268.281C269.041 172.122 269.687 172.211 270.219 172.388C270.764 172.553 271.213 172.787 271.568 173.091C271.923 173.382 272.182 173.737 272.347 174.155C272.512 174.56 272.594 175.004 272.594 175.485C272.594 175.979 272.512 176.441 272.347 176.872C272.182 177.303 271.923 177.676 271.568 177.993C271.213 178.297 270.764 178.544 270.219 178.734C269.687 178.911 269.041 179 268.281 179H264.652V169.348ZM268.224 176.872C268.794 176.872 269.199 176.745 269.44 176.492C269.693 176.239 269.82 175.928 269.82 175.561C269.82 175.181 269.693 174.871 269.44 174.63C269.199 174.389 268.794 174.269 268.224 174.269H267.331V176.872H268.224ZM273.411 169.348H276.09V179H273.411V169.348ZM283.819 171.704H280.95V179H278.271V169.348H286.498V179H283.819V171.704ZM292.861 179.19C292.202 179.19 291.588 179.082 291.018 178.867C290.448 178.639 289.954 178.316 289.536 177.898C289.118 177.467 288.788 176.948 288.548 176.34C288.307 175.719 288.187 175.01 288.187 174.212C288.187 173.414 288.307 172.705 288.548 172.084C288.788 171.463 289.118 170.938 289.536 170.507C289.954 170.064 290.448 169.728 291.018 169.5C291.588 169.272 292.202 169.158 292.861 169.158C293.519 169.158 294.134 169.272 294.704 169.5C295.274 169.728 295.768 170.057 296.186 170.488C296.616 170.919 296.952 171.444 297.193 172.065C297.433 172.686 297.554 173.395 297.554 174.193C297.554 174.991 297.433 175.7 297.193 176.321C296.952 176.929 296.623 177.448 296.205 177.879C295.787 178.31 295.286 178.639 294.704 178.867C294.134 179.082 293.519 179.19 292.861 179.19ZM292.861 176.758C293.127 176.758 293.374 176.714 293.602 176.625C293.842 176.524 294.045 176.372 294.21 176.169C294.387 175.966 294.526 175.707 294.628 175.39C294.729 175.061 294.78 174.662 294.78 174.193C294.78 173.724 294.729 173.325 294.628 172.996C294.526 172.667 294.387 172.401 294.21 172.198C294.032 171.983 293.83 171.831 293.602 171.742C293.374 171.641 293.127 171.59 292.861 171.59C292.329 171.59 291.879 171.793 291.512 172.198C291.157 172.591 290.98 173.262 290.98 174.212C290.98 175.137 291.157 175.795 291.512 176.188C291.879 176.568 292.329 176.758 292.861 176.758ZM298.98 179.171C298.664 179.171 298.423 179.152 298.258 179.114C298.157 179.101 298.068 179.082 297.992 179.057V176.625C298.03 176.638 298.075 176.65 298.125 176.663C298.163 176.676 298.208 176.682 298.258 176.682C298.309 176.682 298.36 176.682 298.41 176.682C298.765 176.682 299.05 176.536 299.265 176.245C299.481 175.954 299.645 175.51 299.759 174.915C299.886 174.307 299.968 173.547 300.006 172.635C300.057 171.71 300.082 170.615 300.082 169.348H307.093V179H304.395V171.704H302.362C302.362 172.743 302.318 173.718 302.229 174.63C302.153 175.529 301.995 176.321 301.754 177.005C301.514 177.676 301.172 178.208 300.728 178.601C300.285 178.981 299.702 179.171 298.98 179.171ZM314.995 175.219H311.936V179H309.257V169.348H311.936V172.863H314.995V169.348H317.674V179H314.995V175.219ZM319.833 169.348H322.512V174.782H322.664L325.78 169.348H328.25V179H325.571V173.547H325.438L322.284 179H319.833V169.348ZM332.158 171.704H329.517V169.348H337.478V171.704H334.818V179H332.158V171.704ZM343.115 179.19C341.519 179.19 340.284 178.785 339.41 177.974C338.536 177.151 338.099 175.897 338.099 174.212C338.099 173.427 338.2 172.724 338.403 172.103C338.618 171.482 338.916 170.957 339.296 170.526C339.688 170.083 340.163 169.747 340.721 169.519C341.278 169.278 341.899 169.158 342.583 169.158C343.178 169.158 343.723 169.24 344.217 169.405C344.723 169.57 345.154 169.817 345.509 170.146C345.876 170.475 346.155 170.887 346.345 171.381C346.547 171.875 346.649 172.458 346.649 173.129C346.649 173.471 346.623 173.781 346.573 174.06C346.535 174.339 346.497 174.541 346.459 174.668H341.025C341.075 175.39 341.284 175.941 341.652 176.321C342.032 176.688 342.595 176.872 343.343 176.872C343.875 176.872 344.388 176.821 344.882 176.72C345.388 176.606 345.844 176.422 346.25 176.169V178.468C345.92 178.683 345.477 178.861 344.92 179C344.375 179.127 343.773 179.19 343.115 179.19ZM344.084 173.072C344.058 172.477 343.906 172.027 343.628 171.723C343.362 171.406 342.988 171.248 342.507 171.248C342 171.248 341.62 171.419 341.367 171.761C341.126 172.09 340.974 172.527 340.911 173.072H344.084ZM227.352 192.704H224.711V190.348H232.672V192.704H230.012V200H227.352V192.704ZM238.309 200.19C236.713 200.19 235.478 199.785 234.604 198.974C233.73 198.151 233.293 196.897 233.293 195.212C233.293 194.427 233.394 193.724 233.597 193.103C233.812 192.482 234.11 191.957 234.49 191.526C234.882 191.083 235.357 190.747 235.915 190.519C236.472 190.278 237.093 190.158 237.777 190.158C238.372 190.158 238.917 190.24 239.411 190.405C239.917 190.57 240.348 190.817 240.703 191.146C241.07 191.475 241.349 191.887 241.539 192.381C241.741 192.875 241.843 193.458 241.843 194.129C241.843 194.471 241.817 194.781 241.767 195.06C241.729 195.339 241.691 195.541 241.653 195.668H236.219C236.269 196.39 236.478 196.941 236.846 197.321C237.226 197.688 237.789 197.872 238.537 197.872C239.069 197.872 239.582 197.821 240.076 197.72C240.582 197.606 241.038 197.422 241.444 197.169V199.468C241.114 199.683 240.671 199.861 240.114 200C239.569 200.127 238.967 200.19 238.309 200.19ZM239.278 194.072C239.252 193.477 239.1 193.027 238.822 192.723C238.556 192.406 238.182 192.248 237.701 192.248C237.194 192.248 236.814 192.419 236.561 192.761C236.32 193.09 236.168 193.527 236.105 194.072H239.278ZM247.897 200.19C246.352 200.19 245.161 199.759 244.325 198.898C243.489 198.024 243.071 196.795 243.071 195.212C243.071 194.427 243.185 193.724 243.413 193.103C243.654 192.482 243.983 191.957 244.401 191.526C244.819 191.083 245.319 190.747 245.902 190.519C246.485 190.278 247.124 190.158 247.821 190.158C248.302 190.158 248.727 190.196 249.094 190.272C249.474 190.335 249.822 190.456 250.139 190.633V193.217C249.848 193.014 249.525 192.875 249.17 192.799C248.828 192.71 248.486 192.666 248.144 192.666C247.46 192.666 246.909 192.875 246.491 193.293C246.073 193.698 245.864 194.338 245.864 195.212C245.864 196.086 246.073 196.719 246.491 197.112C246.922 197.505 247.492 197.701 248.201 197.701C248.556 197.701 248.91 197.657 249.265 197.568C249.632 197.467 249.943 197.308 250.196 197.093V199.715C250.019 199.842 249.715 199.949 249.284 200.038C248.866 200.139 248.404 200.19 247.897 200.19ZM253.662 192.704H251.021V190.348H258.982V192.704H256.322V200H253.662V192.704ZM264.277 200.19C263.618 200.19 263.004 200.082 262.434 199.867C261.864 199.639 261.37 199.316 260.952 198.898C260.534 198.467 260.205 197.948 259.964 197.34C259.723 196.719 259.603 196.01 259.603 195.212C259.603 194.414 259.723 193.705 259.964 193.084C260.205 192.463 260.534 191.938 260.952 191.507C261.37 191.064 261.864 190.728 262.434 190.5C263.004 190.272 263.618 190.158 264.277 190.158C264.936 190.158 265.55 190.272 266.12 190.5C266.69 190.728 267.184 191.057 267.602 191.488C268.033 191.919 268.368 192.444 268.609 193.065C268.85 193.686 268.97 194.395 268.97 195.193C268.97 195.991 268.85 196.7 268.609 197.321C268.368 197.929 268.039 198.448 267.621 198.879C267.203 199.31 266.703 199.639 266.12 199.867C265.55 200.082 264.936 200.19 264.277 200.19ZM264.277 197.758C264.543 197.758 264.79 197.714 265.018 197.625C265.259 197.524 265.461 197.372 265.626 197.169C265.803 196.966 265.943 196.707 266.044 196.39C266.145 196.061 266.196 195.662 266.196 195.193C266.196 194.724 266.145 194.325 266.044 193.996C265.943 193.667 265.803 193.401 265.626 193.198C265.449 192.983 265.246 192.831 265.018 192.742C264.79 192.641 264.543 192.59 264.277 192.59C263.745 192.59 263.295 192.793 262.928 193.198C262.573 193.591 262.396 194.262 262.396 195.212C262.396 196.137 262.573 196.795 262.928 197.188C263.295 197.568 263.745 197.758 264.277 197.758ZM270.673 190.348H274.359C275.119 190.348 275.759 190.411 276.278 190.538C276.797 190.652 277.215 190.817 277.532 191.032C277.861 191.247 278.096 191.507 278.235 191.811C278.374 192.115 278.444 192.451 278.444 192.818C278.444 193.401 278.286 193.863 277.969 194.205C277.652 194.534 277.228 194.756 276.696 194.87V195.003C277.355 195.104 277.868 195.351 278.235 195.744C278.615 196.124 278.805 196.624 278.805 197.245C278.805 197.625 278.742 197.98 278.615 198.309C278.488 198.638 278.273 198.93 277.969 199.183C277.665 199.436 277.253 199.639 276.734 199.791C276.227 199.93 275.594 200 274.834 200H270.673V190.348ZM274.283 194.148C274.764 194.148 275.113 194.053 275.328 193.863C275.543 193.673 275.651 193.432 275.651 193.141C275.651 192.85 275.531 192.628 275.29 192.476C275.062 192.311 274.726 192.229 274.283 192.229H273.352V194.148H274.283ZM274.587 198.138C275.03 198.138 275.379 198.049 275.632 197.872C275.898 197.682 276.031 197.416 276.031 197.074C276.031 196.707 275.898 196.434 275.632 196.257C275.379 196.08 275.03 195.991 274.587 195.991H273.352V198.138H274.587ZM284.595 200.19C283.936 200.19 283.322 200.082 282.752 199.867C282.182 199.639 281.688 199.316 281.27 198.898C280.852 198.467 280.522 197.948 280.282 197.34C280.041 196.719 279.921 196.01 279.921 195.212C279.921 194.414 280.041 193.705 280.282 193.084C280.522 192.463 280.852 191.938 281.27 191.507C281.688 191.064 282.182 190.728 282.752 190.5C283.322 190.272 283.936 190.158 284.595 190.158C285.253 190.158 285.868 190.272 286.438 190.5C287.008 190.728 287.502 191.057 287.92 191.488C288.35 191.919 288.686 192.444 288.927 193.065C289.167 193.686 289.288 194.395 289.288 195.193C289.288 195.991 289.167 196.7 288.927 197.321C288.686 197.929 288.357 198.448 287.939 198.879C287.521 199.31 287.02 199.639 286.438 199.867C285.868 200.082 285.253 200.19 284.595 200.19ZM284.595 197.758C284.861 197.758 285.108 197.714 285.336 197.625C285.576 197.524 285.779 197.372 285.944 197.169C286.121 196.966 286.26 196.707 286.362 196.39C286.463 196.061 286.514 195.662 286.514 195.193C286.514 194.724 286.463 194.325 286.362 193.996C286.26 193.667 286.121 193.401 285.944 193.198C285.766 192.983 285.564 192.831 285.336 192.742C285.108 192.641 284.861 192.59 284.595 192.59C284.063 192.59 283.613 192.793 283.246 193.198C282.891 193.591 282.714 194.262 282.714 195.212C282.714 196.137 282.891 196.795 283.246 197.188C283.613 197.568 284.063 197.758 284.595 197.758ZM295.531 200.19C293.935 200.19 292.7 199.785 291.826 198.974C290.952 198.151 290.515 196.897 290.515 195.212C290.515 194.427 290.617 193.724 290.819 193.103C291.035 192.482 291.332 191.957 291.712 191.526C292.105 191.083 292.58 190.747 293.137 190.519C293.695 190.278 294.315 190.158 294.999 190.158C295.595 190.158 296.139 190.24 296.633 190.405C297.14 190.57 297.571 190.817 297.925 191.146C298.293 191.475 298.571 191.887 298.761 192.381C298.964 192.875 299.065 193.458 299.065 194.129C299.065 194.471 299.04 194.781 298.989 195.06C298.951 195.339 298.913 195.541 298.875 195.668H293.441C293.492 196.39 293.701 196.941 294.068 197.321C294.448 197.688 295.012 197.872 295.759 197.872C296.291 197.872 296.804 197.821 297.298 197.72C297.805 197.606 298.261 197.422 298.666 197.169V199.468C298.337 199.683 297.894 199.861 297.336 200C296.792 200.127 296.19 200.19 295.531 200.19ZM296.5 194.072C296.475 193.477 296.323 193.027 296.044 192.723C295.778 192.406 295.405 192.248 294.923 192.248C294.417 192.248 294.037 192.419 293.783 192.761C293.543 193.09 293.391 193.527 293.327 194.072H296.5ZM308.293 200.19C308.04 200.19 307.774 200.177 307.495 200.152C307.217 200.127 306.938 200.089 306.659 200.038C306.393 199.987 306.127 199.924 305.861 199.848C305.595 199.759 305.361 199.652 305.158 199.525V197.207C306.083 197.777 307.046 198.062 308.046 198.062C309.009 198.062 309.49 197.726 309.49 197.055C309.49 196.726 309.37 196.491 309.129 196.352C308.889 196.2 308.559 196.124 308.141 196.124H306.564V194.053H308.008C308.401 194.053 308.686 193.977 308.863 193.825C309.041 193.673 309.129 193.47 309.129 193.217C309.129 192.888 309.009 192.653 308.768 192.514C308.528 192.375 308.186 192.305 307.742 192.305C307.286 192.305 306.862 192.362 306.469 192.476C306.089 192.577 305.697 192.755 305.291 193.008V190.709C305.684 190.532 306.127 190.399 306.621 190.31C307.128 190.209 307.635 190.158 308.141 190.158C308.8 190.158 309.357 190.221 309.813 190.348C310.269 190.475 310.643 190.652 310.934 190.88C311.226 191.095 311.435 191.355 311.561 191.659C311.701 191.963 311.77 192.292 311.77 192.647C311.77 193.128 311.656 193.565 311.428 193.958C311.2 194.338 310.782 194.629 310.174 194.832V194.965C310.82 195.117 311.308 195.402 311.637 195.82C311.967 196.225 312.131 196.745 312.131 197.378C312.131 197.733 312.068 198.081 311.941 198.423C311.827 198.752 311.625 199.05 311.333 199.316C311.042 199.582 310.649 199.797 310.155 199.962C309.661 200.114 309.041 200.19 308.293 200.19ZM317.366 197.948C317.569 197.948 317.772 197.91 317.974 197.834C318.177 197.758 318.361 197.638 318.525 197.473C318.69 197.308 318.817 197.106 318.905 196.865C319.007 196.624 319.057 196.339 319.057 196.01V195.668C318.107 195.668 317.392 195.757 316.91 195.934C316.429 196.111 316.188 196.434 316.188 196.903C316.188 197.207 316.29 197.46 316.492 197.663C316.708 197.853 316.999 197.948 317.366 197.948ZM316.245 200.19C315.371 200.19 314.694 199.937 314.212 199.43C313.731 198.923 313.49 198.252 313.49 197.416C313.49 196.884 313.585 196.422 313.775 196.029C313.978 195.624 314.301 195.282 314.744 195.003C315.188 194.724 315.758 194.515 316.454 194.376C317.164 194.237 318.031 194.167 319.057 194.167V193.749C319.057 193.331 318.918 193.008 318.639 192.78C318.361 192.552 317.93 192.438 317.347 192.438C316.765 192.438 316.207 192.501 315.675 192.628C315.156 192.755 314.656 192.964 314.174 193.255V190.88C314.643 190.627 315.169 190.443 315.751 190.329C316.334 190.215 316.948 190.158 317.594 190.158C319.013 190.158 320.058 190.468 320.729 191.089C321.401 191.71 321.736 192.615 321.736 193.806V200H319.152V198.499H319.019C318.893 198.727 318.753 198.949 318.601 199.164C318.449 199.367 318.259 199.544 318.031 199.696C317.816 199.848 317.563 199.968 317.271 200.057C316.98 200.146 316.638 200.19 316.245 200.19ZM329.305 197.644V192.723H327.31C327.31 193.04 327.291 193.42 327.253 193.863C327.215 194.306 327.152 194.762 327.063 195.231C326.987 195.7 326.88 196.149 326.74 196.58C326.614 197.011 326.449 197.365 326.246 197.644H329.305ZM325.239 202.508H322.826V197.644H323.643C323.922 197.353 324.156 196.973 324.346 196.504C324.536 196.035 324.688 195.491 324.802 194.87C324.916 194.237 324.999 193.54 325.049 192.78C325.1 192.02 325.132 191.209 325.144 190.348H332.003V197.644H333.485V202.508H331.091L330.901 200H325.429L325.239 202.508ZM338.185 197.948C338.387 197.948 338.59 197.91 338.793 197.834C338.995 197.758 339.179 197.638 339.344 197.473C339.508 197.308 339.635 197.106 339.724 196.865C339.825 196.624 339.876 196.339 339.876 196.01V195.668C338.926 195.668 338.21 195.757 337.729 195.934C337.247 196.111 337.007 196.434 337.007 196.903C337.007 197.207 337.108 197.46 337.311 197.663C337.526 197.853 337.817 197.948 338.185 197.948ZM337.064 200.19C336.19 200.19 335.512 199.937 335.031 199.43C334.549 198.923 334.309 198.252 334.309 197.416C334.309 196.884 334.404 196.422 334.594 196.029C334.796 195.624 335.119 195.282 335.563 195.003C336.006 194.724 336.576 194.515 337.273 194.376C337.982 194.237 338.85 194.167 339.876 194.167V193.749C339.876 193.331 339.736 193.008 339.458 192.78C339.179 192.552 338.748 192.438 338.166 192.438C337.583 192.438 337.026 192.501 336.494 192.628C335.974 192.755 335.474 192.964 334.993 193.255V190.88C335.461 190.627 335.987 190.443 336.57 190.329C337.152 190.215 337.767 190.158 338.413 190.158C339.831 190.158 340.876 190.468 341.548 191.089C342.219 191.71 342.555 192.615 342.555 193.806V200H339.971V198.499H339.838C339.711 198.727 339.572 198.949 339.42 199.164C339.268 199.367 339.078 199.544 338.85 199.696C338.634 199.848 338.381 199.968 338.09 200.057C337.798 200.146 337.456 200.19 337.064 200.19ZM350.37 196.219H347.311V200H344.632V190.348H347.311V193.863H350.37V190.348H353.049V200H350.37V196.219ZM355.208 190.348H357.887V195.782H358.039L361.155 190.348H363.625V200H360.946V194.547H360.813L357.659 200H355.208V190.348ZM370.325 200.19C368.729 200.19 367.494 199.785 366.62 198.974C365.746 198.151 365.309 196.897 365.309 195.212C365.309 194.427 365.411 193.724 365.613 193.103C365.829 192.482 366.126 191.957 366.506 191.526C366.899 191.083 367.374 190.747 367.931 190.519C368.489 190.278 369.109 190.158 369.793 190.158C370.389 190.158 370.933 190.24 371.427 190.405C371.934 190.57 372.365 190.817 372.719 191.146C373.087 191.475 373.365 191.887 373.555 192.381C373.758 192.875 373.859 193.458 373.859 194.129C373.859 194.471 373.834 194.781 373.783 195.06C373.745 195.339 373.707 195.541 373.669 195.668H368.235C368.286 196.39 368.495 196.941 368.862 197.321C369.242 197.688 369.806 197.872 370.553 197.872C371.085 197.872 371.598 197.821 372.092 197.72C372.599 197.606 373.055 197.422 373.46 197.169V199.468C373.131 199.683 372.688 199.861 372.13 200C371.586 200.127 370.984 200.19 370.325 200.19ZM371.294 194.072C371.269 193.477 371.117 193.027 370.838 192.723C370.572 192.406 370.199 192.248 369.717 192.248C369.211 192.248 368.831 192.419 368.577 192.761C368.337 193.09 368.185 193.527 368.121 194.072H371.294Z" fill="#1F2229"/>
<path d="M521.59 288.75H531.717V303H528.943V291.277H524.364V303H521.59V288.75ZM538.706 300.758C538.96 300.758 539.2 300.714 539.428 300.625C539.669 300.536 539.878 300.391 540.055 300.188C540.233 299.973 540.372 299.694 540.473 299.352C540.587 299.01 540.644 298.592 540.644 298.098C540.644 297.642 540.594 297.256 540.492 296.939C540.391 296.622 540.252 296.363 540.074 296.16C539.897 295.957 539.688 295.812 539.447 295.723C539.219 295.634 538.972 295.59 538.706 295.59C538.453 295.59 538.206 295.634 537.965 295.723C537.737 295.799 537.535 295.926 537.357 296.103C537.193 296.28 537.06 296.515 536.958 296.806C536.857 297.085 536.806 297.42 536.806 297.813V298.421C536.806 299.27 536.99 299.871 537.357 300.226C537.725 300.581 538.174 300.758 538.706 300.758ZM534.127 293.348H536.711V294.697H536.844C537.085 294.254 537.433 293.886 537.889 293.595C538.345 293.304 538.922 293.158 539.618 293.158C540.201 293.158 540.727 293.285 541.195 293.538C541.677 293.779 542.082 294.121 542.411 294.564C542.741 294.995 542.994 295.514 543.171 296.122C543.349 296.717 543.437 297.376 543.437 298.098C543.437 298.858 543.349 299.548 543.171 300.169C542.994 300.79 542.734 301.328 542.392 301.784C542.063 302.227 541.658 302.576 541.176 302.829C540.708 303.07 540.176 303.19 539.58 303.19C538.922 303.19 538.371 303.063 537.927 302.81C537.484 302.557 537.123 302.183 536.844 301.689H536.711L536.806 303.19V307.75H534.127V293.348ZM549.329 303.19C548.671 303.19 548.056 303.082 547.486 302.867C546.916 302.639 546.422 302.316 546.004 301.898C545.586 301.467 545.257 300.948 545.016 300.34C544.776 299.719 544.655 299.01 544.655 298.212C544.655 297.414 544.776 296.705 545.016 296.084C545.257 295.463 545.586 294.938 546.004 294.507C546.422 294.064 546.916 293.728 547.486 293.5C548.056 293.272 548.671 293.158 549.329 293.158C549.988 293.158 550.602 293.272 551.172 293.5C551.742 293.728 552.236 294.057 552.654 294.488C553.085 294.919 553.421 295.444 553.661 296.065C553.902 296.686 554.022 297.395 554.022 298.193C554.022 298.991 553.902 299.7 553.661 300.321C553.421 300.929 553.091 301.448 552.673 301.879C552.255 302.31 551.755 302.639 551.172 302.867C550.602 303.082 549.988 303.19 549.329 303.19ZM549.329 300.758C549.595 300.758 549.842 300.714 550.07 300.625C550.311 300.524 550.514 300.372 550.678 300.169C550.856 299.966 550.995 299.707 551.096 299.39C551.198 299.061 551.248 298.662 551.248 298.193C551.248 297.724 551.198 297.325 551.096 296.996C550.995 296.667 550.856 296.401 550.678 296.198C550.501 295.983 550.298 295.831 550.07 295.742C549.842 295.641 549.595 295.59 549.329 295.59C548.797 295.59 548.348 295.793 547.98 296.198C547.626 296.591 547.448 297.262 547.448 298.212C547.448 299.137 547.626 299.795 547.98 300.188C548.348 300.568 548.797 300.758 549.329 300.758ZM555.725 293.348H558.404V298.782H558.556L561.672 293.348H564.142V303H561.463V297.547H561.33L558.176 303H555.725V293.348ZM559.867 292.417C559.449 292.417 559.037 292.373 558.632 292.284C558.239 292.183 557.885 292.012 557.568 291.771C557.251 291.518 556.992 291.182 556.789 290.764C556.599 290.346 556.504 289.814 556.504 289.168H558.841C558.841 289.535 558.911 289.827 559.05 290.042C559.189 290.257 559.462 290.365 559.867 290.365C560.247 290.365 560.513 290.257 560.665 290.042C560.817 289.827 560.893 289.535 560.893 289.168H563.23C563.23 289.814 563.129 290.346 562.926 290.764C562.736 291.182 562.483 291.518 562.166 291.771C561.849 292.012 561.488 292.183 561.083 292.284C560.69 292.373 560.285 292.417 559.867 292.417ZM571.83 300.644V295.723H569.835C569.835 296.04 569.816 296.42 569.778 296.863C569.74 297.306 569.677 297.762 569.588 298.231C569.512 298.7 569.405 299.149 569.265 299.58C569.139 300.011 568.974 300.365 568.771 300.644H571.83ZM567.764 305.508H565.351V300.644H566.168C566.447 300.353 566.681 299.973 566.871 299.504C567.061 299.035 567.213 298.491 567.327 297.87C567.441 297.237 567.524 296.54 567.574 295.78C567.625 295.02 567.657 294.209 567.669 293.348H574.528V300.644H576.01V305.508H573.616L573.426 303H567.954L567.764 305.508ZM577.304 293.348H579.983V298.782H580.135L583.251 293.348H585.721V303H583.042V297.547H582.909L579.755 303H577.304V293.348ZM589.628 295.704H586.987V293.348H594.948V295.704H592.288V303H589.628V295.704ZM600.585 303.19C598.989 303.19 597.754 302.785 596.88 301.974C596.006 301.151 595.569 299.897 595.569 298.212C595.569 297.427 595.671 296.724 595.873 296.103C596.089 295.482 596.386 294.957 596.766 294.526C597.159 294.083 597.634 293.747 598.191 293.519C598.749 293.278 599.369 293.158 600.053 293.158C600.649 293.158 601.193 293.24 601.687 293.405C602.194 293.57 602.625 293.817 602.979 294.146C603.347 294.475 603.625 294.887 603.815 295.381C604.018 295.875 604.119 296.458 604.119 297.129C604.119 297.471 604.094 297.781 604.043 298.06C604.005 298.339 603.967 298.541 603.929 298.668H598.495C598.546 299.39 598.755 299.941 599.122 300.321C599.502 300.688 600.066 300.872 600.813 300.872C601.345 300.872 601.858 300.821 602.352 300.72C602.859 300.606 603.315 300.422 603.72 300.169V302.468C603.391 302.683 602.948 302.861 602.39 303C601.846 303.127 601.244 303.19 600.585 303.19ZM601.554 297.072C601.529 296.477 601.377 296.027 601.098 295.723C600.832 295.406 600.459 295.248 599.977 295.248C599.471 295.248 599.091 295.419 598.837 295.761C598.597 296.09 598.445 296.527 598.381 297.072H601.554ZM503.262 324.19C501.716 324.19 500.526 323.759 499.69 322.898C498.854 322.024 498.436 320.795 498.436 319.212C498.436 318.427 498.55 317.724 498.778 317.103C499.018 316.482 499.348 315.957 499.766 315.526C500.184 315.083 500.684 314.747 501.267 314.519C501.849 314.278 502.489 314.158 503.186 314.158C503.667 314.158 504.091 314.196 504.459 314.272C504.839 314.335 505.187 314.456 505.504 314.633V317.217C505.212 317.014 504.889 316.875 504.535 316.799C504.193 316.71 503.851 316.666 503.509 316.666C502.825 316.666 502.274 316.875 501.856 317.293C501.438 317.698 501.229 318.338 501.229 319.212C501.229 320.086 501.438 320.719 501.856 321.112C502.286 321.505 502.856 321.701 503.566 321.701C503.92 321.701 504.275 321.657 504.63 321.568C504.997 321.467 505.307 321.308 505.561 321.093V323.715C505.383 323.842 505.079 323.949 504.649 324.038C504.231 324.139 503.768 324.19 503.262 324.19ZM511.329 324.19C510.671 324.19 510.056 324.082 509.486 323.867C508.916 323.639 508.422 323.316 508.004 322.898C507.586 322.467 507.257 321.948 507.016 321.34C506.776 320.719 506.655 320.01 506.655 319.212C506.655 318.414 506.776 317.705 507.016 317.084C507.257 316.463 507.586 315.938 508.004 315.507C508.422 315.064 508.916 314.728 509.486 314.5C510.056 314.272 510.671 314.158 511.329 314.158C511.988 314.158 512.602 314.272 513.172 314.5C513.742 314.728 514.236 315.057 514.654 315.488C515.085 315.919 515.421 316.444 515.661 317.065C515.902 317.686 516.022 318.395 516.022 319.193C516.022 319.991 515.902 320.7 515.661 321.321C515.421 321.929 515.091 322.448 514.673 322.879C514.255 323.31 513.755 323.639 513.172 323.867C512.602 324.082 511.988 324.19 511.329 324.19ZM511.329 321.758C511.595 321.758 511.842 321.714 512.07 321.625C512.311 321.524 512.514 321.372 512.678 321.169C512.856 320.966 512.995 320.707 513.096 320.39C513.198 320.061 513.248 319.662 513.248 319.193C513.248 318.724 513.198 318.325 513.096 317.996C512.995 317.667 512.856 317.401 512.678 317.198C512.501 316.983 512.298 316.831 512.07 316.742C511.842 316.641 511.595 316.59 511.329 316.59C510.797 316.59 510.348 316.793 509.98 317.198C509.626 317.591 509.448 318.262 509.448 319.212C509.448 320.137 509.626 320.795 509.98 321.188C510.348 321.568 510.797 321.758 511.329 321.758ZM522.038 324.19C521.392 324.19 520.778 324.095 520.195 323.905C519.612 323.715 519.099 323.386 518.656 322.917C518.225 322.448 517.883 321.821 517.63 321.036C517.377 320.238 517.25 319.231 517.25 318.015C517.25 316.622 517.364 315.431 517.592 314.443C517.82 313.455 518.181 312.638 518.675 311.992C519.169 311.346 519.802 310.858 520.575 310.529C521.348 310.187 522.272 309.965 523.349 309.864C523.868 309.826 524.388 309.782 524.907 309.731C525.426 309.68 525.813 309.623 526.066 309.56V312.163C525.813 312.226 525.445 312.277 524.964 312.315C524.483 312.353 523.995 312.404 523.501 312.467C522.817 312.53 522.234 312.644 521.753 312.809C521.284 312.961 520.898 313.183 520.594 313.474C520.303 313.765 520.081 314.145 519.929 314.614C519.79 315.07 519.701 315.64 519.663 316.324H519.796C519.872 316.121 519.986 315.912 520.138 315.697C520.29 315.469 520.486 315.266 520.727 315.089C520.98 314.899 521.278 314.747 521.62 314.633C521.975 314.519 522.386 314.462 522.855 314.462C523.425 314.462 523.951 314.582 524.432 314.823C524.926 315.051 525.344 315.374 525.686 315.792C526.041 316.21 526.313 316.717 526.503 317.312C526.706 317.895 526.807 318.547 526.807 319.269C526.807 320.004 526.687 320.675 526.446 321.283C526.218 321.891 525.895 322.41 525.477 322.841C525.059 323.272 524.559 323.607 523.976 323.848C523.393 324.076 522.747 324.19 522.038 324.19ZM522.038 321.758C522.608 321.758 523.083 321.555 523.463 321.15C523.843 320.745 524.033 320.118 524.033 319.269C524.033 318.42 523.843 317.812 523.463 317.445C523.083 317.065 522.608 316.875 522.038 316.875C521.455 316.875 520.98 317.065 520.613 317.445C520.246 317.825 520.062 318.439 520.062 319.288C520.062 320.137 520.246 320.764 520.613 321.169C520.98 321.562 521.455 321.758 522.038 321.758ZM533.046 324.19C531.45 324.19 530.215 323.785 529.341 322.974C528.467 322.151 528.03 320.897 528.03 319.212C528.03 318.427 528.132 317.724 528.334 317.103C528.55 316.482 528.847 315.957 529.227 315.526C529.62 315.083 530.095 314.747 530.652 314.519C531.21 314.278 531.83 314.158 532.514 314.158C533.11 314.158 533.654 314.24 534.148 314.405C534.655 314.57 535.086 314.817 535.44 315.146C535.808 315.475 536.086 315.887 536.276 316.381C536.479 316.875 536.58 317.458 536.58 318.129C536.58 318.471 536.555 318.781 536.504 319.06C536.466 319.339 536.428 319.541 536.39 319.668H530.956C531.007 320.39 531.216 320.941 531.583 321.321C531.963 321.688 532.527 321.872 533.274 321.872C533.806 321.872 534.319 321.821 534.813 321.72C535.32 321.606 535.776 321.422 536.181 321.169V323.468C535.852 323.683 535.409 323.861 534.851 324C534.307 324.127 533.705 324.19 533.046 324.19ZM534.015 318.072C533.99 317.477 533.838 317.027 533.559 316.723C533.293 316.406 532.92 316.248 532.438 316.248C531.932 316.248 531.552 316.419 531.298 316.761C531.058 317.09 530.906 317.527 530.842 318.072H534.015ZM542.635 324.19C541.089 324.19 539.899 323.759 539.063 322.898C538.227 322.024 537.809 320.795 537.809 319.212C537.809 318.427 537.923 317.724 538.151 317.103C538.391 316.482 538.721 315.957 539.139 315.526C539.557 315.083 540.057 314.747 540.64 314.519C541.222 314.278 541.862 314.158 542.559 314.158C543.04 314.158 543.464 314.196 543.832 314.272C544.212 314.335 544.56 314.456 544.877 314.633V317.217C544.585 317.014 544.262 316.875 543.908 316.799C543.566 316.71 543.224 316.666 542.882 316.666C542.198 316.666 541.647 316.875 541.229 317.293C540.811 317.698 540.602 318.338 540.602 319.212C540.602 320.086 540.811 320.719 541.229 321.112C541.659 321.505 542.229 321.701 542.939 321.701C543.293 321.701 543.648 321.657 544.003 321.568C544.37 321.467 544.68 321.308 544.934 321.093V323.715C544.756 323.842 544.452 323.949 544.022 324.038C543.604 324.139 543.141 324.19 542.635 324.19ZM551.044 324.19C549.448 324.19 548.213 323.785 547.339 322.974C546.465 322.151 546.028 320.897 546.028 319.212C546.028 318.427 546.13 317.724 546.332 317.103C546.548 316.482 546.845 315.957 547.225 315.526C547.618 315.083 548.093 314.747 548.65 314.519C549.208 314.278 549.828 314.158 550.512 314.158C551.108 314.158 551.652 314.24 552.146 314.405C552.653 314.57 553.084 314.817 553.438 315.146C553.806 315.475 554.084 315.887 554.274 316.381C554.477 316.875 554.578 317.458 554.578 318.129C554.578 318.471 554.553 318.781 554.502 319.06C554.464 319.339 554.426 319.541 554.388 319.668H548.954C549.005 320.39 549.214 320.941 549.581 321.321C549.961 321.688 550.525 321.872 551.272 321.872C551.804 321.872 552.317 321.821 552.811 321.72C553.318 321.606 553.774 321.422 554.179 321.169V323.468C553.85 323.683 553.407 323.861 552.849 324C552.305 324.127 551.703 324.19 551.044 324.19ZM552.013 318.072C551.988 317.477 551.836 317.027 551.557 316.723C551.291 316.406 550.918 316.248 550.436 316.248C549.93 316.248 549.55 316.419 549.296 316.761C549.056 317.09 548.904 317.527 548.84 318.072H552.013ZM561.625 321.644V316.723H559.63C559.63 317.04 559.611 317.42 559.573 317.863C559.535 318.306 559.472 318.762 559.383 319.231C559.307 319.7 559.2 320.149 559.06 320.58C558.934 321.011 558.769 321.365 558.566 321.644H561.625ZM557.559 326.508H555.146V321.644H555.963C556.242 321.353 556.476 320.973 556.666 320.504C556.856 320.035 557.008 319.491 557.122 318.87C557.236 318.237 557.319 317.54 557.369 316.78C557.42 316.02 557.452 315.209 557.464 314.348H564.323V321.644H565.805V326.508H563.411L563.221 324H557.749L557.559 326.508ZM571.168 324.19C570.51 324.19 569.895 324.082 569.325 323.867C568.755 323.639 568.261 323.316 567.843 322.898C567.425 322.467 567.096 321.948 566.855 321.34C566.615 320.719 566.494 320.01 566.494 319.212C566.494 318.414 566.615 317.705 566.855 317.084C567.096 316.463 567.425 315.938 567.843 315.507C568.261 315.064 568.755 314.728 569.325 314.5C569.895 314.272 570.51 314.158 571.168 314.158C571.827 314.158 572.441 314.272 573.011 314.5C573.581 314.728 574.075 315.057 574.493 315.488C574.924 315.919 575.26 316.444 575.5 317.065C575.741 317.686 575.861 318.395 575.861 319.193C575.861 319.991 575.741 320.7 575.5 321.321C575.26 321.929 574.93 322.448 574.512 322.879C574.094 323.31 573.594 323.639 573.011 323.867C572.441 324.082 571.827 324.19 571.168 324.19ZM571.168 321.758C571.434 321.758 571.681 321.714 571.909 321.625C572.15 321.524 572.353 321.372 572.517 321.169C572.695 320.966 572.834 320.707 572.935 320.39C573.037 320.061 573.087 319.662 573.087 319.193C573.087 318.724 573.037 318.325 572.935 317.996C572.834 317.667 572.695 317.401 572.517 317.198C572.34 316.983 572.137 316.831 571.909 316.742C571.681 316.641 571.434 316.59 571.168 316.59C570.636 316.59 570.187 316.793 569.819 317.198C569.465 317.591 569.287 318.262 569.287 319.212C569.287 320.137 569.465 320.795 569.819 321.188C570.187 321.568 570.636 321.758 571.168 321.758ZM577.564 314.348H581.25C582.01 314.348 582.65 314.411 583.169 314.538C583.688 314.652 584.106 314.817 584.423 315.032C584.752 315.247 584.987 315.507 585.126 315.811C585.265 316.115 585.335 316.451 585.335 316.818C585.335 317.401 585.177 317.863 584.86 318.205C584.543 318.534 584.119 318.756 583.587 318.87V319.003C584.246 319.104 584.759 319.351 585.126 319.744C585.506 320.124 585.696 320.624 585.696 321.245C585.696 321.625 585.633 321.98 585.506 322.309C585.379 322.638 585.164 322.93 584.86 323.183C584.556 323.436 584.144 323.639 583.625 323.791C583.118 323.93 582.485 324 581.725 324H577.564V314.348ZM581.174 318.148C581.655 318.148 582.004 318.053 582.219 317.863C582.434 317.673 582.542 317.432 582.542 317.141C582.542 316.85 582.422 316.628 582.181 316.476C581.953 316.311 581.617 316.229 581.174 316.229H580.243V318.148H581.174ZM581.478 322.138C581.921 322.138 582.27 322.049 582.523 321.872C582.789 321.682 582.922 321.416 582.922 321.074C582.922 320.707 582.789 320.434 582.523 320.257C582.27 320.08 581.921 319.991 581.478 319.991H580.243V322.138H581.478ZM590.878 321.948C591.08 321.948 591.283 321.91 591.486 321.834C591.688 321.758 591.872 321.638 592.037 321.473C592.201 321.308 592.328 321.106 592.417 320.865C592.518 320.624 592.569 320.339 592.569 320.01V319.668C591.619 319.668 590.903 319.757 590.422 319.934C589.94 320.111 589.7 320.434 589.7 320.903C589.7 321.207 589.801 321.46 590.004 321.663C590.219 321.853 590.51 321.948 590.878 321.948ZM589.757 324.19C588.883 324.19 588.205 323.937 587.724 323.43C587.242 322.923 587.002 322.252 587.002 321.416C587.002 320.884 587.097 320.422 587.287 320.029C587.489 319.624 587.812 319.282 588.256 319.003C588.699 318.724 589.269 318.515 589.966 318.376C590.675 318.237 591.543 318.167 592.569 318.167V317.749C592.569 317.331 592.429 317.008 592.151 316.78C591.872 316.552 591.441 316.438 590.859 316.438C590.276 316.438 589.719 316.501 589.187 316.628C588.667 316.755 588.167 316.964 587.686 317.255V314.88C588.154 314.627 588.68 314.443 589.263 314.329C589.845 314.215 590.46 314.158 591.106 314.158C592.524 314.158 593.569 314.468 594.241 315.089C594.912 315.71 595.248 316.615 595.248 317.806V324H592.664V322.499H592.531C592.404 322.727 592.265 322.949 592.113 323.164C591.961 323.367 591.771 323.544 591.543 323.696C591.327 323.848 591.074 323.968 590.783 324.057C590.491 324.146 590.149 324.19 589.757 324.19ZM603.063 320.219H600.004V324H597.325V314.348H600.004V317.863H603.063V314.348H605.742V324H603.063V320.219ZM607.901 314.348H610.58V319.782H610.732L613.848 314.348H616.318V324H613.639V318.547H613.506L610.352 324H607.901V314.348ZM623.018 324.19C621.422 324.19 620.187 323.785 619.313 322.974C618.439 322.151 618.002 320.897 618.002 319.212C618.002 318.427 618.103 317.724 618.306 317.103C618.521 316.482 618.819 315.957 619.199 315.526C619.592 315.083 620.067 314.747 620.624 314.519C621.181 314.278 621.802 314.158 622.486 314.158C623.081 314.158 623.626 314.24 624.12 314.405C624.627 314.57 625.057 314.817 625.412 315.146C625.779 315.475 626.058 315.887 626.248 316.381C626.451 316.875 626.552 317.458 626.552 318.129C626.552 318.471 626.527 318.781 626.476 319.06C626.438 319.339 626.4 319.541 626.362 319.668H620.928C620.979 320.39 621.188 320.941 621.555 321.321C621.935 321.688 622.499 321.872 623.246 321.872C623.778 321.872 624.291 321.821 624.785 321.72C625.292 321.606 625.748 321.422 626.153 321.169V323.468C625.824 323.683 625.38 323.861 624.823 324C624.278 324.127 623.677 324.19 623.018 324.19ZM623.987 318.072C623.962 317.477 623.81 317.027 623.531 316.723C623.265 316.406 622.891 316.248 622.41 316.248C621.903 316.248 621.523 316.419 621.27 316.761C621.029 317.09 620.877 317.527 620.814 318.072H623.987Z" fill="#1F2229"/>
<path d="M986.049 303V288.75H990.628C991.439 288.75 992.136 288.845 992.718 289.035C993.301 289.212 993.782 289.466 994.162 289.795C994.542 290.112 994.821 290.498 994.998 290.954C995.176 291.397 995.264 291.891 995.264 292.436C995.264 293.158 995.074 293.772 994.694 294.279C994.314 294.773 993.789 295.147 993.117 295.4V295.533C993.953 295.71 994.606 296.084 995.074 296.654C995.556 297.211 995.796 297.927 995.796 298.801C995.796 299.396 995.708 299.954 995.53 300.473C995.353 300.98 995.068 301.423 994.675 301.803C994.283 302.17 993.776 302.462 993.155 302.677C992.535 302.892 991.781 303 990.894 303H986.049ZM990.305 294.526C990.888 294.526 991.376 294.393 991.768 294.127C992.174 293.848 992.376 293.392 992.376 292.759C992.376 292.455 992.319 292.202 992.205 291.999C992.104 291.784 991.958 291.613 991.768 291.486C991.591 291.359 991.376 291.271 991.122 291.22C990.869 291.157 990.597 291.125 990.305 291.125H988.823V294.526H990.305ZM990.571 300.625C990.888 300.625 991.186 300.6 991.464 300.549C991.756 300.486 992.009 300.384 992.224 300.245C992.44 300.093 992.604 299.903 992.718 299.675C992.845 299.434 992.908 299.13 992.908 298.763C992.908 298.383 992.839 298.073 992.699 297.832C992.573 297.591 992.402 297.401 992.186 297.262C991.971 297.11 991.718 297.009 991.426 296.958C991.135 296.895 990.837 296.863 990.533 296.863H988.823V300.625H990.571ZM997.64 293.348H1000.32V296.122H1001.27C1002.03 296.122 1002.68 296.211 1003.21 296.388C1003.75 296.553 1004.2 296.787 1004.56 297.091C1004.91 297.382 1005.17 297.737 1005.34 298.155C1005.5 298.56 1005.58 299.004 1005.58 299.485C1005.58 299.979 1005.5 300.441 1005.34 300.872C1005.17 301.303 1004.91 301.676 1004.56 301.993C1004.2 302.297 1003.75 302.544 1003.21 302.734C1002.68 302.911 1002.03 303 1001.27 303H997.64V293.348ZM1001.21 300.872C1001.78 300.872 1002.19 300.745 1002.43 300.492C1002.68 300.239 1002.81 299.928 1002.81 299.561C1002.81 299.181 1002.68 298.871 1002.43 298.63C1002.19 298.389 1001.78 298.269 1001.21 298.269H1000.32V300.872H1001.21ZM1006.4 293.348H1009.08V303H1006.4V293.348ZM1021.71 299.219H1018.65V303H1015.97V293.348H1018.65V296.863H1021.71V293.348H1024.39V303H1021.71V299.219ZM1030.14 300.948C1030.34 300.948 1030.54 300.91 1030.75 300.834C1030.95 300.758 1031.13 300.638 1031.3 300.473C1031.46 300.308 1031.59 300.106 1031.68 299.865C1031.78 299.624 1031.83 299.339 1031.83 299.01V298.668C1030.88 298.668 1030.16 298.757 1029.68 298.934C1029.2 299.111 1028.96 299.434 1028.96 299.903C1028.96 300.207 1029.06 300.46 1029.27 300.663C1029.48 300.853 1029.77 300.948 1030.14 300.948ZM1029.02 303.19C1028.14 303.19 1027.47 302.937 1026.99 302.43C1026.5 301.923 1026.26 301.252 1026.26 300.416C1026.26 299.884 1026.36 299.422 1026.55 299.029C1026.75 298.624 1027.07 298.282 1027.52 298.003C1027.96 297.724 1028.53 297.515 1029.23 297.376C1029.94 297.237 1030.8 297.167 1031.83 297.167V296.749C1031.83 296.331 1031.69 296.008 1031.41 295.78C1031.13 295.552 1030.7 295.438 1030.12 295.438C1029.54 295.438 1028.98 295.501 1028.45 295.628C1027.93 295.755 1027.43 295.964 1026.95 296.255V293.88C1027.42 293.627 1027.94 293.443 1028.52 293.329C1029.11 293.215 1029.72 293.158 1030.37 293.158C1031.79 293.158 1032.83 293.468 1033.5 294.089C1034.17 294.71 1034.51 295.615 1034.51 296.806V303H1031.93V301.499H1031.79C1031.67 301.727 1031.53 301.949 1031.37 302.164C1031.22 302.367 1031.03 302.544 1030.8 302.696C1030.59 302.848 1030.34 302.968 1030.04 303.057C1029.75 303.146 1029.41 303.19 1029.02 303.19ZM1047.04 299.219H1043.98V303H1041.3V293.348H1043.98V296.863H1047.04V293.348H1049.72V303H1047.04V299.219ZM1056.07 303.19C1055.42 303.19 1054.8 303.082 1054.23 302.867C1053.66 302.639 1053.17 302.316 1052.75 301.898C1052.33 301.467 1052 300.948 1051.76 300.34C1051.52 299.719 1051.4 299.01 1051.4 298.212C1051.4 297.414 1051.52 296.705 1051.76 296.084C1052 295.463 1052.33 294.938 1052.75 294.507C1053.17 294.064 1053.66 293.728 1054.23 293.5C1054.8 293.272 1055.42 293.158 1056.07 293.158C1056.73 293.158 1057.35 293.272 1057.92 293.5C1058.49 293.728 1058.98 294.057 1059.4 294.488C1059.83 294.919 1060.17 295.444 1060.41 296.065C1060.65 296.686 1060.77 297.395 1060.77 298.193C1060.77 298.991 1060.65 299.7 1060.41 300.321C1060.17 300.929 1059.84 301.448 1059.42 301.879C1059 302.31 1058.5 302.639 1057.92 302.867C1057.35 303.082 1056.73 303.19 1056.07 303.19ZM1056.07 300.758C1056.34 300.758 1056.59 300.714 1056.82 300.625C1057.06 300.524 1057.26 300.372 1057.42 300.169C1057.6 299.966 1057.74 299.707 1057.84 299.39C1057.94 299.061 1057.99 298.662 1057.99 298.193C1057.99 297.724 1057.94 297.325 1057.84 296.996C1057.74 296.667 1057.6 296.401 1057.42 296.198C1057.25 295.983 1057.04 295.831 1056.82 295.742C1056.59 295.641 1056.34 295.59 1056.07 295.59C1055.54 295.59 1055.09 295.793 1054.73 296.198C1054.37 296.591 1054.19 297.262 1054.19 298.212C1054.19 299.137 1054.37 299.795 1054.73 300.188C1055.09 300.568 1055.54 300.758 1056.07 300.758ZM1062.47 293.348H1066.16C1066.92 293.348 1067.56 293.411 1068.08 293.538C1068.59 293.652 1069.01 293.817 1069.33 294.032C1069.66 294.247 1069.89 294.507 1070.03 294.811C1070.17 295.115 1070.24 295.451 1070.24 295.818C1070.24 296.401 1070.08 296.863 1069.77 297.205C1069.45 297.534 1069.03 297.756 1068.49 297.87V298.003C1069.15 298.104 1069.66 298.351 1070.03 298.744C1070.41 299.124 1070.6 299.624 1070.6 300.245C1070.6 300.625 1070.54 300.98 1070.41 301.309C1070.29 301.638 1070.07 301.93 1069.77 302.183C1069.46 302.436 1069.05 302.639 1068.53 302.791C1068.02 302.93 1067.39 303 1066.63 303H1062.47V293.348ZM1066.08 297.148C1066.56 297.148 1066.91 297.053 1067.13 296.863C1067.34 296.673 1067.45 296.432 1067.45 296.141C1067.45 295.85 1067.33 295.628 1067.09 295.476C1066.86 295.311 1066.52 295.229 1066.08 295.229H1065.15V297.148H1066.08ZM1066.38 301.138C1066.83 301.138 1067.18 301.049 1067.43 300.872C1067.7 300.682 1067.83 300.416 1067.83 300.074C1067.83 299.707 1067.7 299.434 1067.43 299.257C1067.18 299.08 1066.83 298.991 1066.38 298.991H1065.15V301.138H1066.38ZM1076.39 303.19C1075.73 303.19 1075.12 303.082 1074.55 302.867C1073.98 302.639 1073.48 302.316 1073.07 301.898C1072.65 301.467 1072.32 300.948 1072.08 300.34C1071.84 299.719 1071.72 299.01 1071.72 298.212C1071.72 297.414 1071.84 296.705 1072.08 296.084C1072.32 295.463 1072.65 294.938 1073.07 294.507C1073.48 294.064 1073.98 293.728 1074.55 293.5C1075.12 293.272 1075.73 293.158 1076.39 293.158C1077.05 293.158 1077.66 293.272 1078.23 293.5C1078.8 293.728 1079.3 294.057 1079.72 294.488C1080.15 294.919 1080.48 295.444 1080.72 296.065C1080.96 296.686 1081.08 297.395 1081.08 298.193C1081.08 298.991 1080.96 299.7 1080.72 300.321C1080.48 300.929 1080.15 301.448 1079.74 301.879C1079.32 302.31 1078.82 302.639 1078.23 302.867C1077.66 303.082 1077.05 303.19 1076.39 303.19ZM1076.39 300.758C1076.66 300.758 1076.9 300.714 1077.13 300.625C1077.37 300.524 1077.58 300.372 1077.74 300.169C1077.92 299.966 1078.06 299.707 1078.16 299.39C1078.26 299.061 1078.31 298.662 1078.31 298.193C1078.31 297.724 1078.26 297.325 1078.16 296.996C1078.06 296.667 1077.92 296.401 1077.74 296.198C1077.56 295.983 1077.36 295.831 1077.13 295.742C1076.9 295.641 1076.66 295.59 1076.39 295.59C1075.86 295.59 1075.41 295.793 1075.04 296.198C1074.69 296.591 1074.51 297.262 1074.51 298.212C1074.51 299.137 1074.69 299.795 1075.04 300.188C1075.41 300.568 1075.86 300.758 1076.39 300.758ZM1082.79 293.348H1085.47V298.782H1085.62L1088.73 293.348H1091.2V303H1088.53V297.547H1088.39L1085.24 303H1082.79V293.348ZM1086.93 292.417C1086.51 292.417 1086.1 292.373 1085.69 292.284C1085.3 292.183 1084.95 292.012 1084.63 291.771C1084.31 291.518 1084.05 291.182 1083.85 290.764C1083.66 290.346 1083.57 289.814 1083.57 289.168H1085.9C1085.9 289.535 1085.97 289.827 1086.11 290.042C1086.25 290.257 1086.52 290.365 1086.93 290.365C1087.31 290.365 1087.58 290.257 1087.73 290.042C1087.88 289.827 1087.96 289.535 1087.96 289.168H1090.29C1090.29 289.814 1090.19 290.346 1089.99 290.764C1089.8 291.182 1089.55 291.518 1089.23 291.771C1088.91 292.012 1088.55 292.183 1088.15 292.284C1087.75 292.373 1087.35 292.417 1086.93 292.417ZM1006.15 316.704H1003.28V324H1000.6V314.348H1008.83V324H1006.15V316.704ZM1015.19 324.19C1014.53 324.19 1013.92 324.082 1013.35 323.867C1012.78 323.639 1012.28 323.316 1011.86 322.898C1011.45 322.467 1011.12 321.948 1010.88 321.34C1010.64 320.719 1010.52 320.01 1010.52 319.212C1010.52 318.414 1010.64 317.705 1010.88 317.084C1011.12 316.463 1011.45 315.938 1011.86 315.507C1012.28 315.064 1012.78 314.728 1013.35 314.5C1013.92 314.272 1014.53 314.158 1015.19 314.158C1015.85 314.158 1016.46 314.272 1017.03 314.5C1017.6 314.728 1018.1 315.057 1018.51 315.488C1018.94 315.919 1019.28 316.444 1019.52 317.065C1019.76 317.686 1019.88 318.395 1019.88 319.193C1019.88 319.991 1019.76 320.7 1019.52 321.321C1019.28 321.929 1018.95 322.448 1018.53 322.879C1018.12 323.31 1017.61 323.639 1017.03 323.867C1016.46 324.082 1015.85 324.19 1015.19 324.19ZM1015.19 321.758C1015.46 321.758 1015.7 321.714 1015.93 321.625C1016.17 321.524 1016.37 321.372 1016.54 321.169C1016.72 320.966 1016.85 320.707 1016.96 320.39C1017.06 320.061 1017.11 319.662 1017.11 319.193C1017.11 318.724 1017.06 318.325 1016.96 317.996C1016.85 317.667 1016.72 317.401 1016.54 317.198C1016.36 316.983 1016.16 316.831 1015.93 316.742C1015.7 316.641 1015.46 316.59 1015.19 316.59C1014.66 316.59 1014.21 316.793 1013.84 317.198C1013.49 317.591 1013.31 318.262 1013.31 319.212C1013.31 320.137 1013.49 320.795 1013.84 321.188C1014.21 321.568 1014.66 321.758 1015.19 321.758ZM1024.4 324.19C1024.14 324.19 1023.88 324.177 1023.6 324.152C1023.32 324.127 1023.04 324.089 1022.76 324.038C1022.5 323.987 1022.23 323.924 1021.96 323.848C1021.7 323.759 1021.46 323.652 1021.26 323.525V321.207C1022.19 321.777 1023.15 322.062 1024.15 322.062C1025.11 322.062 1025.59 321.726 1025.59 321.055C1025.59 320.726 1025.47 320.491 1025.23 320.352C1024.99 320.2 1024.66 320.124 1024.24 320.124H1022.67V318.053H1024.11C1024.5 318.053 1024.79 317.977 1024.97 317.825C1025.14 317.673 1025.23 317.47 1025.23 317.217C1025.23 316.888 1025.11 316.653 1024.87 316.514C1024.63 316.375 1024.29 316.305 1023.85 316.305C1023.39 316.305 1022.97 316.362 1022.57 316.476C1022.19 316.577 1021.8 316.755 1021.39 317.008V314.709C1021.79 314.532 1022.23 314.399 1022.72 314.31C1023.23 314.209 1023.74 314.158 1024.24 314.158C1024.9 314.158 1025.46 314.221 1025.92 314.348C1026.37 314.475 1026.75 314.652 1027.04 314.88C1027.33 315.095 1027.54 315.355 1027.66 315.659C1027.8 315.963 1027.87 316.292 1027.87 316.647C1027.87 317.128 1027.76 317.565 1027.53 317.958C1027.3 318.338 1026.89 318.629 1026.28 318.832V318.965C1026.92 319.117 1027.41 319.402 1027.74 319.82C1028.07 320.225 1028.23 320.745 1028.23 321.378C1028.23 321.733 1028.17 322.081 1028.04 322.423C1027.93 322.752 1027.73 323.05 1027.44 323.316C1027.15 323.582 1026.75 323.797 1026.26 323.962C1025.76 324.114 1025.14 324.19 1024.4 324.19ZM1030.03 314.348H1032.71V319.782H1032.86L1035.97 314.348H1038.44V324H1035.77V318.547H1035.63L1032.48 324H1030.03V314.348ZM1040.6 324V314.348H1043.28V321.644H1046.17V314.348H1048.87V321.644H1050.35V326.66H1047.96L1047.77 324H1040.6ZM1051.64 314.348H1054.32V319.782H1054.47L1057.59 314.348H1060.06V324H1057.38V318.547H1057.25L1054.09 324H1051.64V314.348ZM1062.22 314.348H1064.9V319.782H1065.05L1068.17 314.348H1070.64V324H1067.96V318.547H1067.82L1064.67 324H1062.22V314.348ZM1076.16 309.75L1075.61 319.231H1073.52L1072.99 309.75H1076.16ZM1074.6 324.266C1074.13 324.266 1073.74 324.108 1073.42 323.791C1073.12 323.462 1072.97 323.069 1072.97 322.613C1072.97 322.157 1073.12 321.771 1073.42 321.454C1073.74 321.125 1074.13 320.96 1074.6 320.96C1074.82 320.96 1075.03 321.004 1075.23 321.093C1075.43 321.182 1075.61 321.302 1075.76 321.454C1075.91 321.593 1076.03 321.764 1076.12 321.967C1076.21 322.17 1076.25 322.385 1076.25 322.613C1076.25 322.841 1076.21 323.056 1076.12 323.259C1076.03 323.462 1075.91 323.639 1075.76 323.791C1075.61 323.93 1075.43 324.044 1075.23 324.133C1075.03 324.222 1074.82 324.266 1074.6 324.266Z" fill="#1F2229"/>
<path d="M733.964 179.19C733.039 179.19 732.222 179.019 731.513 178.677C730.804 178.322 730.202 177.828 729.708 177.195C729.227 176.549 728.859 175.776 728.606 174.877C728.353 173.978 728.226 172.977 728.226 171.875C728.226 170.76 728.353 169.753 728.606 168.854C728.859 167.955 729.227 167.188 729.708 166.555C730.202 165.922 730.804 165.434 731.513 165.092C732.222 164.737 733.039 164.56 733.964 164.56C734.901 164.56 735.731 164.731 736.453 165.073C737.175 165.415 737.777 165.909 738.258 166.555C738.752 167.188 739.119 167.955 739.36 168.854C739.613 169.753 739.74 170.754 739.74 171.856C739.74 172.971 739.613 173.978 739.36 174.877C739.107 175.776 738.733 176.549 738.239 177.195C737.758 177.828 737.156 178.322 736.434 178.677C735.725 179.019 734.901 179.19 733.964 179.19ZM733.964 176.739C735.889 176.739 736.852 175.111 736.852 171.856C736.852 170.247 736.611 169.038 736.13 168.227C735.649 167.416 734.927 167.011 733.964 167.011C733.039 167.011 732.33 167.416 731.836 168.227C731.355 169.038 731.114 170.254 731.114 171.875C731.114 173.496 731.355 174.712 731.836 175.523C732.33 176.334 733.039 176.739 733.964 176.739ZM745.833 179.19C745.187 179.19 744.573 179.095 743.99 178.905C743.407 178.715 742.894 178.386 742.451 177.917C742.02 177.448 741.678 176.821 741.425 176.036C741.172 175.238 741.045 174.231 741.045 173.015C741.045 171.622 741.159 170.431 741.387 169.443C741.615 168.455 741.976 167.638 742.47 166.992C742.964 166.346 743.597 165.858 744.37 165.529C745.143 165.187 746.067 164.965 747.144 164.864C747.663 164.826 748.183 164.782 748.702 164.731C749.221 164.68 749.608 164.623 749.861 164.56V167.163C749.608 167.226 749.24 167.277 748.759 167.315C748.278 167.353 747.79 167.404 747.296 167.467C746.612 167.53 746.029 167.644 745.548 167.809C745.079 167.961 744.693 168.183 744.389 168.474C744.098 168.765 743.876 169.145 743.724 169.614C743.585 170.07 743.496 170.64 743.458 171.324H743.591C743.667 171.121 743.781 170.912 743.933 170.697C744.085 170.469 744.281 170.266 744.522 170.089C744.775 169.899 745.073 169.747 745.415 169.633C745.77 169.519 746.181 169.462 746.65 169.462C747.22 169.462 747.746 169.582 748.227 169.823C748.721 170.051 749.139 170.374 749.481 170.792C749.836 171.21 750.108 171.717 750.298 172.312C750.501 172.895 750.602 173.547 750.602 174.269C750.602 175.004 750.482 175.675 750.241 176.283C750.013 176.891 749.69 177.41 749.272 177.841C748.854 178.272 748.354 178.607 747.771 178.848C747.188 179.076 746.542 179.19 745.833 179.19ZM745.833 176.758C746.403 176.758 746.878 176.555 747.258 176.15C747.638 175.745 747.828 175.118 747.828 174.269C747.828 173.42 747.638 172.812 747.258 172.445C746.878 172.065 746.403 171.875 745.833 171.875C745.25 171.875 744.775 172.065 744.408 172.445C744.041 172.825 743.857 173.439 743.857 174.288C743.857 175.137 744.041 175.764 744.408 176.169C744.775 176.562 745.25 176.758 745.833 176.758ZM752.989 183.75L754.547 179.152L750.975 169.348H753.787L755.82 175.352H755.953L757.872 169.348H760.418L755.535 183.75H752.989ZM766.203 175.485C765.988 175.574 765.728 175.65 765.424 175.713C765.133 175.776 764.791 175.808 764.398 175.808C763.144 175.808 762.232 175.479 761.662 174.82C761.092 174.149 760.807 173.199 760.807 171.97V169.348H763.486V171.856C763.486 172.426 763.6 172.831 763.828 173.072C764.069 173.313 764.43 173.433 764.911 173.433C765.101 173.433 765.31 173.414 765.538 173.376C765.766 173.325 765.988 173.249 766.203 173.148V169.348H768.901V179H766.203V175.485ZM771.059 169.348H773.738V174.782H773.89L777.006 169.348H779.476V179H776.797V173.547H776.664L773.51 179H771.059V169.348ZM783.383 171.704H780.742V169.348H788.703V171.704H786.043V179H783.383V171.704ZM794.34 179.19C792.744 179.19 791.509 178.785 790.635 177.974C789.761 177.151 789.324 175.897 789.324 174.212C789.324 173.427 789.426 172.724 789.628 172.103C789.844 171.482 790.141 170.957 790.521 170.526C790.914 170.083 791.389 169.747 791.946 169.519C792.504 169.278 793.124 169.158 793.808 169.158C794.404 169.158 794.948 169.24 795.442 169.405C795.949 169.57 796.38 169.817 796.734 170.146C797.102 170.475 797.38 170.887 797.57 171.381C797.773 171.875 797.874 172.458 797.874 173.129C797.874 173.471 797.849 173.781 797.798 174.06C797.76 174.339 797.722 174.541 797.684 174.668H792.25C792.301 175.39 792.51 175.941 792.877 176.321C793.257 176.688 793.821 176.872 794.568 176.872C795.1 176.872 795.613 176.821 796.107 176.72C796.614 176.606 797.07 176.422 797.475 176.169V178.468C797.146 178.683 796.703 178.861 796.145 179C795.601 179.127 794.999 179.19 794.34 179.19ZM795.309 173.072C795.284 172.477 795.132 172.027 794.853 171.723C794.587 171.406 794.214 171.248 793.732 171.248C793.226 171.248 792.846 171.419 792.592 171.761C792.352 172.09 792.2 172.527 792.136 173.072H795.309ZM803.929 179.19C802.383 179.19 801.193 178.759 800.357 177.898C799.521 177.024 799.103 175.795 799.103 174.212C799.103 173.427 799.217 172.724 799.445 172.103C799.685 171.482 800.015 170.957 800.433 170.526C800.851 170.083 801.351 169.747 801.934 169.519C802.516 169.278 803.156 169.158 803.853 169.158C804.334 169.158 804.758 169.196 805.126 169.272C805.506 169.335 805.854 169.456 806.171 169.633V172.217C805.879 172.014 805.556 171.875 805.202 171.799C804.86 171.71 804.518 171.666 804.176 171.666C803.492 171.666 802.941 171.875 802.523 172.293C802.105 172.698 801.896 173.338 801.896 174.212C801.896 175.086 802.105 175.719 802.523 176.112C802.953 176.505 803.523 176.701 804.233 176.701C804.587 176.701 804.942 176.657 805.297 176.568C805.664 176.467 805.974 176.308 806.228 176.093V178.715C806.05 178.842 805.746 178.949 805.316 179.038C804.898 179.139 804.435 179.19 803.929 179.19ZM807.983 169.348H810.662V172.122H811.612C812.372 172.122 813.018 172.211 813.55 172.388C814.095 172.553 814.544 172.787 814.899 173.091C815.254 173.382 815.513 173.737 815.678 174.155C815.843 174.56 815.925 175.004 815.925 175.485C815.925 175.979 815.843 176.441 815.678 176.872C815.513 177.303 815.254 177.676 814.899 177.993C814.544 178.297 814.095 178.544 813.55 178.734C813.018 178.911 812.372 179 811.612 179H807.983V169.348ZM811.555 176.872C812.125 176.872 812.53 176.745 812.771 176.492C813.024 176.239 813.151 175.928 813.151 175.561C813.151 175.181 813.024 174.871 812.771 174.63C812.53 174.389 812.125 174.269 811.555 174.269H810.662V176.872H811.555ZM821.746 172.73H832.272V174.649H821.746V172.73ZM838.969 169.348H842.826L844.783 175.694H844.916L846.854 169.348H850.711V179H848.013V172.293H847.823L845.752 179H843.51L841.439 172.293H841.249V179H838.969V169.348ZM852.941 169.348H855.62V172.122H856.57C857.33 172.122 857.976 172.211 858.508 172.388C859.053 172.553 859.502 172.787 859.857 173.091C860.212 173.382 860.471 173.737 860.636 174.155C860.801 174.56 860.883 175.004 860.883 175.485C860.883 175.979 860.801 176.441 860.636 176.872C860.471 177.303 860.212 177.676 859.857 177.993C859.502 178.297 859.053 178.544 858.508 178.734C857.976 178.911 857.33 179 856.57 179H852.941V169.348ZM856.513 176.872C857.083 176.872 857.488 176.745 857.729 176.492C857.982 176.239 858.109 175.928 858.109 175.561C858.109 175.181 857.982 174.871 857.729 174.63C857.488 174.389 857.083 174.269 856.513 174.269H855.62V176.872H856.513ZM861.7 169.348H864.379V179H861.7V169.348ZM761.541 192.704H758.672V200H755.993V190.348H764.22V200H761.541V192.704ZM770.582 200.19C769.924 200.19 769.309 200.082 768.739 199.867C768.169 199.639 767.675 199.316 767.257 198.898C766.839 198.467 766.51 197.948 766.269 197.34C766.029 196.719 765.908 196.01 765.908 195.212C765.908 194.414 766.029 193.705 766.269 193.084C766.51 192.463 766.839 191.938 767.257 191.507C767.675 191.064 768.169 190.728 768.739 190.5C769.309 190.272 769.924 190.158 770.582 190.158C771.241 190.158 771.855 190.272 772.425 190.5C772.995 190.728 773.489 191.057 773.907 191.488C774.338 191.919 774.674 192.444 774.914 193.065C775.155 193.686 775.275 194.395 775.275 195.193C775.275 195.991 775.155 196.7 774.914 197.321C774.674 197.929 774.344 198.448 773.926 198.879C773.508 199.31 773.008 199.639 772.425 199.867C771.855 200.082 771.241 200.19 770.582 200.19ZM770.582 197.758C770.848 197.758 771.095 197.714 771.323 197.625C771.564 197.524 771.767 197.372 771.931 197.169C772.109 196.966 772.248 196.707 772.349 196.39C772.451 196.061 772.501 195.662 772.501 195.193C772.501 194.724 772.451 194.325 772.349 193.996C772.248 193.667 772.109 193.401 771.931 193.198C771.754 192.983 771.551 192.831 771.323 192.742C771.095 192.641 770.848 192.59 770.582 192.59C770.05 192.59 769.601 192.793 769.233 193.198C768.879 193.591 768.701 194.262 768.701 195.212C768.701 196.137 768.879 196.795 769.233 197.188C769.601 197.568 770.05 197.758 770.582 197.758ZM776.978 190.348H780.835L782.792 196.694H782.925L784.863 190.348H788.72V200H786.022V193.293H785.832L783.761 200H781.519L779.448 193.293H779.258V200H776.978V190.348ZM795.149 200.19C794.49 200.19 793.876 200.082 793.306 199.867C792.736 199.639 792.242 199.316 791.824 198.898C791.406 198.467 791.076 197.948 790.836 197.34C790.595 196.719 790.475 196.01 790.475 195.212C790.475 194.414 790.595 193.705 790.836 193.084C791.076 192.463 791.406 191.938 791.824 191.507C792.242 191.064 792.736 190.728 793.306 190.5C793.876 190.272 794.49 190.158 795.149 190.158C795.807 190.158 796.422 190.272 796.992 190.5C797.562 190.728 798.056 191.057 798.474 191.488C798.904 191.919 799.24 192.444 799.481 193.065C799.721 193.686 799.842 194.395 799.842 195.193C799.842 195.991 799.721 196.7 799.481 197.321C799.24 197.929 798.911 198.448 798.493 198.879C798.075 199.31 797.574 199.639 796.992 199.867C796.422 200.082 795.807 200.19 795.149 200.19ZM795.149 197.758C795.415 197.758 795.662 197.714 795.89 197.625C796.13 197.524 796.333 197.372 796.498 197.169C796.675 196.966 796.814 196.707 796.916 196.39C797.017 196.061 797.068 195.662 797.068 195.193C797.068 194.724 797.017 194.325 796.916 193.996C796.814 193.667 796.675 193.401 796.498 193.198C796.32 192.983 796.118 192.831 795.89 192.742C795.662 192.641 795.415 192.59 795.149 192.59C794.617 192.59 794.167 192.793 793.8 193.198C793.445 193.591 793.268 194.262 793.268 195.212C793.268 196.137 793.445 196.795 793.8 197.188C794.167 197.568 794.617 197.758 795.149 197.758ZM803.152 200H800.093L803.285 194.813L800.188 190.348H802.848L805.603 194.281L805.983 194.376V190.348H808.662V194.395L809.004 194.3L811.759 190.348H814.4L811.379 194.718L814.552 200H811.398L809.08 196.257L808.662 196.371V200H805.983V196.371L805.546 196.238L803.152 200ZM819.964 200.19C818.368 200.19 817.133 199.785 816.259 198.974C815.385 198.151 814.948 196.897 814.948 195.212C814.948 194.427 815.05 193.724 815.252 193.103C815.468 192.482 815.765 191.957 816.145 191.526C816.538 191.083 817.013 190.747 817.57 190.519C818.128 190.278 818.748 190.158 819.432 190.158C820.028 190.158 820.572 190.24 821.066 190.405C821.573 190.57 822.004 190.817 822.358 191.146C822.726 191.475 823.004 191.887 823.194 192.381C823.397 192.875 823.498 193.458 823.498 194.129C823.498 194.471 823.473 194.781 823.422 195.06C823.384 195.339 823.346 195.541 823.308 195.668H817.874C817.925 196.39 818.134 196.941 818.501 197.321C818.881 197.688 819.445 197.872 820.192 197.872C820.724 197.872 821.237 197.821 821.731 197.72C822.238 197.606 822.694 197.422 823.099 197.169V199.468C822.77 199.683 822.327 199.861 821.769 200C821.225 200.127 820.623 200.19 819.964 200.19ZM820.933 194.072C820.908 193.477 820.756 193.027 820.477 192.723C820.211 192.406 819.838 192.248 819.356 192.248C818.85 192.248 818.47 192.419 818.216 192.761C817.976 193.09 817.824 193.527 817.76 194.072H820.933ZM825.202 190.348H829.059L831.016 196.694H831.149L833.087 190.348H836.944V200H834.246V193.293H834.056L831.985 200H829.743L827.672 193.293H827.482V200H825.202V190.348Z" fill="#1F2229"/>
<path d="M84 253.141H148.712C160.844 253.141 172.48 248.324 181.058 239.75C189.637 231.175 194.456 219.546 194.456 207.421V176.362C194.456 164.236 199.276 152.607 207.854 144.033C216.433 135.459 228.068 130.642 240.2 130.642H370.448C382.58 130.642 394.215 135.459 402.794 144.033C411.373 152.607 416.192 164.236 416.192 176.362V209.28C416.192 221.406 421.011 233.035 429.59 241.609C438.169 250.183 449.804 255 461.936 255H620.82C632.952 255 644.587 250.183 653.165 241.609C661.744 233.035 666.564 221.406 666.564 209.28V173.72C666.564 161.594 671.383 149.965 679.962 141.391C688.54 132.817 700.175 128 712.307 128H886.022C898.154 128 909.79 132.817 918.368 141.391C926.947 149.965 931.766 161.594 931.766 173.72V203.794C931.766 215.919 936.586 227.548 945.164 236.123C953.743 244.697 965.378 249.514 977.51 249.514H1039" stroke="black" stroke-width="0.86" stroke-miterlimit="10" stroke-linecap="round" stroke-dasharray="4.28 4.28"/>
<path d="M85 267C92.732 267 99 260.732 99 253C99 245.268 92.732 239 85 239C77.268 239 71 245.268 71 253C71 260.732 77.268 267 85 267Z" fill="white" stroke="black" stroke-width="4.21" stroke-miterlimit="10" stroke-linecap="round"/>
<path d="M300 143C307.732 143 314 136.732 314 129C314 121.268 307.732 115 300 115C292.268 115 286 121.268 286 129C286 136.732 292.268 143 300 143Z" fill="white" stroke="black" stroke-width="4.21" stroke-miterlimit="10" stroke-linecap="round"/>
<path d="M563 267C570.732 267 577 260.732 577 253C577 245.268 570.732 239 563 239C555.268 239 549 245.268 549 253C549 260.732 555.268 267 563 267Z" fill="white" stroke="black" stroke-width="4.21" stroke-miterlimit="10" stroke-linecap="round"/>
<path d="M797 143C804.732 143 811 136.732 811 129C811 121.268 804.732 115 797 115C789.268 115 783 121.268 783 129C783 136.732 789.268 143 797 143Z" fill="white" stroke="black" stroke-width="4.21" stroke-miterlimit="10" stroke-linecap="round"/>
<path d="M1039 263C1046.73 263 1053 256.732 1053 249C1053 241.268 1046.73 235 1039 235C1031.27 235 1025 241.268 1025 249C1025 256.732 1031.27 263 1039 263Z" fill="white" stroke="black" stroke-width="4.21" stroke-miterlimit="10" stroke-linecap="round"/>
<path d="M292.82 54.1697L257.646 74.3366C253.649 76.6105 251.65 79.8078 252.05 83.2732C252.45 86.7386 255.138 90.0551 259.625 92.6268C264.635 95.3449 270.226 96.8359 275.933 96.976C281.928 97.1845 287.474 96.0327 291.431 93.7588L326.595 73.5522C330.592 71.2882 332.591 68.0909 332.201 64.6156C331.811 61.1402 329.103 57.8238 324.627 55.252" stroke="black" stroke-linejoin="round"/>
<path d="M292.821 58.8562L257.647 79.0231C255.236 80.2402 253.361 82.2977 252.381 84.8021C253.3 87.6718 255.828 90.4123 259.625 92.5869C264.636 95.3049 270.227 96.7959 275.933 96.936C281.929 97.1445 287.475 95.9927 291.432 93.7189L326.596 73.5519C329.007 72.3349 330.882 70.2774 331.862 67.7729C330.953 64.9033 328.415 62.1627 324.627 59.9882" stroke="black" stroke-linejoin="round"/>
<path fill-rule="evenodd" clip-rule="evenodd" d="M292.851 54.8546L296.848 60.991H312.167L320.91 54.8844H327.805V63.821C327.805 66.8991 325.707 69.9674 321.61 72.3207C313.386 77.0372 300.065 77.067 291.891 72.3207C287.794 69.9674 285.756 66.8693 285.796 63.7713V54.8347L292.851 54.8546Z" fill="black"/>
<path d="M286.045 67.9719L277.631 72.7877L286.045 67.9719ZM279.15 39.7322L287.504 44.4885L279.15 39.7322ZM328.174 67.8229L336.528 72.6189L328.174 67.8229ZM307.329 33V39.8017V33ZM335.468 39.6329L327.015 44.4885L335.468 39.6329ZM347 55.7883H335.149H347ZM307.119 73.2842V80.0859V73.2842ZM279.26 55.8777H267.409H279.26Z" fill="#BE88F8"/>
<path d="M279.26 55.8777H267.409M286.045 67.9719L277.631 72.7877L286.045 67.9719ZM279.15 39.7322L287.504 44.4885L279.15 39.7322ZM328.174 67.8229L336.528 72.6189L328.174 67.8229ZM307.329 33V39.8017V33ZM335.468 39.6329L327.015 44.4885L335.468 39.6329ZM347 55.7883H335.149H347ZM307.119 73.2842V80.0859V73.2842Z" stroke="#BE88F8" stroke-linejoin="round"/>
<path fill-rule="evenodd" clip-rule="evenodd" d="M291.961 46.4739C300.184 41.7474 313.495 41.7275 321.669 46.4143C329.843 51.101 329.803 58.7468 321.579 63.4633C313.355 68.1799 300.035 68.2097 291.861 63.513C283.687 58.8163 283.737 51.1904 291.961 46.4739ZM305.86 57.3964H296.867V61.0107H312.186L312.266 46.3349H305.97L305.86 57.3964Z" fill="#BE88F8"/>
<path d="M1058.49 115.06C1058.84 115.06 1061.28 115.06 1061.52 115.151C1087.66 123.76 1092.51 149.769 1084.16 174.139C1076.12 197.612 1055.46 212.993 1032.21 204.232C1034.71 205.939 1037.42 207.302 1040.28 208.286C1061.39 215.559 1085.56 200.968 1094.15 175.718C1102.74 150.468 1092.73 124.094 1071.63 116.867C1067.41 115.414 1062.95 114.801 1058.49 115.06Z" fill="#BE88F8"/>
<path d="M1055.31 115.238C1082.61 115.238 1093.82 146.902 1085.29 172.267C1075.88 200.273 1053.67 211.402 1032.48 204.251M1047.37 116.685C1034.14 121.35 1022.45 133.179 1017.04 149.279C1010.07 170.011 1015.66 191.408 1029.5 202.437" stroke="black" stroke-width="1.00245" stroke-linejoin="round"/>
<path d="M1072.44 169.367C1077.92 153.402 1072.7 137.136 1060.78 133.036C1048.87 128.936 1034.77 138.553 1029.3 154.518C1023.83 170.482 1029.05 186.748 1040.96 190.848C1052.87 194.949 1066.97 185.331 1072.44 169.367Z" fill="#BE88F8"/>
<path d="M1060.46 163.792C1063.25 155.647 1060.59 147.348 1054.51 145.256C1048.43 143.163 1041.24 148.07 1038.44 156.214C1035.65 164.359 1038.32 172.658 1044.39 174.75C1050.47 176.843 1057.67 171.936 1060.46 163.792Z" fill="white"/>
<path d="M1049.45 161.256L1039.04 152.192" stroke="black" stroke-linecap="round" stroke-linejoin="round"/>
<path d="M1027.05 148.654C1027.45 149.251 1027.83 149.843 1028.19 150.43C1029.07 152.047 1030.32 153.424 1031.86 154.439C1032.51 154.85 1033.23 155.119 1033.99 155.228C1034.8 155.353 1035.63 155.317 1036.42 155.122C1037.21 154.927 1037.96 154.577 1038.62 154.092C1039.28 153.607 1039.84 152.996 1040.26 152.295C1040.68 151.593 1040.96 150.815 1041.09 150.005C1041.32 148.212 1040.83 146.401 1039.74 144.964C1038.52 144.017 1037.23 143.169 1035.87 142.429C1034.9 141.897 1034.14 141.502 1033.51 141.184" fill="black"/>
<path d="M1027.05 148.654C1027.45 149.251 1027.83 149.843 1028.19 150.43C1029.07 152.047 1030.32 153.424 1031.86 154.439C1032.51 154.85 1033.23 155.119 1033.99 155.228C1034.8 155.353 1035.63 155.317 1036.42 155.122C1037.21 154.927 1037.96 154.577 1038.62 154.092C1039.28 153.607 1039.84 152.996 1040.26 152.295C1040.68 151.593 1040.96 150.815 1041.09 150.005C1041.32 148.212 1040.83 146.401 1039.74 144.964C1038.52 144.017 1037.23 143.169 1035.87 142.429C1034.9 141.897 1034.14 141.502 1033.51 141.184" stroke="black" stroke-linecap="round" stroke-linejoin="round"/>
<path d="M1029.61 133.744C1029.09 133.298 1028.55 132.882 1027.98 132.499C1023.92 129.705 1019.41 127.458 1015.17 124.907L993.666 112.396C992.521 111.93 991.449 111.301 990.484 110.528L999.956 122.235L1014.91 140.774C1017.38 143.81 1019.63 147.956 1023.87 148.608C1024.93 148.772 1026.02 148.725 1027.07 148.468C1028.11 148.211 1029.1 147.75 1029.97 147.111C1030.84 146.472 1031.57 145.668 1032.13 144.745C1032.69 143.822 1033.06 142.797 1033.22 141.73C1033.68 138.405 1031.95 135.748 1029.61 133.744Z" fill="white" stroke="black" stroke-linecap="round" stroke-linejoin="round"/>
<path d="M993.667 112.396C993.667 112.396 982.407 100.052 994.061 93.8113C1005.72 87.5709 1005.88 119.38 1005.88 119.38" stroke="black" stroke-linejoin="round"/>
<path d="M992.227 112.912C992.227 112.912 976.982 107.719 977.36 120.473C977.739 133.227 1002.32 124.922 1002.32 124.922" stroke="black" stroke-linejoin="round"/>
<path d="M982.422 112.076C982.422 112.076 973.329 107.415 978.694 104.09C984.059 100.765 991.53 109.495 991.53 109.495" stroke="black" stroke-linejoin="round"/>
<path d="M150.236 201.048L150.177 208.979L142.483 212.123L135.515 208.833L127.881 212.502L114.593 193.194L127.881 190.363L135.406 200.883L142.114 204.016L150.236 201.048Z" fill="#1F2229"/>
<path d="M157.204 197.496L157.144 205.427L149.45 208.571L142.483 205.281L134.848 208.95L121.561 189.643L121.431 181.945L134.61 200.338L142.373 197.331L149.082 200.464L157.204 197.496Z" fill="#C882FF"/>
<path d="M142.483 197.233L134.848 200.912L121.561 181.604L158 189.536L149.988 193.506L157.492 197.214L149.45 200.532L142.483 197.233Z" stroke="#1F2229" stroke-linejoin="bevel"/>
<path d="M157.204 197.496L157.144 205.427L149.45 208.571L142.483 205.281L134.848 208.95L121.561 189.643L121.591 183.95" stroke="#1F2229" stroke-linejoin="bevel"/>
<path d="M157.751 189.186V195.17" stroke="#1F2229" stroke-linejoin="bevel"/>
<path d="M149.341 200.62V208.132" stroke="#1F2229" stroke-linejoin="bevel"/>
<path d="M142.552 197.7V205.213" stroke="#1F2229" stroke-linejoin="bevel"/>
<path d="M134.938 200.834V208.347" stroke="#1F2229" stroke-linejoin="bevel"/>
<path d="M0.00032217 207.643C0.0439423 210.45 2.18134 213.173 7.51026 215.632C13.9951 218.639 23.2717 220.416 36.2196 214.921C36.5249 214.793 46.9864 209.149 46.9864 209.149L99.8249 178.585C99.8249 178.585 109.021 173.29 111.05 170.66C114.263 166.495 116.107 172.167 116.674 165.969C114.58 169.736 111.45 169.707 99.8249 176.275C74.2999 191.962 22.9599 218.589 25.0714 210.749C11.6291 215.724 10.5314 205.773 7.51026 198.665C4.35185 200.087 -0.0432979 204.835 0.00032217 207.643Z" fill="#1F2229"/>
<path d="M8.00864 209.166C8.05226 211.973 10.1897 214.696 15.5186 217.155C22.0034 220.162 31.28 221.939 44.2279 216.444C44.5332 216.316 54.9948 210.673 54.9948 210.673L107.833 180.108C107.833 180.108 117.03 174.813 119.058 172.183C122.271 168.017 120.745 163.383 121.312 157.185C119.218 160.952 120.716 162.253 109.091 168.821C83.5659 184.508 49.4768 202.612 43.9153 206.209C30.473 211.184 18.1503 211.042 8.13949 201.354C7.9432 203.7 8.00864 209.166 8.00864 209.166Z" fill="#C882FF"/>
<path d="M109.469 168.615C130.065 158.407 118.92 148.854 111.948 146.679C103.457 144.028 92.5372 144.17 83.0789 149.629L81.414 150.56C60.1419 162.516 56.4633 164.364 33.2283 177.471L32.0506 178.125C17.7723 185.674 -3.44163 197.757 15.5477 206.571C22.0325 209.578 31.3091 211.355 44.257 205.86C44.5623 205.733 55.0239 200.096 55.0239 200.096L107.862 169.532L109.469 168.615Z" stroke="#1F2229" stroke-linejoin="round"/>
<path d="M110.785 178.487C119.342 173.952 121.748 169.574 121.196 165.956" stroke="#1F2229" stroke-linejoin="round"/>
<path d="M8.00867 209.166C8.05229 211.973 10.1897 214.696 15.5186 217.155C22.0035 220.162 31.28 221.939 44.2279 216.444C44.5332 216.316 54.9948 210.673 54.9948 210.673L107.833 180.108" stroke="#1F2229" stroke-linejoin="round"/>
<path d="M7.98682 203.827V209.905" stroke="#1F2229" stroke-linejoin="round"/>
<path d="M121.29 156.246V166.766" stroke="#1F2229" stroke-linejoin="round"/>
<path d="M45.3204 191.151L41.5884 188.081L39.7382 189.202L38.5398 188.206L44.1114 184.863L45.3204 185.848L43.4596 186.959L47.1706 190.019L45.3204 191.151Z" fill="#D5D8DC"/>
<path d="M34.0194 194.452C33.6609 194.176 33.3758 193.816 33.1889 193.404C33.0546 193.072 33.0111 192.711 33.0628 192.356C33.1494 191.967 33.3339 191.607 33.5989 191.308C33.9129 190.938 34.2901 190.626 34.7133 190.386L34.8289 190.323C35.2526 190.081 35.7045 189.891 36.1745 189.757C36.6844 189.616 37.2115 189.545 37.7409 189.548C38.2475 189.546 38.7513 189.624 39.2336 189.778C39.7229 189.945 40.1786 190.197 40.5793 190.522C40.9364 190.798 41.2184 191.158 41.3992 191.57C41.5413 191.901 41.578 192.267 41.5043 192.618C41.4238 193.01 41.2386 193.372 40.9682 193.666C40.6436 194.034 40.2599 194.346 39.8328 194.589L39.7067 194.662C39.289 194.902 38.8444 195.092 38.3821 195.228C37.8798 195.373 37.3596 195.447 36.8367 195.448C36.3335 195.44 35.8341 195.359 35.3545 195.207C34.8668 195.039 34.4142 194.783 34.0194 194.452ZM35.3125 192.199C35.3125 192.524 35.4807 192.88 35.9642 193.247C36.3457 193.597 36.8349 193.808 37.3519 193.845C37.7754 193.857 38.194 193.752 38.5608 193.541C38.7355 193.446 38.8892 193.318 39.0128 193.163C39.1254 193.042 39.1954 192.887 39.2126 192.723C39.2266 192.549 39.1902 192.374 39.1075 192.22C38.9697 192.003 38.7954 191.812 38.5924 191.654C38.3779 191.475 38.1367 191.33 37.8775 191.225C37.6542 191.128 37.4159 191.072 37.1731 191.057C36.9505 191.046 36.7274 191.067 36.5109 191.12C36.3252 191.175 36.1456 191.249 35.9748 191.34C35.8134 191.417 35.6718 191.53 35.5607 191.669C35.4495 191.809 35.3718 191.972 35.3335 192.147" fill="#D5D8DC"/>
<path d="M78.6556 171.113L73.7357 167.068L75.6069 165.947L78.3822 168.221L78.4874 168.158L77.8987 164.574L79.6332 163.536L84.5531 167.571L82.6819 168.703L79.896 166.408L79.8014 166.481L80.3796 170.086L78.6556 171.113Z" fill="#D5D8DC"/>
<path d="M71.7488 175.274L66.8185 171.218L69.3941 169.678L69.6253 169.542C70.0152 169.317 70.419 169.118 70.8343 168.944C71.2029 168.794 71.5873 168.685 71.9802 168.619C72.2715 168.56 72.5718 168.56 72.8632 168.619C73.1026 168.685 73.3274 168.795 73.5255 168.944C73.652 169.03 73.753 169.148 73.8177 169.287C73.8825 169.425 73.9086 169.578 73.8934 169.73C73.8102 170.054 73.6171 170.339 73.3468 170.537L73.4098 170.6C73.8667 170.383 74.3649 170.265 74.8711 170.254C75.2914 170.248 75.7005 170.389 76.0274 170.652C76.2088 170.787 76.3504 170.968 76.4374 171.176C76.5221 171.381 76.5221 171.611 76.4374 171.816C76.3126 172.11 76.122 172.371 75.8803 172.581C75.5076 172.921 75.0987 173.22 74.6608 173.472L71.7488 175.274ZM74.0091 171.795C73.9137 171.716 73.802 171.659 73.6821 171.628C73.5621 171.598 73.4369 171.593 73.3152 171.617C73.0243 171.656 72.745 171.756 72.4953 171.91L71.6332 172.434L72.6845 173.325L73.5465 172.811C73.7924 172.683 73.9993 172.491 74.1457 172.256C74.1877 172.172 74.1981 172.077 74.1749 171.986C74.1517 171.896 74.0966 171.816 74.0196 171.763L74.0091 171.795ZM70.3192 170.464L69.6569 170.852L70.6345 171.659L71.2968 171.271C71.5511 171.149 71.7607 170.951 71.896 170.705C71.9218 170.626 71.9225 170.542 71.898 170.463C71.8735 170.384 71.8251 170.315 71.7594 170.265C71.6749 170.201 71.5778 170.156 71.4745 170.132C71.3712 170.109 71.264 170.107 71.1602 170.128C70.8838 170.173 70.6194 170.273 70.3822 170.422H70.3192" fill="#D5D8DC"/>
<path d="M62.8448 176.993C63.0761 176.613 63.3754 176.279 63.7278 176.008C64.2654 175.567 64.8385 175.171 65.4413 174.824L65.2205 174.645C65.1114 174.556 64.9853 174.49 64.8499 174.45C64.7144 174.41 64.5723 174.398 64.4321 174.415C64.0881 174.458 63.7579 174.576 63.465 174.761L63.3599 174.824C62.985 175.047 62.6329 175.307 62.3086 175.599C62.0205 175.858 61.7725 176.158 61.5727 176.49L60.3638 175.505C60.5898 175.165 60.8663 174.861 61.1838 174.603C61.5663 174.292 61.9703 174.009 62.3927 173.755L62.5504 173.671C63.3061 173.19 64.169 172.902 65.0629 172.832C65.8272 172.808 66.5744 173.061 67.1654 173.545L70.3191 176.144L68.511 177.192L67.7541 176.563L67.6595 176.626C67.6757 176.776 67.6757 176.927 67.6595 177.077C67.6638 177.237 67.6277 177.395 67.5544 177.538C67.4594 177.712 67.3389 177.871 67.1969 178.009C67.0039 178.2 66.7844 178.363 66.5451 178.491H66.4715C65.9487 178.809 65.3492 178.979 64.737 178.984C64.1738 178.988 63.6269 178.795 63.1916 178.439C62.9556 178.262 62.7796 178.017 62.6871 177.737C62.6553 177.478 62.7108 177.216 62.8448 176.993ZM64.8421 176.479C64.6003 176.752 64.5898 176.982 64.8421 177.181C65.0087 177.313 65.219 177.376 65.4308 177.36C65.6852 177.355 65.933 177.279 66.1456 177.14C66.287 177.059 66.4147 176.956 66.5241 176.836C66.6226 176.729 66.6915 176.599 66.7239 176.458C66.7654 176.322 66.7654 176.176 66.7239 176.039C66.6486 175.876 66.5328 175.736 66.3875 175.63L66.2087 175.484C65.7083 175.771 65.2487 176.123 64.8421 176.532" fill="#D5D8DC"/>
<path d="M59.6384 185.984L52.2797 179.959L54.0878 178.911L54.7712 179.477L54.8658 179.414C54.8157 179.103 54.8752 178.784 55.034 178.512C55.2896 178.117 55.6547 177.804 56.0852 177.611L56.1798 177.548C56.5484 177.334 56.9497 177.182 57.3677 177.098C57.8193 176.995 58.285 176.97 58.7449 177.024C59.2012 177.06 59.6486 177.17 60.0695 177.349C60.5043 177.526 60.9087 177.77 61.2679 178.072C61.6149 178.342 61.9104 178.672 62.1404 179.047C62.3196 179.349 62.4174 179.692 62.4243 180.042C62.4161 180.384 62.3063 180.716 62.1089 180.996C61.8604 181.336 61.5412 181.618 61.1733 181.824L61.0682 181.887C60.6807 182.113 60.2578 182.272 59.8172 182.358C59.3761 182.442 58.9231 182.442 58.4821 182.358H58.3979L59.2285 182.945L61.5517 184.853L59.6384 185.984ZM56.0326 180.2C56.1256 180.398 56.2665 180.571 56.4426 180.703L56.7475 180.954C57.1116 181.275 57.5759 181.46 58.0615 181.478C58.4756 181.473 58.8815 181.361 59.239 181.153C59.4055 181.056 59.5547 180.932 59.6805 180.786C59.7964 180.662 59.87 180.504 59.8908 180.336C59.9129 180.152 59.8682 179.966 59.7646 179.812C59.6386 179.578 59.4628 179.374 59.2495 179.215C59.0389 179.043 58.8054 178.902 58.5557 178.795C58.33 178.708 58.0927 178.655 57.8513 178.638C57.6311 178.634 57.4114 178.662 57.1996 178.722C57.0122 178.777 56.8322 178.854 56.6634 178.953C56.4933 179.049 56.3377 179.169 56.2009 179.309C56.0864 179.424 56.0064 179.57 55.9696 179.728C55.948 179.886 55.9736 180.046 56.0432 180.189" fill="#D5D8DC"/>
<path d="M49.9249 188.363L45.005 184.329L50.7659 180.87L55.6962 184.905L53.825 186.037L50.0931 182.977L48.0852 184.182L51.8066 187.242L49.9249 188.363Z" fill="#D5D8DC"/>
<path d="M87.2968 165.926L83.5754 162.866L81.7252 163.987L80.5267 162.992L86.0984 159.648L87.2968 160.634L85.4361 161.755L89.1575 164.815L87.2968 165.926Z" fill="#D5D8DC"/>
<path d="M91.9118 163.149L86.9919 159.114L88.8632 157.982L90.2824 159.145L90.9447 158.747L91.0603 158.684C91.4953 158.42 91.9569 158.203 92.4374 158.035C92.8589 157.89 93.2968 157.799 93.741 157.762C94.0961 157.741 94.4521 157.784 94.7922 157.888C95.1045 157.985 95.3966 158.137 95.6542 158.338C95.886 158.523 96.0698 158.76 96.1904 159.03C96.2855 159.284 96.2855 159.563 96.1904 159.816C96.0764 160.146 95.8855 160.444 95.6333 160.686C95.268 161.054 94.8542 161.372 94.4032 161.629L91.9118 163.149ZM92.0064 159.669L91.3756 160.047L92.7002 161.095L93.331 160.717C93.7305 160.476 93.9513 160.256 93.9933 160.047C94.0185 159.944 94.0107 159.837 93.971 159.739C93.9314 159.641 93.862 159.558 93.7725 159.502C93.5697 159.334 93.3107 159.248 93.0472 159.261C92.6942 159.285 92.3536 159.401 92.059 159.596" fill="#D5D8DC"/>
<path d="M576.052 218.892L611.345 198.428C613.91 196.933 615.118 194.95 614.968 192.998C614.834 191.262 614.968 183.483 614.897 182.481L563.268 160.526C558.411 157.742 550.514 157.752 545.647 160.526L508.029 173.967C508.029 177.974 507.964 183.594 508.029 185.486C508.09 187.282 509.303 189.064 511.669 190.425L522.446 196.637L521.744 199.712V211.54L543.6 210.348L558.461 218.912C563.318 221.706 571.216 221.686 576.073 218.912" fill="#C882FF"/>
<path d="M611.357 185.957C616.214 183.132 616.214 178.564 611.357 175.76L563.291 148.115C558.434 145.29 550.536 145.3 545.669 148.115L511.661 167.747C506.815 170.571 506.815 175.139 511.661 177.933L525.198 185.736L525.118 186.027L521.736 199.048L543.592 197.856L558.454 206.42C563.311 209.255 571.208 209.235 576.065 206.42L611.357 185.957Z" fill="white"/>
<path d="M569.426 162.291C567.99 165.818 563.129 169.632 562.836 169.777L555.186 167.336C545.952 171.539 548.63 183.171 548.777 183.745L556.308 186.235L556.116 195.363L545.747 193.985C544.971 193.876 544.222 193.622 543.541 193.236C543.189 193.03 542.865 192.783 542.573 192.499C542.398 192.313 542.247 192.105 542.125 191.88C530.273 170.468 549.419 159.714 556.083 156.743C556.771 156.472 557.517 156.378 558.251 156.47C559.095 156.577 559.911 156.843 560.656 157.256L569.426 162.291Z" fill="#C882FF"/>
<path d="M568.042 171.593C570.249 172.865 571.413 174.547 571.243 176.27C571.062 178.173 569.236 179.926 566.366 181.048C565.929 181.189 565.458 181.189 565.021 181.048C564.906 181.017 564.795 180.973 564.69 180.918C564.595 180.875 564.514 180.807 564.457 180.72C564.4 180.632 564.37 180.531 564.369 180.427C564.411 180.309 564.482 180.204 564.575 180.12C564.667 180.036 564.78 179.977 564.901 179.946C567.219 179.055 568.634 177.662 568.764 176.14C568.895 174.778 567.972 173.446 566.225 172.434C566.035 172.324 565.834 172.224 565.613 172.113H565.543C565.102 171.863 565.092 171.482 565.543 171.232C565.818 171.097 566.12 171.028 566.426 171.028C566.732 171.028 567.034 171.097 567.309 171.232C567.56 171.339 567.804 171.459 568.042 171.593Z" fill="black"/>
<path d="M572.758 169.079C576.18 171.082 577.996 173.736 577.775 176.471C577.504 179.415 574.886 182.12 570.621 183.863C570.233 184.015 569.805 184.033 569.407 183.913C569.309 183.886 569.215 183.849 569.126 183.803C568.905 183.672 568.784 183.502 568.814 183.322C568.844 183.142 568.985 182.961 569.266 182.841C572.979 181.329 575.287 178.965 575.508 176.401C575.728 174.007 574.143 171.673 571.163 169.96L570.47 169.579C570.169 169.409 570.049 169.189 570.139 168.978C570.218 168.845 570.329 168.733 570.462 168.652C570.595 168.572 570.746 168.526 570.902 168.518C571.279 168.449 571.667 168.498 572.015 168.658L572.758 169.079Z" fill="black"/>
<path d="M577.073 165.673C582.091 168.528 584.66 172.564 584.238 176.691C583.817 180.818 580.375 184.704 574.815 187.198C574.453 187.333 574.054 187.333 573.691 187.198L573.461 187.098C573.364 187.058 573.282 186.99 573.225 186.902C573.167 186.814 573.138 186.712 573.14 186.607C573.161 186.495 573.212 186.391 573.288 186.306C573.364 186.222 573.462 186.159 573.571 186.126C578.589 183.863 581.77 180.367 582.151 176.571C582.532 172.775 580.144 169.129 575.638 166.554L575.528 166.484C575.412 166.439 575.317 166.353 575.261 166.242C575.206 166.131 575.193 166.003 575.227 165.883C575.3 165.753 575.405 165.642 575.53 165.56C575.656 165.478 575.8 165.427 575.949 165.413C576.29 165.349 576.643 165.398 576.953 165.553L577.073 165.673Z" fill="black"/>
<path d="M545.647 148.507C550.514 145.732 558.411 145.722 563.268 148.507L611.345 176.212C616.192 179.016 616.192 183.584 611.345 186.408L593.699 196.64L584.876 201.756L576.073 206.892C571.216 209.666 563.318 209.686 558.461 206.892L543.6 198.328L521.744 199.52L525.126 186.499L525.206 186.208L511.669 178.405C506.812 175.611 506.812 171.043 511.669 168.219L539.452 152.101" stroke="black" stroke-linejoin="bevel"/>
<path d="M790.569 96.562L821.039 79.4315L822.78 80.3373L830.619 75.6988V74.2455L859.926 56.8164V54.7559L855.867 51.8594V54.2085L790.569 91.0376L740.759 62.6095V55.9006L733.408 60.2604V62.6095L790.569 96.562Z" fill="#C882FF"/>
<path d="M790.917 94.6409H790.419L733.249 60.6686V59.8125L740.342 55.4926L740.859 56.3386L734.472 60.2306L790.678 93.6357L820.9 76.6445L821.367 76.6345L822.86 77.381L830.221 73.0213V71.8567L830.46 71.4287L859.08 54.4176L855.28 51.9689L855.817 51.1328L860.294 54.0095L860.284 54.8555L831.216 72.1354V73.3099L830.967 73.728L823.138 78.3764L822.661 78.3964L821.159 77.6399L790.917 94.6409Z" fill="black"/>
<path d="M791.394 97H790.947L733.249 62.7289L733 62.3009V60.0314H733.995V62.0222L791.156 95.9946L821.377 79.0034H821.845L823.337 79.75L830.221 75.659V73.1207H831.216V75.9377L830.967 76.3657L823.616 80.7453H823.138L821.636 79.9889L791.394 97ZM832.569 73.9867L832.061 73.1307L860.005 56.4978V54.5071H861V56.7766L860.761 57.2046L832.569 73.9867Z" fill="black"/>
<path d="M792.18 71.4783L791.862 71.4087L743.117 41.7861L743.326 40.8703L774.085 37.3865L774.393 37.4462L824.591 66.7801L824.402 67.6959L792.18 71.4783ZM744.868 41.6965L792.23 70.463L822.78 66.8896L774.035 38.3918L744.868 41.6965Z" fill="black"/>
<path d="M824.372 67.925L773.876 38.3124L773.727 38.183L756.03 14.6422L756.686 13.9155L805.431 42.9508L805.57 43.0603L825.008 67.1685L824.372 67.925ZM774.463 37.536L822.521 65.7152L804.844 43.8168L758.347 16.1253L774.463 37.536Z" fill="black"/>
<path d="M824.989 68.0941L824.024 67.8652L833.056 30.2795L784.6 1.19447L778.263 25.4221L777.298 25.1732L783.804 0.298633L784.54 0L833.872 29.6126L834.101 30.1601L824.989 68.0941Z" fill="black"/>
<path d="M824.67 68.2037L823.924 67.5467L850.266 37.4264L801.601 8.72958L802.108 7.87354L851.281 36.869L851.41 37.6255L824.67 68.2037Z" fill="black"/>
<path d="M790.42 91.7445L740.511 62.9979L740.262 62.5599V54.7262L740.531 54.2783L754.03 47.3704L754.488 48.2563L741.257 55.0248V62.2713L790.668 90.7292L823.914 71.4288L854.882 53.8503V46.604L847.461 42.7419L847.919 41.856L855.618 45.8574L855.877 46.3053V54.1389L855.628 54.5769L824.412 72.2848L790.927 91.7346L790.42 91.7445Z" fill="black"/>
<path d="M780.042 44.8983L760.595 47.5535L760.729 48.5397L780.176 45.8846L780.042 44.8983Z" fill="black"/>
<path d="M853.481 46.4469L823.938 67.3459L824.512 68.1587L854.055 47.2597L853.481 46.4469Z" fill="black"/>
<path d="M790.598 84.2093L790.131 84.1894L740.083 54.9053L740.58 54.0393L790.4 83.194L824.571 66.8299L824.998 67.7358L790.598 84.2093Z" fill="black"/>
<path d="M784.373 47.6375L765.392 50.3945L765.535 51.3796L784.516 48.6225L784.373 47.6375Z" fill="black"/>
<path d="M797.796 54.585L778.815 57.342L778.958 58.3271L797.939 55.57L797.796 54.585Z" fill="black"/>
<path d="M802.446 58.0715L783.465 60.8286L783.608 61.8137L802.589 59.0566L802.446 58.0715Z" fill="black"/>
<path d="M791.497 11.1342L786.287 29.2205L787.243 29.4962L792.453 11.4099L791.497 11.1342Z" fill="black"/>
<path d="M796.135 13.4516L790.925 31.5378L791.881 31.8135L797.091 13.7273L796.135 13.4516Z" fill="black"/>
<path d="M791.016 83.5525H790.022V89.3357H791.016V83.5525Z" fill="black"/>
</svg>
