<svg width="333" height="580" viewBox="0 0 333 580" fill="none" xmlns="http://www.w3.org/2000/svg">
<path d="M317.217 49.5749L317.165 56.4487L310.445 59.1729L304.36 56.3221L297.692 59.5018L286.086 42.7685L297.692 40.3142L304.264 49.4315L310.123 52.1473L317.217 49.5749Z" fill="#1F2229"/>
<path d="M323.303 46.4965L323.251 53.3702L316.531 56.0943L310.445 53.2437L303.777 56.4232L292.172 39.6903L292.059 33.019L303.569 48.9592L310.35 46.3531L316.209 49.0688L323.303 46.4965Z" fill="#C882FF"/>
<path d="M310.446 46.2691L303.778 49.4572L292.172 32.7239L323.999 39.5977L317 43.0388L323.555 46.2522L316.531 49.1283L310.446 46.2691Z" stroke="#1F2229" stroke-linejoin="bevel"/>
<path d="M323.303 46.4966L323.251 53.3703L316.531 56.0945L310.446 53.2438L303.778 56.4234L292.172 39.6903L292.198 34.7563" stroke="#1F2229" stroke-linejoin="bevel"/>
<path d="M323.781 39.2947V44.4812" stroke="#1F2229" stroke-linejoin="bevel"/>
<path d="M316.436 49.2039V55.7144" stroke="#1F2229" stroke-linejoin="bevel"/>
<path d="M310.506 46.6738V53.1852" stroke="#1F2229" stroke-linejoin="bevel"/>
<path d="M303.854 49.3894V55.9003" stroke="#1F2229" stroke-linejoin="bevel"/>
<path d="M186 55.2894C186.038 57.7227 187.905 60.082 192.56 62.2135C198.224 64.8192 206.326 66.3593 217.635 61.5974C217.902 61.4866 227.039 56.5953 227.039 56.5953L273.189 30.1063C273.189 30.1063 281.222 25.517 282.993 23.2377C285.8 19.6278 287.41 24.5436 287.905 19.1719C286.076 22.4368 283.342 22.4122 273.189 28.1042C250.895 41.6998 206.054 64.7761 207.898 57.9813C196.157 62.2935 195.198 53.6692 192.56 47.5089C189.801 48.741 185.962 52.8561 186 55.2894Z" fill="#1F2229"/>
<path d="M192.994 56.61C193.032 59.0434 194.898 61.4027 199.553 63.5342C205.217 66.14 213.319 67.6801 224.628 62.9182C224.895 62.8073 234.032 57.9159 234.032 57.9159L280.182 31.4267C280.182 31.4267 288.215 26.8374 289.986 24.5581C292.793 20.9481 291.46 16.9316 291.955 11.5598C290.126 14.8248 291.434 15.9522 281.281 21.6443C258.987 35.24 229.213 50.9302 224.355 54.0473C212.614 58.3595 201.851 58.2364 193.108 49.8399C192.936 51.8728 192.994 56.61 192.994 56.61Z" fill="#C882FF"/>
<path d="M281.614 21.4659C299.603 12.6198 289.869 4.34033 283.78 2.45529C276.363 0.15752 266.826 0.280815 258.565 5.01189L257.111 5.81892C238.531 16.1805 235.318 17.782 215.024 29.1415L213.995 29.7082C201.525 36.2504 182.996 46.7229 199.581 54.3616C205.245 56.9674 213.348 58.5074 224.657 53.7456C224.923 53.6347 234.061 48.7497 234.061 48.7497L280.211 22.2606L281.614 21.4659Z" stroke="#1F2229" stroke-linejoin="round"/>
<path d="M282.762 30.0223C290.235 26.092 292.337 22.2974 291.855 19.1619" stroke="#1F2229" stroke-linejoin="round"/>
<path d="M192.996 56.6099C193.034 59.0432 194.901 61.4026 199.555 63.534C205.219 66.1398 213.322 67.6799 224.631 62.918C224.897 62.8071 234.035 57.9158 234.035 57.9158L280.185 31.4268" stroke="#1F2229" stroke-linejoin="round"/>
<path d="M192.975 51.9836V57.2508" stroke="#1F2229" stroke-linejoin="round"/>
<path d="M291.938 10.7466V19.864" stroke="#1F2229" stroke-linejoin="round"/>
<path d="M225.582 40.9969L222.323 38.3357L220.707 39.3075L219.66 38.4447L224.527 35.5474L225.582 36.4011L223.957 37.3639L227.198 40.016L225.582 40.9969Z" fill="#D5D8DC"/>
<path d="M215.713 43.8583C215.4 43.6187 215.151 43.3068 214.988 42.95C214.871 42.6622 214.833 42.3488 214.878 42.0418C214.953 41.7046 215.115 41.392 215.346 41.1335C215.62 40.8123 215.95 40.5416 216.319 40.3341L216.42 40.2796C216.791 40.0694 217.185 39.9049 217.596 39.7893C218.041 39.6666 218.501 39.6053 218.964 39.6075C219.406 39.6058 219.846 39.6732 220.268 39.8073C220.695 39.9515 221.093 40.17 221.443 40.4523C221.755 40.6909 222.001 41.0032 222.159 41.3606C222.283 41.6468 222.315 41.9639 222.251 42.2688C222.181 42.6078 222.019 42.9217 221.783 43.1771C221.499 43.496 221.164 43.766 220.791 43.9762L220.681 44.0399C220.316 44.2477 219.928 44.4124 219.524 44.5304C219.085 44.6559 218.631 44.7201 218.174 44.7211C217.735 44.7145 217.298 44.6441 216.879 44.5122C216.454 44.3668 216.058 44.1452 215.713 43.8583ZM216.843 41.9054C216.843 42.1869 216.99 42.4958 217.412 42.8136C217.745 43.1168 218.173 43.2994 218.624 43.3314C218.994 43.3423 219.36 43.2511 219.68 43.068C219.832 42.9864 219.967 42.8754 220.075 42.7411C220.173 42.636 220.234 42.502 220.249 42.3595C220.261 42.2085 220.23 42.0572 220.157 41.9236C220.037 41.7357 219.885 41.5698 219.708 41.4331C219.52 41.2777 219.31 41.1522 219.083 41.0608C218.888 40.9775 218.68 40.9284 218.468 40.9155C218.273 40.9058 218.079 40.924 217.889 40.9699C217.727 41.0178 217.57 41.0816 217.421 41.1606C217.28 41.2274 217.157 41.3252 217.06 41.4464C216.963 41.5676 216.895 41.7089 216.861 41.8599" fill="#D5D8DC"/>
<path d="M254.699 23.6316L250.402 20.1258L252.037 19.1539L254.461 21.1248L254.553 21.0703L254.038 17.9641L255.553 17.0649L259.85 20.5617L258.216 21.5426L255.783 19.5536L255.7 19.6171L256.205 22.7415L254.699 23.6316Z" fill="#D5D8DC"/>
<path d="M248.67 27.237L244.363 23.722L246.613 22.3868L246.815 22.2689C247.155 22.0744 247.508 21.9014 247.871 21.7511C248.193 21.6207 248.528 21.5262 248.872 21.4695C249.126 21.4184 249.388 21.4184 249.643 21.4695C249.852 21.5262 250.048 21.6218 250.221 21.7511C250.332 21.8256 250.42 21.9281 250.477 22.048C250.533 22.1679 250.556 22.3007 250.543 22.4323C250.47 22.713 250.301 22.9602 250.065 23.1317L250.12 23.1862C250.519 22.9978 250.954 22.8955 251.397 22.8864C251.764 22.8811 252.121 23.0031 252.407 23.2315C252.565 23.3483 252.689 23.5052 252.765 23.6856C252.839 23.863 252.839 24.0623 252.765 24.2397C252.656 24.4945 252.489 24.7213 252.278 24.9027C251.953 25.1977 251.595 25.4567 251.213 25.6748L248.67 27.237ZM250.644 24.2215C250.56 24.1533 250.463 24.1041 250.358 24.0774C250.253 24.0507 250.144 24.0472 250.038 24.0672C249.784 24.1016 249.54 24.1882 249.321 24.3215L248.569 24.7757L249.487 25.5476L250.24 25.1025C250.454 24.9911 250.635 24.8249 250.763 24.6211C250.8 24.5488 250.809 24.4658 250.789 24.3874C250.768 24.309 250.72 24.2404 250.653 24.1943L250.644 24.2215ZM247.421 23.068L246.842 23.4042L247.696 24.1036L248.275 23.7674C248.497 23.6622 248.68 23.4906 248.798 23.2769C248.821 23.2089 248.821 23.1357 248.8 23.0674C248.778 22.999 248.736 22.939 248.679 22.8955C248.605 22.8402 248.52 22.801 248.43 22.7807C248.34 22.7603 248.246 22.7591 248.155 22.7773C247.914 22.8165 247.683 22.903 247.476 23.0317H247.421" fill="#D5D8DC"/>
<path d="M240.89 28.7265C241.092 28.3976 241.353 28.1083 241.661 27.8728C242.13 27.4906 242.631 27.1475 243.158 26.8466L242.965 26.692C242.869 26.6147 242.759 26.5572 242.641 26.5229C242.523 26.4885 242.398 26.4781 242.276 26.4923C241.976 26.5294 241.687 26.6319 241.431 26.7921L241.34 26.8466C241.012 27.0405 240.705 27.2656 240.421 27.5187C240.17 27.7432 239.953 28.0032 239.779 28.2906L238.723 27.4369C238.92 27.1422 239.162 26.8787 239.439 26.6557C239.773 26.3862 240.126 26.1406 240.495 25.9202L240.632 25.8474C241.293 25.4306 242.046 25.1809 242.827 25.1208C243.495 25.0996 244.147 25.319 244.663 25.7383L247.418 27.9908L245.839 28.899L245.178 28.3542L245.095 28.4088C245.109 28.5386 245.109 28.6695 245.095 28.7993C245.099 28.938 245.067 29.0754 245.003 29.1988C244.92 29.3497 244.815 29.4874 244.691 29.6075C244.522 29.773 244.331 29.9139 244.122 30.0255H244.057C243.601 30.3007 243.077 30.4482 242.542 30.4524C242.05 30.4559 241.573 30.2888 241.193 29.98C240.986 29.8263 240.833 29.6139 240.752 29.3714C240.724 29.1472 240.773 28.9204 240.89 28.7265ZM242.634 28.2815C242.423 28.5176 242.414 28.7176 242.634 28.8902C242.78 29.004 242.963 29.0591 243.148 29.0445C243.37 29.0406 243.587 28.9745 243.773 28.8538C243.896 28.7837 244.008 28.6948 244.103 28.5904C244.189 28.4983 244.249 28.3855 244.278 28.2633C244.314 28.1449 244.314 28.0185 244.278 27.9001C244.212 27.7591 244.111 27.6371 243.984 27.5458L243.828 27.4187C243.391 27.6674 242.989 27.9728 242.634 28.327" fill="#D5D8DC"/>
<path d="M238.089 36.5192L231.662 31.2968L233.241 30.3885L233.838 30.879L233.921 30.8245C233.877 30.5551 233.929 30.279 234.068 30.0433C234.291 29.7005 234.61 29.4293 234.986 29.2623L235.069 29.2077C235.391 29.0223 235.741 28.8904 236.106 28.8172C236.501 28.7287 236.907 28.7071 237.309 28.7536C237.708 28.7845 238.098 28.8797 238.466 29.0352C238.846 29.1889 239.199 29.4003 239.513 29.6619C239.816 29.896 240.074 30.1821 240.275 30.5065C240.431 30.7681 240.517 31.0655 240.523 31.3695C240.515 31.6659 240.42 31.9534 240.247 32.1959C240.03 32.4904 239.751 32.7352 239.43 32.9135L239.338 32.968C239 33.164 238.63 33.3022 238.246 33.3767C237.86 33.4494 237.465 33.4494 237.079 33.3767H237.006L237.731 33.8854L239.76 35.5382L238.089 36.5192ZM234.94 31.5056C235.021 31.6779 235.144 31.8277 235.298 31.9416L235.564 32.1596C235.882 32.4376 236.288 32.5981 236.712 32.6137C237.074 32.6097 237.428 32.5126 237.741 32.3321C237.886 32.2479 238.016 32.1406 238.126 32.0143C238.227 31.9065 238.292 31.7697 238.31 31.6236C238.329 31.4641 238.29 31.303 238.2 31.1695C238.09 30.9665 237.936 30.79 237.75 30.6519C237.566 30.5035 237.362 30.381 237.144 30.2885C236.947 30.213 236.739 30.1672 236.529 30.1523C236.336 30.1485 236.144 30.173 235.959 30.2251C235.796 30.2728 235.638 30.3399 235.491 30.4249C235.342 30.5087 235.206 30.6125 235.087 30.7335C234.987 30.8339 234.917 30.9597 234.885 31.097C234.866 31.2335 234.888 31.3725 234.949 31.4966" fill="#D5D8DC"/>
<path d="M229.606 38.5807L225.309 35.0839L230.34 32.0867L234.647 35.5835L233.012 36.5644L229.753 33.9123L227.999 34.9568L231.249 37.6089L229.606 38.5807Z" fill="#D5D8DC"/>
<path d="M262.247 19.135L258.997 16.4829L257.381 17.4548L256.334 16.5919L261.2 13.6946L262.247 14.5483L260.622 15.5202L263.872 18.1723L262.247 19.135Z" fill="#D5D8DC"/>
<path d="M266.276 16.7285L261.979 13.2316L263.613 12.2508L264.852 13.2589L265.431 12.9138L265.532 12.8593C265.912 12.6306 266.315 12.442 266.735 12.2963C267.103 12.1711 267.485 12.0917 267.873 12.0601C268.183 12.0421 268.494 12.0789 268.791 12.169C269.064 12.253 269.319 12.3853 269.544 12.5595C269.747 12.7193 269.907 12.925 270.013 13.1591C270.096 13.3787 270.096 13.6207 270.013 13.8403C269.913 14.1262 269.746 14.3844 269.526 14.594C269.207 14.9133 268.846 15.1884 268.452 15.4115L266.276 16.7285ZM266.358 13.713L265.807 14.0401L266.964 14.9483L267.515 14.6213C267.864 14.4124 268.057 14.2217 268.094 14.0401C268.116 13.9513 268.109 13.8578 268.074 13.7731C268.04 13.6883 267.979 13.6166 267.901 13.5678C267.724 13.4219 267.497 13.3474 267.267 13.3589C266.959 13.3801 266.662 13.4803 266.404 13.6496" fill="#D5D8DC"/>
<path d="M71.5233 127.185L40.0518 145.461C36.4754 147.522 34.6873 150.42 35.0449 153.56C35.4025 156.701 37.8076 159.706 41.822 162.037C46.3051 164.5 51.3073 165.851 56.4134 165.978C61.7779 166.167 66.74 165.123 70.2806 163.063L101.743 144.75C105.319 142.699 107.108 139.801 106.759 136.652C106.41 133.502 103.987 130.497 99.9818 128.166" stroke="black" stroke-linejoin="round"/>
<path d="M71.5232 131.432L40.0516 149.708C37.8944 150.811 36.2169 152.676 35.3398 154.946C36.1624 157.546 38.4244 160.03 41.8219 162.001C46.305 164.464 51.3072 165.815 56.4133 165.942C61.7777 166.131 66.7399 165.087 70.2804 163.026L101.743 144.75C103.9 143.647 105.578 141.783 106.455 139.513C105.641 136.912 103.37 134.429 99.9817 132.458" stroke="black" stroke-linejoin="round"/>
<path fill-rule="evenodd" clip-rule="evenodd" d="M71.551 127.806L75.1273 133.367H88.8335L96.6567 127.833H102.826V135.931C102.826 138.721 100.948 141.502 97.2826 143.634C89.9243 147.909 78.0062 147.936 70.6927 143.634C67.0269 141.502 65.203 138.694 65.2388 135.886V127.788L71.551 127.806Z" fill="black"/>
<path d="M65.4597 139.693L57.9316 144.058L65.4597 139.693ZM59.2906 114.101L66.7651 118.411L59.2906 114.101ZM103.154 139.558L110.629 143.905L103.154 139.558ZM84.5036 108V114.164V108ZM109.681 114.011L102.117 118.411L109.681 114.011ZM119.999 128.652H109.395H119.999ZM84.3159 144.508V150.672V144.508ZM59.3889 128.733H48.7852H59.3889Z" fill="#BE88F8"/>
<path d="M59.3889 128.733H48.7852M65.4597 139.693L57.9316 144.058L65.4597 139.693ZM59.2906 114.101L66.7651 118.411L59.2906 114.101ZM103.154 139.558L110.629 143.905L103.154 139.558ZM84.5036 108V114.164V108ZM109.681 114.011L102.117 118.411L109.681 114.011ZM119.999 128.652H109.395H119.999ZM84.3159 144.508V150.672V144.508Z" stroke="#BE88F8" stroke-linejoin="round"/>
<path fill-rule="evenodd" clip-rule="evenodd" d="M70.7538 120.21C78.1121 115.927 90.0212 115.909 97.3348 120.156C104.648 124.404 104.613 131.333 97.2543 135.607C89.896 139.882 77.9779 139.909 70.6644 135.652C63.3508 131.396 63.3955 124.485 70.7538 120.21ZM83.1904 130.109H75.1437V133.384H88.8499L88.9215 120.084H83.2888L83.1904 130.109Z" fill="#BE88F8"/>
<path d="M77.1484 309.173L107.823 291.438C110.053 290.142 111.102 288.423 110.972 286.732C110.856 285.227 110.972 278.485 110.911 277.617L66.0368 258.589C61.8154 256.176 54.9512 256.185 50.7211 258.589L18.0248 270.238C18.0248 273.71 17.969 278.582 18.0248 280.221C18.0779 281.778 19.1325 283.322 21.1888 284.502L30.5561 289.886L29.9455 292.551V302.801L48.9418 301.768L61.8589 309.19C66.0803 311.612 72.9445 311.595 77.1659 309.19" fill="#C882FF"/>
<path d="M107.833 280.629C112.054 278.181 112.054 274.223 107.833 271.792L66.055 247.833C61.8336 245.385 54.9694 245.393 50.7393 247.833L21.181 264.847C16.9683 267.295 16.9683 271.254 21.181 273.676L32.9468 280.438L32.8769 280.69L29.9376 291.975L48.9338 290.942L61.851 298.364C66.0723 300.821 72.9365 300.803 77.1579 298.364L107.833 280.629Z" fill="white"/>
<path d="M71.389 260.119C70.1407 263.176 65.9157 266.481 65.6614 266.607L59.0124 264.491C50.9866 268.134 53.3139 278.215 53.4421 278.712L59.9879 280.87L59.8211 288.782L50.8085 287.587C50.1339 287.493 49.4833 287.272 48.8907 286.938C48.5854 286.76 48.3032 286.545 48.05 286.299C47.8972 286.138 47.7662 285.958 47.6606 285.763C37.3586 267.206 53.9997 257.886 59.7922 255.311C60.3904 255.076 61.0381 254.995 61.6761 255.074C62.41 255.166 63.1195 255.398 63.7663 255.755L71.389 260.119Z" fill="#C882FF"/>
<path d="M70.1863 268.18C72.1051 269.282 73.1168 270.741 72.9685 272.234C72.8115 273.883 71.2242 275.403 68.7298 276.375C68.3499 276.497 67.9409 276.497 67.561 276.375C67.4612 276.348 67.3646 276.31 67.2731 276.262C67.1904 276.225 67.1203 276.166 67.0708 276.09C67.0213 276.015 66.9947 275.927 66.9941 275.837C67.0309 275.735 67.0922 275.643 67.1728 275.571C67.2534 275.498 67.3509 275.446 67.4564 275.42C69.4712 274.647 70.7008 273.441 70.8142 272.121C70.9276 270.941 70.1252 269.786 68.6076 268.909C68.4418 268.814 68.2675 268.727 68.0756 268.631H68.0145C67.6308 268.414 67.622 268.085 68.0145 267.868C68.2535 267.751 68.5159 267.69 68.782 267.69C69.048 267.69 69.3107 267.751 69.5496 267.868C69.7674 267.96 69.98 268.064 70.1863 268.18Z" fill="black"/>
<path d="M74.2851 266.001C77.2593 267.737 78.8379 270.038 78.6461 272.407C78.4106 274.96 76.1343 277.303 72.4275 278.814C72.0905 278.946 71.7189 278.961 71.3722 278.857C71.2877 278.834 71.2059 278.802 71.1279 278.762C70.936 278.649 70.8313 278.501 70.8575 278.345C70.8836 278.189 71.0057 278.033 71.2499 277.928C74.477 276.618 76.483 274.569 76.6749 272.347C76.8668 270.272 75.4889 268.249 72.8985 266.765L72.2965 266.435C72.0349 266.287 71.9303 266.096 72.0088 265.914C72.0777 265.798 72.174 265.701 72.2897 265.632C72.4053 265.562 72.5367 265.522 72.6717 265.515C72.9993 265.456 73.3372 265.498 73.6397 265.636L74.2851 266.001Z" fill="black"/>
<path d="M78.0362 263.05C82.3971 265.524 84.6298 269.022 84.2635 272.599C83.8972 276.175 80.9057 279.543 76.0738 281.705C75.7588 281.822 75.4118 281.822 75.0968 281.705L74.8962 281.618C74.8122 281.583 74.7407 281.524 74.6909 281.448C74.6412 281.372 74.6155 281.283 74.6173 281.193C74.6354 281.096 74.68 281.006 74.7461 280.932C74.8122 280.859 74.8974 280.805 74.9923 280.776C79.3532 278.814 82.1181 275.785 82.4495 272.494C82.7809 269.204 80.7051 266.045 76.789 263.814L76.693 263.753C76.5923 263.714 76.5096 263.639 76.4613 263.543C76.413 263.446 76.4023 263.336 76.4313 263.232C76.4952 263.119 76.5858 263.022 76.6951 262.951C76.8044 262.88 76.9293 262.837 77.0592 262.824C77.3555 262.768 77.6619 262.811 77.9314 262.946L78.0362 263.05Z" fill="black"/>
<path d="M50.7199 248.172C54.95 245.767 61.8141 245.759 66.0355 248.172L107.822 272.183C112.035 274.614 112.035 278.572 107.822 281.02L92.4845 289.888L84.8159 294.322L77.1646 298.773C72.9432 301.177 66.0791 301.195 61.8577 298.773L48.9406 291.351L29.9443 292.384L32.8837 281.098L32.9533 280.847L21.1875 274.084C16.9661 271.662 16.9661 267.704 21.1875 265.256L45.3352 251.287" stroke="black" stroke-linejoin="bevel"/>
<path d="M9.68 25.3818H22.472V43.3818H18.968V28.5738H13.184V43.3818H9.68V25.3818ZM30.8204 43.6218C29.9884 43.6218 29.2124 43.4858 28.4924 43.2138C27.7724 42.9258 27.1484 42.5178 26.6204 41.9898C26.0924 41.4458 25.6764 40.7898 25.3724 40.0218C25.0684 39.2378 24.9164 38.3418 24.9164 37.3338C24.9164 36.3258 25.0684 35.4298 25.3724 34.6458C25.6764 33.8618 26.0924 33.1978 26.6204 32.6538C27.1484 32.0938 27.7724 31.6698 28.4924 31.3818C29.2124 31.0938 29.9884 30.9498 30.8204 30.9498C31.6524 30.9498 32.4284 31.0938 33.1484 31.3818C33.8684 31.6698 34.4924 32.0858 35.0204 32.6298C35.5644 33.1738 35.9884 33.8378 36.2924 34.6218C36.5964 35.4058 36.7484 36.3018 36.7484 37.3098C36.7484 38.3178 36.5964 39.2138 36.2924 39.9978C35.9884 40.7658 35.5724 41.4218 35.0444 41.9658C34.5164 42.5098 33.8844 42.9258 33.1484 43.2138C32.4284 43.4858 31.6524 43.6218 30.8204 43.6218ZM30.8204 40.5498C31.1564 40.5498 31.4684 40.4938 31.7564 40.3818C32.0604 40.2538 32.3164 40.0618 32.5244 39.8058C32.7484 39.5498 32.9244 39.2218 33.0524 38.8218C33.1804 38.4058 33.2444 37.9018 33.2444 37.3098C33.2444 36.7178 33.1804 36.2138 33.0524 35.7978C32.9244 35.3818 32.7484 35.0458 32.5244 34.7898C32.3004 34.5178 32.0444 34.3258 31.7564 34.2138C31.4684 34.0858 31.1564 34.0218 30.8204 34.0218C30.1484 34.0218 29.5804 34.2778 29.1164 34.7898C28.6684 35.2858 28.4444 36.1338 28.4444 37.3338C28.4444 38.5018 28.6684 39.3338 29.1164 39.8298C29.5804 40.3098 30.1484 40.5498 30.8204 40.5498ZM45.4145 40.4058V34.1898H42.8945C42.8945 34.5898 42.8705 35.0698 42.8225 35.6298C42.7745 36.1898 42.6945 36.7658 42.5825 37.3578C42.4865 37.9498 42.3505 38.5178 42.1745 39.0618C42.0145 39.6058 41.8065 40.0538 41.5505 40.4058H45.4145ZM40.2785 46.5498H37.2305V40.4058H38.2625C38.6145 40.0378 38.9105 39.5578 39.1505 38.9658C39.3905 38.3738 39.5825 37.6858 39.7265 36.9018C39.8705 36.1018 39.9745 35.2218 40.0385 34.2618C40.1025 33.3018 40.1425 32.2778 40.1585 31.1898H48.8225V40.4058H50.6945V46.5498H47.6705L47.4305 43.3818H40.5185L40.2785 46.5498ZM56.6306 40.7898C56.8866 40.7898 57.1426 40.7418 57.3986 40.6458C57.6546 40.5498 57.8866 40.3978 58.0946 40.1898C58.3026 39.9818 58.4626 39.7258 58.5746 39.4218C58.7026 39.1178 58.7666 38.7578 58.7666 38.3418V37.9098C57.5666 37.9098 56.6626 38.0218 56.0546 38.2458C55.4466 38.4698 55.1426 38.8778 55.1426 39.4698C55.1426 39.8538 55.2706 40.1738 55.5266 40.4298C55.7986 40.6698 56.1666 40.7898 56.6306 40.7898ZM55.2146 43.6218C54.1106 43.6218 53.2546 43.3018 52.6466 42.6618C52.0386 42.0218 51.7346 41.1738 51.7346 40.1178C51.7346 39.4458 51.8546 38.8618 52.0946 38.3658C52.3506 37.8538 52.7586 37.4218 53.3186 37.0698C53.8786 36.7178 54.5986 36.4538 55.4786 36.2778C56.3746 36.1018 57.4706 36.0138 58.7666 36.0138V35.4858C58.7666 34.9578 58.5906 34.5498 58.2386 34.2618C57.8866 33.9738 57.3426 33.8298 56.6066 33.8298C55.8706 33.8298 55.1666 33.9098 54.4946 34.0698C53.8386 34.2298 53.2066 34.4938 52.5986 34.8618V31.8618C53.1906 31.5418 53.8546 31.3098 54.5906 31.1658C55.3266 31.0218 56.1026 30.9498 56.9186 30.9498C58.7106 30.9498 60.0306 31.3418 60.8786 32.1258C61.7266 32.9098 62.1506 34.0538 62.1506 35.5578V43.3818H58.8866V41.4858H58.7186C58.5586 41.7738 58.3826 42.0538 58.1906 42.3258C57.9986 42.5818 57.7586 42.8058 57.4706 42.9978C57.1986 43.1898 56.8786 43.3418 56.5106 43.4538C56.1426 43.5658 55.7106 43.6218 55.2146 43.6218ZM64.7743 31.1898H68.1583V38.0538H68.3503L72.2863 31.1898H75.4062V43.3818H72.0223V36.4938H71.8543L67.8703 43.3818H64.7743V31.1898ZM70.0063 30.0138C69.4783 30.0138 68.9583 29.9578 68.4463 29.8458C67.9503 29.7178 67.5023 29.5018 67.1023 29.1978C66.7023 28.8778 66.3743 28.4538 66.1183 27.9258C65.8783 27.3978 65.7583 26.7258 65.7583 25.9098H68.7103C68.7103 26.3738 68.7983 26.7418 68.9743 27.0138C69.1503 27.2858 69.4943 27.4218 70.0063 27.4218C70.4863 27.4218 70.8223 27.2858 71.0143 27.0138C71.2063 26.7418 71.3023 26.3738 71.3023 25.9098H74.2543C74.2543 26.7258 74.1263 27.3978 73.8703 27.9258C73.6303 28.4538 73.3103 28.8778 72.9103 29.1978C72.5103 29.5018 72.0543 29.7178 71.5423 29.8458C71.0463 29.9578 70.5343 30.0138 70.0063 30.0138ZM80.3416 34.1658H77.0056V31.1898H87.0616V34.1658H83.7016V43.3818H80.3416V34.1658ZM94.1821 43.6218C92.1661 43.6218 90.6061 43.1098 89.5021 42.0858C88.3981 41.0458 87.8461 39.4618 87.8461 37.3338C87.8461 36.3418 87.9741 35.4538 88.2301 34.6698C88.5021 33.8858 88.8781 33.2218 89.3581 32.6778C89.8541 32.1178 90.4541 31.6938 91.1581 31.4058C91.8621 31.1018 92.6461 30.9498 93.5101 30.9498C94.2621 30.9498 94.9501 31.0538 95.5741 31.2618C96.2141 31.4698 96.7581 31.7818 97.2061 32.1978C97.6701 32.6138 98.0221 33.1338 98.2621 33.7578C98.5181 34.3818 98.6461 35.1178 98.6461 35.9658C98.6461 36.3978 98.6141 36.7898 98.5501 37.1418C98.5021 37.4938 98.4541 37.7498 98.4061 37.9098H91.5421C91.6061 38.8218 91.8701 39.5178 92.3341 39.9978C92.8141 40.4618 93.5261 40.6938 94.4701 40.6938C95.1421 40.6938 95.7901 40.6298 96.4141 40.5018C97.0541 40.3578 97.6301 40.1258 98.1421 39.8058V42.7098C97.7261 42.9818 97.1661 43.2058 96.4621 43.3818C95.7741 43.5418 95.0141 43.6218 94.1821 43.6218ZM95.4061 35.8938C95.3741 35.1418 95.1821 34.5738 94.8301 34.1898C94.4941 33.7898 94.0221 33.5898 93.4141 33.5898C92.7741 33.5898 92.2941 33.8058 91.9741 34.2378C91.6701 34.6538 91.4781 35.2058 91.3981 35.8938H95.4061ZM110.303 43.6218C109.983 43.6218 109.647 43.6058 109.295 43.5738C108.943 43.5418 108.591 43.4938 108.239 43.4298C107.903 43.3658 107.567 43.2858 107.231 43.1898C106.895 43.0778 106.599 42.9418 106.343 42.7818V39.8538C107.511 40.5738 108.727 40.9338 109.991 40.9338C111.207 40.9338 111.815 40.5098 111.815 39.6618C111.815 39.2458 111.663 38.9498 111.359 38.7738C111.055 38.5818 110.639 38.4858 110.111 38.4858H108.119V35.8698H109.943C110.439 35.8698 110.799 35.7738 111.023 35.5818C111.247 35.3898 111.359 35.1338 111.359 34.8138C111.359 34.3978 111.207 34.1018 110.903 33.9258C110.599 33.7498 110.167 33.6618 109.607 33.6618C109.031 33.6618 108.495 33.7338 107.999 33.8778C107.519 34.0058 107.023 34.2298 106.511 34.5498V31.6458C107.007 31.4218 107.567 31.2538 108.191 31.1418C108.831 31.0138 109.471 30.9498 110.111 30.9498C110.943 30.9498 111.647 31.0298 112.223 31.1898C112.799 31.3498 113.271 31.5738 113.639 31.8618C114.007 32.1338 114.271 32.4618 114.431 32.8458C114.607 33.2298 114.695 33.6458 114.695 34.0938C114.695 34.7018 114.551 35.2538 114.263 35.7498C113.975 36.2298 113.447 36.5978 112.679 36.8538V37.0218C113.495 37.2138 114.111 37.5738 114.527 38.1018C114.943 38.6138 115.151 39.2698 115.151 40.0698C115.151 40.5178 115.071 40.9578 114.911 41.3898C114.767 41.8058 114.511 42.1818 114.143 42.5178C113.775 42.8538 113.279 43.1258 112.655 43.3338C112.031 43.5258 111.247 43.6218 110.303 43.6218ZM121.763 40.7898C122.019 40.7898 122.275 40.7418 122.531 40.6458C122.787 40.5498 123.019 40.3978 123.227 40.1898C123.435 39.9818 123.595 39.7258 123.707 39.4218C123.835 39.1178 123.899 38.7578 123.899 38.3418V37.9098C122.699 37.9098 121.795 38.0218 121.187 38.2458C120.579 38.4698 120.275 38.8778 120.275 39.4698C120.275 39.8538 120.403 40.1738 120.659 40.4298C120.931 40.6698 121.299 40.7898 121.763 40.7898ZM120.347 43.6218C119.243 43.6218 118.387 43.3018 117.779 42.6618C117.171 42.0218 116.867 41.1738 116.867 40.1178C116.867 39.4458 116.987 38.8618 117.227 38.3658C117.483 37.8538 117.891 37.4218 118.451 37.0698C119.011 36.7178 119.731 36.4538 120.611 36.2778C121.507 36.1018 122.603 36.0138 123.899 36.0138V35.4858C123.899 34.9578 123.723 34.5498 123.371 34.2618C123.019 33.9738 122.475 33.8298 121.739 33.8298C121.003 33.8298 120.299 33.9098 119.627 34.0698C118.971 34.2298 118.339 34.4938 117.731 34.8618V31.8618C118.323 31.5418 118.987 31.3098 119.723 31.1658C120.459 31.0218 121.235 30.9498 122.051 30.9498C123.843 30.9498 125.163 31.3418 126.011 32.1258C126.859 32.9098 127.283 34.0538 127.283 35.5578V43.3818H124.019V41.4858H123.851C123.691 41.7738 123.515 42.0538 123.323 42.3258C123.131 42.5818 122.891 42.8058 122.603 42.9978C122.331 43.1898 122.011 43.3418 121.643 43.4538C121.275 43.5658 120.843 43.6218 120.347 43.6218ZM136.219 37.1658V33.8538H134.947C134.323 33.8538 133.859 34.0298 133.555 34.3818C133.251 34.7178 133.099 35.0938 133.099 35.5098C133.099 35.9418 133.251 36.3258 133.555 36.6618C133.859 36.9978 134.323 37.1658 134.947 37.1658H136.219ZM135.547 39.6378L132.835 43.3818H129.043L132.259 38.8938C131.411 38.6218 130.755 38.1818 130.291 37.5738C129.827 36.9498 129.595 36.1738 129.595 35.2458C129.595 34.7818 129.675 34.3098 129.835 33.8298C130.011 33.3498 130.291 32.9178 130.675 32.5338C131.059 32.1338 131.555 31.8138 132.163 31.5738C132.787 31.3178 133.539 31.1898 134.419 31.1898H139.627V43.3818H136.219V39.6378H135.547ZM142.352 31.1898H147.008C147.968 31.1898 148.776 31.2698 149.432 31.4298C150.088 31.5738 150.616 31.7818 151.016 32.0538C151.432 32.3258 151.728 32.6538 151.904 33.0378C152.08 33.4218 152.168 33.8458 152.168 34.3098C152.168 35.0458 151.968 35.6298 151.568 36.0618C151.168 36.4778 150.632 36.7578 149.96 36.9018V37.0698C150.792 37.1978 151.44 37.5098 151.904 38.0058C152.384 38.4858 152.624 39.1178 152.624 39.9018C152.624 40.3818 152.544 40.8298 152.384 41.2458C152.224 41.6618 151.952 42.0298 151.568 42.3498C151.184 42.6698 150.664 42.9258 150.008 43.1178C149.368 43.2938 148.568 43.3818 147.608 43.3818H142.352V31.1898ZM146.912 35.9898C147.52 35.9898 147.96 35.8698 148.232 35.6298C148.504 35.3898 148.64 35.0858 148.64 34.7178C148.64 34.3498 148.488 34.0698 148.184 33.8778C147.896 33.6698 147.472 33.5658 146.912 33.5658H145.736V35.9898H146.912ZM147.296 41.0298C147.856 41.0298 148.296 40.9178 148.616 40.6938C148.952 40.4538 149.12 40.1178 149.12 39.6858C149.12 39.2218 148.952 38.8778 148.616 38.6538C148.296 38.4298 147.856 38.3178 147.296 38.3178H145.736V41.0298H147.296ZM158.205 43.3818H154.821V31.1898H158.205V36.1098L158.853 35.9898L162.141 31.1898H165.477L161.733 36.6618L165.741 43.3818H161.733L158.877 38.7498L158.205 38.9418V43.3818ZM168.113 49.3818L170.081 43.5738L165.569 31.1898H169.121L171.689 38.7738H171.857L174.281 31.1898H177.497L171.329 49.3818H168.113Z" fill="#1F2229"/>
<path d="M140.68 132V114H146.464C147.488 114 148.368 114.12 149.104 114.36C149.84 114.584 150.448 114.904 150.928 115.32C151.408 115.72 151.76 116.208 151.984 116.784C152.208 117.344 152.32 117.968 152.32 118.656C152.32 119.568 152.08 120.344 151.6 120.984C151.12 121.608 150.456 122.08 149.608 122.4V122.568C150.664 122.792 151.488 123.264 152.08 123.984C152.688 124.688 152.992 125.592 152.992 126.696C152.992 127.448 152.88 128.152 152.656 128.808C152.432 129.448 152.072 130.008 151.576 130.488C151.08 130.952 150.44 131.32 149.656 131.592C148.872 131.864 147.92 132 146.8 132H140.68ZM146.056 121.296C146.792 121.296 147.408 121.128 147.904 120.792C148.416 120.44 148.672 119.864 148.672 119.064C148.672 118.68 148.6 118.36 148.456 118.104C148.328 117.832 148.144 117.616 147.904 117.456C147.68 117.296 147.408 117.184 147.088 117.12C146.768 117.04 146.424 117 146.056 117H144.184V121.296H146.056ZM146.392 129C146.792 129 147.168 128.968 147.52 128.904C147.888 128.824 148.208 128.696 148.48 128.52C148.752 128.328 148.96 128.088 149.104 127.8C149.264 127.496 149.344 127.112 149.344 126.648C149.344 126.168 149.256 125.776 149.08 125.472C148.92 125.168 148.704 124.928 148.432 124.752C148.16 124.56 147.84 124.432 147.472 124.368C147.104 124.288 146.728 124.248 146.344 124.248H144.184V129H146.392ZM155.321 119.808H158.705V123.312H159.905C160.865 123.312 161.681 123.424 162.353 123.648C163.041 123.856 163.609 124.152 164.057 124.536C164.505 124.904 164.833 125.352 165.041 125.88C165.249 126.392 165.353 126.952 165.353 127.56C165.353 128.184 165.249 128.768 165.041 129.312C164.833 129.856 164.505 130.328 164.057 130.728C163.609 131.112 163.041 131.424 162.353 131.664C161.681 131.888 160.865 132 159.905 132H155.321V119.808ZM159.833 129.312C160.553 129.312 161.065 129.152 161.369 128.832C161.689 128.512 161.849 128.12 161.849 127.656C161.849 127.176 161.689 126.784 161.369 126.48C161.065 126.176 160.553 126.024 159.833 126.024H158.705V129.312H159.833ZM166.385 119.808H169.769V132H166.385V119.808ZM179.532 122.784H175.908V132H172.524V119.808H182.916V132H179.532V122.784ZM190.953 132.24C190.121 132.24 189.345 132.104 188.625 131.832C187.905 131.544 187.281 131.136 186.753 130.608C186.225 130.064 185.809 129.408 185.505 128.64C185.201 127.856 185.049 126.96 185.049 125.952C185.049 124.944 185.201 124.048 185.505 123.264C185.809 122.48 186.225 121.816 186.753 121.272C187.281 120.712 187.905 120.288 188.625 120C189.345 119.712 190.121 119.568 190.953 119.568C191.785 119.568 192.561 119.712 193.281 120C194.001 120.288 194.625 120.704 195.153 121.248C195.697 121.792 196.121 122.456 196.425 123.24C196.729 124.024 196.881 124.92 196.881 125.928C196.881 126.936 196.729 127.832 196.425 128.616C196.121 129.384 195.705 130.04 195.177 130.584C194.649 131.128 194.017 131.544 193.281 131.832C192.561 132.104 191.785 132.24 190.953 132.24ZM190.953 129.168C191.289 129.168 191.601 129.112 191.889 129C192.193 128.872 192.449 128.68 192.657 128.424C192.881 128.168 193.057 127.84 193.185 127.44C193.313 127.024 193.377 126.52 193.377 125.928C193.377 125.336 193.313 124.832 193.185 124.416C193.057 124 192.881 123.664 192.657 123.408C192.433 123.136 192.177 122.944 191.889 122.832C191.601 122.704 191.289 122.64 190.953 122.64C190.281 122.64 189.713 122.896 189.249 123.408C188.801 123.904 188.577 124.752 188.577 125.952C188.577 127.12 188.801 127.952 189.249 128.448C189.713 128.928 190.281 129.168 190.953 129.168ZM198.683 132.216C198.283 132.216 197.979 132.192 197.771 132.144C197.643 132.128 197.531 132.104 197.435 132.072V129C197.483 129.016 197.539 129.032 197.603 129.048C197.651 129.064 197.707 129.072 197.771 129.072C197.835 129.072 197.899 129.072 197.963 129.072C198.411 129.072 198.771 128.888 199.043 128.52C199.315 128.152 199.523 127.592 199.667 126.84C199.827 126.072 199.931 125.112 199.979 123.96C200.043 122.792 200.075 121.408 200.075 119.808H208.931V132H205.523V122.784H202.955C202.955 124.096 202.899 125.328 202.787 126.48C202.691 127.616 202.491 128.616 202.187 129.48C201.883 130.328 201.451 131 200.891 131.496C200.331 131.976 199.595 132.216 198.683 132.216ZM218.913 127.224H215.049V132H211.665V119.808H215.049V124.248H218.913V119.808H222.297V132H218.913V127.224ZM225.024 119.808H228.408V126.672H228.6L232.536 119.808H235.656V132H232.272V125.112H232.104L228.12 132H225.024V119.808ZM240.592 122.784H237.256V119.808H247.312V122.784H243.952V132H240.592V122.784ZM254.432 132.24C252.416 132.24 250.856 131.728 249.752 130.704C248.648 129.664 248.096 128.08 248.096 125.952C248.096 124.96 248.224 124.072 248.48 123.288C248.752 122.504 249.128 121.84 249.608 121.296C250.104 120.736 250.704 120.312 251.408 120.024C252.112 119.72 252.896 119.568 253.76 119.568C254.512 119.568 255.2 119.672 255.824 119.88C256.464 120.088 257.008 120.4 257.456 120.816C257.92 121.232 258.272 121.752 258.512 122.376C258.768 123 258.896 123.736 258.896 124.584C258.896 125.016 258.864 125.408 258.8 125.76C258.752 126.112 258.704 126.368 258.656 126.528H251.792C251.856 127.44 252.12 128.136 252.584 128.616C253.064 129.08 253.776 129.312 254.72 129.312C255.392 129.312 256.04 129.248 256.664 129.12C257.304 128.976 257.88 128.744 258.392 128.424V131.328C257.976 131.6 257.416 131.824 256.712 132C256.024 132.16 255.264 132.24 254.432 132.24ZM255.656 124.512C255.624 123.76 255.432 123.192 255.08 122.808C254.744 122.408 254.272 122.208 253.664 122.208C253.024 122.208 252.544 122.424 252.224 122.856C251.92 123.272 251.728 123.824 251.648 124.512H255.656ZM142.576 148.784H139.24V145.808H149.296V148.784H145.936V158H142.576V148.784ZM156.417 158.24C154.401 158.24 152.841 157.728 151.737 156.704C150.633 155.664 150.081 154.08 150.081 151.952C150.081 150.96 150.209 150.072 150.465 149.288C150.737 148.504 151.113 147.84 151.593 147.296C152.089 146.736 152.689 146.312 153.393 146.024C154.097 145.72 154.881 145.568 155.745 145.568C156.497 145.568 157.185 145.672 157.809 145.88C158.449 146.088 158.993 146.4 159.441 146.816C159.905 147.232 160.257 147.752 160.497 148.376C160.753 149 160.881 149.736 160.881 150.584C160.881 151.016 160.849 151.408 160.785 151.76C160.737 152.112 160.689 152.368 160.641 152.528H153.777C153.841 153.44 154.105 154.136 154.569 154.616C155.049 155.08 155.761 155.312 156.705 155.312C157.377 155.312 158.025 155.248 158.649 155.12C159.289 154.976 159.865 154.744 160.377 154.424V157.328C159.961 157.6 159.401 157.824 158.697 158C158.009 158.16 157.249 158.24 156.417 158.24ZM157.641 150.512C157.609 149.76 157.417 149.192 157.065 148.808C156.729 148.408 156.257 148.208 155.648 148.208C155.009 148.208 154.529 148.424 154.209 148.856C153.905 149.272 153.713 149.824 153.633 150.512H157.641ZM168.528 158.24C166.576 158.24 165.072 157.696 164.016 156.608C162.96 155.504 162.432 153.952 162.432 151.952C162.432 150.96 162.576 150.072 162.864 149.288C163.168 148.504 163.584 147.84 164.112 147.296C164.64 146.736 165.272 146.312 166.008 146.024C166.744 145.72 167.552 145.568 168.432 145.568C169.04 145.568 169.576 145.616 170.04 145.712C170.52 145.792 170.96 145.944 171.36 146.168V149.432C170.992 149.176 170.584 149 170.136 148.904C169.704 148.792 169.272 148.736 168.84 148.736C167.976 148.736 167.28 149 166.752 149.528C166.224 150.04 165.96 150.848 165.96 151.952C165.96 153.056 166.224 153.856 166.752 154.352C167.296 154.848 168.016 155.096 168.912 155.096C169.36 155.096 169.808 155.04 170.256 154.928C170.72 154.8 171.112 154.6 171.432 154.328V157.64C171.208 157.8 170.824 157.936 170.28 158.048C169.752 158.176 169.168 158.24 168.528 158.24ZM175.81 148.784H172.474V145.808H182.53V148.784H179.17V158H175.81V148.784ZM189.219 158.24C188.387 158.24 187.611 158.104 186.891 157.832C186.171 157.544 185.547 157.136 185.019 156.608C184.491 156.064 184.075 155.408 183.771 154.64C183.467 153.856 183.315 152.96 183.315 151.952C183.315 150.944 183.467 150.048 183.771 149.264C184.075 148.48 184.491 147.816 185.019 147.272C185.547 146.712 186.171 146.288 186.891 146C187.611 145.712 188.387 145.568 189.219 145.568C190.051 145.568 190.827 145.712 191.547 146C192.267 146.288 192.891 146.704 193.419 147.248C193.963 147.792 194.387 148.456 194.691 149.24C194.995 150.024 195.147 150.92 195.147 151.928C195.147 152.936 194.995 153.832 194.691 154.616C194.387 155.384 193.971 156.04 193.443 156.584C192.915 157.128 192.283 157.544 191.547 157.832C190.827 158.104 190.051 158.24 189.219 158.24ZM189.219 155.168C189.555 155.168 189.867 155.112 190.155 155C190.459 154.872 190.715 154.68 190.923 154.424C191.147 154.168 191.323 153.84 191.451 153.44C191.579 153.024 191.643 152.52 191.643 151.928C191.643 151.336 191.579 150.832 191.451 150.416C191.323 150 191.147 149.664 190.923 149.408C190.699 149.136 190.443 148.944 190.155 148.832C189.867 148.704 189.555 148.64 189.219 148.64C188.547 148.64 187.979 148.896 187.515 149.408C187.067 149.904 186.843 150.752 186.843 151.952C186.843 153.12 187.067 153.952 187.515 154.448C187.979 154.928 188.547 155.168 189.219 155.168ZM197.298 145.808H201.954C202.914 145.808 203.722 145.888 204.378 146.048C205.034 146.192 205.562 146.4 205.962 146.672C206.378 146.944 206.674 147.272 206.85 147.656C207.026 148.04 207.114 148.464 207.114 148.928C207.114 149.664 206.914 150.248 206.514 150.68C206.114 151.096 205.578 151.376 204.906 151.52V151.688C205.738 151.816 206.386 152.128 206.85 152.624C207.33 153.104 207.57 153.736 207.57 154.52C207.57 155 207.49 155.448 207.33 155.864C207.17 156.28 206.898 156.648 206.514 156.968C206.13 157.288 205.61 157.544 204.954 157.736C204.314 157.912 203.514 158 202.554 158H197.298V145.808ZM201.858 150.608C202.466 150.608 202.906 150.488 203.178 150.248C203.45 150.008 203.586 149.704 203.586 149.336C203.586 148.968 203.434 148.688 203.13 148.496C202.842 148.288 202.418 148.184 201.858 148.184H200.682V150.608H201.858ZM202.242 155.648C202.802 155.648 203.242 155.536 203.562 155.312C203.898 155.072 204.066 154.736 204.066 154.304C204.066 153.84 203.898 153.496 203.562 153.272C203.242 153.048 202.802 152.936 202.242 152.936H200.682V155.648H202.242ZM214.883 158.24C214.051 158.24 213.275 158.104 212.555 157.832C211.835 157.544 211.211 157.136 210.683 156.608C210.155 156.064 209.739 155.408 209.435 154.64C209.131 153.856 208.979 152.96 208.979 151.952C208.979 150.944 209.131 150.048 209.435 149.264C209.739 148.48 210.155 147.816 210.683 147.272C211.211 146.712 211.835 146.288 212.555 146C213.275 145.712 214.051 145.568 214.883 145.568C215.715 145.568 216.491 145.712 217.211 146C217.931 146.288 218.555 146.704 219.083 147.248C219.627 147.792 220.051 148.456 220.355 149.24C220.659 150.024 220.811 150.92 220.811 151.928C220.811 152.936 220.659 153.832 220.355 154.616C220.051 155.384 219.635 156.04 219.107 156.584C218.579 157.128 217.947 157.544 217.211 157.832C216.491 158.104 215.715 158.24 214.883 158.24ZM214.883 155.168C215.219 155.168 215.531 155.112 215.819 155C216.123 154.872 216.379 154.68 216.587 154.424C216.811 154.168 216.987 153.84 217.115 153.44C217.243 153.024 217.307 152.52 217.307 151.928C217.307 151.336 217.243 150.832 217.115 150.416C216.987 150 216.811 149.664 216.587 149.408C216.363 149.136 216.107 148.944 215.819 148.832C215.531 148.704 215.219 148.64 214.883 148.64C214.211 148.64 213.643 148.896 213.179 149.408C212.731 149.904 212.507 150.752 212.507 151.952C212.507 153.12 212.731 153.952 213.179 154.448C213.643 154.928 214.211 155.168 214.883 155.168ZM228.698 158.24C226.682 158.24 225.122 157.728 224.018 156.704C222.914 155.664 222.362 154.08 222.362 151.952C222.362 150.96 222.49 150.072 222.746 149.288C223.018 148.504 223.394 147.84 223.874 147.296C224.37 146.736 224.97 146.312 225.674 146.024C226.378 145.72 227.162 145.568 228.026 145.568C228.778 145.568 229.466 145.672 230.09 145.88C230.73 146.088 231.274 146.4 231.722 146.816C232.186 147.232 232.538 147.752 232.778 148.376C233.034 149 233.162 149.736 233.162 150.584C233.162 151.016 233.13 151.408 233.066 151.76C233.018 152.112 232.97 152.368 232.922 152.528H226.058C226.122 153.44 226.386 154.136 226.85 154.616C227.33 155.08 228.042 155.312 228.986 155.312C229.658 155.312 230.306 155.248 230.93 155.12C231.57 154.976 232.146 154.744 232.658 154.424V157.328C232.242 157.6 231.682 157.824 230.978 158C230.29 158.16 229.53 158.24 228.698 158.24ZM229.922 150.512C229.89 149.76 229.698 149.192 229.346 148.808C229.01 148.408 228.538 148.208 227.93 148.208C227.29 148.208 226.81 148.424 226.49 148.856C226.186 149.272 225.994 149.824 225.914 150.512H229.922ZM244.818 158.24C244.498 158.24 244.162 158.224 243.81 158.192C243.458 158.16 243.106 158.112 242.754 158.048C242.418 157.984 242.082 157.904 241.746 157.808C241.41 157.696 241.114 157.56 240.858 157.4V154.472C242.026 155.192 243.242 155.552 244.506 155.552C245.722 155.552 246.33 155.128 246.33 154.28C246.33 153.864 246.178 153.568 245.874 153.392C245.57 153.2 245.154 153.104 244.626 153.104H242.634V150.488H244.458C244.954 150.488 245.314 150.392 245.538 150.2C245.762 150.008 245.874 149.752 245.874 149.432C245.874 149.016 245.722 148.72 245.418 148.544C245.114 148.368 244.682 148.28 244.122 148.28C243.546 148.28 243.01 148.352 242.514 148.496C242.034 148.624 241.538 148.848 241.026 149.168V146.264C241.522 146.04 242.082 145.872 242.706 145.76C243.346 145.632 243.986 145.568 244.626 145.568C245.458 145.568 246.162 145.648 246.738 145.808C247.314 145.968 247.786 146.192 248.154 146.48C248.522 146.752 248.786 147.08 248.946 147.464C249.122 147.848 249.21 148.264 249.21 148.712C249.21 149.32 249.066 149.872 248.778 150.368C248.49 150.848 247.962 151.216 247.194 151.472V151.64C248.01 151.832 248.626 152.192 249.042 152.72C249.458 153.232 249.666 153.888 249.666 154.688C249.666 155.136 249.586 155.576 249.426 156.008C249.282 156.424 249.026 156.8 248.658 157.136C248.29 157.472 247.794 157.744 247.17 157.952C246.546 158.144 245.762 158.24 244.818 158.24ZM256.279 155.408C256.535 155.408 256.791 155.36 257.047 155.264C257.303 155.168 257.535 155.016 257.743 154.808C257.951 154.6 258.111 154.344 258.223 154.04C258.351 153.736 258.415 153.376 258.415 152.96V152.528C257.215 152.528 256.311 152.64 255.703 152.864C255.095 153.088 254.791 153.496 254.791 154.088C254.791 154.472 254.919 154.792 255.175 155.048C255.447 155.288 255.815 155.408 256.279 155.408ZM254.863 158.24C253.759 158.24 252.903 157.92 252.295 157.28C251.687 156.64 251.383 155.792 251.383 154.736C251.383 154.064 251.503 153.48 251.743 152.984C251.999 152.472 252.407 152.04 252.967 151.688C253.527 151.336 254.247 151.072 255.127 150.896C256.023 150.72 257.119 150.632 258.415 150.632V150.104C258.415 149.576 258.239 149.168 257.887 148.88C257.535 148.592 256.991 148.448 256.255 148.448C255.519 148.448 254.815 148.528 254.143 148.688C253.487 148.848 252.855 149.112 252.247 149.48V146.48C252.839 146.16 253.503 145.928 254.239 145.784C254.975 145.64 255.751 145.568 256.567 145.568C258.359 145.568 259.679 145.96 260.527 146.744C261.375 147.528 261.799 148.672 261.799 150.176V158H258.535V156.104H258.367C258.207 156.392 258.031 156.672 257.839 156.944C257.647 157.2 257.407 157.424 257.119 157.616C256.847 157.808 256.527 157.96 256.159 158.072C255.791 158.184 255.359 158.24 254.863 158.24ZM271.36 155.024V148.808H268.84C268.84 149.208 268.816 149.688 268.768 150.248C268.72 150.808 268.64 151.384 268.528 151.976C268.432 152.568 268.296 153.136 268.12 153.68C267.96 154.224 267.752 154.672 267.496 155.024H271.36ZM266.224 161.168H263.176V155.024H264.208C264.56 154.656 264.856 154.176 265.096 153.584C265.336 152.992 265.528 152.304 265.672 151.52C265.816 150.72 265.92 149.84 265.984 148.88C266.048 147.92 266.088 146.896 266.104 145.808H274.768V155.024H276.64V161.168H273.616L273.376 158H266.464L266.224 161.168ZM282.576 155.408C282.832 155.408 283.088 155.36 283.344 155.264C283.6 155.168 283.832 155.016 284.04 154.808C284.248 154.6 284.408 154.344 284.52 154.04C284.648 153.736 284.712 153.376 284.712 152.96V152.528C283.512 152.528 282.608 152.64 282 152.864C281.392 153.088 281.088 153.496 281.088 154.088C281.088 154.472 281.216 154.792 281.472 155.048C281.744 155.288 282.112 155.408 282.576 155.408ZM281.16 158.24C280.056 158.24 279.2 157.92 278.592 157.28C277.984 156.64 277.68 155.792 277.68 154.736C277.68 154.064 277.8 153.48 278.04 152.984C278.296 152.472 278.704 152.04 279.264 151.688C279.824 151.336 280.544 151.072 281.424 150.896C282.32 150.72 283.416 150.632 284.712 150.632V150.104C284.712 149.576 284.536 149.168 284.184 148.88C283.832 148.592 283.288 148.448 282.552 148.448C281.816 148.448 281.112 148.528 280.44 148.688C279.784 148.848 279.152 149.112 278.544 149.48V146.48C279.136 146.16 279.8 145.928 280.536 145.784C281.272 145.64 282.048 145.568 282.864 145.568C284.656 145.568 285.976 145.96 286.824 146.744C287.672 147.528 288.096 148.672 288.096 150.176V158H284.832V156.104H284.664C284.504 156.392 284.328 156.672 284.136 156.944C283.944 157.2 283.704 157.424 283.416 157.616C283.144 157.808 282.824 157.96 282.456 158.072C282.088 158.184 281.656 158.24 281.16 158.24ZM297.968 153.224H294.104V158H290.72V145.808H294.104V150.248H297.968V145.808H301.352V158H297.968V153.224ZM304.079 145.808H307.463V152.672H307.655L311.591 145.808H314.711V158H311.327V151.112H311.159L307.175 158H304.079V145.808ZM323.174 158.24C321.158 158.24 319.598 157.728 318.494 156.704C317.39 155.664 316.838 154.08 316.838 151.952C316.838 150.96 316.966 150.072 317.222 149.288C317.494 148.504 317.87 147.84 318.35 147.296C318.846 146.736 319.446 146.312 320.15 146.024C320.854 145.72 321.638 145.568 322.502 145.568C323.254 145.568 323.942 145.672 324.566 145.88C325.206 146.088 325.75 146.4 326.198 146.816C326.662 147.232 327.014 147.752 327.254 148.376C327.51 149 327.638 149.736 327.638 150.584C327.638 151.016 327.606 151.408 327.542 151.76C327.494 152.112 327.446 152.368 327.398 152.528H320.534C320.598 153.44 320.862 154.136 321.326 154.616C321.806 155.08 322.518 155.312 323.462 155.312C324.134 155.312 324.782 155.248 325.406 155.12C326.046 154.976 326.622 154.744 327.134 154.424V157.328C326.718 157.6 326.158 157.824 325.454 158C324.766 158.16 324.006 158.24 323.174 158.24ZM324.398 150.512C324.366 149.76 324.174 149.192 323.822 148.808C323.486 148.408 323.014 148.208 322.406 148.208C321.766 148.208 321.286 148.424 320.966 148.856C320.662 149.272 320.47 149.824 320.39 150.512H324.398Z" fill="#1F2229"/>
<path d="M140.68 259.381H153.472V277.381H149.968V262.573H144.184V277.381H140.68V259.381ZM162.3 274.549C162.62 274.549 162.924 274.493 163.212 274.381C163.516 274.269 163.78 274.085 164.004 273.829C164.228 273.557 164.404 273.205 164.532 272.773C164.676 272.341 164.748 271.813 164.748 271.189C164.748 270.613 164.684 270.125 164.556 269.725C164.428 269.325 164.252 268.997 164.028 268.741C163.804 268.485 163.54 268.301 163.236 268.189C162.948 268.077 162.636 268.021 162.3 268.021C161.98 268.021 161.668 268.077 161.364 268.189C161.076 268.285 160.82 268.445 160.596 268.669C160.388 268.893 160.22 269.189 160.092 269.557C159.964 269.909 159.9 270.333 159.9 270.829V271.597C159.9 272.669 160.132 273.429 160.596 273.877C161.06 274.325 161.628 274.549 162.3 274.549ZM156.516 265.189H159.78V266.893H159.948C160.252 266.333 160.692 265.869 161.268 265.501C161.844 265.133 162.572 264.949 163.452 264.949C164.188 264.949 164.852 265.109 165.444 265.429C166.052 265.733 166.564 266.165 166.98 266.725C167.396 267.269 167.716 267.925 167.94 268.693C168.164 269.445 168.276 270.277 168.276 271.189C168.276 272.149 168.164 273.021 167.94 273.805C167.716 274.589 167.388 275.269 166.956 275.845C166.54 276.405 166.028 276.845 165.42 277.165C164.828 277.469 164.156 277.621 163.404 277.621C162.572 277.621 161.876 277.461 161.316 277.141C160.756 276.821 160.3 276.349 159.948 275.725H159.78L159.9 277.621V283.381H156.516V265.189ZM175.719 277.621C174.887 277.621 174.111 277.485 173.391 277.213C172.671 276.925 172.047 276.517 171.519 275.989C170.991 275.445 170.575 274.789 170.271 274.021C169.967 273.237 169.815 272.341 169.815 271.333C169.815 270.325 169.967 269.429 170.271 268.645C170.575 267.861 170.991 267.197 171.519 266.653C172.047 266.093 172.671 265.669 173.391 265.381C174.111 265.093 174.887 264.949 175.719 264.949C176.551 264.949 177.327 265.093 178.047 265.381C178.767 265.669 179.391 266.085 179.919 266.629C180.463 267.173 180.887 267.837 181.191 268.621C181.495 269.405 181.647 270.301 181.647 271.309C181.647 272.317 181.495 273.213 181.191 273.997C180.887 274.765 180.471 275.421 179.943 275.965C179.415 276.509 178.783 276.925 178.047 277.213C177.327 277.485 176.551 277.621 175.719 277.621ZM175.719 274.549C176.055 274.549 176.367 274.493 176.655 274.381C176.959 274.253 177.215 274.061 177.423 273.805C177.647 273.549 177.823 273.221 177.951 272.821C178.079 272.405 178.143 271.901 178.143 271.309C178.143 270.717 178.079 270.213 177.951 269.797C177.823 269.381 177.647 269.045 177.423 268.789C177.199 268.517 176.943 268.325 176.655 268.213C176.367 268.085 176.055 268.021 175.719 268.021C175.047 268.021 174.479 268.277 174.015 268.789C173.567 269.285 173.343 270.133 173.343 271.333C173.343 272.501 173.567 273.333 174.015 273.829C174.479 274.309 175.047 274.549 175.719 274.549ZM183.798 265.189H187.182V272.053H187.374L191.31 265.189H194.43V277.381H191.046V270.493H190.878L186.894 277.381H183.798V265.189ZM189.03 264.013C188.502 264.013 187.982 263.957 187.47 263.845C186.974 263.717 186.526 263.501 186.126 263.197C185.726 262.877 185.398 262.453 185.142 261.925C184.902 261.397 184.782 260.725 184.782 259.909H187.734C187.734 260.373 187.822 260.741 187.998 261.013C188.174 261.285 188.518 261.421 189.03 261.421C189.51 261.421 189.846 261.285 190.038 261.013C190.23 260.741 190.326 260.373 190.326 259.909H193.278C193.278 260.725 193.15 261.397 192.894 261.925C192.654 262.453 192.334 262.877 191.934 263.197C191.534 263.501 191.078 263.717 190.566 263.845C190.07 263.957 189.558 264.013 189.03 264.013ZM204.141 274.405V268.189H201.621C201.621 268.589 201.597 269.069 201.549 269.629C201.501 270.189 201.421 270.765 201.309 271.357C201.213 271.949 201.077 272.517 200.901 273.061C200.741 273.605 200.533 274.053 200.277 274.405H204.141ZM199.005 280.549H195.957V274.405H196.989C197.341 274.037 197.637 273.557 197.877 272.965C198.117 272.373 198.309 271.685 198.453 270.901C198.597 270.101 198.701 269.221 198.765 268.261C198.829 267.301 198.869 266.277 198.885 265.189H207.549V274.405H209.421V280.549H206.397L206.157 277.381H199.245L199.005 280.549ZM211.056 265.189H214.44V272.053H214.632L218.568 265.189H221.688V277.381H218.304V270.493H218.136L214.152 277.381H211.056V265.189ZM226.623 268.165H223.287V265.189H233.343V268.165H229.983V277.381H226.623V268.165ZM240.463 277.621C238.447 277.621 236.887 277.109 235.783 276.085C234.679 275.045 234.127 273.461 234.127 271.333C234.127 270.341 234.255 269.453 234.511 268.669C234.783 267.885 235.159 267.221 235.639 266.677C236.135 266.117 236.735 265.693 237.439 265.405C238.143 265.101 238.927 264.949 239.791 264.949C240.543 264.949 241.231 265.053 241.855 265.261C242.495 265.469 243.039 265.781 243.487 266.197C243.951 266.613 244.303 267.133 244.543 267.757C244.799 268.381 244.927 269.117 244.927 269.965C244.927 270.397 244.895 270.789 244.831 271.141C244.783 271.493 244.735 271.749 244.687 271.909H237.823C237.887 272.821 238.151 273.517 238.615 273.997C239.095 274.461 239.807 274.693 240.751 274.693C241.423 274.693 242.071 274.629 242.695 274.501C243.335 274.357 243.911 274.125 244.423 273.805V276.709C244.007 276.981 243.447 277.205 242.743 277.381C242.055 277.541 241.295 277.621 240.463 277.621ZM241.687 269.893C241.655 269.141 241.463 268.573 241.111 268.189C240.775 267.789 240.303 267.589 239.695 267.589C239.055 267.589 238.575 267.805 238.255 268.237C237.951 268.653 237.759 269.205 237.679 269.893H241.687ZM145.864 303.621C143.912 303.621 142.408 303.077 141.352 301.989C140.296 300.885 139.768 299.333 139.768 297.333C139.768 296.341 139.912 295.453 140.2 294.669C140.504 293.885 140.92 293.221 141.448 292.677C141.976 292.117 142.608 291.693 143.344 291.405C144.08 291.101 144.888 290.949 145.768 290.949C146.376 290.949 146.912 290.997 147.376 291.093C147.856 291.173 148.296 291.325 148.696 291.549V294.813C148.328 294.557 147.92 294.381 147.472 294.285C147.04 294.173 146.608 294.117 146.176 294.117C145.312 294.117 144.616 294.381 144.088 294.909C143.56 295.421 143.296 296.229 143.296 297.333C143.296 298.437 143.56 299.237 144.088 299.733C144.632 300.229 145.352 300.477 146.248 300.477C146.696 300.477 147.144 300.421 147.592 300.309C148.056 300.181 148.448 299.981 148.768 299.709V303.021C148.544 303.181 148.16 303.317 147.616 303.429C147.088 303.557 146.504 303.621 145.864 303.621ZM156.055 303.621C155.223 303.621 154.447 303.485 153.727 303.213C153.007 302.925 152.383 302.517 151.855 301.989C151.327 301.445 150.911 300.789 150.607 300.021C150.303 299.237 150.151 298.341 150.151 297.333C150.151 296.325 150.303 295.429 150.607 294.645C150.911 293.861 151.327 293.197 151.855 292.653C152.383 292.093 153.007 291.669 153.727 291.381C154.447 291.093 155.223 290.949 156.055 290.949C156.887 290.949 157.663 291.093 158.383 291.381C159.103 291.669 159.727 292.085 160.255 292.629C160.799 293.173 161.223 293.837 161.527 294.621C161.831 295.405 161.983 296.301 161.983 297.309C161.983 298.317 161.831 299.213 161.527 299.997C161.223 300.765 160.807 301.421 160.279 301.965C159.751 302.509 159.119 302.925 158.383 303.213C157.663 303.485 156.887 303.621 156.055 303.621ZM156.055 300.549C156.391 300.549 156.703 300.493 156.991 300.381C157.295 300.253 157.551 300.061 157.759 299.805C157.983 299.549 158.159 299.221 158.287 298.821C158.415 298.405 158.479 297.901 158.479 297.309C158.479 296.717 158.415 296.213 158.287 295.797C158.159 295.381 157.983 295.045 157.759 294.789C157.535 294.517 157.279 294.325 156.991 294.213C156.703 294.085 156.391 294.021 156.055 294.021C155.383 294.021 154.815 294.277 154.351 294.789C153.903 295.285 153.679 296.133 153.679 297.333C153.679 298.501 153.903 299.333 154.351 299.829C154.815 300.309 155.383 300.549 156.055 300.549ZM169.582 303.621C168.766 303.621 167.99 303.501 167.254 303.261C166.518 303.021 165.87 302.605 165.31 302.013C164.766 301.421 164.334 300.629 164.014 299.637C163.694 298.629 163.534 297.357 163.534 295.821C163.534 294.061 163.678 292.557 163.966 291.309C164.254 290.061 164.71 289.029 165.334 288.213C165.958 287.397 166.758 286.781 167.734 286.365C168.71 285.933 169.878 285.653 171.238 285.525C171.894 285.477 172.55 285.421 173.206 285.357C173.862 285.293 174.35 285.221 174.67 285.141V288.429C174.35 288.509 173.886 288.573 173.278 288.621C172.67 288.669 172.054 288.733 171.43 288.813C170.566 288.893 169.83 289.037 169.222 289.245C168.63 289.437 168.142 289.717 167.758 290.085C167.39 290.453 167.11 290.933 166.918 291.525C166.742 292.101 166.63 292.821 166.582 293.685H166.75C166.846 293.429 166.99 293.165 167.182 292.893C167.374 292.605 167.622 292.349 167.926 292.125C168.246 291.885 168.622 291.693 169.054 291.549C169.502 291.405 170.022 291.333 170.614 291.333C171.334 291.333 171.998 291.485 172.606 291.789C173.23 292.077 173.758 292.485 174.19 293.013C174.638 293.541 174.982 294.181 175.222 294.933C175.478 295.669 175.606 296.493 175.606 297.405C175.606 298.333 175.454 299.181 175.15 299.949C174.862 300.717 174.454 301.373 173.926 301.917C173.398 302.461 172.766 302.885 172.03 303.189C171.294 303.477 170.478 303.621 169.582 303.621ZM169.582 300.549C170.302 300.549 170.902 300.293 171.382 299.781C171.862 299.269 172.102 298.477 172.102 297.405C172.102 296.333 171.862 295.565 171.382 295.101C170.902 294.621 170.302 294.381 169.582 294.381C168.846 294.381 168.246 294.621 167.782 295.101C167.318 295.581 167.086 296.357 167.086 297.429C167.086 298.501 167.318 299.293 167.782 299.805C168.246 300.301 168.846 300.549 169.582 300.549ZM183.487 303.621C181.471 303.621 179.911 303.109 178.807 302.085C177.703 301.045 177.151 299.461 177.151 297.333C177.151 296.341 177.279 295.453 177.535 294.669C177.807 293.885 178.183 293.221 178.663 292.677C179.159 292.117 179.759 291.693 180.463 291.405C181.167 291.101 181.951 290.949 182.815 290.949C183.567 290.949 184.255 291.053 184.879 291.261C185.519 291.469 186.063 291.781 186.511 292.197C186.975 292.613 187.327 293.133 187.567 293.757C187.823 294.381 187.951 295.117 187.951 295.965C187.951 296.397 187.919 296.789 187.855 297.141C187.807 297.493 187.759 297.749 187.711 297.909H180.847C180.911 298.821 181.175 299.517 181.639 299.997C182.119 300.461 182.831 300.693 183.775 300.693C184.447 300.693 185.095 300.629 185.719 300.501C186.359 300.357 186.935 300.125 187.447 299.805V302.709C187.031 302.981 186.471 303.205 185.767 303.381C185.079 303.541 184.319 303.621 183.487 303.621ZM184.711 295.893C184.679 295.141 184.487 294.573 184.135 294.189C183.799 293.789 183.327 293.589 182.719 293.589C182.079 293.589 181.599 293.805 181.279 294.237C180.975 294.653 180.783 295.205 180.703 295.893H184.711ZM195.598 303.621C193.646 303.621 192.142 303.077 191.086 301.989C190.03 300.885 189.502 299.333 189.502 297.333C189.502 296.341 189.646 295.453 189.934 294.669C190.238 293.885 190.654 293.221 191.182 292.677C191.71 292.117 192.342 291.693 193.078 291.405C193.814 291.101 194.622 290.949 195.502 290.949C196.11 290.949 196.646 290.997 197.11 291.093C197.59 291.173 198.03 291.325 198.43 291.549V294.813C198.062 294.557 197.654 294.381 197.206 294.285C196.774 294.173 196.342 294.117 195.91 294.117C195.046 294.117 194.35 294.381 193.822 294.909C193.294 295.421 193.03 296.229 193.03 297.333C193.03 298.437 193.294 299.237 193.822 299.733C194.366 300.229 195.086 300.477 195.982 300.477C196.43 300.477 196.878 300.421 197.326 300.309C197.79 300.181 198.182 299.981 198.502 299.709V303.021C198.278 303.181 197.894 303.317 197.35 303.429C196.822 303.557 196.238 303.621 195.598 303.621ZM206.221 303.621C204.205 303.621 202.645 303.109 201.541 302.085C200.437 301.045 199.885 299.461 199.885 297.333C199.885 296.341 200.013 295.453 200.269 294.669C200.541 293.885 200.917 293.221 201.397 292.677C201.893 292.117 202.493 291.693 203.197 291.405C203.901 291.101 204.685 290.949 205.549 290.949C206.301 290.949 206.989 291.053 207.613 291.261C208.253 291.469 208.797 291.781 209.245 292.197C209.709 292.613 210.061 293.133 210.301 293.757C210.557 294.381 210.685 295.117 210.685 295.965C210.685 296.397 210.653 296.789 210.589 297.141C210.541 297.493 210.493 297.749 210.445 297.909H203.581C203.645 298.821 203.909 299.517 204.373 299.997C204.853 300.461 205.565 300.693 206.509 300.693C207.181 300.693 207.829 300.629 208.453 300.501C209.093 300.357 209.669 300.125 210.181 299.805V302.709C209.765 302.981 209.205 303.205 208.501 303.381C207.813 303.541 207.053 303.621 206.221 303.621ZM207.445 295.893C207.413 295.141 207.221 294.573 206.869 294.189C206.533 293.789 206.061 293.589 205.453 293.589C204.813 293.589 204.333 293.805 204.013 294.237C203.709 294.653 203.517 295.205 203.437 295.893H207.445ZM219.586 300.405V294.189H217.066C217.066 294.589 217.042 295.069 216.994 295.629C216.946 296.189 216.866 296.765 216.754 297.357C216.658 297.949 216.522 298.517 216.346 299.061C216.186 299.605 215.978 300.053 215.722 300.405H219.586ZM214.45 306.549H211.402V300.405H212.434C212.786 300.037 213.082 299.557 213.322 298.965C213.562 298.373 213.754 297.685 213.898 296.901C214.042 296.101 214.146 295.221 214.21 294.261C214.274 293.301 214.314 292.277 214.33 291.189H222.994V300.405H224.866V306.549H221.842L221.602 303.381H214.69L214.45 306.549ZM231.641 303.621C230.809 303.621 230.033 303.485 229.313 303.213C228.593 302.925 227.969 302.517 227.441 301.989C226.913 301.445 226.497 300.789 226.193 300.021C225.889 299.237 225.737 298.341 225.737 297.333C225.737 296.325 225.889 295.429 226.193 294.645C226.497 293.861 226.913 293.197 227.441 292.653C227.969 292.093 228.593 291.669 229.313 291.381C230.033 291.093 230.809 290.949 231.641 290.949C232.473 290.949 233.249 291.093 233.969 291.381C234.689 291.669 235.313 292.085 235.841 292.629C236.385 293.173 236.809 293.837 237.113 294.621C237.417 295.405 237.569 296.301 237.569 297.309C237.569 298.317 237.417 299.213 237.113 299.997C236.809 300.765 236.393 301.421 235.865 301.965C235.337 302.509 234.705 302.925 233.969 303.213C233.249 303.485 232.473 303.621 231.641 303.621ZM231.641 300.549C231.977 300.549 232.289 300.493 232.577 300.381C232.881 300.253 233.137 300.061 233.345 299.805C233.569 299.549 233.745 299.221 233.873 298.821C234.001 298.405 234.065 297.901 234.065 297.309C234.065 296.717 234.001 296.213 233.873 295.797C233.745 295.381 233.569 295.045 233.345 294.789C233.121 294.517 232.865 294.325 232.577 294.213C232.289 294.085 231.977 294.021 231.641 294.021C230.969 294.021 230.401 294.277 229.937 294.789C229.489 295.285 229.265 296.133 229.265 297.333C229.265 298.501 229.489 299.333 229.937 299.829C230.401 300.309 230.969 300.549 231.641 300.549ZM239.72 291.189H244.376C245.336 291.189 246.144 291.269 246.8 291.429C247.456 291.573 247.984 291.781 248.384 292.053C248.8 292.325 249.096 292.653 249.272 293.037C249.448 293.421 249.536 293.845 249.536 294.309C249.536 295.045 249.336 295.629 248.936 296.061C248.536 296.477 248 296.757 247.328 296.901V297.069C248.16 297.197 248.808 297.509 249.272 298.005C249.752 298.485 249.992 299.117 249.992 299.901C249.992 300.381 249.912 300.829 249.752 301.245C249.592 301.661 249.32 302.029 248.936 302.349C248.552 302.669 248.032 302.925 247.376 303.117C246.736 303.293 245.936 303.381 244.976 303.381H239.72V291.189ZM244.28 295.989C244.888 295.989 245.328 295.869 245.6 295.629C245.872 295.389 246.008 295.085 246.008 294.717C246.008 294.349 245.856 294.069 245.552 293.877C245.264 293.669 244.84 293.565 244.28 293.565H243.104V295.989H244.28ZM244.664 301.029C245.224 301.029 245.664 300.917 245.984 300.693C246.32 300.453 246.488 300.117 246.488 299.685C246.488 299.221 246.32 298.877 245.984 298.653C245.664 298.429 245.224 298.317 244.664 298.317H243.104V301.029H244.664ZM256.537 300.789C256.793 300.789 257.049 300.741 257.305 300.645C257.561 300.549 257.793 300.397 258.001 300.189C258.209 299.981 258.369 299.725 258.481 299.421C258.609 299.117 258.673 298.757 258.673 298.341V297.909C257.473 297.909 256.569 298.021 255.961 298.245C255.353 298.469 255.049 298.877 255.049 299.469C255.049 299.853 255.177 300.173 255.433 300.429C255.705 300.669 256.073 300.789 256.537 300.789ZM255.121 303.621C254.017 303.621 253.161 303.301 252.553 302.661C251.945 302.021 251.641 301.173 251.641 300.117C251.641 299.445 251.761 298.861 252.001 298.365C252.257 297.853 252.665 297.421 253.225 297.069C253.785 296.717 254.505 296.453 255.385 296.277C256.281 296.101 257.377 296.013 258.673 296.013V295.485C258.673 294.957 258.497 294.549 258.145 294.261C257.793 293.973 257.249 293.829 256.513 293.829C255.777 293.829 255.073 293.909 254.401 294.069C253.745 294.229 253.113 294.493 252.505 294.861V291.861C253.097 291.541 253.761 291.309 254.497 291.165C255.233 291.021 256.009 290.949 256.825 290.949C258.617 290.949 259.937 291.341 260.785 292.125C261.633 292.909 262.057 294.053 262.057 295.557V303.381H258.793V301.485H258.625C258.465 301.773 258.289 302.053 258.097 302.325C257.905 302.581 257.665 302.805 257.377 302.997C257.105 303.189 256.785 303.341 256.417 303.453C256.049 303.565 255.617 303.621 255.121 303.621ZM271.929 298.605H268.065V303.381H264.681V291.189H268.065V295.629H271.929V291.189H275.312V303.381H271.929V298.605ZM278.04 291.189H281.424V298.053H281.616L285.552 291.189H288.672V303.381H285.288V296.493H285.12L281.136 303.381H278.04V291.189ZM297.135 303.621C295.119 303.621 293.559 303.109 292.455 302.085C291.351 301.045 290.799 299.461 290.799 297.333C290.799 296.341 290.927 295.453 291.183 294.669C291.455 293.885 291.831 293.221 292.311 292.677C292.807 292.117 293.407 291.693 294.111 291.405C294.815 291.101 295.599 290.949 296.463 290.949C297.215 290.949 297.903 291.053 298.527 291.261C299.167 291.469 299.711 291.781 300.159 292.197C300.623 292.613 300.975 293.133 301.215 293.757C301.471 294.381 301.599 295.117 301.599 295.965C301.599 296.397 301.567 296.789 301.503 297.141C301.455 297.493 301.407 297.749 301.359 297.909H294.495C294.559 298.821 294.823 299.517 295.287 299.997C295.767 300.461 296.479 300.693 297.423 300.693C298.095 300.693 298.743 300.629 299.367 300.501C300.007 300.357 300.583 300.125 301.095 299.805V302.709C300.679 302.981 300.119 303.205 299.415 303.381C298.727 303.541 297.967 303.621 297.135 303.621ZM298.359 295.893C298.327 295.141 298.135 294.573 297.783 294.189C297.447 293.789 296.975 293.589 296.367 293.589C295.727 293.589 295.247 293.805 294.927 294.237C294.623 294.653 294.431 295.205 294.351 295.893H298.359Z" fill="#1F2229"/>
<path d="M111.68 544.381V526.381H117.464C118.488 526.381 119.368 526.501 120.104 526.741C120.84 526.965 121.448 527.285 121.928 527.701C122.408 528.101 122.76 528.589 122.984 529.165C123.208 529.725 123.32 530.349 123.32 531.037C123.32 531.949 123.08 532.725 122.6 533.365C122.12 533.989 121.456 534.461 120.608 534.781V534.949C121.664 535.173 122.488 535.645 123.08 536.365C123.688 537.069 123.992 537.973 123.992 539.077C123.992 539.829 123.88 540.533 123.656 541.189C123.432 541.829 123.072 542.389 122.576 542.869C122.08 543.333 121.44 543.701 120.656 543.973C119.872 544.245 118.92 544.381 117.8 544.381H111.68ZM117.056 533.677C117.792 533.677 118.408 533.509 118.904 533.173C119.416 532.821 119.672 532.245 119.672 531.445C119.672 531.061 119.6 530.741 119.456 530.485C119.328 530.213 119.144 529.997 118.904 529.837C118.68 529.677 118.408 529.565 118.088 529.501C117.768 529.421 117.424 529.381 117.056 529.381H115.184V533.677H117.056ZM117.392 541.381C117.792 541.381 118.168 541.349 118.52 541.285C118.888 541.205 119.208 541.077 119.48 540.901C119.752 540.709 119.96 540.469 120.104 540.181C120.264 539.877 120.344 539.493 120.344 539.029C120.344 538.549 120.256 538.157 120.08 537.853C119.92 537.549 119.704 537.309 119.432 537.133C119.16 536.941 118.84 536.813 118.472 536.749C118.104 536.669 117.728 536.629 117.344 536.629H115.184V541.381H117.392ZM126.321 532.189H129.705V535.693H130.905C131.865 535.693 132.681 535.805 133.353 536.029C134.041 536.237 134.609 536.533 135.057 536.917C135.505 537.285 135.833 537.733 136.041 538.261C136.249 538.773 136.353 539.333 136.353 539.941C136.353 540.565 136.249 541.149 136.041 541.693C135.833 542.237 135.505 542.709 135.057 543.109C134.609 543.493 134.041 543.805 133.353 544.045C132.681 544.269 131.865 544.381 130.905 544.381H126.321V532.189ZM130.833 541.693C131.553 541.693 132.065 541.533 132.369 541.213C132.689 540.893 132.849 540.501 132.849 540.037C132.849 539.557 132.689 539.165 132.369 538.861C132.065 538.557 131.553 538.405 130.833 538.405H129.705V541.693H130.833ZM137.385 532.189H140.769V544.381H137.385V532.189ZM156.725 539.605H152.861V544.381H149.477V532.189H152.861V536.629H156.725V532.189H160.109V544.381H156.725V539.605ZM167.373 541.789C167.629 541.789 167.885 541.741 168.141 541.645C168.397 541.549 168.629 541.397 168.837 541.189C169.045 540.981 169.205 540.725 169.317 540.421C169.445 540.117 169.509 539.757 169.509 539.341V538.909C168.309 538.909 167.405 539.021 166.797 539.245C166.189 539.469 165.885 539.877 165.885 540.469C165.885 540.853 166.013 541.173 166.269 541.429C166.541 541.669 166.909 541.789 167.373 541.789ZM165.957 544.621C164.853 544.621 163.997 544.301 163.389 543.661C162.781 543.021 162.477 542.173 162.477 541.117C162.477 540.445 162.597 539.861 162.837 539.365C163.093 538.853 163.501 538.421 164.061 538.069C164.621 537.717 165.341 537.453 166.221 537.277C167.117 537.101 168.213 537.013 169.509 537.013V536.485C169.509 535.957 169.333 535.549 168.981 535.261C168.629 534.973 168.085 534.829 167.349 534.829C166.613 534.829 165.909 534.909 165.237 535.069C164.581 535.229 163.949 535.493 163.341 535.861V532.861C163.933 532.541 164.597 532.309 165.333 532.165C166.069 532.021 166.845 531.949 167.661 531.949C169.453 531.949 170.773 532.341 171.621 533.125C172.469 533.909 172.893 535.053 172.893 536.557V544.381H169.629V542.485H169.461C169.301 542.773 169.125 543.053 168.933 543.325C168.741 543.581 168.501 543.805 168.213 543.997C167.941 544.189 167.621 544.341 167.253 544.453C166.885 544.565 166.453 544.621 165.957 544.621ZM188.718 539.605H184.854V544.381H181.47V532.189H184.854V536.629H188.718V532.189H192.102V544.381H188.718V539.605ZM200.133 544.621C199.301 544.621 198.525 544.485 197.805 544.213C197.085 543.925 196.461 543.517 195.933 542.989C195.405 542.445 194.989 541.789 194.685 541.021C194.381 540.237 194.229 539.341 194.229 538.333C194.229 537.325 194.381 536.429 194.685 535.645C194.989 534.861 195.405 534.197 195.933 533.653C196.461 533.093 197.085 532.669 197.805 532.381C198.525 532.093 199.301 531.949 200.133 531.949C200.965 531.949 201.741 532.093 202.461 532.381C203.181 532.669 203.805 533.085 204.333 533.629C204.877 534.173 205.301 534.837 205.605 535.621C205.909 536.405 206.061 537.301 206.061 538.309C206.061 539.317 205.909 540.213 205.605 540.997C205.301 541.765 204.885 542.421 204.357 542.965C203.829 543.509 203.197 543.925 202.461 544.213C201.741 544.485 200.965 544.621 200.133 544.621ZM200.133 541.549C200.469 541.549 200.781 541.493 201.069 541.381C201.373 541.253 201.629 541.061 201.837 540.805C202.061 540.549 202.237 540.221 202.365 539.821C202.493 539.405 202.557 538.901 202.557 538.309C202.557 537.717 202.493 537.213 202.365 536.797C202.237 536.381 202.061 536.045 201.837 535.789C201.613 535.517 201.357 535.325 201.069 535.213C200.781 535.085 200.469 535.021 200.133 535.021C199.461 535.021 198.893 535.277 198.429 535.789C197.981 536.285 197.757 537.133 197.757 538.333C197.757 539.501 197.981 540.333 198.429 540.829C198.893 541.309 199.461 541.549 200.133 541.549ZM208.212 532.189H212.868C213.828 532.189 214.636 532.269 215.292 532.429C215.948 532.573 216.476 532.781 216.876 533.053C217.292 533.325 217.588 533.653 217.764 534.037C217.94 534.421 218.028 534.845 218.028 535.309C218.028 536.045 217.828 536.629 217.428 537.061C217.028 537.477 216.492 537.757 215.82 537.901V538.069C216.652 538.197 217.3 538.509 217.764 539.005C218.244 539.485 218.484 540.117 218.484 540.901C218.484 541.381 218.404 541.829 218.244 542.245C218.084 542.661 217.812 543.029 217.428 543.349C217.044 543.669 216.524 543.925 215.868 544.117C215.228 544.293 214.428 544.381 213.468 544.381H208.212V532.189ZM212.772 536.989C213.38 536.989 213.82 536.869 214.092 536.629C214.364 536.389 214.5 536.085 214.5 535.717C214.5 535.349 214.348 535.069 214.044 534.877C213.756 534.669 213.332 534.565 212.772 534.565H211.596V536.989H212.772ZM213.156 542.029C213.716 542.029 214.156 541.917 214.476 541.693C214.812 541.453 214.98 541.117 214.98 540.685C214.98 540.221 214.812 539.877 214.476 539.653C214.156 539.429 213.716 539.317 213.156 539.317H211.596V542.029H213.156ZM225.797 544.621C224.965 544.621 224.189 544.485 223.469 544.213C222.749 543.925 222.125 543.517 221.597 542.989C221.069 542.445 220.653 541.789 220.349 541.021C220.045 540.237 219.893 539.341 219.893 538.333C219.893 537.325 220.045 536.429 220.349 535.645C220.653 534.861 221.069 534.197 221.597 533.653C222.125 533.093 222.749 532.669 223.469 532.381C224.189 532.093 224.965 531.949 225.797 531.949C226.629 531.949 227.405 532.093 228.125 532.381C228.845 532.669 229.469 533.085 229.997 533.629C230.541 534.173 230.965 534.837 231.269 535.621C231.573 536.405 231.725 537.301 231.725 538.309C231.725 539.317 231.573 540.213 231.269 540.997C230.965 541.765 230.549 542.421 230.021 542.965C229.493 543.509 228.861 543.925 228.125 544.213C227.405 544.485 226.629 544.621 225.797 544.621ZM225.797 541.549C226.133 541.549 226.445 541.493 226.733 541.381C227.037 541.253 227.293 541.061 227.501 540.805C227.725 540.549 227.901 540.221 228.029 539.821C228.157 539.405 228.221 538.901 228.221 538.309C228.221 537.717 228.157 537.213 228.029 536.797C227.901 536.381 227.725 536.045 227.501 535.789C227.277 535.517 227.021 535.325 226.733 535.213C226.445 535.085 226.133 535.021 225.797 535.021C225.125 535.021 224.557 535.277 224.093 535.789C223.645 536.285 223.421 537.133 223.421 538.333C223.421 539.501 223.645 540.333 224.093 540.829C224.557 541.309 225.125 541.549 225.797 541.549ZM233.876 532.189H237.26V539.053H237.452L241.388 532.189H244.508V544.381H241.124V537.493H240.956L236.972 544.381H233.876V532.189ZM239.108 531.013C238.58 531.013 238.06 530.957 237.548 530.845C237.052 530.717 236.604 530.501 236.204 530.197C235.804 529.877 235.476 529.453 235.22 528.925C234.98 528.397 234.86 527.725 234.86 526.909H237.812C237.812 527.373 237.9 527.741 238.076 528.013C238.252 528.285 238.596 528.421 239.108 528.421C239.588 528.421 239.924 528.285 240.116 528.013C240.308 527.741 240.404 527.373 240.404 526.909H243.356C243.356 527.725 243.228 528.397 242.972 528.925C242.732 529.453 242.412 529.877 242.012 530.197C241.612 530.501 241.156 530.717 240.644 530.845C240.148 530.957 239.636 531.013 239.108 531.013ZM118.376 561.165H114.752V570.381H111.368V558.189H121.76V570.381H118.376V561.165ZM129.797 570.621C128.965 570.621 128.189 570.485 127.469 570.213C126.749 569.925 126.125 569.517 125.597 568.989C125.069 568.445 124.653 567.789 124.349 567.021C124.045 566.237 123.893 565.341 123.893 564.333C123.893 563.325 124.045 562.429 124.349 561.645C124.653 560.861 125.069 560.197 125.597 559.653C126.125 559.093 126.749 558.669 127.469 558.381C128.189 558.093 128.965 557.949 129.797 557.949C130.629 557.949 131.405 558.093 132.125 558.381C132.845 558.669 133.469 559.085 133.997 559.629C134.541 560.173 134.965 560.837 135.269 561.621C135.573 562.405 135.725 563.301 135.725 564.309C135.725 565.317 135.573 566.213 135.269 566.997C134.965 567.765 134.549 568.421 134.021 568.965C133.493 569.509 132.861 569.925 132.125 570.213C131.405 570.485 130.629 570.621 129.797 570.621ZM129.797 567.549C130.133 567.549 130.445 567.493 130.733 567.381C131.037 567.253 131.293 567.061 131.501 566.805C131.725 566.549 131.901 566.221 132.029 565.821C132.157 565.405 132.221 564.901 132.221 564.309C132.221 563.717 132.157 563.213 132.029 562.797C131.901 562.381 131.725 562.045 131.501 561.789C131.277 561.517 131.021 561.325 130.733 561.213C130.445 561.085 130.133 561.021 129.797 561.021C129.125 561.021 128.557 561.277 128.093 561.789C127.645 562.285 127.421 563.133 127.421 564.333C127.421 565.501 127.645 566.333 128.093 566.829C128.557 567.309 129.125 567.549 129.797 567.549ZM141.428 570.621C141.108 570.621 140.772 570.605 140.42 570.573C140.068 570.541 139.716 570.493 139.364 570.429C139.028 570.365 138.692 570.285 138.356 570.189C138.02 570.077 137.724 569.941 137.468 569.781V566.853C138.636 567.573 139.852 567.933 141.116 567.933C142.332 567.933 142.94 567.509 142.94 566.661C142.94 566.245 142.788 565.949 142.484 565.773C142.18 565.581 141.764 565.485 141.236 565.485H139.244V562.869H141.068C141.564 562.869 141.924 562.773 142.148 562.581C142.372 562.389 142.484 562.133 142.484 561.813C142.484 561.397 142.332 561.101 142.028 560.925C141.724 560.749 141.292 560.661 140.732 560.661C140.156 560.661 139.62 560.733 139.124 560.877C138.644 561.005 138.148 561.229 137.636 561.549V558.645C138.132 558.421 138.692 558.253 139.316 558.141C139.956 558.013 140.596 557.949 141.236 557.949C142.068 557.949 142.772 558.029 143.348 558.189C143.924 558.349 144.396 558.573 144.764 558.861C145.132 559.133 145.396 559.461 145.556 559.845C145.732 560.229 145.82 560.645 145.82 561.093C145.82 561.701 145.676 562.253 145.388 562.749C145.1 563.229 144.572 563.597 143.804 563.853V564.021C144.62 564.213 145.236 564.573 145.652 565.101C146.068 565.613 146.276 566.269 146.276 567.069C146.276 567.517 146.196 567.957 146.036 568.389C145.892 568.805 145.636 569.181 145.268 569.517C144.9 569.853 144.404 570.125 143.78 570.333C143.156 570.525 142.372 570.621 141.428 570.621ZM148.54 558.189H151.924V565.053H152.116L156.052 558.189H159.172V570.381H155.788V563.493H155.62L151.636 570.381H148.54V558.189ZM161.899 570.381V558.189H165.283V567.405H168.931V558.189H172.339V567.405H174.211V573.741H171.187L170.947 570.381H161.899ZM175.845 558.189H179.229V565.053H179.421L183.357 558.189H186.477V570.381H183.093V563.493H182.925L178.941 570.381H175.845V558.189ZM189.204 558.189H192.588V565.053H192.78L196.716 558.189H199.836V570.381H196.452V563.493H196.284L192.3 570.381H189.204V558.189ZM206.811 552.381L206.115 564.357H203.475L202.803 552.381H206.811ZM204.843 570.717C204.251 570.717 203.755 570.517 203.355 570.117C202.971 569.701 202.779 569.205 202.779 568.629C202.779 568.053 202.971 567.565 203.355 567.165C203.755 566.749 204.251 566.541 204.843 566.541C205.115 566.541 205.379 566.597 205.635 566.709C205.891 566.821 206.115 566.973 206.307 567.165C206.499 567.341 206.651 567.557 206.763 567.813C206.875 568.069 206.931 568.341 206.931 568.629C206.931 568.917 206.875 569.189 206.763 569.445C206.651 569.701 206.499 569.925 206.307 570.117C206.115 570.293 205.891 570.437 205.635 570.549C205.379 570.661 205.115 570.717 204.843 570.717Z" fill="#1F2229"/>
<path d="M150.488 70.3809H20C13.3726 70.3809 8 75.7534 8 82.3809V203.88C8 210.508 13.3726 215.88 20 215.88H311C317.627 215.88 323 221.253 323 227.88V341.381C323 348.008 317.627 353.381 311 353.381H20C13.3726 353.381 8 358.753 8 365.381V471.381C8 478.008 13.3726 483.381 20 483.381H311C317.627 483.381 323 488.753 323 495.381V549.381" stroke="#1F2229" stroke-dasharray="6 6"/>
<path d="M56.3653 519.987C56.5722 519.987 58.0203 519.987 58.1642 520.04C73.6794 525.109 76.5576 540.42 71.6017 554.767C66.8257 568.586 54.5665 577.641 40.7692 572.483C42.2497 573.488 43.859 574.291 45.5542 574.87C58.0833 579.152 72.4292 570.562 77.5289 555.697C82.6287 540.832 76.6835 525.305 64.1634 521.05C61.6583 520.195 59.0096 519.834 56.3653 519.987Z" fill="#BE88F8"/>
<path d="M54.4773 520.092C70.679 520.092 77.3342 538.733 72.2731 553.665C66.6849 570.152 53.503 576.704 40.9268 572.494M49.7641 520.944C41.9114 523.69 34.9778 530.654 31.7654 540.132C27.6286 552.337 30.9431 564.934 39.1593 571.427" stroke="black" stroke-width="1.00245" stroke-linejoin="round"/>
<path d="M64.6443 551.958C67.8932 542.56 64.7953 532.984 57.7249 530.57C50.6546 528.156 42.2892 533.818 39.0403 543.216C35.7914 552.615 38.8893 562.19 45.9597 564.604C53.03 567.018 61.3954 561.356 64.6443 551.958Z" fill="#BE88F8"/>
<path d="M57.5319 548.676C59.1894 543.881 57.6082 538.995 54.0002 537.764C50.3922 536.532 46.1237 539.42 44.4661 544.215C42.8086 549.01 44.3898 553.896 47.9978 555.127C51.6058 556.359 55.8743 553.471 57.5319 548.676Z" fill="white"/>
<path d="M50.9988 547.183L44.8197 541.847" stroke="black" stroke-linecap="round" stroke-linejoin="round"/>
<path d="M37.7053 539.764C37.9392 540.116 38.164 540.464 38.3799 540.81C38.9001 541.762 39.6475 542.572 40.5565 543.17C40.9415 543.412 41.3737 543.57 41.8247 543.634C42.3044 543.708 42.7939 543.687 43.2653 543.572C43.7367 543.457 44.1807 543.251 44.5717 542.966C44.9628 542.68 45.2933 542.32 45.5442 541.907C45.7951 541.495 45.9616 541.036 46.034 540.56C46.1709 539.504 45.8832 538.438 45.2336 537.592C44.5105 537.034 43.7435 536.535 42.94 536.099C42.3644 535.786 41.9147 535.554 41.5369 535.366" fill="black"/>
<path d="M37.7053 539.764C37.9392 540.116 38.164 540.464 38.3799 540.81C38.9001 541.762 39.6475 542.572 40.5565 543.17C40.9415 543.412 41.3737 543.57 41.8247 543.634C42.3044 543.708 42.7939 543.687 43.2653 543.572C43.7367 543.457 44.1807 543.251 44.5717 542.966C44.9628 542.68 45.2933 542.32 45.5442 541.907C45.7951 541.495 45.9616 541.036 46.034 540.56C46.1709 539.504 45.8832 538.438 45.2336 537.592C44.5105 537.034 43.7435 536.535 42.94 536.099C42.3644 535.786 41.9147 535.554 41.5369 535.366" stroke="black" stroke-linecap="round" stroke-linejoin="round"/>
<path d="M39.226 530.986C38.9165 530.723 38.5922 530.479 38.2546 530.253C35.8441 528.608 33.1728 527.285 30.6544 525.784L17.8915 518.418C17.2118 518.144 16.5756 517.774 16.0027 517.319L21.6241 524.211L30.5015 535.125C31.9675 536.912 33.2987 539.353 35.8171 539.737C36.4491 539.834 37.094 539.805 37.715 539.654C38.336 539.503 38.9209 539.231 39.4362 538.855C39.9516 538.479 40.3874 538.006 40.7186 537.462C41.0498 536.919 41.27 536.316 41.3666 535.688C41.6364 533.73 40.6111 532.166 39.226 530.986Z" fill="white" stroke="black" stroke-linecap="round" stroke-linejoin="round"/>
<path d="M17.8925 518.419C17.8925 518.419 11.2098 511.151 18.1264 507.478C25.043 503.804 25.142 522.53 25.142 522.53" stroke="black" stroke-linejoin="round"/>
<path d="M17.0378 518.722C17.0378 518.722 7.98955 515.665 8.2144 523.174C8.43926 530.682 23.028 525.793 23.028 525.793" stroke="black" stroke-linejoin="round"/>
<path d="M11.218 518.23C11.218 518.23 5.82137 515.486 9.00535 513.529C12.1893 511.571 16.6235 516.711 16.6235 516.711" stroke="black" stroke-linejoin="round"/>
<path d="M166 78.3819C169.866 78.3819 173 75.2479 173 71.3819C173 67.5159 169.866 64.3818 166 64.3818C162.134 64.3818 159 67.5159 159 71.3819C159 75.2479 162.134 78.3819 166 78.3819Z" fill="white" stroke="black" stroke-width="2" stroke-miterlimit="10" stroke-linecap="round"/>
<path d="M8 147.381C11.866 147.381 15 144.247 15 140.381C15 136.515 11.866 133.381 8 133.381C4.13401 133.381 1 136.515 1 140.381C1 144.247 4.13401 147.381 8 147.381Z" fill="white" stroke="black" stroke-width="2" stroke-miterlimit="10" stroke-linecap="round"/>
<path d="M323 295.381C326.866 295.381 330 292.247 330 288.381C330 284.515 326.866 281.381 323 281.381C319.134 281.381 316 284.515 316 288.381C316 292.247 319.134 295.381 323 295.381Z" fill="white" stroke="black" stroke-width="2" stroke-miterlimit="10" stroke-linecap="round"/>
<path d="M9.4 428.182C12.9346 428.182 15.8 425.316 15.8 421.782C15.8 418.247 12.9346 415.382 9.4 415.382C5.86538 415.382 3 418.247 3 421.782C3 425.316 5.86538 428.182 9.4 428.182Z" fill="white" stroke="black" stroke-width="2" stroke-miterlimit="10" stroke-linecap="round"/>
<path d="M323 557.381C326.866 557.381 330 554.247 330 550.381C330 546.515 326.866 543.381 323 543.381C319.134 543.381 316 546.515 316 550.381C316 554.247 319.134 557.381 323 557.381Z" fill="white" stroke="black" stroke-width="2" stroke-miterlimit="10" stroke-linecap="round"/>
<path d="M78.3247 452.652L102.844 439.054L104.245 439.773L110.553 436.09V434.937L134.135 421.101V419.466L130.869 417.167V419.031L78.3247 448.267L38.2438 425.7V420.374L32.3281 423.835V425.7L78.3247 452.652Z" fill="#C882FF"/>
<path d="M78.6041 451.127H78.2038L32.1992 424.159V423.48L37.9068 420.051L38.323 420.722L33.1838 423.812L78.4119 450.329L102.731 436.841L103.107 436.833L104.308 437.426L110.232 433.965V433.041L110.424 432.701L133.454 419.197L130.396 417.254L130.829 416.59L134.431 418.873L134.423 419.545L111.032 433.262V434.194L110.832 434.526L104.532 438.216L104.148 438.232L102.939 437.631L78.6041 451.127Z" fill="black"/>
<path d="M78.9892 453H78.629L32.2001 425.795L32 425.455V423.654H32.8005V425.234L78.7971 452.202L103.116 438.714H103.492L104.693 439.307L110.233 436.059V434.044H111.033V436.28L110.833 436.62L104.917 440.097H104.533L103.324 439.496L78.9892 453ZM112.122 434.732L111.714 434.052L134.2 420.849V419.269H135V421.07L134.808 421.41L112.122 434.732Z" fill="black"/>
<path d="M79.6211 432.74L79.365 432.685L40.1406 409.17L40.3087 408.443L65.0601 405.678L65.3082 405.725L105.701 429.011L105.549 429.738L79.6211 432.74ZM41.5495 409.099L79.6612 431.934L104.244 429.098L65.0201 406.476L41.5495 409.099Z" fill="black"/>
<path d="M105.525 429.92L64.8922 406.413L64.7721 406.31L50.5312 387.623L51.0596 387.046L90.284 410.095L90.396 410.182L106.038 429.319L105.525 429.92ZM65.3645 405.797L104.036 428.166L89.8117 410.782L52.3964 388.801L65.3645 405.797Z" fill="black"/>
<path d="M106.024 430.054L105.248 429.872L112.516 400.036L73.5241 376.948L68.4249 396.18L67.6484 395.983L72.8837 376.237L73.4761 376L113.173 399.507L113.357 399.941L106.024 430.054Z" fill="black"/>
<path d="M105.767 430.14L105.166 429.619L126.363 405.709L87.2031 382.929L87.6114 382.25L127.18 405.266L127.284 405.867L105.767 430.14Z" fill="black"/>
<path d="M78.2048 448.828L38.0439 426.008L37.8438 425.661V419.442L38.0599 419.087L48.9226 413.603L49.2909 414.306L38.6442 419.679V425.431L78.4049 448.022L105.158 432.701L130.077 418.747V412.995L124.105 409.929L124.474 409.226L130.669 412.402L130.878 412.758V418.976L130.677 419.324L105.558 433.38L78.6131 448.82L78.2048 448.828Z" fill="black"/>
<path d="M69.8539 411.64L54.2051 413.748L54.3133 414.531L69.9621 412.423L69.8539 411.64Z" fill="black"/>
<path d="M128.949 412.871L105.176 429.46L105.638 430.106L129.411 413.516L128.949 412.871Z" fill="black"/>
<path d="M78.3465 442.846L77.9703 442.83L37.6973 419.584L38.0975 418.896L78.1864 442.04L105.684 429.05L106.028 429.769L78.3465 442.846Z" fill="black"/>
<path d="M73.3399 413.815L58.0664 416.004L58.1814 416.786L73.4549 414.597L73.3399 413.815Z" fill="black"/>
<path d="M84.1387 419.33L68.8652 421.519L68.9802 422.301L84.2537 420.112L84.1387 419.33Z" fill="black"/>
<path d="M87.8809 422.098L72.6074 424.287L72.7224 425.069L87.9959 422.88L87.8809 422.098Z" fill="black"/>
<path d="M79.0716 384.839L74.8789 399.196L75.6481 399.415L79.8408 385.058L79.0716 384.839Z" fill="black"/>
<path d="M82.806 386.679L78.6133 401.036L79.3825 401.254L83.5752 386.897L82.806 386.679Z" fill="black"/>
<path d="M78.6853 442.325H77.8848V446.915H78.6853V442.325Z" fill="black"/>
<path d="M168.136 417.24C166.968 417.24 165.936 417.024 165.04 416.592C164.144 416.144 163.384 415.52 162.76 414.72C162.152 413.904 161.688 412.928 161.368 411.792C161.048 410.656 160.888 409.392 160.888 408C160.888 406.592 161.048 405.32 161.368 404.184C161.688 403.048 162.152 402.08 162.76 401.28C163.384 400.48 164.144 399.864 165.04 399.432C165.936 398.984 166.968 398.76 168.136 398.76C169.32 398.76 170.368 398.976 171.28 399.408C172.192 399.84 172.952 400.464 173.56 401.28C174.184 402.08 174.648 403.048 174.952 404.184C175.272 405.32 175.432 406.584 175.432 407.976C175.432 409.384 175.272 410.656 174.952 411.792C174.632 412.928 174.16 413.904 173.536 414.72C172.928 415.52 172.168 416.144 171.256 416.592C170.36 417.024 169.32 417.24 168.136 417.24ZM168.136 414.144C170.568 414.144 171.784 412.088 171.784 407.976C171.784 405.944 171.48 404.416 170.872 403.392C170.264 402.368 169.352 401.856 168.136 401.856C166.968 401.856 166.072 402.368 165.448 403.392C164.84 404.416 164.536 405.952 164.536 408C164.536 410.048 164.84 411.584 165.448 412.608C166.072 413.632 166.968 414.144 168.136 414.144ZM183.129 417.24C182.313 417.24 181.537 417.12 180.801 416.88C180.065 416.64 179.417 416.224 178.857 415.632C178.313 415.04 177.881 414.248 177.561 413.256C177.241 412.248 177.081 410.976 177.081 409.44C177.081 407.68 177.225 406.176 177.513 404.928C177.801 403.68 178.257 402.648 178.881 401.832C179.505 401.016 180.305 400.4 181.281 399.984C182.257 399.552 183.425 399.272 184.785 399.144C185.441 399.096 186.097 399.04 186.753 398.976C187.409 398.912 187.897 398.84 188.217 398.76V402.048C187.897 402.128 187.433 402.192 186.825 402.24C186.217 402.288 185.601 402.352 184.977 402.432C184.113 402.512 183.377 402.656 182.769 402.864C182.177 403.056 181.689 403.336 181.305 403.704C180.937 404.072 180.657 404.552 180.465 405.144C180.289 405.72 180.177 406.44 180.129 407.304H180.297C180.393 407.048 180.537 406.784 180.729 406.512C180.921 406.224 181.169 405.968 181.473 405.744C181.793 405.504 182.169 405.312 182.601 405.168C183.049 405.024 183.569 404.952 184.161 404.952C184.881 404.952 185.545 405.104 186.153 405.408C186.777 405.696 187.305 406.104 187.737 406.632C188.185 407.16 188.529 407.8 188.769 408.552C189.025 409.288 189.153 410.112 189.153 411.024C189.153 411.952 189.001 412.8 188.697 413.568C188.409 414.336 188.001 414.992 187.473 415.536C186.945 416.08 186.313 416.504 185.577 416.808C184.841 417.096 184.025 417.24 183.129 417.24ZM183.129 414.168C183.849 414.168 184.449 413.912 184.929 413.4C185.409 412.888 185.649 412.096 185.649 411.024C185.649 409.952 185.409 409.184 184.929 408.72C184.449 408.24 183.849 408 183.129 408C182.393 408 181.793 408.24 181.329 408.72C180.865 409.2 180.633 409.976 180.633 411.048C180.633 412.12 180.865 412.912 181.329 413.424C181.793 413.92 182.393 414.168 183.129 414.168ZM192.167 423L194.135 417.192L189.623 404.808H193.175L195.743 412.392H195.911L198.335 404.808H201.551L195.383 423H192.167ZM208.859 412.56C208.587 412.672 208.259 412.768 207.875 412.848C207.507 412.928 207.075 412.968 206.579 412.968C204.995 412.968 203.843 412.552 203.123 411.72C202.403 410.872 202.043 409.672 202.043 408.12V404.808H205.427V407.976C205.427 408.696 205.571 409.208 205.859 409.512C206.163 409.816 206.619 409.968 207.227 409.968C207.467 409.968 207.731 409.944 208.019 409.896C208.307 409.832 208.587 409.736 208.859 409.608V404.808H212.267V417H208.859V412.56ZM214.993 404.808H218.377V411.672H218.569L222.505 404.808H225.625V417H222.241V410.112H222.073L218.089 417H214.993V404.808ZM230.56 407.784H227.224V404.808H237.28V407.784H233.92V417H230.56V407.784ZM244.401 417.24C242.385 417.24 240.825 416.728 239.721 415.704C238.617 414.664 238.065 413.08 238.065 410.952C238.065 409.96 238.193 409.072 238.449 408.288C238.721 407.504 239.097 406.84 239.577 406.296C240.073 405.736 240.673 405.312 241.377 405.024C242.081 404.72 242.865 404.568 243.729 404.568C244.481 404.568 245.169 404.672 245.793 404.88C246.433 405.088 246.977 405.4 247.425 405.816C247.889 406.232 248.241 406.752 248.481 407.376C248.737 408 248.865 408.736 248.865 409.584C248.865 410.016 248.833 410.408 248.769 410.76C248.721 411.112 248.673 411.368 248.625 411.528H241.761C241.825 412.44 242.089 413.136 242.553 413.616C243.033 414.08 243.745 414.312 244.689 414.312C245.361 414.312 246.009 414.248 246.633 414.12C247.273 413.976 247.849 413.744 248.361 413.424V416.328C247.945 416.6 247.385 416.824 246.681 417C245.993 417.16 245.233 417.24 244.401 417.24ZM245.625 409.512C245.593 408.76 245.401 408.192 245.049 407.808C244.713 407.408 244.241 407.208 243.633 407.208C242.993 407.208 242.513 407.424 242.193 407.856C241.889 408.272 241.697 408.824 241.617 409.512H245.625ZM256.512 417.24C254.56 417.24 253.056 416.696 252 415.608C250.944 414.504 250.416 412.952 250.416 410.952C250.416 409.96 250.56 409.072 250.848 408.288C251.152 407.504 251.568 406.84 252.096 406.296C252.624 405.736 253.256 405.312 253.992 405.024C254.728 404.72 255.536 404.568 256.416 404.568C257.024 404.568 257.56 404.616 258.024 404.712C258.504 404.792 258.944 404.944 259.344 405.168V408.432C258.976 408.176 258.568 408 258.12 407.904C257.688 407.792 257.256 407.736 256.824 407.736C255.96 407.736 255.264 408 254.736 408.528C254.208 409.04 253.944 409.848 253.944 410.952C253.944 412.056 254.208 412.856 254.736 413.352C255.28 413.848 256 414.096 256.896 414.096C257.344 414.096 257.792 414.04 258.24 413.928C258.704 413.8 259.096 413.6 259.416 413.328V416.64C259.192 416.8 258.808 416.936 258.264 417.048C257.736 417.176 257.152 417.24 256.512 417.24ZM261.634 404.808H265.018V408.312H266.218C267.178 408.312 267.994 408.424 268.666 408.648C269.354 408.856 269.922 409.152 270.37 409.536C270.818 409.904 271.146 410.352 271.354 410.88C271.562 411.392 271.666 411.952 271.666 412.56C271.666 413.184 271.562 413.768 271.354 414.312C271.146 414.856 270.818 415.328 270.37 415.728C269.922 416.112 269.354 416.424 268.666 416.664C267.994 416.888 267.178 417 266.218 417H261.634V404.808ZM266.146 414.312C266.866 414.312 267.378 414.152 267.682 413.832C268.002 413.512 268.162 413.12 268.162 412.656C268.162 412.176 268.002 411.784 267.682 411.48C267.378 411.176 266.866 411.024 266.146 411.024H265.018V414.312H266.146ZM279.019 409.08H292.315V411.504H279.019V409.08ZM161.368 430.808H166.24L168.712 438.824H168.88L171.328 430.808H176.2V443H172.792V434.528H172.552L169.936 443H167.104L164.488 434.528H164.248V443H161.368V430.808ZM179.016 430.808H182.4V434.312H183.6C184.56 434.312 185.376 434.424 186.048 434.648C186.736 434.856 187.304 435.152 187.752 435.536C188.2 435.904 188.528 436.352 188.736 436.88C188.944 437.392 189.048 437.952 189.048 438.56C189.048 439.184 188.944 439.768 188.736 440.312C188.528 440.856 188.2 441.328 187.752 441.728C187.304 442.112 186.736 442.424 186.048 442.664C185.376 442.888 184.56 443 183.6 443H179.016V430.808ZM183.528 440.312C184.248 440.312 184.76 440.152 185.064 439.832C185.384 439.512 185.544 439.12 185.544 438.656C185.544 438.176 185.384 437.784 185.064 437.48C184.76 437.176 184.248 437.024 183.528 437.024H182.4V440.312H183.528ZM190.08 430.808H193.464V443H190.08V430.808ZM209.181 433.784H205.557V443H202.173V430.808H212.565V443H209.181V433.784ZM220.602 443.24C219.77 443.24 218.994 443.104 218.274 442.832C217.554 442.544 216.93 442.136 216.402 441.608C215.874 441.064 215.458 440.408 215.154 439.64C214.85 438.856 214.698 437.96 214.698 436.952C214.698 435.944 214.85 435.048 215.154 434.264C215.458 433.48 215.874 432.816 216.402 432.272C216.93 431.712 217.554 431.288 218.274 431C218.994 430.712 219.77 430.568 220.602 430.568C221.434 430.568 222.21 430.712 222.93 431C223.65 431.288 224.274 431.704 224.802 432.248C225.346 432.792 225.77 433.456 226.074 434.24C226.378 435.024 226.53 435.92 226.53 436.928C226.53 437.936 226.378 438.832 226.074 439.616C225.77 440.384 225.354 441.04 224.826 441.584C224.298 442.128 223.666 442.544 222.93 442.832C222.21 443.104 221.434 443.24 220.602 443.24ZM220.602 440.168C220.938 440.168 221.25 440.112 221.538 440C221.842 439.872 222.098 439.68 222.306 439.424C222.53 439.168 222.706 438.84 222.834 438.44C222.962 438.024 223.026 437.52 223.026 436.928C223.026 436.336 222.962 435.832 222.834 435.416C222.706 435 222.53 434.664 222.306 434.408C222.082 434.136 221.826 433.944 221.538 433.832C221.25 433.704 220.938 433.64 220.602 433.64C219.93 433.64 219.362 433.896 218.898 434.408C218.45 434.904 218.226 435.752 218.226 436.952C218.226 438.12 218.45 438.952 218.898 439.448C219.362 439.928 219.93 440.168 220.602 440.168ZM228.681 430.808H233.553L236.025 438.824H236.193L238.641 430.808H243.513V443H240.105V434.528H239.865L237.249 443H234.417L231.801 434.528H231.561V443H228.681V430.808ZM251.633 443.24C250.801 443.24 250.025 443.104 249.305 442.832C248.585 442.544 247.961 442.136 247.433 441.608C246.905 441.064 246.489 440.408 246.185 439.64C245.881 438.856 245.729 437.96 245.729 436.952C245.729 435.944 245.881 435.048 246.185 434.264C246.489 433.48 246.905 432.816 247.433 432.272C247.961 431.712 248.585 431.288 249.305 431C250.025 430.712 250.801 430.568 251.633 430.568C252.465 430.568 253.241 430.712 253.961 431C254.681 431.288 255.305 431.704 255.833 432.248C256.377 432.792 256.801 433.456 257.105 434.24C257.409 435.024 257.561 435.92 257.561 436.928C257.561 437.936 257.409 438.832 257.105 439.616C256.801 440.384 256.385 441.04 255.857 441.584C255.329 442.128 254.697 442.544 253.961 442.832C253.241 443.104 252.465 443.24 251.633 443.24ZM251.633 440.168C251.969 440.168 252.281 440.112 252.569 440C252.873 439.872 253.129 439.68 253.337 439.424C253.561 439.168 253.737 438.84 253.865 438.44C253.993 438.024 254.057 437.52 254.057 436.928C254.057 436.336 253.993 435.832 253.865 435.416C253.737 435 253.561 434.664 253.337 434.408C253.113 434.136 252.857 433.944 252.569 433.832C252.281 433.704 251.969 433.64 251.633 433.64C250.961 433.64 250.393 433.896 249.929 434.408C249.481 434.904 249.257 435.752 249.257 436.952C249.257 438.12 249.481 438.952 249.929 439.448C250.393 439.928 250.961 440.168 251.633 440.168ZM261.742 443H257.878L261.91 436.448L257.998 430.808H261.358L264.838 435.776L265.318 435.896V430.808H268.702V435.92L269.134 435.8L272.614 430.808H275.95L272.134 436.328L276.142 443H272.158L269.23 438.272L268.702 438.416V443H265.318V438.416L264.766 438.248L261.742 443ZM282.979 443.24C280.963 443.24 279.403 442.728 278.299 441.704C277.195 440.664 276.643 439.08 276.643 436.952C276.643 435.96 276.771 435.072 277.027 434.288C277.299 433.504 277.675 432.84 278.155 432.296C278.651 431.736 279.251 431.312 279.955 431.024C280.659 430.72 281.443 430.568 282.307 430.568C283.059 430.568 283.747 430.672 284.371 430.88C285.011 431.088 285.555 431.4 286.003 431.816C286.467 432.232 286.819 432.752 287.059 433.376C287.315 434 287.443 434.736 287.443 435.584C287.443 436.016 287.411 436.408 287.347 436.76C287.299 437.112 287.251 437.368 287.203 437.528H280.339C280.403 438.44 280.667 439.136 281.131 439.616C281.611 440.08 282.323 440.312 283.267 440.312C283.939 440.312 284.587 440.248 285.211 440.12C285.851 439.976 286.427 439.744 286.939 439.424V442.328C286.523 442.6 285.963 442.824 285.259 443C284.571 443.16 283.811 443.24 282.979 443.24ZM284.203 435.512C284.171 434.76 283.979 434.192 283.627 433.808C283.291 433.408 282.819 433.208 282.211 433.208C281.571 433.208 281.091 433.424 280.771 433.856C280.467 434.272 280.275 434.824 280.195 435.512H284.203ZM289.595 430.808H294.467L296.939 438.824H297.107L299.555 430.808H304.427V443H301.019V434.528H300.779L298.163 443H295.331L292.715 434.528H292.475V443H289.595V430.808Z" fill="#1F2229"/>
</svg>
