<svg width="32" height="32" viewBox="0 0 32 32" fill="none" xmlns="http://www.w3.org/2000/svg">
<path d="M8.125 17.3125C7.40013 17.3125 6.8125 17.9001 6.8125 18.625C6.8125 19.3499 7.40013 19.9375 8.125 19.9375C8.84987 19.9375 9.4375 19.3499 9.4375 18.625C9.4375 17.9001 8.84987 17.3125 8.125 17.3125Z" fill="#BE88F8"/>
<path d="M8.125 22.5625C7.40013 22.5625 6.8125 23.1501 6.8125 23.875C6.8125 24.5999 7.40013 25.1875 8.125 25.1875C8.84987 25.1875 9.4375 24.5999 9.4375 23.875C9.4375 23.1501 8.84987 22.5625 8.125 22.5625Z" fill="#BE88F8"/>
<path d="M14.6875 18.625C14.6875 17.9001 15.2751 17.3125 16 17.3125C16.7249 17.3125 17.3125 17.9001 17.3125 18.625C17.3125 19.3499 16.7249 19.9375 16 19.9375C15.2751 19.9375 14.6875 19.3499 14.6875 18.625Z" fill="#BE88F8"/>
<path d="M16 22.5625C15.2751 22.5625 14.6875 23.1501 14.6875 23.875C14.6875 24.5999 15.2751 25.1875 16 25.1875C16.7249 25.1875 17.3125 24.5999 17.3125 23.875C17.3125 23.1501 16.7249 22.5625 16 22.5625Z" fill="#BE88F8"/>
<path d="M22.5625 18.625C22.5625 17.9001 23.1501 17.3125 23.875 17.3125C24.5999 17.3125 25.1875 17.9001 25.1875 18.625C25.1875 19.3499 24.5999 19.9375 23.875 19.9375C23.1501 19.9375 22.5625 19.3499 22.5625 18.625Z" fill="#BE88F8"/>
<path fill-rule="evenodd" clip-rule="evenodd" d="M7.14062 1.23438C7.14062 0.69072 7.58134 0.25 8.125 0.25C8.66866 0.25 9.10938 0.69072 9.10938 1.23438V2.875H22.8775V1.23438C22.8775 0.69072 23.3182 0.25 23.8619 0.25C24.4055 0.25 24.8462 0.69072 24.8462 1.23438V2.875H27.8125C29.9871 2.875 31.75 4.63788 31.75 6.8125V27.8125C31.75 29.9871 29.9871 31.75 27.8125 31.75H4.1875C2.01288 31.75 0.25 29.9871 0.25 27.8125V6.8125C0.25 4.63788 2.01288 2.875 4.1875 2.875H7.14062V1.23438ZM22.8775 4.84375V7.14062C22.8775 7.68428 23.3182 8.125 23.8619 8.125C24.4055 8.125 24.8462 7.68428 24.8462 7.14062V4.84375H27.8125C28.8998 4.84375 29.7812 5.72519 29.7812 6.8125V11.0781H2.21875V6.8125C2.21875 5.72519 3.10019 4.84375 4.1875 4.84375H7.14062V7.14062C7.14062 7.68428 7.58134 8.125 8.125 8.125C8.66866 8.125 9.10938 7.68428 9.10938 7.14062V4.84375H22.8775ZM29.7812 13.0469V27.8125C29.7812 28.8998 28.8998 29.7812 27.8125 29.7812H4.1875C3.10019 29.7812 2.21875 28.8998 2.21875 27.8125V13.0469H29.7812Z" fill="#BE88F8"/>
</svg>
