<svg width="32" height="42" viewBox="0 0 32 42" fill="none" xmlns="http://www.w3.org/2000/svg">
<path d="M23.1651 39.1999C28.2607 36.6969 29.9015 32.377 30.6848 28.7031C31.5753 24.4317 30.5034 20.5156 28.4174 16.7368C28.3865 16.7848 28.3616 16.8363 28.3432 16.8902C28.0538 17.9877 27.5332 19.0137 26.8146 19.9023C26.0961 20.7909 25.1956 21.5224 24.1711 22.0498C24.0534 22.1401 23.9083 22.1892 23.7588 22.1892C23.6093 22.1892 23.4641 22.1401 23.3465 22.0498C23.2315 21.9518 23.1546 21.8178 23.1291 21.6706C23.1035 21.5234 23.1308 21.372 23.2064 21.2423C23.3135 20.992 23.4125 20.7417 23.4949 20.4833C24.5352 17.0203 24.3197 13.3115 22.8848 9.9865C21.4557 6.61339 19.2754 3.59543 16.5029 1.15303C16.4645 1.11625 16.4199 1.08621 16.371 1.06421C16.4947 2.00892 16.6926 2.95364 16.7338 3.89835C16.8349 5.0724 16.6281 6.25227 16.1332 7.32618C15.6383 8.40009 14.8716 9.33246 13.9057 10.0349C10.0634 12.9983 7.25997 16.6479 6.47666 21.4926C6.36947 22.1709 5.89125 22.3001 5.31408 21.9125C4.20917 21.134 3.252 20.1721 2.48594 19.0703C2.41173 18.9492 2.32104 18.8442 2.19736 18.6827C1.59968 20.3731 1.2256 22.1315 1.08424 23.915C0.710498 27.2917 1.58838 30.6874 3.55783 33.4832C5.23407 35.6907 7.45172 37.4486 10.0056 38.5944C10.6405 38.8931 11.2919 39.1596 11.9103 39.4018C13.4769 40.0074 19.1827 41.162 23.1651 39.1999Z" stroke="#BE88F8" stroke-width="2" stroke-linecap="round" stroke-linejoin="round"/>
</svg>
