<svg width="33" height="33" viewBox="0 0 33 33" fill="none" xmlns="http://www.w3.org/2000/svg">
<path fill-rule="evenodd" clip-rule="evenodd" d="M24.5098 15.7655C25.5217 14.7857 26.1514 13.4073 26.1514 11.8795C26.1514 8.95455 23.8461 6.57666 20.9772 6.51075C20.9229 6.50878 20.8647 6.50779 20.8074 6.50779C19.3977 6.50779 18.119 7.07447 17.1808 7.99631C16.197 8.97226 15.5858 10.3339 15.5858 11.8401C15.5858 14.8093 17.9599 17.2167 20.888 17.2167C22.289 17.2167 23.5638 16.6657 24.5117 15.7646L24.5088 15.7675L24.5098 15.7655ZM23.1582 14.3321C22.5577 14.9185 21.7398 15.2805 20.8384 15.2805C18.9902 15.2805 17.4922 13.7615 17.4922 11.8873C17.4922 10.0132 18.9902 8.49414 20.8384 8.49414C20.8404 8.49414 20.8423 8.49414 20.8443 8.49414H20.9248C22.7381 8.53546 24.1934 10.0368 24.1934 11.8814C24.1934 12.8446 23.7966 13.7143 23.1602 14.3311L23.1582 14.3321ZM32.414 1.60442C32.3859 1.11644 32.0124 0.725866 31.5399 0.676675C31.013 0.616662 18.6322 -0.602292 11.1994 6.56877C10.8327 6.92196 10.4844 7.29975 10.1467 7.69033C10.1312 7.69033 10.1167 7.69033 10.1011 7.69033C6.23 8.54527 1.77867 9.40414 1.73404 9.413C1.27804 9.50154 0.9375 9.90392 0.9375 10.386C0.9375 10.6516 1.04131 10.8936 1.20916 11.0707L5.81572 15.9574C5.74877 16.1817 5.67504 16.4011 5.61294 16.6303C5.51786 16.9697 5.46256 17.3593 5.46256 17.7617C5.46256 17.7932 5.46256 17.8256 5.46353 17.8571L2.04742 17.8522C1.50798 17.8522 1.07139 18.2949 1.07139 18.8419C1.07139 19.3889 1.50798 19.8316 2.04742 19.8316H5.95155C6.16208 20.2537 6.41531 20.6167 6.71413 20.9365L11.247 25.7464C11.539 26.0455 11.8708 26.3042 12.2337 26.5138L12.256 30.5681C12.256 31.1161 12.6945 31.5608 13.2349 31.5608C13.7753 31.5608 14.2139 31.1161 14.2139 30.5681V27.1365C14.3118 27.1424 14.404 27.166 14.501 27.166C14.502 27.166 14.5039 27.166 14.5049 27.166C14.8445 27.166 15.1753 27.1257 15.4926 27.0499C15.6866 27.0037 15.8991 26.9398 16.1184 26.8837L20.7123 31.7556C20.8908 31.9444 21.1412 32.0625 21.4186 32.0625C21.4196 32.0625 21.4206 32.0625 21.4206 32.0625C21.5108 32.0625 21.5991 32.0497 21.6825 32.0271C22.0211 31.9326 22.287 31.6582 22.3714 31.3099C22.383 31.2587 23.4415 26.802 24.469 22.9297C24.469 22.914 24.469 22.8982 24.469 22.8835C24.8697 22.5598 25.2597 22.2253 25.6255 21.8721C33.065 14.7059 32.4441 2.13863 32.414 1.60442ZM3.86363 11.0137C5.04438 10.7786 6.69374 10.4451 8.39743 10.084C7.72313 11.1573 7.09734 12.395 6.58604 13.6926L3.86363 11.0137ZM15.0269 25.1267C14.8687 25.1631 14.6863 25.1828 14.5001 25.1828C13.7782 25.1828 13.1272 24.8748 12.6683 24.38L8.13161 19.5671C7.69307 19.1106 7.42238 18.4859 7.42238 17.7963C7.42238 17.569 7.45149 17.3476 7.50776 17.1381C8.38677 13.556 10.1526 10.456 12.5567 7.99938C17.5281 3.20326 25.2616 2.55787 29.0658 2.55787C29.6285 2.55787 30.1059 2.57066 30.4755 2.58837C30.4755 5.4867 30.0021 14.9225 24.2837 20.4388C21.765 22.738 18.6264 24.3888 15.153 25.1031L15.0269 25.1267ZM20.8966 29.0846L18.2344 26.261C19.7004 25.7534 20.9529 25.1749 22.1395 24.4911C21.5894 26.2502 21.1848 27.8981 20.8966 29.0797V29.0846ZM6.8441 23.4786C6.66364 23.2681 6.39975 23.1352 6.1048 23.1352C5.85837 23.1352 5.63328 23.2277 5.46155 23.3802L2.39957 26.0513C2.19195 26.2343 2.06097 26.5029 2.06097 26.8019C2.06097 27.3499 2.49853 27.7936 3.03894 27.7936C3.28343 27.7936 3.50755 27.7021 3.67928 27.5516L6.74126 24.8805C6.95374 24.6975 7.08763 24.427 7.08763 24.124C7.08763 23.8741 6.99643 23.6449 6.84507 23.4707L6.8441 23.4786ZM7.45531 25.7318L4.39235 28.4038C4.18473 28.5868 4.05375 28.8554 4.05375 29.1545C4.05375 29.7025 4.49132 30.1462 5.03172 30.1462C5.27622 30.1462 5.50033 30.0547 5.67206 29.9041L8.73404 27.2331C8.94361 27.0501 9.07459 26.7805 9.07459 26.4804C9.07459 25.9325 8.63605 25.4878 8.09565 25.4878C7.85115 25.4878 7.62801 25.5783 7.45628 25.7288L7.45531 25.7318Z" fill="#BE88F8"/>
</svg>
