<svg width="128" height="218" viewBox="0 0 128 218" fill="none" xmlns="http://www.w3.org/2000/svg">
<path d="M99.456 61.7667L116.992 21.4367L85.632 4.72339L45.056 24.8278L8.70398 127.772L28.288 137.582L9.72798 196.442L41.216 213.64L118.272 71.8189L99.456 61.7667Z" fill="#1F2229"/>
<path d="M27.0237 137.123L8.70856 197.166L9.93838 197.502L28.2535 137.459L27.0237 137.123Z" fill="#BE88F8"/>
<path d="M39.552 144.607L39.04 144.243L7.80798 127.046L44.288 24.3433L85.248 3.6333L117.504 21.0733L116.992 22.0422L85.248 5.08663L45.312 25.07L9.34398 126.561L39.808 143.274L40.32 143.638L39.552 144.607Z" fill="#BE88F8"/>
<path d="M48.5255 26.694L47.8882 27.7444L75.5308 42.7594L76.1681 41.709L48.5255 26.694Z" fill="#BE88F8"/>
<path d="M9.69437 195.862L9.05463 196.911L34.7743 210.954L35.4141 209.905L9.69437 195.862Z" fill="#BE88F8"/>
<path d="M66.7956 76.5218L66.1434 77.564L85.6389 88.4859L86.2911 87.4438L66.7956 76.5218Z" fill="#BE88F8"/>
<path d="M53.4217 117.917L52.7755 118.963L67.9126 127.339L68.5587 126.293L53.4217 117.917Z" fill="#BE88F8"/>
<path d="M117.376 71.6977L88.192 87.1999L115.968 22.6477L75.52 42.9944L39.68 143.395L67.2 128.014L41.088 213.519L118.656 72.4244" fill="white"/>
<path d="M41.6 213.761L40.448 213.398L66.176 129.347L40.064 144.122L39.296 143.153L68.224 126.682L43.52 207.827L118.144 72.1821L119.168 72.6666L41.6 213.761Z" fill="#BE88F8"/>
<path d="M40.32 143.638L39.04 143.153L39.552 141.821L74.752 43.5999L75.52 41.7832L116.224 21.3154L116.736 22.2843L76.544 42.7521L76.032 44.0843L40.832 142.305L40.32 143.638Z" fill="#BE88F8"/>
<path d="M86.912 88.5321L115.072 23.3744L115.968 21.0732L117.248 21.5577L116.352 23.8588L89.472 85.8677L117.12 71.2132L117.632 72.1821L86.912 88.5321Z" fill="#BE88F8"/>
<path d="M99.9874 61.2234L99.3524 62.2749L119.022 72.9096L119.657 71.8581L99.9874 61.2234Z" fill="#BE88F8"/>
</svg>
