<svg xmlns="http://www.w3.org/2000/svg" width="68" height="68" viewBox="0 0 68 68">
    <g fill="none" fill-rule="evenodd">
        <g fill="#8964A8" fill-rule="nonzero">
            <g>
                <g>
                    <g>
                        <path d="M41.142 25.15c-.772 0-1.398.627-1.398 1.398 0 .771.626 1.397 1.398 1.397.77 0 1.397-.626 1.397-1.397s-.626-1.397-1.397-1.397z" transform="translate(-233 -5900) translate(162 5716) translate(0 184) translate(71)"/>
                        <path d="M66.444 58.931L48.716 41.204c2.888-4.35 4.409-9.388 4.409-14.642C53.125 11.916 41.209 0 26.562 0 11.916 0 0 11.916 0 26.563c0 14.646 11.916 26.562 26.563 26.562 5.253 0 10.29-1.521 14.64-4.41l4.9 4.901.003.002L58.93 66.444C59.935 67.447 61.27 68 62.688 68c1.418 0 2.752-.553 3.755-1.556C67.447 65.441 68 64.107 68 62.687c0-1.419-.553-2.753-1.556-3.756zM40.579 45.917c-4.1 2.978-8.946 4.552-14.017 4.552-13.181 0-23.906-10.725-23.906-23.907 0-13.181 10.725-23.906 23.907-23.906 13.181 0 23.906 10.725 23.906 23.907 0 5.07-1.574 9.916-4.552 14.016-1.49 2.052-3.286 3.848-5.338 5.338zm2.786 1.204c1.375-1.125 2.632-2.381 3.756-3.756l3.768 3.768c-1.146 1.353-2.403 2.61-3.756 3.756l-3.768-3.768zm21.2 17.444c-.502.502-1.169.779-1.877.779-.71 0-1.376-.277-1.878-.779L49.017 52.772c1.345-1.154 2.601-2.41 3.755-3.755L64.566 60.81c.501.501.778 1.168.778 1.877 0 .71-.277 1.377-.779 1.878z" transform="translate(-233 -5900) translate(162 5716) translate(0 184) translate(71)"/>
                        <path d="M26.548 5.279c-11.728 0-21.27 9.54-21.27 21.269 0 11.728 9.542 21.27 21.27 21.27s21.27-9.542 21.27-21.27-9.542-21.27-21.27-21.27zm0 39.88c-10.262 0-18.61-8.35-18.61-18.611 0-10.262 8.348-18.61 18.61-18.61 10.262 0 18.61 8.348 18.61 18.61 0 10.262-8.348 18.61-18.61 18.61z" transform="translate(-233 -5900) translate(162 5716) translate(0 184) translate(71)"/>
                        <path d="M41.52 20.851c-1.133-2.993-3.106-5.552-5.705-7.4-2.66-1.894-5.786-2.894-9.038-2.894-.727 0-1.316.598-1.316 1.336 0 .737.59 1.335 1.316 1.335 5.407 0 10.344 3.449 12.286 8.582.201.53.7.857 1.229.857.157 0 .316-.03.471-.09.678-.264 1.017-1.037.756-1.726z" transform="translate(-233 -5900) translate(162 5716) translate(0 184) translate(71)"/>
                    </g>
                </g>
            </g>
        </g>
    </g>
</svg>
