<svg width="177" height="134" viewBox="0 0 177 134" fill="none" xmlns="http://www.w3.org/2000/svg">
<path d="M64.6854 85.7602C31.1091 69.2514 37.0091 48.0258 77.2364 48.0258C87.4273 48.0258 101.695 51.885 112.636 51.1346C122.72 50.3842 142.995 42.5586 120.467 30.3378C102.124 20.3682 87.4273 20.5826 81.3127 20.1538L84.7454 17.9026L106.629 5.03857C106.629 5.03857 131.838 9.54097 150.396 19.725C172.709 31.9458 181.827 50.9202 156.296 61.8546C130.765 72.789 112.207 69.7874 100.836 67.1074C84.6382 63.2482 76.0563 66.893 78.9527 71.181C79.8109 72.4674 82.7073 75.2546 83.4582 75.3618L64.6854 85.7602Z" fill="#BE88F8"/>
<path d="M64.4709 86.1889C48.9163 78.5777 40.7636 69.2513 42.5873 61.2113C44.6254 52.6353 57.4982 47.4897 77.2363 47.4897C81.7418 47.4897 86.9982 48.2401 92.5763 48.9905C99.4418 49.9553 106.522 51.0273 112.636 50.5985C119.287 50.0625 129.049 46.7393 130.122 41.8081C130.873 38.4849 127.44 34.6257 120.253 30.7665C103.84 21.8689 90.5382 21.1185 83.3509 20.7969C82.6 20.7969 81.8491 20.6897 81.3127 20.6897L81.42 19.6177C82.0636 19.6177 82.7073 19.7249 83.4582 19.7249C90.6454 20.1537 104.162 20.7969 120.789 29.8017C128.513 33.9825 132.053 38.0561 131.195 42.0225C130.015 47.7041 119.502 51.1345 112.744 51.6705C106.629 52.0993 99.4418 51.0273 92.4691 50.0625C86.8909 49.3121 81.7418 48.5617 77.2363 48.5617C48.8091 48.5617 44.3036 58.4241 43.66 61.5329C41.9436 69.0369 49.8818 77.9345 65.0072 85.3313L64.4709 86.1889Z" fill="#1F2229"/>
<path d="M82.6 75.5761C81.42 74.8257 79.2745 72.5745 78.5236 71.5025C77.6654 70.3233 77.6654 69.0369 78.4164 67.9649C80.3473 65.1777 88.2854 63.5697 100.944 66.5713C113.816 69.5729 131.731 71.7169 156.082 61.3185C165.629 57.2449 170.885 51.6705 171.207 45.3457C171.636 36.9841 163.698 27.6577 150.182 20.1537C132.696 10.6129 109.096 6.00326 106.736 5.57446L85.1745 18.2241L84.6382 17.2593L106.629 4.39526H106.844C107.058 4.39526 132.375 9.00486 150.825 19.1889C164.771 26.8001 172.816 36.5553 172.387 45.3457C172.065 52.2065 166.595 57.9953 156.618 62.2833C132.053 72.7889 113.924 70.6449 100.836 67.5361C89.1436 64.7489 81.2054 65.9281 79.3818 68.5009C78.9527 69.1441 78.9527 70.0017 79.4891 70.8593C80.24 71.8241 82.2782 73.9681 83.3509 74.7185L82.6 75.5761Z" fill="#1F2229"/>
<path d="M121.004 97.1234C113.173 97.1234 106.415 95.9442 100.729 94.5506C94.5072 93.0498 88.9291 92.621 84.8527 93.157L84.7454 92.085C88.9291 91.4418 94.7218 91.9778 101.051 93.4786C113.924 96.4802 131.838 98.6242 156.189 88.2258C166.38 83.8306 171.636 77.8274 171.314 70.8594H172.387C172.602 76.1122 170.134 83.509 156.618 89.2978C142.78 95.301 130.98 97.1234 121.004 97.1234Z" fill="#1F2229"/>
<path d="M83.4026 77.1811L83.3008 103.231L84.3735 103.235L84.4753 77.1853L83.4026 77.1811Z" fill="#1F2229"/>
<path d="M64.6871 89.024L64.3586 113.034L65.4313 113.049L65.7598 89.0387L64.6871 89.024Z" fill="#1F2229"/>
<path d="M42.2089 63.9918L41.8865 82.3193L42.959 82.3382L43.2814 64.0106L42.2089 63.9918Z" fill="#1F2229"/>
<path d="M81.4225 19.7728L81.0941 43.7832L82.1667 43.7979L82.4952 19.7875L81.4225 19.7728Z" fill="#1F2229"/>
<path d="M172.387 54.4578H171.315V71.717H172.387V54.4578Z" fill="#1F2229"/>
<path d="M82.8933 74.5197L64.0033 85.5591L64.5448 86.4844L83.4348 75.4451L82.8933 74.5197Z" fill="#1F2229"/>
<path d="M83.5892 102.192L64.6992 113.231L65.2407 114.157L84.1307 103.117L83.5892 102.192Z" fill="#1F2229"/>
<path d="M64.6854 114.061C55.46 109.13 48.7018 102.805 48.5945 102.698L49.3455 101.947C49.4527 102.054 56.2109 108.272 65.2218 113.096L64.6854 114.061Z" fill="#1F2229"/>
<path d="M9.33272 126.71C5.36362 124.459 3.21817 121.565 3.21817 118.563H4.2909C4.2909 121.243 6.22181 123.816 9.76181 125.853L9.33272 126.71Z" fill="#1F2229"/>
<path d="M25.6382 130.462C22.3127 130.462 19.3091 130.141 16.6273 129.498L16.8418 128.426C19.4163 129.069 22.42 129.39 25.6382 129.39C37.3309 129.39 46.8782 124.566 46.8782 118.563H47.9509C47.9509 125.21 38.1891 130.462 25.6382 130.462Z" fill="#1F2229"/>
<path d="M47.9509 91.656H46.8782V118.992H47.9509V91.656Z" fill="#1F2229"/>
<path d="M4.2909 91.9775H3.21817V119.099H4.2909V91.9775Z" fill="#1F2229"/>
<path d="M25.7455 103.662C37.8907 103.662 47.7364 97.9509 47.7364 90.9055C47.7364 83.8601 37.8907 78.1487 25.7455 78.1487C13.6002 78.1487 3.75455 83.8601 3.75455 90.9055C3.75455 97.9509 13.6002 103.662 25.7455 103.662Z" fill="#BE88F8"/>
<path d="M25.7454 104.198C13.3018 104.198 3.21817 98.1952 3.21817 90.9056C3.21817 83.616 13.3018 77.6128 25.7454 77.6128C38.1891 77.6128 48.2727 83.616 48.2727 90.9056C48.2727 98.1952 38.1891 104.198 25.7454 104.198ZM25.7454 78.6848C13.9454 78.6848 4.2909 84.152 4.2909 90.9056C4.2909 97.6592 13.9454 103.126 25.7454 103.126C37.5454 103.126 47.2 97.6592 47.2 90.9056C47.2 84.152 37.5454 78.6848 25.7454 78.6848Z" fill="white"/>
</svg>
