<svg width="333" height="580" viewBox="0 0 333 580" fill="none" xmlns="http://www.w3.org/2000/svg">
<path d="M317.217 49.5749L317.165 56.4487L310.445 59.1729L304.36 56.3222L297.692 59.5019L286.086 42.7686L297.692 40.3143L304.264 49.4315L310.123 52.1473L317.217 49.5749Z" fill="#1F2229"/>
<path d="M323.303 46.4964L323.251 53.3701L316.531 56.0943L310.445 53.2436L303.777 56.4232L292.172 39.6902L292.059 33.019L303.569 48.9591L310.35 46.3531L316.209 49.0688L323.303 46.4964Z" fill="#C882FF"/>
<path d="M310.446 46.2691L303.778 49.4572L292.172 32.7239L323.999 39.5977L317 43.0388L323.555 46.2522L316.531 49.1283L310.446 46.2691Z" stroke="#1F2229" stroke-linejoin="bevel"/>
<path d="M323.303 46.4966L323.251 53.3703L316.531 56.0945L310.446 53.2438L303.778 56.4234L292.172 39.6903L292.198 34.7563" stroke="#1F2229" stroke-linejoin="bevel"/>
<path d="M323.781 39.2946V44.4812" stroke="#1F2229" stroke-linejoin="bevel"/>
<path d="M316.436 49.2039V55.7144" stroke="#1F2229" stroke-linejoin="bevel"/>
<path d="M310.506 46.6739V53.1852" stroke="#1F2229" stroke-linejoin="bevel"/>
<path d="M303.854 49.3893V55.9003" stroke="#1F2229" stroke-linejoin="bevel"/>
<path d="M186 55.2894C186.038 57.7227 187.905 60.0821 192.56 62.2135C198.224 64.8193 206.326 66.3594 217.635 61.5975C217.902 61.4866 227.039 56.5953 227.039 56.5953L273.189 30.1063C273.189 30.1063 281.222 25.517 282.993 23.2377C285.8 19.6279 287.41 24.5437 287.905 19.1719C286.076 22.4369 283.342 22.4122 273.189 28.1043C250.895 41.6999 206.054 64.7761 207.898 57.9814C196.157 62.2935 195.198 53.6692 192.56 47.509C189.801 48.741 185.962 52.8561 186 55.2894Z" fill="#1F2229"/>
<path d="M192.994 56.6101C193.032 59.0434 194.898 61.4028 199.553 63.5343C205.217 66.1401 213.319 67.6801 224.628 62.9182C224.895 62.8073 234.032 57.916 234.032 57.916L280.182 31.4268C280.182 31.4268 288.215 26.8374 289.986 24.5581C292.793 20.9482 291.46 16.9316 291.955 11.5599C290.126 14.8248 291.434 15.9522 281.281 21.6443C258.987 35.2401 229.213 50.9302 224.355 54.0473C212.614 58.3595 201.851 58.2364 193.108 49.84C192.936 51.8729 192.994 56.6101 192.994 56.6101Z" fill="#C882FF"/>
<path d="M281.614 21.4659C299.603 12.6198 289.869 4.34033 283.78 2.45529C276.363 0.15752 266.826 0.280815 258.565 5.01189L257.111 5.81892C238.531 16.1805 235.318 17.782 215.024 29.1415L213.995 29.7082C201.525 36.2504 182.996 46.7229 199.581 54.3616C205.245 56.9674 213.348 58.5074 224.657 53.7456C224.923 53.6347 234.061 48.7497 234.061 48.7497L280.211 22.2606L281.614 21.4659Z" stroke="#1F2229" stroke-linejoin="round"/>
<path d="M282.762 30.0222C290.235 26.092 292.337 22.2974 291.855 19.1618" stroke="#1F2229" stroke-linejoin="round"/>
<path d="M192.996 56.6098C193.034 59.0431 194.901 61.4025 199.555 63.5339C205.219 66.1397 213.322 67.6798 224.631 62.9179C224.897 62.807 234.035 57.9157 234.035 57.9157L280.185 31.4266" stroke="#1F2229" stroke-linejoin="round"/>
<path d="M192.975 51.9836V57.2508" stroke="#1F2229" stroke-linejoin="round"/>
<path d="M291.938 10.7465V19.8639" stroke="#1F2229" stroke-linejoin="round"/>
<path d="M225.582 40.9969L222.323 38.3357L220.707 39.3075L219.66 38.4447L224.527 35.5474L225.582 36.4011L223.957 37.3639L227.198 40.016L225.582 40.9969Z" fill="#D5D8DC"/>
<path d="M215.713 43.8583C215.4 43.6187 215.151 43.3069 214.988 42.9501C214.871 42.6623 214.833 42.3489 214.878 42.0418C214.953 41.7047 215.115 41.3921 215.346 41.1336C215.62 40.8124 215.95 40.5417 216.319 40.3342L216.42 40.2796C216.791 40.0694 217.185 39.9049 217.596 39.7894C218.041 39.6667 218.501 39.6054 218.964 39.6075C219.406 39.6059 219.846 39.6733 220.268 39.8073C220.695 39.9515 221.093 40.1701 221.443 40.4524C221.755 40.6909 222.001 41.0033 222.159 41.3606C222.283 41.6469 222.315 41.964 222.251 42.2689C222.181 42.6079 222.019 42.9218 221.783 43.1771C221.499 43.4961 221.164 43.7661 220.791 43.9763L220.681 44.0399C220.316 44.2478 219.928 44.4124 219.524 44.5304C219.085 44.656 218.631 44.7202 218.174 44.7211C217.735 44.7146 217.298 44.6442 216.879 44.5122C216.454 44.3669 216.058 44.1452 215.713 43.8583ZM216.843 41.9054C216.843 42.187 216.99 42.4958 217.412 42.8137C217.745 43.1169 218.173 43.2994 218.624 43.3315C218.994 43.3424 219.36 43.2511 219.68 43.068C219.832 42.9865 219.967 42.8754 220.075 42.7412C220.173 42.636 220.234 42.502 220.249 42.3596C220.261 42.2086 220.23 42.0572 220.157 41.9236C220.037 41.7358 219.885 41.5698 219.708 41.4331C219.52 41.2778 219.31 41.1522 219.083 41.0608C218.888 40.9776 218.68 40.9285 218.468 40.9156C218.273 40.9058 218.079 40.924 217.889 40.9699C217.727 41.0178 217.57 41.0817 217.421 41.1606C217.28 41.2274 217.157 41.3253 217.06 41.4464C216.963 41.5676 216.895 41.709 216.861 41.86" fill="#D5D8DC"/>
<path d="M254.699 23.6316L250.402 20.1257L252.037 19.1539L254.461 21.1248L254.553 21.0703L254.038 17.9641L255.553 17.0649L259.85 20.5617L258.216 21.5426L255.783 19.5535L255.7 19.6171L256.205 22.7415L254.699 23.6316Z" fill="#D5D8DC"/>
<path d="M248.67 27.2371L244.363 23.722L246.613 22.3869L246.815 22.2689C247.155 22.0744 247.508 21.9015 247.871 21.7512C248.193 21.6208 248.528 21.5263 248.872 21.4696C249.126 21.4184 249.388 21.4184 249.643 21.4696C249.852 21.5262 250.048 21.6218 250.221 21.7512C250.332 21.8256 250.42 21.9282 250.477 22.0481C250.533 22.168 250.556 22.3007 250.543 22.4324C250.47 22.7131 250.301 22.9602 250.065 23.1317L250.12 23.1863C250.519 22.9978 250.954 22.8956 251.397 22.8865C251.764 22.8812 252.121 23.0032 252.407 23.2315C252.565 23.3484 252.689 23.5053 252.765 23.6857C252.839 23.8631 252.839 24.0624 252.765 24.2398C252.656 24.4946 252.489 24.7213 252.278 24.9028C251.953 25.1978 251.595 25.4568 251.213 25.6749L248.67 27.2371ZM250.644 24.2216C250.56 24.1533 250.463 24.1042 250.358 24.0775C250.253 24.0508 250.144 24.0473 250.038 24.0673C249.784 24.1016 249.54 24.1883 249.321 24.3216L248.569 24.7757L249.487 25.5476L250.24 25.1026C250.454 24.9912 250.635 24.825 250.763 24.6212C250.8 24.5488 250.809 24.4659 250.789 24.3875C250.768 24.309 250.72 24.2404 250.653 24.1943L250.644 24.2216ZM247.421 23.0681L246.842 23.4043L247.696 24.1036L248.275 23.7675C248.497 23.6623 248.68 23.4907 248.798 23.277C248.821 23.209 248.821 23.1358 248.8 23.0674C248.778 22.9991 248.736 22.9391 248.679 22.8956C248.605 22.8403 248.52 22.8011 248.43 22.7807C248.34 22.7604 248.246 22.7592 248.155 22.7774C247.914 22.8166 247.683 22.9031 247.476 23.0317H247.421" fill="#D5D8DC"/>
<path d="M240.89 28.7265C241.092 28.3976 241.353 28.1083 241.661 27.8728C242.13 27.4906 242.631 27.1475 243.158 26.8466L242.965 26.692C242.869 26.6147 242.759 26.5572 242.641 26.5229C242.523 26.4885 242.398 26.4781 242.276 26.4923C241.976 26.5294 241.687 26.6319 241.431 26.7921L241.34 26.8466C241.012 27.0405 240.705 27.2656 240.421 27.5187C240.17 27.7432 239.953 28.0032 239.779 28.2906L238.723 27.4369C238.92 27.1422 239.162 26.8787 239.439 26.6557C239.773 26.3862 240.126 26.1406 240.495 25.9202L240.632 25.8474C241.293 25.4306 242.046 25.1809 242.827 25.1208C243.495 25.0996 244.147 25.319 244.663 25.7383L247.418 27.9908L245.839 28.899L245.178 28.3542L245.095 28.4088C245.109 28.5386 245.109 28.6695 245.095 28.7993C245.099 28.938 245.067 29.0754 245.003 29.1988C244.92 29.3497 244.815 29.4874 244.691 29.6075C244.522 29.773 244.331 29.9139 244.122 30.0255H244.057C243.601 30.3007 243.077 30.4482 242.542 30.4524C242.05 30.4559 241.573 30.2888 241.193 29.98C240.986 29.8263 240.833 29.6139 240.752 29.3714C240.724 29.1472 240.773 28.9204 240.89 28.7265ZM242.634 28.2815C242.423 28.5176 242.414 28.7176 242.634 28.8902C242.78 29.004 242.963 29.0591 243.148 29.0445C243.37 29.0406 243.587 28.9745 243.773 28.8538C243.896 28.7837 244.008 28.6948 244.103 28.5904C244.189 28.4983 244.249 28.3855 244.278 28.2633C244.314 28.1449 244.314 28.0185 244.278 27.9001C244.212 27.7591 244.111 27.6371 243.984 27.5458L243.828 27.4187C243.391 27.6674 242.989 27.9728 242.634 28.327" fill="#D5D8DC"/>
<path d="M238.089 36.5194L231.662 31.2969L233.241 30.3886L233.838 30.8791L233.921 30.8246C233.877 30.5552 233.929 30.2791 234.068 30.0434C234.291 29.7006 234.61 29.4294 234.986 29.2624L235.069 29.2079C235.391 29.0224 235.741 28.8906 236.106 28.8174C236.501 28.7288 236.907 28.7072 237.309 28.7537C237.708 28.7847 238.098 28.8798 238.466 29.0353C238.846 29.189 239.199 29.4004 239.513 29.662C239.816 29.8962 240.074 30.1822 240.275 30.5066C240.431 30.7682 240.517 31.0657 240.523 31.3696C240.515 31.666 240.42 31.9536 240.247 32.196C240.03 32.4906 239.751 32.7353 239.43 32.9136L239.338 32.9682C239 33.1642 238.63 33.3023 238.246 33.3768C237.86 33.4495 237.465 33.4495 237.079 33.3768H237.006L237.731 33.8855L239.76 35.5384L238.089 36.5194ZM234.94 31.5058C235.021 31.6781 235.144 31.8278 235.298 31.9417L235.564 32.1597C235.882 32.4377 236.288 32.5982 236.712 32.6138C237.074 32.6098 237.428 32.5127 237.741 32.3322C237.886 32.248 238.016 32.1408 238.126 32.0144C238.227 31.9066 238.292 31.7698 238.31 31.6237C238.329 31.4642 238.29 31.3031 238.2 31.1696C238.09 30.9667 237.936 30.7901 237.75 30.6521C237.566 30.5036 237.362 30.3812 237.144 30.2886C236.947 30.2131 236.739 30.1673 236.529 30.1525C236.336 30.1486 236.144 30.1732 235.959 30.2252C235.796 30.2729 235.638 30.34 235.491 30.425C235.342 30.5088 235.206 30.6126 235.087 30.7337C234.987 30.834 234.917 30.9599 234.885 31.0971C234.866 31.2337 234.888 31.3726 234.949 31.4967" fill="#D5D8DC"/>
<path d="M229.606 38.5807L225.309 35.0839L230.34 32.0867L234.647 35.5835L233.012 36.5644L229.753 33.9123L227.999 34.9568L231.249 37.6089L229.606 38.5807Z" fill="#D5D8DC"/>
<path d="M262.247 19.1349L258.997 16.4828L257.381 17.4546L256.334 16.5918L261.2 13.6945L262.247 14.5482L260.622 15.5201L263.872 18.1722L262.247 19.1349Z" fill="#D5D8DC"/>
<path d="M266.276 16.7285L261.979 13.2316L263.613 12.2508L264.852 13.2589L265.431 12.9138L265.532 12.8593C265.912 12.6306 266.315 12.442 266.735 12.2963C267.103 12.1711 267.485 12.0917 267.873 12.0601C268.183 12.0421 268.494 12.0789 268.791 12.169C269.064 12.253 269.319 12.3853 269.544 12.5595C269.747 12.7193 269.907 12.925 270.013 13.1591C270.096 13.3787 270.096 13.6207 270.013 13.8403C269.913 14.1262 269.746 14.3844 269.526 14.594C269.207 14.9133 268.846 15.1884 268.452 15.4115L266.276 16.7285ZM266.358 13.713L265.807 14.0401L266.964 14.9483L267.515 14.6213C267.864 14.4124 268.057 14.2217 268.094 14.0401C268.116 13.9513 268.109 13.8578 268.074 13.7731C268.04 13.6883 267.979 13.6166 267.901 13.5678C267.724 13.4219 267.497 13.3474 267.267 13.3589C266.959 13.3801 266.662 13.4803 266.404 13.6496" fill="#D5D8DC"/>
<path d="M71.5233 127.185L40.0518 145.461C36.4754 147.522 34.6873 150.42 35.0449 153.56C35.4025 156.701 37.8076 159.706 41.822 162.037C46.3051 164.5 51.3073 165.851 56.4134 165.978C61.7779 166.167 66.74 165.123 70.2806 163.063L101.743 144.75C105.319 142.699 107.108 139.801 106.759 136.652C106.41 133.502 103.987 130.497 99.9818 128.166" stroke="black" stroke-linejoin="round"/>
<path d="M71.5232 131.432L40.0516 149.708C37.8944 150.811 36.2169 152.676 35.3398 154.946C36.1624 157.546 38.4244 160.03 41.8219 162.001C46.305 164.464 51.3072 165.815 56.4133 165.942C61.7777 166.131 66.7399 165.087 70.2804 163.026L101.743 144.75C103.9 143.647 105.578 141.783 106.455 139.513C105.641 136.912 103.37 134.429 99.9817 132.458" stroke="black" stroke-linejoin="round"/>
<path fill-rule="evenodd" clip-rule="evenodd" d="M71.551 127.806L75.1273 133.367H88.8335L96.6567 127.833H102.826V135.931C102.826 138.721 100.948 141.502 97.2826 143.634C89.9243 147.909 78.0062 147.936 70.6927 143.634C67.0269 141.502 65.203 138.694 65.2388 135.886V127.788L71.551 127.806Z" fill="black"/>
<path d="M65.4597 139.693L57.9316 144.058L65.4597 139.693ZM59.2906 114.101L66.7651 118.411L59.2906 114.101ZM103.154 139.558L110.629 143.905L103.154 139.558ZM84.5036 108V114.164V108ZM109.681 114.011L102.117 118.411L109.681 114.011ZM119.999 128.652H109.395H119.999ZM84.3159 144.508V150.672V144.508ZM59.3889 128.733H48.7852H59.3889Z" fill="#BE88F8"/>
<path d="M59.3889 128.733H48.7852M65.4597 139.693L57.9316 144.058L65.4597 139.693ZM59.2906 114.101L66.7651 118.411L59.2906 114.101ZM103.154 139.558L110.629 143.905L103.154 139.558ZM84.5036 108V114.164V108ZM109.681 114.011L102.117 118.411L109.681 114.011ZM119.999 128.652H109.395H119.999ZM84.3159 144.508V150.672V144.508Z" stroke="#BE88F8" stroke-linejoin="round"/>
<path fill-rule="evenodd" clip-rule="evenodd" d="M70.7538 120.21C78.1121 115.927 90.0212 115.909 97.3348 120.156C104.648 124.404 104.613 131.333 97.2543 135.607C89.896 139.882 77.9779 139.909 70.6644 135.652C63.3508 131.396 63.3955 124.485 70.7538 120.21ZM83.1904 130.109H75.1437V133.384H88.8499L88.9215 120.084H83.2888L83.1904 130.109Z" fill="#BE88F8"/>
<path d="M77.1484 309.173L107.823 291.438C110.053 290.142 111.102 288.423 110.972 286.732C110.856 285.227 110.972 278.485 110.911 277.617L66.0368 258.589C61.8154 256.176 54.9512 256.185 50.7211 258.589L18.0248 270.238C18.0248 273.71 17.969 278.582 18.0248 280.221C18.0779 281.778 19.1325 283.322 21.1888 284.502L30.5561 289.886L29.9455 292.551V302.801L48.9418 301.768L61.8589 309.19C66.0803 311.612 72.9445 311.595 77.1659 309.19" fill="#C882FF"/>
<path d="M107.833 280.629C112.054 278.181 112.054 274.223 107.833 271.792L66.055 247.833C61.8336 245.385 54.9694 245.393 50.7393 247.833L21.181 264.847C16.9683 267.295 16.9683 271.254 21.181 273.676L32.9468 280.438L32.8769 280.69L29.9376 291.975L48.9338 290.942L61.851 298.364C66.0723 300.821 72.9365 300.803 77.1579 298.364L107.833 280.629Z" fill="white"/>
<path d="M71.389 260.119C70.1407 263.176 65.9157 266.481 65.6614 266.607L59.0124 264.491C50.9866 268.134 53.3139 278.215 53.4421 278.712L59.9879 280.87L59.8211 288.782L50.8085 287.587C50.1339 287.493 49.4833 287.272 48.8907 286.938C48.5854 286.76 48.3032 286.545 48.05 286.299C47.8972 286.138 47.7662 285.958 47.6606 285.763C37.3586 267.206 53.9997 257.886 59.7922 255.311C60.3904 255.076 61.0381 254.995 61.6761 255.074C62.41 255.166 63.1195 255.398 63.7663 255.755L71.389 260.119Z" fill="#C882FF"/>
<path d="M70.1863 268.18C72.1051 269.283 73.1168 270.741 72.9685 272.234C72.8115 273.883 71.2242 275.403 68.7298 276.375C68.3499 276.497 67.9409 276.497 67.561 276.375C67.4612 276.348 67.3646 276.31 67.2731 276.262C67.1904 276.225 67.1203 276.166 67.0708 276.09C67.0213 276.015 66.9947 275.927 66.9941 275.837C67.0309 275.735 67.0922 275.643 67.1728 275.571C67.2534 275.498 67.3509 275.446 67.4564 275.42C69.4712 274.647 70.7008 273.441 70.8142 272.121C70.9276 270.941 70.1252 269.786 68.6076 268.909C68.4418 268.814 68.2675 268.727 68.0756 268.632H68.0145C67.6308 268.415 67.622 268.085 68.0145 267.868C68.2535 267.751 68.5159 267.691 68.782 267.691C69.048 267.691 69.3107 267.751 69.5496 267.868C69.7674 267.96 69.98 268.064 70.1863 268.18Z" fill="black"/>
<path d="M74.2851 266.001C77.2593 267.737 78.8379 270.038 78.6461 272.407C78.4106 274.96 76.1343 277.303 72.4275 278.814C72.0905 278.946 71.7189 278.961 71.3722 278.857C71.2877 278.834 71.2059 278.802 71.1279 278.762C70.936 278.649 70.8313 278.501 70.8575 278.345C70.8836 278.189 71.0057 278.033 71.2499 277.928C74.477 276.618 76.483 274.569 76.6749 272.347C76.8668 270.272 75.4889 268.249 72.8985 266.765L72.2965 266.435C72.0349 266.287 71.9303 266.096 72.0088 265.914C72.0777 265.798 72.174 265.701 72.2897 265.632C72.4053 265.562 72.5367 265.522 72.6717 265.515C72.9993 265.456 73.3372 265.498 73.6397 265.636L74.2851 266.001Z" fill="black"/>
<path d="M78.0362 263.05C82.3971 265.524 84.6298 269.022 84.2635 272.599C83.8972 276.175 80.9057 279.543 76.0738 281.705C75.7588 281.822 75.4118 281.822 75.0968 281.705L74.8962 281.618C74.8122 281.583 74.7407 281.524 74.6909 281.448C74.6412 281.372 74.6155 281.283 74.6173 281.193C74.6354 281.096 74.68 281.006 74.7461 280.932C74.8122 280.859 74.8974 280.805 74.9923 280.776C79.3532 278.814 82.1181 275.785 82.4495 272.494C82.7809 269.204 80.7051 266.045 76.789 263.814L76.693 263.753C76.5923 263.714 76.5096 263.639 76.4613 263.543C76.413 263.446 76.4023 263.336 76.4313 263.232C76.4952 263.119 76.5858 263.022 76.6951 262.951C76.8044 262.88 76.9293 262.837 77.0592 262.824C77.3555 262.768 77.6619 262.811 77.9314 262.946L78.0362 263.05Z" fill="black"/>
<path d="M50.7199 248.172C54.95 245.767 61.8141 245.759 66.0355 248.172L107.822 272.183C112.035 274.614 112.035 278.572 107.822 281.02L92.4845 289.888L84.8159 294.322L77.1646 298.773C72.9432 301.177 66.0791 301.195 61.8577 298.773L48.9406 291.351L29.9443 292.384L32.8837 281.098L32.9533 280.847L21.1875 274.084C16.9661 271.662 16.9661 267.704 21.1875 265.256L45.3352 251.287" stroke="black" stroke-linejoin="bevel"/>
<path d="M9.67578 39.3818V21.3818H22.4727V39.3818H18.9688V24.5693H13.1797V39.3818H9.67578ZM24.9219 33.335C24.9219 32.3271 25.0703 31.4326 25.3672 30.6514C25.6719 29.8623 26.0898 29.1943 26.6211 28.6475C27.1523 28.0928 27.7773 27.6709 28.4961 27.3818C29.2148 27.0928 29.9883 26.9482 30.8164 26.9482C31.6445 26.9482 32.418 27.0928 33.1367 27.3818C33.8633 27.6709 34.4922 28.0889 35.0234 28.6357C35.5625 29.1748 35.9844 29.8389 36.2891 30.6279C36.5938 31.4092 36.7461 32.3037 36.7461 33.3115C36.7461 34.3193 36.5938 35.2139 36.2891 35.9951C35.9844 36.7686 35.5664 37.4287 35.0352 37.9756C34.5117 38.5146 33.8828 38.9248 33.1484 39.2061C32.4219 39.4795 31.6445 39.6162 30.8164 39.6162C29.9883 39.6162 29.2148 39.4795 28.4961 39.2061C27.7773 38.9248 27.1523 38.5186 26.6211 37.9873C26.0898 37.4482 25.6719 36.792 25.3672 36.0186C25.0703 35.2373 24.9219 34.3428 24.9219 33.335ZM28.4492 33.335C28.4492 34.5068 28.6758 35.335 29.1289 35.8193C29.582 36.3037 30.1445 36.5459 30.8164 36.5459C31.1523 36.5459 31.4688 36.4873 31.7656 36.3701C32.0625 36.2529 32.3164 36.0654 32.5273 35.8076C32.7461 35.5498 32.918 35.2178 33.043 34.8115C33.1758 34.4053 33.2422 33.9053 33.2422 33.3115C33.2422 32.7178 33.1758 32.2139 33.043 31.7998C32.918 31.3857 32.7422 31.0459 32.5156 30.7803C32.2969 30.5146 32.043 30.3232 31.7539 30.2061C31.4648 30.0811 31.1523 30.0186 30.8164 30.0186C30.1445 30.0186 29.582 30.2725 29.1289 30.7803C28.6758 31.2803 28.4492 32.1318 28.4492 33.335ZM37.6953 36.4053H38.7266C39.0781 36.0381 39.375 35.5576 39.6172 34.9639C39.8594 34.3701 40.0508 33.6787 40.1914 32.8896C40.3398 32.1006 40.4453 31.2256 40.5078 30.2646C40.5703 29.3037 40.6094 28.2803 40.625 27.1943H49.2969V36.4053H51.1602V42.5459H48.1367L47.9023 39.3818H40.9883L40.7422 42.5459H37.6953V36.4053ZM42.0195 36.4053H45.8867V30.1943H43.3672C43.3672 30.5928 43.3398 31.0732 43.2852 31.6357C43.2383 32.1904 43.1641 32.7646 43.0625 33.3584C42.9609 33.9521 42.8242 34.5225 42.6523 35.0693C42.4883 35.6084 42.2773 36.0537 42.0195 36.4053ZM52.4375 36.1123C52.4375 35.4404 52.5625 34.8545 52.8125 34.3545C53.0625 33.8467 53.4648 33.417 54.0195 33.0654C54.582 32.7139 55.3047 32.4521 56.1875 32.2803C57.0781 32.1006 58.1719 32.0107 59.4688 32.0107V31.4834C59.4688 30.9521 59.293 30.5459 58.9414 30.2646C58.5898 29.9756 58.0469 29.8311 57.3125 29.8311C56.5781 29.8311 55.8789 29.9131 55.2148 30.0771C54.5508 30.2334 53.9141 30.4951 53.3047 30.8623V27.8623C53.8984 27.542 54.5625 27.3115 55.2969 27.1709C56.0312 27.0225 56.8047 26.9482 57.6172 26.9482C59.4062 26.9482 60.7266 27.3428 61.5781 28.1318C62.4297 28.9131 62.8555 30.0537 62.8555 31.5537V39.3818H59.5859V37.4834H59.4219C59.2656 37.7725 59.0898 38.0498 58.8945 38.3154C58.6992 38.5811 58.4609 38.8115 58.1797 39.0068C57.9062 39.1943 57.582 39.3428 57.207 39.4521C56.8398 39.5615 56.4102 39.6162 55.918 39.6162C54.8164 39.6162 53.9609 39.2998 53.3516 38.667C52.7422 38.0264 52.4375 37.1748 52.4375 36.1123ZM55.8477 35.4678C55.8477 35.8506 55.9805 36.167 56.2461 36.417C56.5117 36.667 56.875 36.792 57.3359 36.792C57.5938 36.792 57.8477 36.7451 58.0977 36.6514C58.3555 36.5498 58.5859 36.3975 58.7891 36.1943C59 35.9834 59.1641 35.7256 59.2812 35.4209C59.4062 35.1162 59.4688 34.7568 59.4688 34.3428V33.9092C58.2656 33.9092 57.3594 34.0225 56.75 34.249C56.1484 34.4678 55.8477 34.874 55.8477 35.4678ZM65.4805 39.3818V27.1943H68.8672V34.0498H69.0547L72.9922 27.1943H76.1094V39.3818H72.7227V32.4912H72.5586L68.5742 39.3818H65.4805ZM66.4648 21.9092H69.418C69.418 22.3701 69.5039 22.7373 69.6758 23.0107C69.8555 23.2842 70.1992 23.4209 70.707 23.4209C71.1836 23.4209 71.5195 23.2842 71.7148 23.0107C71.9102 22.7373 72.0078 22.3701 72.0078 21.9092H74.9609C74.9609 22.7217 74.8359 23.3936 74.5859 23.9248C74.3359 24.4561 74.0117 24.8779 73.6133 25.1904C73.2148 25.5029 72.7617 25.7178 72.2539 25.835C71.7539 25.9521 71.2383 26.0107 70.707 26.0107C70.1758 26.0107 69.6602 25.9521 69.1602 25.835C68.6602 25.7178 68.207 25.5029 67.8008 25.1904C67.4023 24.8779 67.0781 24.46 66.8281 23.9365C66.5859 23.4053 66.4648 22.7295 66.4648 21.9092ZM84.3828 38.7842V35.8545C85.5547 36.5732 86.7695 36.9326 88.0273 36.9326C89.2461 36.9326 89.8555 36.5107 89.8555 35.667C89.8555 35.2529 89.7031 34.9521 89.3984 34.7646C89.0938 34.5771 88.6758 34.4834 88.1445 34.4834H86.1523V31.8701H87.9805C88.4727 31.8701 88.832 31.7764 89.0586 31.5889C89.2852 31.3936 89.3984 31.1357 89.3984 30.8154C89.3984 30.4014 89.2461 30.1084 88.9414 29.9365C88.6367 29.7568 88.2031 29.667 87.6406 29.667C87.0625 29.667 86.5312 29.7334 86.0469 29.8662C85.5625 29.999 85.0625 30.2256 84.5469 30.5459V27.6514C85.0391 27.4248 85.6016 27.2529 86.2344 27.1357C86.875 27.0107 87.5117 26.9482 88.1445 26.9482C88.9727 26.9482 89.6758 27.0303 90.2539 27.1943C90.832 27.3506 91.3047 27.5693 91.6719 27.8506C92.0469 28.1318 92.3164 28.4639 92.4805 28.8467C92.6523 29.2295 92.7383 29.6436 92.7383 30.0889C92.7383 30.6982 92.5938 31.249 92.3047 31.7412C92.0156 32.2256 91.4883 32.5967 90.7227 32.8545V33.0186C91.5352 33.2139 92.1484 33.5732 92.5625 34.0967C92.9844 34.6123 93.1953 35.2686 93.1953 36.0654C93.1953 36.5107 93.1172 36.9482 92.9609 37.3779C92.8125 37.7998 92.5508 38.1787 92.1758 38.5146C91.8086 38.8506 91.3125 39.1201 90.6875 39.3232C90.0703 39.5186 89.2891 39.6162 88.3438 39.6162C88.0234 39.6162 87.6875 39.6006 87.3359 39.5693C86.9844 39.5381 86.6367 39.4912 86.293 39.4287C85.9492 39.3662 85.6094 39.2842 85.2734 39.1826C84.9375 39.0732 84.6406 38.9404 84.3828 38.7842ZM95.0938 36.1123C95.0938 35.4404 95.2188 34.8545 95.4688 34.3545C95.7188 33.8467 96.1211 33.417 96.6758 33.0654C97.2383 32.7139 97.9609 32.4521 98.8438 32.2803C99.7344 32.1006 100.828 32.0107 102.125 32.0107V31.4834C102.125 30.9521 101.949 30.5459 101.598 30.2646C101.246 29.9756 100.703 29.8311 99.9688 29.8311C99.2344 29.8311 98.5352 29.9131 97.8711 30.0771C97.207 30.2334 96.5703 30.4951 95.9609 30.8623V27.8623C96.5547 27.542 97.2188 27.3115 97.9531 27.1709C98.6875 27.0225 99.4609 26.9482 100.273 26.9482C102.062 26.9482 103.383 27.3428 104.234 28.1318C105.086 28.9131 105.512 30.0537 105.512 31.5537V39.3818H102.242V37.4834H102.078C101.922 37.7725 101.746 38.0498 101.551 38.3154C101.355 38.5811 101.117 38.8115 100.836 39.0068C100.562 39.1943 100.238 39.3428 99.8633 39.4521C99.4961 39.5615 99.0664 39.6162 98.5742 39.6162C97.4727 39.6162 96.6172 39.2998 96.0078 38.667C95.3984 38.0264 95.0938 37.1748 95.0938 36.1123ZM98.5039 35.4678C98.5039 35.8506 98.6367 36.167 98.9023 36.417C99.168 36.667 99.5312 36.792 99.9922 36.792C100.25 36.792 100.504 36.7451 100.754 36.6514C101.012 36.5498 101.242 36.3975 101.445 36.1943C101.656 35.9834 101.82 35.7256 101.938 35.4209C102.062 35.1162 102.125 34.7568 102.125 34.3428V33.9092C100.922 33.9092 100.016 34.0225 99.4062 34.249C98.8047 34.4678 98.5039 34.874 98.5039 35.4678ZM107.27 39.3818L110.48 34.8936C109.629 34.6201 108.973 34.1787 108.512 33.5693C108.051 32.9521 107.82 32.1787 107.82 31.249C107.82 30.7881 107.902 30.3154 108.066 29.8311C108.238 29.3467 108.516 28.9092 108.898 28.5186C109.281 28.1279 109.781 27.8115 110.398 27.5693C111.016 27.3193 111.766 27.1943 112.648 27.1943H117.852V39.3818H114.441V35.6436H113.773L111.066 39.3818H107.27ZM111.324 31.5068C111.324 31.9365 111.477 32.3232 111.781 32.667C112.086 33.0029 112.551 33.1709 113.176 33.1709H114.441V29.8545H113.176C112.551 29.8545 112.086 30.0264 111.781 30.3701C111.477 30.7139 111.324 31.0928 111.324 31.5068ZM120.582 39.3818V27.1943H125.234C126.195 27.1943 127.004 27.2725 127.66 27.4287C128.316 27.5771 128.848 27.7881 129.254 28.0615C129.66 28.3271 129.949 28.6514 130.121 29.0342C130.301 29.417 130.391 29.8428 130.391 30.3115C130.391 31.0459 130.191 31.6279 129.793 32.0576C129.395 32.4795 128.859 32.7607 128.188 32.9014V33.0654C129.016 33.1904 129.664 33.499 130.133 33.9912C130.609 34.4834 130.848 35.1201 130.848 35.9014C130.848 36.3779 130.766 36.8271 130.602 37.249C130.445 37.6631 130.176 38.0303 129.793 38.3506C129.41 38.6709 128.895 38.9248 128.246 39.1123C127.598 39.292 126.793 39.3818 125.832 39.3818H120.582ZM123.969 37.0264H125.527C126.09 37.0264 126.531 36.9131 126.852 36.6865C127.18 36.4521 127.344 36.1201 127.344 35.6904C127.344 35.2295 127.18 34.8857 126.852 34.6592C126.523 34.4326 126.082 34.3193 125.527 34.3193H123.969V37.0264ZM123.969 31.9873H125.141C125.75 31.9873 126.188 31.8701 126.453 31.6357C126.727 31.3936 126.863 31.0889 126.863 30.7217C126.863 30.3545 126.715 30.0693 126.418 29.8662C126.129 29.6631 125.703 29.5615 125.141 29.5615H123.969V31.9873ZM133.051 39.3818V27.1943H136.438V32.1045L137.082 31.9873L140.363 27.1943H143.703L139.965 32.667L143.973 39.3818H139.965L137.105 34.7529L136.438 34.9404V39.3818H133.051ZM144.031 27.1943H147.582L150.148 34.7764H150.312L152.738 27.1943H155.961L149.785 45.3818H146.574L148.543 39.5693L144.031 27.1943Z" fill="#1F2229"/>
<path d="M140.676 130V112H146.465C147.488 112 148.367 112.117 149.102 112.352C149.836 112.578 150.441 112.898 150.918 113.312C151.402 113.719 151.758 114.207 151.984 114.777C152.211 115.34 152.324 115.965 152.324 116.652C152.324 117.566 152.082 118.34 151.598 118.973C151.121 119.605 150.457 120.082 149.605 120.402V120.566C150.66 120.793 151.488 121.262 152.09 121.973C152.691 122.684 152.992 123.59 152.992 124.691C152.992 125.441 152.879 126.145 152.652 126.801C152.434 127.449 152.074 128.008 151.574 128.477C151.082 128.945 150.441 129.316 149.652 129.59C148.871 129.863 147.922 130 146.805 130H140.676ZM144.18 127H146.395C146.793 127 147.172 126.965 147.531 126.895C147.891 126.824 148.207 126.695 148.48 126.508C148.754 126.32 148.965 126.082 149.113 125.793C149.27 125.496 149.348 125.113 149.348 124.645C149.348 124.168 149.262 123.777 149.09 123.473C148.926 123.168 148.707 122.926 148.434 122.746C148.16 122.559 147.84 122.43 147.473 122.359C147.105 122.281 146.73 122.242 146.348 122.242H144.18V127ZM144.18 119.301H146.055C146.789 119.301 147.406 119.129 147.906 118.785C148.414 118.441 148.668 117.867 148.668 117.062C148.668 116.68 148.602 116.355 148.469 116.09C148.336 115.824 148.152 115.613 147.918 115.457C147.684 115.293 147.406 115.176 147.086 115.105C146.766 115.035 146.422 115 146.055 115H144.18V119.301ZM155.324 130V117.812H158.711V121.316H159.906C160.867 121.316 161.688 121.426 162.367 121.645C163.047 121.855 163.609 122.148 164.055 122.523C164.508 122.898 164.836 123.348 165.039 123.871C165.25 124.387 165.355 124.949 165.355 125.559C165.355 126.184 165.25 126.77 165.039 127.316C164.836 127.855 164.508 128.324 164.055 128.723C163.609 129.113 163.047 129.426 162.367 129.66C161.688 129.887 160.867 130 159.906 130H155.324ZM158.711 127.316H159.836C160.555 127.316 161.07 127.156 161.383 126.836C161.695 126.516 161.852 126.121 161.852 125.652C161.852 125.176 161.695 124.785 161.383 124.48C161.07 124.176 160.555 124.023 159.836 124.023H158.711V127.316ZM166.387 130V117.812H169.773V130H166.387ZM172.527 130V117.812H182.922V130H179.535V120.789H175.914V130H172.527ZM185.055 123.953C185.055 122.945 185.203 122.051 185.5 121.27C185.805 120.48 186.223 119.812 186.754 119.266C187.285 118.711 187.91 118.289 188.629 118C189.348 117.711 190.121 117.566 190.949 117.566C191.777 117.566 192.551 117.711 193.27 118C193.996 118.289 194.625 118.707 195.156 119.254C195.695 119.793 196.117 120.457 196.422 121.246C196.727 122.027 196.879 122.922 196.879 123.93C196.879 124.938 196.727 125.832 196.422 126.613C196.117 127.387 195.699 128.047 195.168 128.594C194.645 129.133 194.016 129.543 193.281 129.824C192.555 130.098 191.777 130.234 190.949 130.234C190.121 130.234 189.348 130.098 188.629 129.824C187.91 129.543 187.285 129.137 186.754 128.605C186.223 128.066 185.805 127.41 185.5 126.637C185.203 125.855 185.055 124.961 185.055 123.953ZM188.582 123.953C188.582 125.125 188.809 125.953 189.262 126.438C189.715 126.922 190.277 127.164 190.949 127.164C191.285 127.164 191.602 127.105 191.898 126.988C192.195 126.871 192.449 126.684 192.66 126.426C192.879 126.168 193.051 125.836 193.176 125.43C193.309 125.023 193.375 124.523 193.375 123.93C193.375 123.336 193.309 122.832 193.176 122.418C193.051 122.004 192.875 121.664 192.648 121.398C192.43 121.133 192.176 120.941 191.887 120.824C191.598 120.699 191.285 120.637 190.949 120.637C190.277 120.637 189.715 120.891 189.262 121.398C188.809 121.898 188.582 122.75 188.582 123.953ZM197.898 130.07V127C197.945 127.016 198.004 127.031 198.074 127.047C198.121 127.062 198.176 127.07 198.238 127.07C198.301 127.07 198.367 127.07 198.438 127.07C198.883 127.07 199.242 126.887 199.516 126.52C199.789 126.152 200 125.59 200.148 124.832C200.297 124.066 200.398 123.105 200.453 121.949C200.516 120.785 200.547 119.406 200.547 117.812H209.395V130H205.996V120.789H203.43C203.43 122.102 203.375 123.328 203.266 124.469C203.164 125.609 202.961 126.609 202.656 127.469C202.352 128.328 201.918 129 201.355 129.484C200.801 129.969 200.066 130.211 199.152 130.211C198.754 130.211 198.449 130.188 198.238 130.141C198.113 130.125 198 130.102 197.898 130.07ZM212.137 130V117.812H215.523V122.242H219.379V117.812H222.766V130H219.379V125.219H215.523V130H212.137ZM225.496 130V117.812H228.883V124.668H229.07L233.008 117.812H236.125V130H232.738V123.109H232.574L228.59 130H225.496ZM139.234 146.789V143.812H149.301V146.789H145.938V156H142.574V146.789H139.234ZM150.32 149.953C150.32 148.961 150.449 148.074 150.707 147.293C150.973 146.504 151.348 145.836 151.832 145.289C152.324 144.734 152.922 144.309 153.625 144.012C154.328 143.715 155.113 143.566 155.98 143.566C156.73 143.566 157.422 143.672 158.055 143.883C158.688 144.086 159.23 144.398 159.684 144.82C160.145 145.234 160.496 145.754 160.738 146.379C160.988 147.004 161.113 147.738 161.113 148.582C161.113 149.012 161.086 149.406 161.031 149.766C160.977 150.117 160.926 150.371 160.879 150.527H154.012C154.074 151.441 154.34 152.137 154.809 152.613C155.285 153.082 155.996 153.316 156.941 153.316C157.613 153.316 158.266 153.25 158.898 153.117C159.531 152.977 160.102 152.746 160.609 152.426V155.332C160.195 155.605 159.637 155.824 158.934 155.988C158.238 156.152 157.477 156.234 156.648 156.234C154.633 156.234 153.074 155.719 151.973 154.688C150.871 153.656 150.32 152.078 150.32 149.953ZM153.871 148.512H157.879C157.848 147.762 157.656 147.191 157.305 146.801C156.961 146.402 156.488 146.203 155.887 146.203C155.246 146.203 154.77 146.418 154.457 146.848C154.145 147.27 153.949 147.824 153.871 148.512ZM162.672 149.953C162.672 148.961 162.816 148.074 163.105 147.293C163.402 146.504 163.812 145.836 164.336 145.289C164.867 144.734 165.5 144.309 166.234 144.012C166.977 143.715 167.789 143.566 168.672 143.566C169.281 143.566 169.82 143.613 170.289 143.707C170.758 143.793 171.191 143.945 171.59 144.164V147.434C171.223 147.176 170.82 146.996 170.383 146.895C169.945 146.785 169.508 146.73 169.07 146.73C168.203 146.73 167.508 146.992 166.984 147.516C166.461 148.039 166.199 148.852 166.199 149.953C166.199 151.055 166.465 151.855 166.996 152.355C167.535 152.848 168.25 153.094 169.141 153.094C169.586 153.094 170.039 153.035 170.5 152.918C170.961 152.793 171.352 152.598 171.672 152.332V155.637C171.445 155.793 171.062 155.93 170.523 156.047C169.992 156.172 169.406 156.234 168.766 156.234C166.812 156.234 165.309 155.688 164.254 154.594C163.199 153.5 162.672 151.953 162.672 149.953ZM172.75 146.789V143.812H182.816V146.789H179.453V156H176.09V146.789H172.75ZM183.836 149.953C183.836 148.945 183.984 148.051 184.281 147.27C184.586 146.48 185.004 145.812 185.535 145.266C186.066 144.711 186.691 144.289 187.41 144C188.129 143.711 188.902 143.566 189.73 143.566C190.559 143.566 191.332 143.711 192.051 144C192.777 144.289 193.406 144.707 193.938 145.254C194.477 145.793 194.898 146.457 195.203 147.246C195.508 148.027 195.66 148.922 195.66 149.93C195.66 150.938 195.508 151.832 195.203 152.613C194.898 153.387 194.48 154.047 193.949 154.594C193.426 155.133 192.797 155.543 192.062 155.824C191.336 156.098 190.559 156.234 189.73 156.234C188.902 156.234 188.129 156.098 187.41 155.824C186.691 155.543 186.066 155.137 185.535 154.605C185.004 154.066 184.586 153.41 184.281 152.637C183.984 151.855 183.836 150.961 183.836 149.953ZM187.363 149.953C187.363 151.125 187.59 151.953 188.043 152.438C188.496 152.922 189.059 153.164 189.73 153.164C190.066 153.164 190.383 153.105 190.68 152.988C190.977 152.871 191.23 152.684 191.441 152.426C191.66 152.168 191.832 151.836 191.957 151.43C192.09 151.023 192.156 150.523 192.156 149.93C192.156 149.336 192.09 148.832 191.957 148.418C191.832 148.004 191.656 147.664 191.43 147.398C191.211 147.133 190.957 146.941 190.668 146.824C190.379 146.699 190.066 146.637 189.73 146.637C189.059 146.637 188.496 146.891 188.043 147.398C187.59 147.898 187.363 148.75 187.363 149.953ZM197.816 156V143.812H202.469C203.43 143.812 204.238 143.891 204.895 144.047C205.551 144.195 206.082 144.406 206.488 144.68C206.895 144.945 207.184 145.27 207.355 145.652C207.535 146.035 207.625 146.461 207.625 146.93C207.625 147.664 207.426 148.246 207.027 148.676C206.629 149.098 206.094 149.379 205.422 149.52V149.684C206.25 149.809 206.898 150.117 207.367 150.609C207.844 151.102 208.082 151.738 208.082 152.52C208.082 152.996 208 153.445 207.836 153.867C207.68 154.281 207.41 154.648 207.027 154.969C206.645 155.289 206.129 155.543 205.48 155.73C204.832 155.91 204.027 156 203.066 156H197.816ZM201.203 153.645H202.762C203.324 153.645 203.766 153.531 204.086 153.305C204.414 153.07 204.578 152.738 204.578 152.309C204.578 151.848 204.414 151.504 204.086 151.277C203.758 151.051 203.316 150.938 202.762 150.938H201.203V153.645ZM201.203 148.605H202.375C202.984 148.605 203.422 148.488 203.688 148.254C203.961 148.012 204.098 147.707 204.098 147.34C204.098 146.973 203.949 146.688 203.652 146.484C203.363 146.281 202.938 146.18 202.375 146.18H201.203V148.605ZM209.688 149.953C209.688 148.945 209.836 148.051 210.133 147.27C210.438 146.48 210.855 145.812 211.387 145.266C211.918 144.711 212.543 144.289 213.262 144C213.98 143.711 214.754 143.566 215.582 143.566C216.41 143.566 217.184 143.711 217.902 144C218.629 144.289 219.258 144.707 219.789 145.254C220.328 145.793 220.75 146.457 221.055 147.246C221.359 148.027 221.512 148.922 221.512 149.93C221.512 150.938 221.359 151.832 221.055 152.613C220.75 153.387 220.332 154.047 219.801 154.594C219.277 155.133 218.648 155.543 217.914 155.824C217.188 156.098 216.41 156.234 215.582 156.234C214.754 156.234 213.98 156.098 213.262 155.824C212.543 155.543 211.918 155.137 211.387 154.605C210.855 154.066 210.438 153.41 210.133 152.637C209.836 151.855 209.688 150.961 209.688 149.953ZM213.215 149.953C213.215 151.125 213.441 151.953 213.895 152.438C214.348 152.922 214.91 153.164 215.582 153.164C215.918 153.164 216.234 153.105 216.531 152.988C216.828 152.871 217.082 152.684 217.293 152.426C217.512 152.168 217.684 151.836 217.809 151.43C217.941 151.023 218.008 150.523 218.008 149.93C218.008 149.336 217.941 148.832 217.809 148.418C217.684 148.004 217.508 147.664 217.281 147.398C217.062 147.133 216.809 146.941 216.52 146.824C216.23 146.699 215.918 146.637 215.582 146.637C214.91 146.637 214.348 146.891 213.895 147.398C213.441 147.898 213.215 148.75 213.215 149.953ZM223.07 149.953C223.07 148.961 223.199 148.074 223.457 147.293C223.723 146.504 224.098 145.836 224.582 145.289C225.074 144.734 225.672 144.309 226.375 144.012C227.078 143.715 227.863 143.566 228.73 143.566C229.48 143.566 230.172 143.672 230.805 143.883C231.438 144.086 231.98 144.398 232.434 144.82C232.895 145.234 233.246 145.754 233.488 146.379C233.738 147.004 233.863 147.738 233.863 148.582C233.863 149.012 233.836 149.406 233.781 149.766C233.727 150.117 233.676 150.371 233.629 150.527H226.762C226.824 151.441 227.09 152.137 227.559 152.613C228.035 153.082 228.746 153.316 229.691 153.316C230.363 153.316 231.016 153.25 231.648 153.117C232.281 152.977 232.852 152.746 233.359 152.426V155.332C232.945 155.605 232.387 155.824 231.684 155.988C230.988 156.152 230.227 156.234 229.398 156.234C227.383 156.234 225.824 155.719 224.723 154.688C223.621 153.656 223.07 152.078 223.07 149.953ZM226.621 148.512H230.629C230.598 147.762 230.406 147.191 230.055 146.801C229.711 146.402 229.238 146.203 228.637 146.203C227.996 146.203 227.52 146.418 227.207 146.848C226.895 147.27 226.699 147.824 226.621 148.512ZM241.562 155.402V152.473C242.734 153.191 243.949 153.551 245.207 153.551C246.426 153.551 247.035 153.129 247.035 152.285C247.035 151.871 246.883 151.57 246.578 151.383C246.273 151.195 245.855 151.102 245.324 151.102H243.332V148.488H245.16C245.652 148.488 246.012 148.395 246.238 148.207C246.465 148.012 246.578 147.754 246.578 147.434C246.578 147.02 246.426 146.727 246.121 146.555C245.816 146.375 245.383 146.285 244.82 146.285C244.242 146.285 243.711 146.352 243.227 146.484C242.742 146.617 242.242 146.844 241.727 147.164V144.27C242.219 144.043 242.781 143.871 243.414 143.754C244.055 143.629 244.691 143.566 245.324 143.566C246.152 143.566 246.855 143.648 247.434 143.812C248.012 143.969 248.484 144.188 248.852 144.469C249.227 144.75 249.496 145.082 249.66 145.465C249.832 145.848 249.918 146.262 249.918 146.707C249.918 147.316 249.773 147.867 249.484 148.359C249.195 148.844 248.668 149.215 247.902 149.473V149.637C248.715 149.832 249.328 150.191 249.742 150.715C250.164 151.23 250.375 151.887 250.375 152.684C250.375 153.129 250.297 153.566 250.141 153.996C249.992 154.418 249.73 154.797 249.355 155.133C248.988 155.469 248.492 155.738 247.867 155.941C247.25 156.137 246.469 156.234 245.523 156.234C245.203 156.234 244.867 156.219 244.516 156.188C244.164 156.156 243.816 156.109 243.473 156.047C243.129 155.984 242.789 155.902 242.453 155.801C242.117 155.691 241.82 155.559 241.562 155.402ZM252.273 152.73C252.273 152.059 252.398 151.473 252.648 150.973C252.898 150.465 253.301 150.035 253.855 149.684C254.418 149.332 255.141 149.07 256.023 148.898C256.914 148.719 258.008 148.629 259.305 148.629V148.102C259.305 147.57 259.129 147.164 258.777 146.883C258.426 146.594 257.883 146.449 257.148 146.449C256.414 146.449 255.715 146.531 255.051 146.695C254.387 146.852 253.75 147.113 253.141 147.48V144.48C253.734 144.16 254.398 143.93 255.133 143.789C255.867 143.641 256.641 143.566 257.453 143.566C259.242 143.566 260.562 143.961 261.414 144.75C262.266 145.531 262.691 146.672 262.691 148.172V156H259.422V154.102H259.258C259.102 154.391 258.926 154.668 258.73 154.934C258.535 155.199 258.297 155.43 258.016 155.625C257.742 155.812 257.418 155.961 257.043 156.07C256.676 156.18 256.246 156.234 255.754 156.234C254.652 156.234 253.797 155.918 253.188 155.285C252.578 154.645 252.273 153.793 252.273 152.73ZM255.684 152.086C255.684 152.469 255.816 152.785 256.082 153.035C256.348 153.285 256.711 153.41 257.172 153.41C257.43 153.41 257.684 153.363 257.934 153.27C258.191 153.168 258.422 153.016 258.625 152.812C258.836 152.602 259 152.344 259.117 152.039C259.242 151.734 259.305 151.375 259.305 150.961V150.527C258.102 150.527 257.195 150.641 256.586 150.867C255.984 151.086 255.684 151.492 255.684 152.086ZM264.109 153.023H265.141C265.492 152.656 265.789 152.176 266.031 151.582C266.273 150.988 266.465 150.297 266.605 149.508C266.754 148.719 266.859 147.844 266.922 146.883C266.984 145.922 267.023 144.898 267.039 143.812H275.711V153.023H277.574V159.164H274.551L274.316 156H267.402L267.156 159.164H264.109V153.023ZM268.434 153.023H272.301V146.812H269.781C269.781 147.211 269.754 147.691 269.699 148.254C269.652 148.809 269.578 149.383 269.477 149.977C269.375 150.57 269.238 151.141 269.066 151.688C268.902 152.227 268.691 152.672 268.434 153.023ZM278.852 152.73C278.852 152.059 278.977 151.473 279.227 150.973C279.477 150.465 279.879 150.035 280.434 149.684C280.996 149.332 281.719 149.07 282.602 148.898C283.492 148.719 284.586 148.629 285.883 148.629V148.102C285.883 147.57 285.707 147.164 285.355 146.883C285.004 146.594 284.461 146.449 283.727 146.449C282.992 146.449 282.293 146.531 281.629 146.695C280.965 146.852 280.328 147.113 279.719 147.48V144.48C280.312 144.16 280.977 143.93 281.711 143.789C282.445 143.641 283.219 143.566 284.031 143.566C285.82 143.566 287.141 143.961 287.992 144.75C288.844 145.531 289.27 146.672 289.27 148.172V156H286V154.102H285.836C285.68 154.391 285.504 154.668 285.309 154.934C285.113 155.199 284.875 155.43 284.594 155.625C284.32 155.812 283.996 155.961 283.621 156.07C283.254 156.18 282.824 156.234 282.332 156.234C281.23 156.234 280.375 155.918 279.766 155.285C279.156 154.645 278.852 153.793 278.852 152.73ZM282.262 152.086C282.262 152.469 282.395 152.785 282.66 153.035C282.926 153.285 283.289 153.41 283.75 153.41C284.008 153.41 284.262 153.363 284.512 153.27C284.77 153.168 285 153.016 285.203 152.812C285.414 152.602 285.578 152.344 285.695 152.039C285.82 151.734 285.883 151.375 285.883 150.961V150.527C284.68 150.527 283.773 150.641 283.164 150.867C282.562 151.086 282.262 151.492 282.262 152.086ZM291.895 156V143.812H295.281V148.242H299.137V143.812H302.523V156H299.137V151.219H295.281V156H291.895ZM305.254 156V143.812H308.641V150.668H308.828L312.766 143.812H315.883V156H312.496V149.109H312.332L308.348 156H305.254ZM318.016 149.953C318.016 148.961 318.145 148.074 318.402 147.293C318.668 146.504 319.043 145.836 319.527 145.289C320.02 144.734 320.617 144.309 321.32 144.012C322.023 143.715 322.809 143.566 323.676 143.566C324.426 143.566 325.117 143.672 325.75 143.883C326.383 144.086 326.926 144.398 327.379 144.82C327.84 145.234 328.191 145.754 328.434 146.379C328.684 147.004 328.809 147.738 328.809 148.582C328.809 149.012 328.781 149.406 328.727 149.766C328.672 150.117 328.621 150.371 328.574 150.527H321.707C321.77 151.441 322.035 152.137 322.504 152.613C322.98 153.082 323.691 153.316 324.637 153.316C325.309 153.316 325.961 153.25 326.594 153.117C327.227 152.977 327.797 152.746 328.305 152.426V155.332C327.891 155.605 327.332 155.824 326.629 155.988C325.934 156.152 325.172 156.234 324.344 156.234C322.328 156.234 320.77 155.719 319.668 154.688C318.566 153.656 318.016 152.078 318.016 149.953ZM321.566 148.512H325.574C325.543 147.762 325.352 147.191 325 146.801C324.656 146.402 324.184 146.203 323.582 146.203C322.941 146.203 322.465 146.418 322.152 146.848C321.84 147.27 321.645 147.824 321.566 148.512Z" fill="#1F2229"/>
<path d="M140.676 275.381V257.381H153.473V275.381H149.969V260.568H144.18V275.381H140.676ZM156.52 281.381V263.193H159.777V264.893H159.953C160.258 264.33 160.695 263.865 161.266 263.498C161.844 263.131 162.574 262.947 163.457 262.947C164.191 262.947 164.855 263.104 165.449 263.416C166.051 263.729 166.559 264.162 166.973 264.717C167.395 265.264 167.715 265.92 167.934 266.686C168.16 267.443 168.273 268.279 168.273 269.193C168.273 270.154 168.16 271.025 167.934 271.807C167.715 272.588 167.391 273.264 166.961 273.834C166.539 274.404 166.027 274.846 165.426 275.158C164.832 275.463 164.16 275.615 163.41 275.615C162.582 275.615 161.887 275.459 161.324 275.146C160.762 274.826 160.305 274.354 159.953 273.729H159.777L159.906 275.615V281.381H156.52ZM159.906 269.592C159.906 270.662 160.137 271.424 160.598 271.877C161.059 272.322 161.625 272.545 162.297 272.545C162.617 272.545 162.926 272.49 163.223 272.381C163.52 272.271 163.777 272.084 163.996 271.818C164.223 271.553 164.402 271.205 164.535 270.775C164.676 270.338 164.746 269.811 164.746 269.193C164.746 268.615 164.68 268.127 164.547 267.729C164.422 267.322 164.246 266.994 164.02 266.744C163.801 266.486 163.543 266.303 163.246 266.193C162.949 266.076 162.633 266.018 162.297 266.018C161.977 266.018 161.668 266.072 161.371 266.182C161.082 266.283 160.828 266.447 160.609 266.674C160.391 266.893 160.219 267.182 160.094 267.541C159.969 267.9 159.906 268.33 159.906 268.83V269.592ZM169.82 269.334C169.82 268.326 169.969 267.432 170.266 266.65C170.57 265.861 170.988 265.193 171.52 264.646C172.051 264.092 172.676 263.67 173.395 263.381C174.113 263.092 174.887 262.947 175.715 262.947C176.543 262.947 177.316 263.092 178.035 263.381C178.762 263.67 179.391 264.088 179.922 264.635C180.461 265.174 180.883 265.838 181.188 266.627C181.492 267.408 181.645 268.303 181.645 269.311C181.645 270.318 181.492 271.213 181.188 271.994C180.883 272.768 180.465 273.428 179.934 273.975C179.41 274.514 178.781 274.924 178.047 275.205C177.32 275.479 176.543 275.615 175.715 275.615C174.887 275.615 174.113 275.479 173.395 275.205C172.676 274.924 172.051 274.518 171.52 273.986C170.988 273.447 170.57 272.791 170.266 272.018C169.969 271.236 169.82 270.342 169.82 269.334ZM173.348 269.334C173.348 270.506 173.574 271.334 174.027 271.818C174.48 272.303 175.043 272.545 175.715 272.545C176.051 272.545 176.367 272.486 176.664 272.369C176.961 272.252 177.215 272.064 177.426 271.807C177.645 271.549 177.816 271.217 177.941 270.811C178.074 270.404 178.141 269.904 178.141 269.311C178.141 268.717 178.074 268.213 177.941 267.799C177.816 267.385 177.641 267.045 177.414 266.779C177.195 266.514 176.941 266.322 176.652 266.205C176.363 266.08 176.051 266.018 175.715 266.018C175.043 266.018 174.48 266.271 174.027 266.779C173.574 267.279 173.348 268.131 173.348 269.334ZM183.801 275.381V263.193H187.188V270.049H187.375L191.312 263.193H194.43V275.381H191.043V268.49H190.879L186.895 275.381H183.801ZM184.785 257.908H187.738C187.738 258.369 187.824 258.736 187.996 259.01C188.176 259.283 188.52 259.42 189.027 259.42C189.504 259.42 189.84 259.283 190.035 259.01C190.23 258.736 190.328 258.369 190.328 257.908H193.281C193.281 258.721 193.156 259.393 192.906 259.924C192.656 260.455 192.332 260.877 191.934 261.189C191.535 261.502 191.082 261.717 190.574 261.834C190.074 261.951 189.559 262.01 189.027 262.01C188.496 262.01 187.98 261.951 187.48 261.834C186.98 261.717 186.527 261.502 186.121 261.189C185.723 260.877 185.398 260.459 185.148 259.936C184.906 259.404 184.785 258.729 184.785 257.908ZM195.953 272.404H196.984C197.336 272.037 197.633 271.557 197.875 270.963C198.117 270.369 198.309 269.678 198.449 268.889C198.598 268.1 198.703 267.225 198.766 266.264C198.828 265.303 198.867 264.279 198.883 263.193H207.555V272.404H209.418V278.545H206.395L206.16 275.381H199.246L199 278.545H195.953V272.404ZM200.277 272.404H204.145V266.193H201.625C201.625 266.592 201.598 267.072 201.543 267.635C201.496 268.189 201.422 268.764 201.32 269.357C201.219 269.951 201.082 270.521 200.91 271.068C200.746 271.607 200.535 272.053 200.277 272.404ZM211.059 275.381V263.193H214.445V270.049H214.633L218.57 263.193H221.688V275.381H218.301V268.49H218.137L214.152 275.381H211.059ZM139.773 295.334C139.773 294.342 139.918 293.455 140.207 292.674C140.504 291.885 140.914 291.217 141.438 290.67C141.969 290.115 142.602 289.689 143.336 289.393C144.078 289.096 144.891 288.947 145.773 288.947C146.383 288.947 146.922 288.994 147.391 289.088C147.859 289.174 148.293 289.326 148.691 289.545V292.814C148.324 292.557 147.922 292.377 147.484 292.275C147.047 292.166 146.609 292.111 146.172 292.111C145.305 292.111 144.609 292.373 144.086 292.896C143.562 293.42 143.301 294.232 143.301 295.334C143.301 296.436 143.566 297.236 144.098 297.736C144.637 298.229 145.352 298.475 146.242 298.475C146.688 298.475 147.141 298.416 147.602 298.299C148.062 298.174 148.453 297.979 148.773 297.713V301.018C148.547 301.174 148.164 301.311 147.625 301.428C147.094 301.553 146.508 301.615 145.867 301.615C143.914 301.615 142.41 301.068 141.355 299.975C140.301 298.881 139.773 297.334 139.773 295.334ZM150.391 295.334C150.391 294.326 150.539 293.432 150.836 292.65C151.141 291.861 151.559 291.193 152.09 290.646C152.621 290.092 153.246 289.67 153.965 289.381C154.684 289.092 155.457 288.947 156.285 288.947C157.113 288.947 157.887 289.092 158.605 289.381C159.332 289.67 159.961 290.088 160.492 290.635C161.031 291.174 161.453 291.838 161.758 292.627C162.062 293.408 162.215 294.303 162.215 295.311C162.215 296.318 162.062 297.213 161.758 297.994C161.453 298.768 161.035 299.428 160.504 299.975C159.98 300.514 159.352 300.924 158.617 301.205C157.891 301.479 157.113 301.615 156.285 301.615C155.457 301.615 154.684 301.479 153.965 301.205C153.246 300.924 152.621 300.518 152.09 299.986C151.559 299.447 151.141 298.791 150.836 298.018C150.539 297.236 150.391 296.342 150.391 295.334ZM153.918 295.334C153.918 296.506 154.145 297.334 154.598 297.818C155.051 298.303 155.613 298.545 156.285 298.545C156.621 298.545 156.938 298.486 157.234 298.369C157.531 298.252 157.785 298.064 157.996 297.807C158.215 297.549 158.387 297.217 158.512 296.811C158.645 296.404 158.711 295.904 158.711 295.311C158.711 294.717 158.645 294.213 158.512 293.799C158.387 293.385 158.211 293.045 157.984 292.779C157.766 292.514 157.512 292.322 157.223 292.205C156.934 292.08 156.621 292.018 156.285 292.018C155.613 292.018 155.051 292.271 154.598 292.779C154.145 293.279 153.918 294.131 153.918 295.334ZM163.773 293.822C163.773 292.064 163.914 290.561 164.195 289.311C164.484 288.061 164.941 287.029 165.566 286.217C166.191 285.396 166.992 284.775 167.969 284.354C168.945 283.932 170.113 283.654 171.473 283.521C172.129 283.475 172.785 283.42 173.441 283.357C174.098 283.295 174.586 283.225 174.906 283.146V286.428C174.586 286.506 174.121 286.572 173.512 286.627C172.902 286.674 172.285 286.736 171.66 286.814C170.793 286.893 170.059 287.033 169.457 287.236C168.863 287.432 168.379 287.717 168.004 288.092C167.629 288.459 167.348 288.936 167.16 289.521C166.98 290.1 166.867 290.822 166.82 291.689H166.984C167.078 291.432 167.219 291.162 167.406 290.881C167.602 290.6 167.855 290.346 168.168 290.119C168.48 289.885 168.855 289.697 169.293 289.557C169.738 289.408 170.258 289.334 170.852 289.334C171.57 289.334 172.238 289.482 172.855 289.779C173.473 290.076 174 290.49 174.438 291.021C174.875 291.545 175.219 292.178 175.469 292.92C175.719 293.662 175.844 294.49 175.844 295.404C175.844 296.334 175.695 297.182 175.398 297.947C175.102 298.713 174.688 299.369 174.156 299.916C173.633 300.463 173.004 300.885 172.27 301.182C171.535 301.471 170.719 301.615 169.82 301.615C169.008 301.615 168.23 301.498 167.488 301.264C166.754 301.021 166.109 300.604 165.555 300.01C165 299.416 164.562 298.619 164.242 297.619C163.93 296.619 163.773 295.354 163.773 293.822ZM167.324 295.428C167.324 296.498 167.555 297.287 168.016 297.795C168.484 298.295 169.086 298.545 169.82 298.545C170.539 298.545 171.137 298.291 171.613 297.783C172.098 297.268 172.34 296.475 172.34 295.404C172.34 294.334 172.098 293.564 171.613 293.096C171.137 292.619 170.539 292.381 169.82 292.381C169.086 292.381 168.484 292.623 168.016 293.107C167.555 293.584 167.324 294.357 167.324 295.428ZM177.391 295.334C177.391 294.342 177.52 293.455 177.777 292.674C178.043 291.885 178.418 291.217 178.902 290.67C179.395 290.115 179.992 289.689 180.695 289.393C181.398 289.096 182.184 288.947 183.051 288.947C183.801 288.947 184.492 289.053 185.125 289.264C185.758 289.467 186.301 289.779 186.754 290.201C187.215 290.615 187.566 291.135 187.809 291.76C188.059 292.385 188.184 293.119 188.184 293.963C188.184 294.393 188.156 294.787 188.102 295.146C188.047 295.498 187.996 295.752 187.949 295.908H181.082C181.145 296.822 181.41 297.518 181.879 297.994C182.355 298.463 183.066 298.697 184.012 298.697C184.684 298.697 185.336 298.631 185.969 298.498C186.602 298.357 187.172 298.127 187.68 297.807V300.713C187.266 300.986 186.707 301.205 186.004 301.369C185.309 301.533 184.547 301.615 183.719 301.615C181.703 301.615 180.145 301.1 179.043 300.068C177.941 299.037 177.391 297.459 177.391 295.334ZM180.941 293.893H184.949C184.918 293.143 184.727 292.572 184.375 292.182C184.031 291.783 183.559 291.584 182.957 291.584C182.316 291.584 181.84 291.799 181.527 292.229C181.215 292.65 181.02 293.205 180.941 293.893ZM189.742 295.334C189.742 294.342 189.887 293.455 190.176 292.674C190.473 291.885 190.883 291.217 191.406 290.67C191.938 290.115 192.57 289.689 193.305 289.393C194.047 289.096 194.859 288.947 195.742 288.947C196.352 288.947 196.891 288.994 197.359 289.088C197.828 289.174 198.262 289.326 198.66 289.545V292.814C198.293 292.557 197.891 292.377 197.453 292.275C197.016 292.166 196.578 292.111 196.141 292.111C195.273 292.111 194.578 292.373 194.055 292.896C193.531 293.42 193.27 294.232 193.27 295.334C193.27 296.436 193.535 297.236 194.066 297.736C194.605 298.229 195.32 298.475 196.211 298.475C196.656 298.475 197.109 298.416 197.57 298.299C198.031 298.174 198.422 297.979 198.742 297.713V301.018C198.516 301.174 198.133 301.311 197.594 301.428C197.062 301.553 196.477 301.615 195.836 301.615C193.883 301.615 192.379 301.068 191.324 299.975C190.27 298.881 189.742 297.334 189.742 295.334ZM200.359 295.334C200.359 294.342 200.488 293.455 200.746 292.674C201.012 291.885 201.387 291.217 201.871 290.67C202.363 290.115 202.961 289.689 203.664 289.393C204.367 289.096 205.152 288.947 206.02 288.947C206.77 288.947 207.461 289.053 208.094 289.264C208.727 289.467 209.27 289.779 209.723 290.201C210.184 290.615 210.535 291.135 210.777 291.76C211.027 292.385 211.152 293.119 211.152 293.963C211.152 294.393 211.125 294.787 211.07 295.146C211.016 295.498 210.965 295.752 210.918 295.908H204.051C204.113 296.822 204.379 297.518 204.848 297.994C205.324 298.463 206.035 298.697 206.98 298.697C207.652 298.697 208.305 298.631 208.938 298.498C209.57 298.357 210.141 298.127 210.648 297.807V300.713C210.234 300.986 209.676 301.205 208.973 301.369C208.277 301.533 207.516 301.615 206.688 301.615C204.672 301.615 203.113 301.1 202.012 300.068C200.91 299.037 200.359 297.459 200.359 295.334ZM203.91 293.893H207.918C207.887 293.143 207.695 292.572 207.344 292.182C207 291.783 206.527 291.584 205.926 291.584C205.285 291.584 204.809 291.799 204.496 292.229C204.184 292.65 203.988 293.205 203.91 293.893ZM212.102 298.404H213.133C213.484 298.037 213.781 297.557 214.023 296.963C214.266 296.369 214.457 295.678 214.598 294.889C214.746 294.1 214.852 293.225 214.914 292.264C214.977 291.303 215.016 290.279 215.031 289.193H223.703V298.404H225.566V304.545H222.543L222.309 301.381H215.395L215.148 304.545H212.102V298.404ZM216.426 298.404H220.293V292.193H217.773C217.773 292.592 217.746 293.072 217.691 293.635C217.645 294.189 217.57 294.764 217.469 295.357C217.367 295.951 217.23 296.521 217.059 297.068C216.895 297.607 216.684 298.053 216.426 298.404ZM226.609 295.334C226.609 294.326 226.758 293.432 227.055 292.65C227.359 291.861 227.777 291.193 228.309 290.646C228.84 290.092 229.465 289.67 230.184 289.381C230.902 289.092 231.676 288.947 232.504 288.947C233.332 288.947 234.105 289.092 234.824 289.381C235.551 289.67 236.18 290.088 236.711 290.635C237.25 291.174 237.672 291.838 237.977 292.627C238.281 293.408 238.434 294.303 238.434 295.311C238.434 296.318 238.281 297.213 237.977 297.994C237.672 298.768 237.254 299.428 236.723 299.975C236.199 300.514 235.57 300.924 234.836 301.205C234.109 301.479 233.332 301.615 232.504 301.615C231.676 301.615 230.902 301.479 230.184 301.205C229.465 300.924 228.84 300.518 228.309 299.986C227.777 299.447 227.359 298.791 227.055 298.018C226.758 297.236 226.609 296.342 226.609 295.334ZM230.137 295.334C230.137 296.506 230.363 297.334 230.816 297.818C231.27 298.303 231.832 298.545 232.504 298.545C232.84 298.545 233.156 298.486 233.453 298.369C233.75 298.252 234.004 298.064 234.215 297.807C234.434 297.549 234.605 297.217 234.73 296.811C234.863 296.404 234.93 295.904 234.93 295.311C234.93 294.717 234.863 294.213 234.73 293.799C234.605 293.385 234.43 293.045 234.203 292.779C233.984 292.514 233.73 292.322 233.441 292.205C233.152 292.08 232.84 292.018 232.504 292.018C231.832 292.018 231.27 292.271 230.816 292.779C230.363 293.279 230.137 294.131 230.137 295.334ZM240.59 301.381V289.193H245.242C246.203 289.193 247.012 289.271 247.668 289.428C248.324 289.576 248.855 289.787 249.262 290.061C249.668 290.326 249.957 290.65 250.129 291.033C250.309 291.416 250.398 291.842 250.398 292.311C250.398 293.045 250.199 293.627 249.801 294.057C249.402 294.479 248.867 294.76 248.195 294.9V295.064C249.023 295.189 249.672 295.498 250.141 295.99C250.617 296.482 250.855 297.119 250.855 297.9C250.855 298.377 250.773 298.826 250.609 299.248C250.453 299.662 250.184 300.029 249.801 300.35C249.418 300.67 248.902 300.924 248.254 301.111C247.605 301.291 246.801 301.381 245.84 301.381H240.59ZM243.977 299.025H245.535C246.098 299.025 246.539 298.912 246.859 298.686C247.188 298.451 247.352 298.119 247.352 297.689C247.352 297.229 247.188 296.885 246.859 296.658C246.531 296.432 246.09 296.318 245.535 296.318H243.977V299.025ZM243.977 293.986H245.148C245.758 293.986 246.195 293.869 246.461 293.635C246.734 293.393 246.871 293.088 246.871 292.721C246.871 292.354 246.723 292.068 246.426 291.865C246.137 291.662 245.711 291.561 245.148 291.561H243.977V293.986ZM252.695 298.111C252.695 297.439 252.82 296.854 253.07 296.354C253.32 295.846 253.723 295.416 254.277 295.064C254.84 294.713 255.562 294.451 256.445 294.279C257.336 294.1 258.43 294.01 259.727 294.01V293.482C259.727 292.951 259.551 292.545 259.199 292.264C258.848 291.975 258.305 291.83 257.57 291.83C256.836 291.83 256.137 291.912 255.473 292.076C254.809 292.232 254.172 292.494 253.562 292.861V289.861C254.156 289.541 254.82 289.311 255.555 289.17C256.289 289.021 257.062 288.947 257.875 288.947C259.664 288.947 260.984 289.342 261.836 290.131C262.688 290.912 263.113 292.053 263.113 293.553V301.381H259.844V299.482H259.68C259.523 299.771 259.348 300.049 259.152 300.314C258.957 300.58 258.719 300.811 258.438 301.006C258.164 301.193 257.84 301.342 257.465 301.451C257.098 301.561 256.668 301.615 256.176 301.615C255.074 301.615 254.219 301.299 253.609 300.666C253 300.025 252.695 299.174 252.695 298.111ZM256.105 297.467C256.105 297.85 256.238 298.166 256.504 298.416C256.77 298.666 257.133 298.791 257.594 298.791C257.852 298.791 258.105 298.744 258.355 298.65C258.613 298.549 258.844 298.396 259.047 298.193C259.258 297.982 259.422 297.725 259.539 297.42C259.664 297.115 259.727 296.756 259.727 296.342V295.908C258.523 295.908 257.617 296.021 257.008 296.248C256.406 296.467 256.105 296.873 256.105 297.467ZM265.738 301.381V289.193H269.125V293.623H272.98V289.193H276.367V301.381H272.98V296.6H269.125V301.381H265.738ZM279.098 301.381V289.193H282.484V296.049H282.672L286.609 289.193H289.727V301.381H286.34V294.49H286.176L282.191 301.381H279.098ZM291.859 295.334C291.859 294.342 291.988 293.455 292.246 292.674C292.512 291.885 292.887 291.217 293.371 290.67C293.863 290.115 294.461 289.689 295.164 289.393C295.867 289.096 296.652 288.947 297.52 288.947C298.27 288.947 298.961 289.053 299.594 289.264C300.227 289.467 300.77 289.779 301.223 290.201C301.684 290.615 302.035 291.135 302.277 291.76C302.527 292.385 302.652 293.119 302.652 293.963C302.652 294.393 302.625 294.787 302.57 295.146C302.516 295.498 302.465 295.752 302.418 295.908H295.551C295.613 296.822 295.879 297.518 296.348 297.994C296.824 298.463 297.535 298.697 298.48 298.697C299.152 298.697 299.805 298.631 300.438 298.498C301.07 298.357 301.641 298.127 302.148 297.807V300.713C301.734 300.986 301.176 301.205 300.473 301.369C299.777 301.533 299.016 301.615 298.188 301.615C296.172 301.615 294.613 301.1 293.512 300.068C292.41 299.037 291.859 297.459 291.859 295.334ZM295.41 293.893H299.418C299.387 293.143 299.195 292.572 298.844 292.182C298.5 291.783 298.027 291.584 297.426 291.584C296.785 291.584 296.309 291.799 295.996 292.229C295.684 292.65 295.488 293.205 295.41 293.893Z" fill="#1F2229"/>
<path d="M110.48 527.568V524.381H123.078V527.568H118.543V542.381H115.016V527.568H110.48ZM124.941 542.381V530.193H128.328V533.697H129.523C130.484 533.697 131.305 533.807 131.984 534.025C132.664 534.236 133.227 534.529 133.672 534.904C134.125 535.279 134.453 535.729 134.656 536.252C134.867 536.768 134.973 537.33 134.973 537.939C134.973 538.564 134.867 539.15 134.656 539.697C134.453 540.236 134.125 540.705 133.672 541.104C133.227 541.494 132.664 541.807 131.984 542.041C131.305 542.268 130.484 542.381 129.523 542.381H124.941ZM128.328 539.697H129.453C130.172 539.697 130.688 539.537 131 539.217C131.312 538.896 131.469 538.502 131.469 538.033C131.469 537.557 131.312 537.166 131 536.861C130.688 536.557 130.172 536.404 129.453 536.404H128.328V539.697ZM136.004 542.381V530.193H139.391V542.381H136.004ZM148.098 542.381V530.193H151.484V534.623H155.34V530.193H158.727V542.381H155.34V537.6H151.484V542.381H148.098ZM161.094 539.111C161.094 538.439 161.219 537.854 161.469 537.354C161.719 536.846 162.121 536.416 162.676 536.064C163.238 535.713 163.961 535.451 164.844 535.279C165.734 535.1 166.828 535.01 168.125 535.01V534.482C168.125 533.951 167.949 533.545 167.598 533.264C167.246 532.975 166.703 532.83 165.969 532.83C165.234 532.83 164.535 532.912 163.871 533.076C163.207 533.232 162.57 533.494 161.961 533.861V530.861C162.555 530.541 163.219 530.311 163.953 530.17C164.688 530.021 165.461 529.947 166.273 529.947C168.062 529.947 169.383 530.342 170.234 531.131C171.086 531.912 171.512 533.053 171.512 534.553V542.381H168.242V540.482H168.078C167.922 540.771 167.746 541.049 167.551 541.314C167.355 541.58 167.117 541.811 166.836 542.006C166.562 542.193 166.238 542.342 165.863 542.451C165.496 542.561 165.066 542.615 164.574 542.615C163.473 542.615 162.617 542.299 162.008 541.666C161.398 541.025 161.094 540.174 161.094 539.111ZM164.504 538.467C164.504 538.85 164.637 539.166 164.902 539.416C165.168 539.666 165.531 539.791 165.992 539.791C166.25 539.791 166.504 539.744 166.754 539.65C167.012 539.549 167.242 539.396 167.445 539.193C167.656 538.982 167.82 538.725 167.938 538.42C168.062 538.115 168.125 537.756 168.125 537.342V536.908C166.922 536.908 166.016 537.021 165.406 537.248C164.805 537.467 164.504 537.873 164.504 538.467ZM180.09 542.381V530.193H183.477V534.623H187.332V530.193H190.719V542.381H187.332V537.6H183.477V542.381H180.09ZM192.852 536.334C192.852 535.326 193 534.432 193.297 533.65C193.602 532.861 194.02 532.193 194.551 531.646C195.082 531.092 195.707 530.67 196.426 530.381C197.145 530.092 197.918 529.947 198.746 529.947C199.574 529.947 200.348 530.092 201.066 530.381C201.793 530.67 202.422 531.088 202.953 531.635C203.492 532.174 203.914 532.838 204.219 533.627C204.523 534.408 204.676 535.303 204.676 536.311C204.676 537.318 204.523 538.213 204.219 538.994C203.914 539.768 203.496 540.428 202.965 540.975C202.441 541.514 201.812 541.924 201.078 542.205C200.352 542.479 199.574 542.615 198.746 542.615C197.918 542.615 197.145 542.479 196.426 542.205C195.707 541.924 195.082 541.518 194.551 540.986C194.02 540.447 193.602 539.791 193.297 539.018C193 538.236 192.852 537.342 192.852 536.334ZM196.379 536.334C196.379 537.506 196.605 538.334 197.059 538.818C197.512 539.303 198.074 539.545 198.746 539.545C199.082 539.545 199.398 539.486 199.695 539.369C199.992 539.252 200.246 539.064 200.457 538.807C200.676 538.549 200.848 538.217 200.973 537.811C201.105 537.404 201.172 536.904 201.172 536.311C201.172 535.717 201.105 535.213 200.973 534.799C200.848 534.385 200.672 534.045 200.445 533.779C200.227 533.514 199.973 533.322 199.684 533.205C199.395 533.08 199.082 533.018 198.746 533.018C198.074 533.018 197.512 533.271 197.059 533.779C196.605 534.279 196.379 535.131 196.379 536.334ZM206.832 542.381V530.193H211.484C212.445 530.193 213.254 530.271 213.91 530.428C214.566 530.576 215.098 530.787 215.504 531.061C215.91 531.326 216.199 531.65 216.371 532.033C216.551 532.416 216.641 532.842 216.641 533.311C216.641 534.045 216.441 534.627 216.043 535.057C215.645 535.479 215.109 535.76 214.438 535.9V536.064C215.266 536.189 215.914 536.498 216.383 536.99C216.859 537.482 217.098 538.119 217.098 538.9C217.098 539.377 217.016 539.826 216.852 540.248C216.695 540.662 216.426 541.029 216.043 541.35C215.66 541.67 215.145 541.924 214.496 542.111C213.848 542.291 213.043 542.381 212.082 542.381H206.832ZM210.219 540.025H211.777C212.34 540.025 212.781 539.912 213.102 539.686C213.43 539.451 213.594 539.119 213.594 538.689C213.594 538.229 213.43 537.885 213.102 537.658C212.773 537.432 212.332 537.318 211.777 537.318H210.219V540.025ZM210.219 534.986H211.391C212 534.986 212.438 534.869 212.703 534.635C212.977 534.393 213.113 534.088 213.113 533.721C213.113 533.354 212.965 533.068 212.668 532.865C212.379 532.662 211.953 532.561 211.391 532.561H210.219V534.986ZM218.703 536.334C218.703 535.326 218.852 534.432 219.148 533.65C219.453 532.861 219.871 532.193 220.402 531.646C220.934 531.092 221.559 530.67 222.277 530.381C222.996 530.092 223.77 529.947 224.598 529.947C225.426 529.947 226.199 530.092 226.918 530.381C227.645 530.67 228.273 531.088 228.805 531.635C229.344 532.174 229.766 532.838 230.07 533.627C230.375 534.408 230.527 535.303 230.527 536.311C230.527 537.318 230.375 538.213 230.07 538.994C229.766 539.768 229.348 540.428 228.816 540.975C228.293 541.514 227.664 541.924 226.93 542.205C226.203 542.479 225.426 542.615 224.598 542.615C223.77 542.615 222.996 542.479 222.277 542.205C221.559 541.924 220.934 541.518 220.402 540.986C219.871 540.447 219.453 539.791 219.148 539.018C218.852 538.236 218.703 537.342 218.703 536.334ZM222.23 536.334C222.23 537.506 222.457 538.334 222.91 538.818C223.363 539.303 223.926 539.545 224.598 539.545C224.934 539.545 225.25 539.486 225.547 539.369C225.844 539.252 226.098 539.064 226.309 538.807C226.527 538.549 226.699 538.217 226.824 537.811C226.957 537.404 227.023 536.904 227.023 536.311C227.023 535.717 226.957 535.213 226.824 534.799C226.699 534.385 226.523 534.045 226.297 533.779C226.078 533.514 225.824 533.322 225.535 533.205C225.246 533.08 224.934 533.018 224.598 533.018C223.926 533.018 223.363 533.271 222.91 533.779C222.457 534.279 222.23 535.131 222.23 536.334ZM232.684 542.381V530.193H236.07V537.049H236.258L240.195 530.193H243.312V542.381H239.926V535.49H239.762L235.777 542.381H232.684ZM233.668 524.908H236.621C236.621 525.369 236.707 525.736 236.879 526.01C237.059 526.283 237.402 526.42 237.91 526.42C238.387 526.42 238.723 526.283 238.918 526.01C239.113 525.736 239.211 525.369 239.211 524.908H242.164C242.164 525.721 242.039 526.393 241.789 526.924C241.539 527.455 241.215 527.877 240.816 528.189C240.418 528.502 239.965 528.717 239.457 528.834C238.957 528.951 238.441 529.01 237.91 529.01C237.379 529.01 236.863 528.951 236.363 528.834C235.863 528.717 235.41 528.502 235.004 528.189C234.605 527.877 234.281 527.459 234.031 526.936C233.789 526.404 233.668 525.729 233.668 524.908ZM111.371 568.381V556.193H121.766V568.381H118.379V559.17H114.758V568.381H111.371ZM123.898 562.334C123.898 561.326 124.047 560.432 124.344 559.65C124.648 558.861 125.066 558.193 125.598 557.646C126.129 557.092 126.754 556.67 127.473 556.381C128.191 556.092 128.965 555.947 129.793 555.947C130.621 555.947 131.395 556.092 132.113 556.381C132.84 556.67 133.469 557.088 134 557.635C134.539 558.174 134.961 558.838 135.266 559.627C135.57 560.408 135.723 561.303 135.723 562.311C135.723 563.318 135.57 564.213 135.266 564.994C134.961 565.768 134.543 566.428 134.012 566.975C133.488 567.514 132.859 567.924 132.125 568.205C131.398 568.479 130.621 568.615 129.793 568.615C128.965 568.615 128.191 568.479 127.473 568.205C126.754 567.924 126.129 567.518 125.598 566.986C125.066 566.447 124.648 565.791 124.344 565.018C124.047 564.236 123.898 563.342 123.898 562.334ZM127.426 562.334C127.426 563.506 127.652 564.334 128.105 564.818C128.559 565.303 129.121 565.545 129.793 565.545C130.129 565.545 130.445 565.486 130.742 565.369C131.039 565.252 131.293 565.064 131.504 564.807C131.723 564.549 131.895 564.217 132.02 563.811C132.152 563.404 132.219 562.904 132.219 562.311C132.219 561.717 132.152 561.213 132.02 560.799C131.895 560.385 131.719 560.045 131.492 559.779C131.273 559.514 131.02 559.322 130.73 559.205C130.441 559.08 130.129 559.018 129.793 559.018C129.121 559.018 128.559 559.271 128.105 559.779C127.652 560.279 127.426 561.131 127.426 562.334ZM137.469 567.783V564.854C138.641 565.572 139.855 565.932 141.113 565.932C142.332 565.932 142.941 565.51 142.941 564.666C142.941 564.252 142.789 563.951 142.484 563.764C142.18 563.576 141.762 563.482 141.23 563.482H139.238V560.869H141.066C141.559 560.869 141.918 560.775 142.145 560.588C142.371 560.393 142.484 560.135 142.484 559.814C142.484 559.4 142.332 559.107 142.027 558.936C141.723 558.756 141.289 558.666 140.727 558.666C140.148 558.666 139.617 558.732 139.133 558.865C138.648 558.998 138.148 559.225 137.633 559.545V556.65C138.125 556.424 138.688 556.252 139.32 556.135C139.961 556.01 140.598 555.947 141.23 555.947C142.059 555.947 142.762 556.029 143.34 556.193C143.918 556.35 144.391 556.568 144.758 556.85C145.133 557.131 145.402 557.463 145.566 557.846C145.738 558.229 145.824 558.643 145.824 559.088C145.824 559.697 145.68 560.248 145.391 560.74C145.102 561.225 144.574 561.596 143.809 561.854V562.018C144.621 562.213 145.234 562.572 145.648 563.096C146.07 563.611 146.281 564.268 146.281 565.064C146.281 565.51 146.203 565.947 146.047 566.377C145.898 566.799 145.637 567.178 145.262 567.514C144.895 567.85 144.398 568.119 143.773 568.322C143.156 568.518 142.375 568.615 141.43 568.615C141.109 568.615 140.773 568.6 140.422 568.568C140.07 568.537 139.723 568.49 139.379 568.428C139.035 568.365 138.695 568.283 138.359 568.182C138.023 568.072 137.727 567.939 137.469 567.783ZM148.543 568.381V556.193H151.93V563.049H152.117L156.055 556.193H159.172V568.381H155.785V561.49H155.621L151.637 568.381H148.543ZM161.902 568.381V556.193H165.289V565.404H168.934V556.193H172.344V565.404H174.207V571.744H171.184L170.949 568.381H161.902ZM175.848 568.381V556.193H179.234V563.049H179.422L183.359 556.193H186.477V568.381H183.09V561.49H182.926L178.941 568.381H175.848ZM189.207 568.381V556.193H192.594V563.049H192.781L196.719 556.193H199.836V568.381H196.449V561.49H196.285L192.301 568.381H189.207ZM202.777 566.623C202.777 566.045 202.973 565.553 203.363 565.146C203.762 564.74 204.254 564.537 204.84 564.537C205.113 564.537 205.379 564.596 205.637 564.713C205.895 564.822 206.117 564.971 206.305 565.158C206.5 565.338 206.652 565.557 206.762 565.814C206.871 566.072 206.926 566.342 206.926 566.623C206.926 566.912 206.871 567.186 206.762 567.443C206.652 567.701 206.5 567.924 206.305 568.111C206.117 568.291 205.895 568.436 205.637 568.545C205.379 568.662 205.113 568.721 204.84 568.721C204.246 568.721 203.754 568.518 203.363 568.111C202.973 567.697 202.777 567.201 202.777 566.623ZM202.801 550.381H206.809L206.117 562.357H203.48L202.801 550.381Z" fill="#1F2229"/>
<path d="M150.488 70.3809H20C13.3726 70.3809 8 75.7534 8 82.3809V203.88C8 210.508 13.3726 215.88 20 215.88H311C317.627 215.88 323 221.253 323 227.88V341.381C323 348.008 317.627 353.381 311 353.381H20C13.3726 353.381 8 358.753 8 365.381V471.381C8 478.008 13.3726 483.381 20 483.381H311C317.627 483.381 323 488.753 323 495.381V549.381" stroke="#1F2229" stroke-dasharray="6 6"/>
<path d="M56.3654 519.987C56.5723 519.987 58.0204 519.987 58.1643 520.04C73.6795 525.109 76.5576 540.42 71.6018 554.767C66.8258 568.586 54.5666 577.641 40.7693 572.483C42.2497 573.488 43.8591 574.291 45.5543 574.87C58.0833 579.152 72.4292 570.562 77.529 555.697C82.6288 540.832 76.6836 525.305 64.1635 521.05C61.6584 520.195 59.0096 519.834 56.3654 519.987Z" fill="#BE88F8"/>
<path d="M54.4772 520.092C70.6789 520.092 77.3342 538.733 72.273 553.665C66.6848 570.152 53.5029 576.704 40.9267 572.494M49.764 520.944C41.9114 523.69 34.9778 530.654 31.7653 540.132C27.6285 552.337 30.943 564.934 39.1592 571.427" stroke="black" stroke-width="1.00245" stroke-linejoin="round"/>
<path d="M64.6444 551.958C67.8933 542.56 64.7954 532.984 57.725 530.57C50.6546 528.156 42.2892 533.818 39.0404 543.216C35.7915 552.615 38.8894 562.19 45.9597 564.604C53.0301 567.018 61.3955 561.356 64.6444 551.958Z" fill="#BE88F8"/>
<path d="M57.5318 548.676C59.1893 543.881 57.6081 538.995 54.0002 537.764C50.3922 536.532 46.1236 539.42 44.4661 544.215C42.8085 549.01 44.3897 553.896 47.9977 555.127C51.6057 556.359 55.8743 553.471 57.5318 548.676Z" fill="white"/>
<path d="M50.9987 547.183L44.8196 541.847" stroke="black" stroke-linecap="round" stroke-linejoin="round"/>
<path d="M37.7053 539.764C37.9392 540.116 38.164 540.464 38.3799 540.81C38.9001 541.762 39.6475 542.572 40.5565 543.17C40.9415 543.412 41.3737 543.57 41.8247 543.634C42.3044 543.708 42.7939 543.687 43.2653 543.572C43.7367 543.457 44.1807 543.251 44.5717 542.966C44.9628 542.68 45.2933 542.32 45.5442 541.907C45.7951 541.495 45.9616 541.036 46.034 540.56C46.1709 539.504 45.8832 538.438 45.2336 537.592C44.5105 537.034 43.7435 536.535 42.94 536.099C42.3644 535.786 41.9147 535.554 41.5369 535.366" fill="black"/>
<path d="M37.7053 539.764C37.9392 540.116 38.164 540.464 38.3799 540.81C38.9001 541.762 39.6475 542.572 40.5565 543.17C40.9415 543.412 41.3737 543.57 41.8247 543.634C42.3044 543.708 42.7939 543.687 43.2653 543.572C43.7367 543.457 44.1807 543.251 44.5717 542.966C44.9628 542.68 45.2933 542.32 45.5442 541.907C45.7951 541.495 45.9616 541.036 46.034 540.56C46.1709 539.504 45.8832 538.438 45.2336 537.592C44.5105 537.034 43.7435 536.535 42.94 536.099C42.3644 535.786 41.9147 535.554 41.5369 535.366" stroke="black" stroke-linecap="round" stroke-linejoin="round"/>
<path d="M39.226 530.986C38.9166 530.723 38.5922 530.479 38.2546 530.253C35.8441 528.608 33.1728 527.285 30.6544 525.784L17.8915 518.418C17.2119 518.144 16.5757 517.774 16.0027 517.319L21.6241 524.211L30.5015 535.125C31.9676 536.912 33.2987 539.353 35.8171 539.737C36.4491 539.834 37.094 539.805 37.715 539.654C38.336 539.503 38.9209 539.231 39.4363 538.855C39.9517 538.479 40.3874 538.006 40.7186 537.462C41.0499 536.919 41.2701 536.316 41.3666 535.688C41.6365 533.73 40.6111 532.166 39.226 530.986Z" fill="white" stroke="black" stroke-linecap="round" stroke-linejoin="round"/>
<path d="M17.8925 518.419C17.8925 518.419 11.2097 511.151 18.1264 507.478C25.043 503.804 25.1419 522.53 25.1419 522.53" stroke="black" stroke-linejoin="round"/>
<path d="M17.0377 518.722C17.0377 518.722 7.98947 515.665 8.21433 523.174C8.43919 530.682 23.0279 525.793 23.0279 525.793" stroke="black" stroke-linejoin="round"/>
<path d="M11.218 518.231C11.218 518.231 5.82137 515.486 9.00535 513.529C12.1893 511.571 16.6235 516.711 16.6235 516.711" stroke="black" stroke-linejoin="round"/>
<path d="M166 78.3818C169.866 78.3818 173 75.2478 173 71.3818C173 67.5158 169.866 64.3818 166 64.3818C162.134 64.3818 159 67.5158 159 71.3818C159 75.2478 162.134 78.3818 166 78.3818Z" fill="white" stroke="black" stroke-width="2" stroke-miterlimit="10" stroke-linecap="round"/>
<path d="M8 147.381C11.866 147.381 15 144.247 15 140.381C15 136.515 11.866 133.381 8 133.381C4.13401 133.381 1 136.515 1 140.381C1 144.247 4.13401 147.381 8 147.381Z" fill="white" stroke="black" stroke-width="2" stroke-miterlimit="10" stroke-linecap="round"/>
<path d="M323 295.381C326.866 295.381 330 292.247 330 288.381C330 284.515 326.866 281.381 323 281.381C319.134 281.381 316 284.515 316 288.381C316 292.247 319.134 295.381 323 295.381Z" fill="white" stroke="black" stroke-width="2" stroke-miterlimit="10" stroke-linecap="round"/>
<path d="M9.4 428.182C12.9346 428.182 15.8 425.316 15.8 421.782C15.8 418.247 12.9346 415.382 9.4 415.382C5.86538 415.382 3 418.247 3 421.782C3 425.316 5.86538 428.182 9.4 428.182Z" fill="white" stroke="black" stroke-width="2" stroke-miterlimit="10" stroke-linecap="round"/>
<path d="M323 557.381C326.866 557.381 330 554.247 330 550.381C330 546.515 326.866 543.381 323 543.381C319.134 543.381 316 546.515 316 550.381C316 554.247 319.134 557.381 323 557.381Z" fill="white" stroke="black" stroke-width="2" stroke-miterlimit="10" stroke-linecap="round"/>
<path d="M78.3247 452.652L102.844 439.054L104.245 439.773L110.553 436.09V434.937L134.135 421.101V419.466L130.869 417.167V419.031L78.3247 448.267L38.2438 425.7V420.374L32.3281 423.835V425.7L78.3247 452.652Z" fill="#C882FF"/>
<path d="M78.6041 451.127H78.2038L32.1992 424.159V423.48L37.9068 420.051L38.323 420.722L33.1838 423.812L78.4119 450.329L102.731 436.841L103.107 436.833L104.308 437.426L110.232 433.965V433.041L110.424 432.701L133.454 419.197L130.396 417.254L130.829 416.59L134.431 418.873L134.423 419.545L111.032 433.262V434.194L110.832 434.526L104.532 438.216L104.148 438.232L102.939 437.631L78.6041 451.127Z" fill="black"/>
<path d="M78.9892 453H78.629L32.2001 425.795L32 425.455V423.654H32.8005V425.234L78.7971 452.202L103.116 438.714H103.492L104.693 439.307L110.233 436.059V434.044H111.033V436.28L110.833 436.62L104.917 440.097H104.533L103.324 439.496L78.9892 453ZM112.122 434.732L111.714 434.052L134.2 420.849V419.269H135V421.07L134.808 421.41L112.122 434.732Z" fill="black"/>
<path d="M79.6211 432.74L79.365 432.685L40.1406 409.17L40.3087 408.443L65.0601 405.678L65.3082 405.725L105.701 429.011L105.549 429.738L79.6211 432.74ZM41.5495 409.099L79.6612 431.934L104.244 429.098L65.0201 406.476L41.5495 409.099Z" fill="black"/>
<path d="M105.525 429.92L64.8922 406.413L64.7721 406.31L50.5312 387.623L51.0596 387.046L90.284 410.095L90.396 410.182L106.038 429.319L105.525 429.92ZM65.3645 405.797L104.036 428.166L89.8117 410.782L52.3964 388.801L65.3645 405.797Z" fill="black"/>
<path d="M106.024 430.054L105.248 429.872L112.516 400.036L73.5241 376.948L68.4249 396.18L67.6484 395.983L72.8837 376.237L73.4761 376L113.173 399.507L113.357 399.941L106.024 430.054Z" fill="black"/>
<path d="M105.767 430.14L105.166 429.619L126.363 405.709L87.2031 382.929L87.6114 382.25L127.18 405.266L127.284 405.867L105.767 430.14Z" fill="black"/>
<path d="M78.2048 448.828L38.0439 426.008L37.8438 425.66V419.442L38.0599 419.086L48.9226 413.603L49.2909 414.306L38.6442 419.679V425.431L78.4049 448.022L105.158 432.701L130.077 418.747V412.994L124.105 409.929L124.474 409.225L130.669 412.402L130.878 412.757V418.976L130.677 419.323L105.558 433.38L78.6131 448.82L78.2048 448.828Z" fill="black"/>
<path d="M69.8539 411.64L54.2051 413.748L54.3133 414.531L69.9621 412.423L69.8539 411.64Z" fill="black"/>
<path d="M128.949 412.871L105.176 429.46L105.638 430.106L129.411 413.516L128.949 412.871Z" fill="black"/>
<path d="M78.3465 442.846L77.9703 442.83L37.6973 419.584L38.0975 418.896L78.1864 442.04L105.684 429.05L106.028 429.769L78.3465 442.846Z" fill="black"/>
<path d="M73.3399 413.815L58.0664 416.004L58.1814 416.786L73.4549 414.597L73.3399 413.815Z" fill="black"/>
<path d="M84.1387 419.33L68.8652 421.519L68.9802 422.301L84.2537 420.112L84.1387 419.33Z" fill="black"/>
<path d="M87.8809 422.098L72.6074 424.286L72.7224 425.068L87.9959 422.88L87.8809 422.098Z" fill="black"/>
<path d="M79.0716 384.839L74.8789 399.196L75.6481 399.415L79.8408 385.058L79.0716 384.839Z" fill="black"/>
<path d="M82.806 386.679L78.6133 401.036L79.3825 401.254L83.5752 386.897L82.806 386.679Z" fill="black"/>
<path d="M78.6853 442.325H77.8848V446.915H78.6853V442.325Z" fill="black"/>
<path d="M160.891 406C160.891 404.594 161.051 403.324 161.371 402.191C161.691 401.051 162.156 400.082 162.766 399.285C163.383 398.48 164.141 397.859 165.039 397.422C165.938 396.984 166.969 396.766 168.133 396.766C169.32 396.766 170.367 396.98 171.273 397.41C172.188 397.84 172.953 398.461 173.57 399.273C174.188 400.078 174.652 401.051 174.965 402.191C175.277 403.324 175.434 404.586 175.434 405.977C175.434 407.383 175.273 408.656 174.953 409.797C174.633 410.93 174.164 411.902 173.547 412.715C172.93 413.52 172.168 414.141 171.262 414.578C170.363 415.016 169.32 415.234 168.133 415.234C166.961 415.234 165.926 415.016 165.027 414.578C164.137 414.141 163.383 413.52 162.766 412.715C162.156 411.902 161.691 410.93 161.371 409.797C161.051 408.656 160.891 407.391 160.891 406ZM164.535 406C164.535 408.047 164.84 409.582 165.449 410.605C166.066 411.629 166.961 412.141 168.133 412.141C170.562 412.141 171.781 410.086 171.789 405.977C171.789 403.945 171.484 402.418 170.875 401.395C170.266 400.371 169.352 399.859 168.133 399.859C166.961 399.859 166.066 400.371 165.449 401.395C164.84 402.418 164.535 403.953 164.535 406ZM177.086 407.441C177.086 405.684 177.227 404.18 177.508 402.93C177.797 401.68 178.254 400.648 178.879 399.836C179.504 399.016 180.305 398.395 181.281 397.973C182.258 397.551 183.426 397.273 184.785 397.141C185.441 397.094 186.098 397.039 186.754 396.977C187.41 396.914 187.898 396.844 188.219 396.766V400.047C187.898 400.125 187.434 400.191 186.824 400.246C186.215 400.293 185.598 400.355 184.973 400.434C184.105 400.512 183.371 400.652 182.77 400.855C182.176 401.051 181.691 401.336 181.316 401.711C180.941 402.078 180.66 402.555 180.473 403.141C180.293 403.719 180.18 404.441 180.133 405.309H180.297C180.391 405.051 180.531 404.781 180.719 404.5C180.914 404.219 181.168 403.965 181.48 403.738C181.793 403.504 182.168 403.316 182.605 403.176C183.051 403.027 183.57 402.953 184.164 402.953C184.883 402.953 185.551 403.102 186.168 403.398C186.785 403.695 187.312 404.109 187.75 404.641C188.188 405.164 188.531 405.797 188.781 406.539C189.031 407.281 189.156 408.109 189.156 409.023C189.156 409.953 189.008 410.801 188.711 411.566C188.414 412.332 188 412.988 187.469 413.535C186.945 414.082 186.316 414.504 185.582 414.801C184.848 415.09 184.031 415.234 183.133 415.234C182.32 415.234 181.543 415.117 180.801 414.883C180.066 414.641 179.422 414.223 178.867 413.629C178.312 413.035 177.875 412.238 177.555 411.238C177.242 410.238 177.086 408.973 177.086 407.441ZM180.637 409.047C180.637 410.117 180.867 410.906 181.328 411.414C181.797 411.914 182.398 412.164 183.133 412.164C183.852 412.164 184.449 411.91 184.926 411.402C185.41 410.887 185.652 410.094 185.652 409.023C185.652 407.953 185.41 407.184 184.926 406.715C184.449 406.238 183.852 406 183.133 406C182.398 406 181.797 406.242 181.328 406.727C180.867 407.203 180.637 407.977 180.637 409.047ZM189.859 402.812H193.41L195.977 410.395H196.141L198.566 402.812H201.789L195.613 421H192.402L194.371 415.188L189.859 402.812ZM202.562 406.117V402.812H205.938V405.977C205.938 406.695 206.086 407.207 206.383 407.512C206.68 407.816 207.133 407.969 207.742 407.969C207.984 407.969 208.246 407.941 208.527 407.887C208.816 407.832 209.098 407.738 209.371 407.605V402.812H212.781V415H209.371V410.559C209.098 410.668 208.773 410.766 208.398 410.852C208.023 410.93 207.59 410.969 207.098 410.969C205.512 410.969 204.359 410.551 203.641 409.715C202.922 408.871 202.562 407.672 202.562 406.117ZM215.512 415V402.812H218.898V409.668H219.086L223.023 402.812H226.141V415H222.754V408.109H222.59L218.605 415H215.512ZM228.273 408.953C228.273 407.961 228.418 407.074 228.707 406.293C229.004 405.504 229.414 404.836 229.938 404.289C230.469 403.734 231.102 403.309 231.836 403.012C232.578 402.715 233.391 402.566 234.273 402.566C234.883 402.566 235.422 402.613 235.891 402.707C236.359 402.793 236.793 402.945 237.191 403.164V406.434C236.824 406.176 236.422 405.996 235.984 405.895C235.547 405.785 235.109 405.73 234.672 405.73C233.805 405.73 233.109 405.992 232.586 406.516C232.062 407.039 231.801 407.852 231.801 408.953C231.801 410.055 232.066 410.855 232.598 411.355C233.137 411.848 233.852 412.094 234.742 412.094C235.188 412.094 235.641 412.035 236.102 411.918C236.562 411.793 236.953 411.598 237.273 411.332V414.637C237.047 414.793 236.664 414.93 236.125 415.047C235.594 415.172 235.008 415.234 234.367 415.234C232.414 415.234 230.91 414.688 229.855 413.594C228.801 412.5 228.273 410.953 228.273 408.953ZM239.488 415V402.812H242.875V406.316H244.07C245.031 406.316 245.852 406.426 246.531 406.645C247.211 406.855 247.773 407.148 248.219 407.523C248.672 407.898 249 408.348 249.203 408.871C249.414 409.387 249.52 409.949 249.52 410.559C249.52 411.184 249.414 411.77 249.203 412.316C249 412.855 248.672 413.324 248.219 413.723C247.773 414.113 247.211 414.426 246.531 414.66C245.852 414.887 245.031 415 244.07 415H239.488ZM242.875 412.316H244C244.719 412.316 245.234 412.156 245.547 411.836C245.859 411.516 246.016 411.121 246.016 410.652C246.016 410.176 245.859 409.785 245.547 409.48C245.234 409.176 244.719 409.023 244 409.023H242.875V412.316ZM256.867 409.504V407.078H270.168V409.504H256.867ZM161.371 441V428.812H166.234L168.707 436.828H168.883L171.332 428.812H176.195V441H172.797V432.527H172.551L169.938 441H167.102L164.488 432.527H164.242V441H161.371ZM179.02 441V428.812H182.406V432.316H183.602C184.562 432.316 185.383 432.426 186.062 432.645C186.742 432.855 187.305 433.148 187.75 433.523C188.203 433.898 188.531 434.348 188.734 434.871C188.945 435.387 189.051 435.949 189.051 436.559C189.051 437.184 188.945 437.77 188.734 438.316C188.531 438.855 188.203 439.324 187.75 439.723C187.305 440.113 186.742 440.426 186.062 440.66C185.383 440.887 184.562 441 183.602 441H179.02ZM182.406 438.316H183.531C184.25 438.316 184.766 438.156 185.078 437.836C185.391 437.516 185.547 437.121 185.547 436.652C185.547 436.176 185.391 435.785 185.078 435.48C184.766 435.176 184.25 435.023 183.531 435.023H182.406V438.316ZM190.082 441V428.812H193.469V441H190.082ZM202.176 441V428.812H212.57V441H209.184V431.789H205.562V441H202.176ZM214.703 434.953C214.703 433.945 214.852 433.051 215.148 432.27C215.453 431.48 215.871 430.812 216.402 430.266C216.934 429.711 217.559 429.289 218.277 429C218.996 428.711 219.77 428.566 220.598 428.566C221.426 428.566 222.199 428.711 222.918 429C223.645 429.289 224.273 429.707 224.805 430.254C225.344 430.793 225.766 431.457 226.07 432.246C226.375 433.027 226.527 433.922 226.527 434.93C226.527 435.938 226.375 436.832 226.07 437.613C225.766 438.387 225.348 439.047 224.816 439.594C224.293 440.133 223.664 440.543 222.93 440.824C222.203 441.098 221.426 441.234 220.598 441.234C219.77 441.234 218.996 441.098 218.277 440.824C217.559 440.543 216.934 440.137 216.402 439.605C215.871 439.066 215.453 438.41 215.148 437.637C214.852 436.855 214.703 435.961 214.703 434.953ZM218.23 434.953C218.23 436.125 218.457 436.953 218.91 437.438C219.363 437.922 219.926 438.164 220.598 438.164C220.934 438.164 221.25 438.105 221.547 437.988C221.844 437.871 222.098 437.684 222.309 437.426C222.527 437.168 222.699 436.836 222.824 436.43C222.957 436.023 223.023 435.523 223.023 434.93C223.023 434.336 222.957 433.832 222.824 433.418C222.699 433.004 222.523 432.664 222.297 432.398C222.078 432.133 221.824 431.941 221.535 431.824C221.246 431.699 220.934 431.637 220.598 431.637C219.926 431.637 219.363 431.891 218.91 432.398C218.457 432.898 218.23 433.75 218.23 434.953ZM228.684 441V428.812H233.547L236.02 436.828H236.195L238.645 428.812H243.508V441H240.109V432.527H239.863L237.25 441H234.414L231.801 432.527H231.555V441H228.684ZM245.734 434.953C245.734 433.945 245.883 433.051 246.18 432.27C246.484 431.48 246.902 430.812 247.434 430.266C247.965 429.711 248.59 429.289 249.309 429C250.027 428.711 250.801 428.566 251.629 428.566C252.457 428.566 253.23 428.711 253.949 429C254.676 429.289 255.305 429.707 255.836 430.254C256.375 430.793 256.797 431.457 257.102 432.246C257.406 433.027 257.559 433.922 257.559 434.93C257.559 435.938 257.406 436.832 257.102 437.613C256.797 438.387 256.379 439.047 255.848 439.594C255.324 440.133 254.695 440.543 253.961 440.824C253.234 441.098 252.457 441.234 251.629 441.234C250.801 441.234 250.027 441.098 249.309 440.824C248.59 440.543 247.965 440.137 247.434 439.605C246.902 439.066 246.484 438.41 246.18 437.637C245.883 436.855 245.734 435.961 245.734 434.953ZM249.262 434.953C249.262 436.125 249.488 436.953 249.941 437.438C250.395 437.922 250.957 438.164 251.629 438.164C251.965 438.164 252.281 438.105 252.578 437.988C252.875 437.871 253.129 437.684 253.34 437.426C253.559 437.168 253.73 436.836 253.855 436.43C253.988 436.023 254.055 435.523 254.055 434.93C254.055 434.336 253.988 433.832 253.855 433.418C253.73 433.004 253.555 432.664 253.328 432.398C253.109 432.133 252.855 431.941 252.566 431.824C252.277 431.699 251.965 431.637 251.629 431.637C250.957 431.637 250.395 431.891 249.941 432.398C249.488 432.898 249.262 433.75 249.262 434.953ZM258.484 441L262.516 434.449L258.613 428.812H261.965L265.445 433.781L265.926 433.898V428.812H269.312V433.922L269.746 433.805L273.227 428.812H276.555L272.746 434.332L276.754 441H272.77L269.84 436.277L269.312 436.418V441H265.926V436.418L265.375 436.242L262.352 441H258.484ZM277.68 434.953C277.68 433.961 277.809 433.074 278.066 432.293C278.332 431.504 278.707 430.836 279.191 430.289C279.684 429.734 280.281 429.309 280.984 429.012C281.688 428.715 282.473 428.566 283.34 428.566C284.09 428.566 284.781 428.672 285.414 428.883C286.047 429.086 286.59 429.398 287.043 429.82C287.504 430.234 287.855 430.754 288.098 431.379C288.348 432.004 288.473 432.738 288.473 433.582C288.473 434.012 288.445 434.406 288.391 434.766C288.336 435.117 288.285 435.371 288.238 435.527H281.371C281.434 436.441 281.699 437.137 282.168 437.613C282.645 438.082 283.355 438.316 284.301 438.316C284.973 438.316 285.625 438.25 286.258 438.117C286.891 437.977 287.461 437.746 287.969 437.426V440.332C287.555 440.605 286.996 440.824 286.293 440.988C285.598 441.152 284.836 441.234 284.008 441.234C281.992 441.234 280.434 440.719 279.332 439.688C278.23 438.656 277.68 437.078 277.68 434.953ZM281.23 433.512H285.238C285.207 432.762 285.016 432.191 284.664 431.801C284.32 431.402 283.848 431.203 283.246 431.203C282.605 431.203 282.129 431.418 281.816 431.848C281.504 432.27 281.309 432.824 281.23 433.512ZM290.629 441V428.812H295.492L297.965 436.828H298.141L300.59 428.812H305.453V441H302.055V432.527H301.809L299.195 441H296.359L293.746 432.527H293.5V441H290.629Z" fill="#1F2229"/>
</svg>
