<svg width="1115" height="327" viewBox="0 0 1115 327" fill="none" xmlns="http://www.w3.org/2000/svg">
<path d="M7.32666 303V288.75H17.4575V303H14.6836V291.273H10.1006V303H7.32666ZM19.3965 298.213C19.3965 297.415 19.514 296.707 19.749 296.088C19.9902 295.464 20.3211 294.935 20.7417 294.502C21.1623 294.063 21.6571 293.729 22.2261 293.5C22.7951 293.271 23.4074 293.157 24.063 293.157C24.7186 293.157 25.3309 293.271 25.8999 293.5C26.4751 293.729 26.973 294.06 27.3936 294.493C27.8203 294.919 28.1543 295.445 28.3955 296.07C28.6367 296.688 28.7573 297.396 28.7573 298.194C28.7573 298.992 28.6367 299.7 28.3955 300.319C28.1543 300.931 27.8234 301.454 27.4028 301.887C26.9884 302.313 26.4906 302.638 25.9092 302.861C25.334 303.077 24.7186 303.186 24.063 303.186C23.4074 303.186 22.7951 303.077 22.2261 302.861C21.6571 302.638 21.1623 302.317 20.7417 301.896C20.3211 301.469 19.9902 300.95 19.749 300.337C19.514 299.719 19.3965 299.011 19.3965 298.213ZM22.189 298.213C22.189 299.141 22.3683 299.796 22.7271 300.18C23.0858 300.563 23.5311 300.755 24.063 300.755C24.3289 300.755 24.5794 300.708 24.8145 300.616C25.0495 300.523 25.2505 300.375 25.4175 300.17C25.5907 299.966 25.7267 299.703 25.8257 299.382C25.9308 299.06 25.9834 298.664 25.9834 298.194C25.9834 297.724 25.9308 297.325 25.8257 296.998C25.7267 296.67 25.5876 296.401 25.4082 296.19C25.235 295.98 25.034 295.829 24.8052 295.736C24.5763 295.637 24.3289 295.587 24.063 295.587C23.5311 295.587 23.0858 295.788 22.7271 296.19C22.3683 296.586 22.189 297.26 22.189 298.213ZM29.5088 300.644H30.3252C30.6035 300.353 30.8385 299.972 31.0303 299.502C31.222 299.032 31.3735 298.485 31.4849 297.86C31.6024 297.236 31.6859 296.543 31.7354 295.782C31.7848 295.021 31.8158 294.211 31.8281 293.352H38.6934V300.644H40.1685V305.505H37.7749L37.5894 303H32.1157L31.9209 305.505H29.5088V300.644ZM32.9321 300.644H35.9937V295.727H33.999C33.999 296.042 33.9774 296.422 33.9341 296.868C33.897 297.307 33.8382 297.761 33.7578 298.231C33.6774 298.701 33.5692 299.153 33.4331 299.586C33.3032 300.013 33.1362 300.365 32.9321 300.644ZM41.1797 300.412C41.1797 299.88 41.2786 299.416 41.4766 299.02C41.6745 298.618 41.993 298.278 42.4321 298C42.8774 297.721 43.4495 297.514 44.1484 297.378C44.8535 297.236 45.7194 297.165 46.7461 297.165V296.747C46.7461 296.326 46.6069 296.005 46.3286 295.782C46.0503 295.553 45.6204 295.439 45.0391 295.439C44.4577 295.439 43.9041 295.504 43.3784 295.634C42.8527 295.757 42.3486 295.965 41.8662 296.255V293.88C42.3363 293.627 42.862 293.444 43.4434 293.333C44.0247 293.215 44.637 293.157 45.2803 293.157C46.6966 293.157 47.7419 293.469 48.416 294.094C49.0902 294.712 49.4272 295.615 49.4272 296.803V303H46.8389V301.497H46.709C46.5853 301.726 46.4461 301.945 46.2915 302.156C46.1369 302.366 45.9482 302.549 45.7256 302.703C45.5091 302.852 45.2524 302.969 44.9556 303.056C44.6649 303.142 44.3247 303.186 43.9351 303.186C43.063 303.186 42.3857 302.935 41.9033 302.434C41.4209 301.927 41.1797 301.253 41.1797 300.412ZM43.8794 299.901C43.8794 300.204 43.9845 300.455 44.1948 300.653C44.4051 300.851 44.6927 300.95 45.0576 300.95C45.2617 300.95 45.4627 300.913 45.6606 300.838C45.8647 300.758 46.0472 300.637 46.208 300.477C46.375 300.31 46.5049 300.105 46.5977 299.864C46.6966 299.623 46.7461 299.339 46.7461 299.011V298.667C45.7936 298.667 45.0762 298.757 44.5938 298.937C44.1175 299.11 43.8794 299.431 43.8794 299.901ZM51.5054 303V293.352H54.1865V298.779H54.335L57.4521 293.352H59.9199V303H57.2388V297.545H57.1089L53.9546 303H51.5054ZM52.2847 289.167H54.6226C54.6226 289.532 54.6906 289.823 54.8267 290.04C54.9689 290.256 55.241 290.364 55.6431 290.364C56.0203 290.364 56.2863 290.256 56.4409 290.04C56.5955 289.823 56.6729 289.532 56.6729 289.167H59.0107C59.0107 289.811 58.9118 290.343 58.7139 290.763C58.516 291.184 58.2593 291.518 57.9438 291.765C57.6284 292.013 57.2697 292.183 56.8677 292.275C56.4718 292.368 56.0636 292.415 55.6431 292.415C55.2225 292.415 54.8143 292.368 54.4185 292.275C54.0226 292.183 53.6639 292.013 53.3423 291.765C53.0269 291.518 52.7702 291.187 52.5723 290.772C52.3805 290.352 52.2847 289.817 52.2847 289.167ZM66.4697 302.527V300.208C67.3975 300.777 68.3592 301.061 69.355 301.061C70.3198 301.061 70.8022 300.727 70.8022 300.059C70.8022 299.731 70.6816 299.493 70.4404 299.345C70.1992 299.196 69.8683 299.122 69.4478 299.122H67.8706V297.053H69.3179C69.7075 297.053 69.992 296.979 70.1714 296.831C70.3507 296.676 70.4404 296.472 70.4404 296.218C70.4404 295.89 70.3198 295.659 70.0786 295.522C69.8374 295.38 69.4941 295.309 69.0488 295.309C68.5911 295.309 68.1706 295.362 67.7871 295.467C67.4036 295.572 67.0078 295.751 66.5996 296.005V293.713C66.9893 293.534 67.4346 293.398 67.9355 293.305C68.4427 293.206 68.9468 293.157 69.4478 293.157C70.1034 293.157 70.66 293.222 71.1177 293.352C71.5754 293.475 71.9495 293.648 72.2402 293.871C72.5371 294.094 72.7505 294.357 72.8804 294.66C73.0164 294.963 73.0845 295.291 73.0845 295.643C73.0845 296.125 72.9701 296.562 72.7412 296.951C72.5124 297.335 72.0949 297.628 71.4888 297.833V297.962C72.132 298.117 72.6175 298.402 72.9453 298.816C73.2793 299.224 73.4463 299.744 73.4463 300.375C73.4463 300.727 73.3844 301.073 73.2607 301.414C73.1432 301.748 72.936 302.048 72.6392 302.313C72.3485 302.579 71.9557 302.793 71.4609 302.954C70.9723 303.108 70.3538 303.186 69.6055 303.186C69.3519 303.186 69.0859 303.173 68.8076 303.148C68.5293 303.124 68.2541 303.087 67.9819 303.037C67.7098 302.988 67.4408 302.923 67.1748 302.842C66.9089 302.756 66.6738 302.651 66.4697 302.527ZM74.9492 300.412C74.9492 299.88 75.0482 299.416 75.2461 299.02C75.444 298.618 75.7625 298.278 76.2017 298C76.647 297.721 77.2191 297.514 77.918 297.378C78.623 297.236 79.4889 297.165 80.5156 297.165V296.747C80.5156 296.326 80.3765 296.005 80.0981 295.782C79.8198 295.553 79.39 295.439 78.8086 295.439C78.2272 295.439 77.6737 295.504 77.1479 295.634C76.6222 295.757 76.1182 295.965 75.6357 296.255V293.88C76.1058 293.627 76.6315 293.444 77.2129 293.333C77.7943 293.215 78.4066 293.157 79.0498 293.157C80.4661 293.157 81.5114 293.469 82.1855 294.094C82.8597 294.712 83.1968 295.615 83.1968 296.803V303H80.6084V301.497H80.4785C80.3548 301.726 80.2157 301.945 80.061 302.156C79.9064 302.366 79.7178 302.549 79.4951 302.703C79.2786 302.852 79.022 302.969 78.7251 303.056C78.4344 303.142 78.0942 303.186 77.7046 303.186C76.8325 303.186 76.1553 302.935 75.6729 302.434C75.1904 301.927 74.9492 301.253 74.9492 300.412ZM77.6489 299.901C77.6489 300.204 77.7541 300.455 77.9644 300.653C78.1746 300.851 78.4622 300.95 78.8271 300.95C79.0312 300.95 79.2323 300.913 79.4302 300.838C79.6343 300.758 79.8167 300.637 79.9775 300.477C80.1445 300.31 80.2744 300.105 80.3672 299.864C80.4661 299.623 80.5156 299.339 80.5156 299.011V298.667C79.5632 298.667 78.8457 298.757 78.3633 298.937C77.887 299.11 77.6489 299.431 77.6489 299.901ZM84.5884 303L87.1304 299.447C86.4562 299.23 85.9367 298.881 85.5718 298.398C85.2069 297.91 85.0244 297.298 85.0244 296.562C85.0244 296.197 85.0894 295.822 85.2192 295.439C85.3553 295.056 85.5749 294.709 85.8779 294.4C86.181 294.091 86.5768 293.84 87.0654 293.648C87.554 293.451 88.1478 293.352 88.8467 293.352H92.9658V303H90.2661V300.041H89.7373L87.5942 303H84.5884ZM87.7983 296.766C87.7983 297.106 87.9189 297.412 88.1602 297.684C88.4014 297.95 88.7694 298.083 89.2642 298.083H90.2661V295.458H89.2642C88.7694 295.458 88.4014 295.594 88.1602 295.866C87.9189 296.138 87.7983 296.438 87.7983 296.766ZM95.1274 303V293.352H98.8105C99.5713 293.352 100.211 293.413 100.731 293.537C101.25 293.655 101.671 293.822 101.993 294.038C102.314 294.248 102.543 294.505 102.679 294.808C102.821 295.111 102.893 295.448 102.893 295.819C102.893 296.401 102.735 296.861 102.419 297.202C102.104 297.536 101.68 297.758 101.148 297.87V298C101.804 298.098 102.317 298.343 102.688 298.732C103.066 299.122 103.254 299.626 103.254 300.245C103.254 300.622 103.189 300.978 103.06 301.312C102.936 301.639 102.722 301.93 102.419 302.184C102.116 302.437 101.708 302.638 101.195 302.787C100.681 302.929 100.044 303 99.2837 303H95.1274ZM97.8086 301.135H99.0425C99.4878 301.135 99.8372 301.046 100.091 300.866C100.351 300.681 100.48 300.418 100.48 300.078C100.48 299.713 100.351 299.441 100.091 299.261C99.8311 299.082 99.4816 298.992 99.0425 298.992H97.8086V301.135ZM97.8086 297.146H98.7363C99.2188 297.146 99.5651 297.053 99.7754 296.868C99.9919 296.676 100.1 296.435 100.1 296.144C100.1 295.853 99.9826 295.628 99.7476 295.467C99.5187 295.306 99.1816 295.226 98.7363 295.226H97.8086V297.146ZM104.999 303V293.352H107.68V297.239L108.19 297.146L110.788 293.352H113.432L110.472 297.684L113.645 303H110.472L108.208 299.335L107.68 299.484V303H104.999ZM113.691 293.352H116.502L118.534 299.354H118.664L120.584 293.352H123.136L118.247 307.75H115.705L117.263 303.148L113.691 293.352Z" fill="#1F2229"/>
<path d="M221.626 178V163.75H226.209C227.019 163.75 227.715 163.843 228.296 164.028C228.878 164.208 229.357 164.461 229.734 164.789C230.118 165.111 230.399 165.497 230.579 165.949C230.758 166.394 230.848 166.889 230.848 167.433C230.848 168.157 230.656 168.769 230.272 169.27C229.895 169.771 229.369 170.148 228.695 170.402V170.532C229.53 170.711 230.186 171.082 230.662 171.645C231.138 172.208 231.376 172.925 231.376 173.797C231.376 174.391 231.287 174.948 231.107 175.467C230.934 175.981 230.65 176.423 230.254 176.794C229.864 177.165 229.357 177.459 228.732 177.675C228.114 177.892 227.362 178 226.478 178H221.626ZM224.4 175.625H226.153C226.469 175.625 226.769 175.597 227.053 175.542C227.338 175.486 227.588 175.384 227.805 175.235C228.021 175.087 228.188 174.898 228.306 174.669C228.429 174.434 228.491 174.131 228.491 173.76C228.491 173.383 228.423 173.074 228.287 172.833C228.157 172.591 227.984 172.4 227.768 172.257C227.551 172.109 227.298 172.007 227.007 171.951C226.716 171.889 226.419 171.858 226.116 171.858H224.4V175.625ZM224.4 169.53H225.884C226.466 169.53 226.954 169.394 227.35 169.122C227.752 168.849 227.953 168.395 227.953 167.758C227.953 167.455 227.901 167.198 227.795 166.988C227.69 166.778 227.545 166.611 227.359 166.487C227.174 166.357 226.954 166.264 226.701 166.208C226.447 166.153 226.175 166.125 225.884 166.125H224.4V169.53ZM233.223 178V168.352H235.904V171.125H236.85C237.611 171.125 238.26 171.212 238.798 171.385C239.336 171.552 239.782 171.784 240.134 172.081C240.493 172.378 240.753 172.734 240.914 173.148C241.081 173.556 241.164 174.001 241.164 174.484C241.164 174.979 241.081 175.443 240.914 175.875C240.753 176.302 240.493 176.673 240.134 176.989C239.782 177.298 239.336 177.545 238.798 177.731C238.26 177.91 237.611 178 236.85 178H233.223ZM235.904 175.875H236.794C237.363 175.875 237.772 175.749 238.019 175.495C238.266 175.242 238.39 174.929 238.39 174.558C238.39 174.181 238.266 173.872 238.019 173.63C237.772 173.389 237.363 173.269 236.794 173.269H235.904V175.875ZM241.98 178V168.352H244.662V178H241.98ZM246.842 178V168.352H255.071V178H252.39V170.708H249.523V178H246.842ZM256.759 173.213C256.759 172.415 256.877 171.707 257.112 171.088C257.353 170.464 257.684 169.935 258.104 169.502C258.525 169.063 259.02 168.729 259.589 168.5C260.158 168.271 260.77 168.157 261.426 168.157C262.081 168.157 262.694 168.271 263.263 168.5C263.838 168.729 264.336 169.06 264.756 169.493C265.183 169.919 265.517 170.445 265.758 171.07C266 171.688 266.12 172.396 266.12 173.194C266.12 173.992 266 174.7 265.758 175.319C265.517 175.931 265.186 176.454 264.766 176.887C264.351 177.313 263.853 177.638 263.272 177.861C262.697 178.077 262.081 178.186 261.426 178.186C260.77 178.186 260.158 178.077 259.589 177.861C259.02 177.638 258.525 177.317 258.104 176.896C257.684 176.469 257.353 175.95 257.112 175.337C256.877 174.719 256.759 174.011 256.759 173.213ZM259.552 173.213C259.552 174.141 259.731 174.796 260.09 175.18C260.449 175.563 260.894 175.755 261.426 175.755C261.692 175.755 261.942 175.708 262.177 175.616C262.412 175.523 262.613 175.375 262.78 175.17C262.953 174.966 263.09 174.703 263.188 174.382C263.294 174.06 263.346 173.664 263.346 173.194C263.346 172.724 263.294 172.325 263.188 171.998C263.09 171.67 262.95 171.401 262.771 171.19C262.598 170.98 262.397 170.829 262.168 170.736C261.939 170.637 261.692 170.587 261.426 170.587C260.894 170.587 260.449 170.788 260.09 171.19C259.731 171.586 259.552 172.26 259.552 173.213ZM266.927 178.056V175.625C266.964 175.637 267.011 175.65 267.066 175.662C267.104 175.674 267.147 175.681 267.196 175.681C267.246 175.681 267.298 175.681 267.354 175.681C267.707 175.681 267.991 175.535 268.208 175.245C268.424 174.954 268.591 174.509 268.708 173.909C268.826 173.303 268.906 172.542 268.95 171.626C268.999 170.705 269.024 169.613 269.024 168.352H276.028V178H273.338V170.708H271.306C271.306 171.747 271.263 172.718 271.176 173.621C271.096 174.524 270.935 175.316 270.694 175.996C270.453 176.676 270.109 177.208 269.664 177.592C269.225 177.975 268.644 178.167 267.92 178.167C267.604 178.167 267.363 178.148 267.196 178.111C267.097 178.099 267.008 178.08 266.927 178.056ZM278.199 178V168.352H280.88V171.858H283.933V168.352H286.614V178H283.933V174.215H280.88V178H278.199ZM288.775 178V168.352H291.457V173.779H291.605L294.722 168.352H297.19V178H294.509V172.545H294.379L291.225 178H288.775ZM303.165 170.708V168.352H311.134V170.708H308.471V178H305.809V170.708H303.165ZM311.941 173.213C311.941 172.427 312.043 171.725 312.247 171.107C312.457 170.482 312.754 169.953 313.138 169.521C313.527 169.081 314 168.744 314.557 168.509C315.114 168.274 315.735 168.157 316.422 168.157C317.016 168.157 317.563 168.24 318.064 168.407C318.565 168.568 318.995 168.815 319.354 169.149C319.718 169.477 319.997 169.889 320.188 170.383C320.386 170.878 320.485 171.459 320.485 172.127C320.485 172.468 320.464 172.78 320.42 173.064C320.377 173.343 320.337 173.544 320.3 173.667H314.863C314.913 174.391 315.123 174.942 315.494 175.319C315.871 175.69 316.434 175.875 317.183 175.875C317.715 175.875 318.231 175.823 318.732 175.718C319.233 175.606 319.684 175.424 320.086 175.17V177.471C319.759 177.688 319.316 177.861 318.76 177.991C318.209 178.121 317.606 178.186 316.951 178.186C315.355 178.186 314.121 177.777 313.249 176.961C312.377 176.145 311.941 174.895 311.941 173.213ZM314.752 172.072H317.925C317.9 171.478 317.749 171.027 317.47 170.717C317.198 170.402 316.824 170.244 316.348 170.244C315.84 170.244 315.463 170.414 315.216 170.754C314.968 171.088 314.814 171.528 314.752 172.072ZM321.719 173.213C321.719 172.427 321.834 171.725 322.062 171.107C322.298 170.482 322.622 169.953 323.037 169.521C323.457 169.081 323.958 168.744 324.54 168.509C325.127 168.274 325.77 168.157 326.469 168.157C326.952 168.157 327.378 168.194 327.75 168.268C328.121 168.336 328.464 168.457 328.779 168.63V171.218C328.489 171.014 328.17 170.872 327.824 170.792C327.477 170.705 327.131 170.662 326.785 170.662C326.098 170.662 325.548 170.869 325.133 171.283C324.719 171.698 324.512 172.341 324.512 173.213C324.512 174.085 324.722 174.719 325.143 175.115C325.569 175.504 326.135 175.699 326.84 175.699C327.193 175.699 327.552 175.653 327.917 175.56C328.281 175.461 328.591 175.306 328.844 175.096V177.712C328.665 177.836 328.362 177.944 327.935 178.037C327.514 178.136 327.051 178.186 326.543 178.186C324.997 178.186 323.807 177.753 322.972 176.887C322.137 176.021 321.719 174.796 321.719 173.213ZM329.698 170.708V168.352H337.667V170.708H335.004V178H332.342V170.708H329.698ZM338.474 173.213C338.474 172.415 338.592 171.707 338.827 171.088C339.068 170.464 339.399 169.935 339.819 169.502C340.24 169.063 340.735 168.729 341.304 168.5C341.873 168.271 342.485 168.157 343.141 168.157C343.796 168.157 344.409 168.271 344.978 168.5C345.553 168.729 346.051 169.06 346.471 169.493C346.898 169.919 347.232 170.445 347.473 171.07C347.714 171.688 347.835 172.396 347.835 173.194C347.835 173.992 347.714 174.7 347.473 175.319C347.232 175.931 346.901 176.454 346.48 176.887C346.066 177.313 345.568 177.638 344.987 177.861C344.412 178.077 343.796 178.186 343.141 178.186C342.485 178.186 341.873 178.077 341.304 177.861C340.735 177.638 340.24 177.317 339.819 176.896C339.399 176.469 339.068 175.95 338.827 175.337C338.592 174.719 338.474 174.011 338.474 173.213ZM341.267 173.213C341.267 174.141 341.446 174.796 341.805 175.18C342.163 175.563 342.609 175.755 343.141 175.755C343.407 175.755 343.657 175.708 343.892 175.616C344.127 175.523 344.328 175.375 344.495 175.17C344.668 174.966 344.804 174.703 344.903 174.382C345.008 174.06 345.061 173.664 345.061 173.194C345.061 172.724 345.008 172.325 344.903 171.998C344.804 171.67 344.665 171.401 344.486 171.19C344.313 170.98 344.112 170.829 343.883 170.736C343.654 170.637 343.407 170.587 343.141 170.587C342.609 170.587 342.163 170.788 341.805 171.19C341.446 171.586 341.267 172.26 341.267 173.213ZM349.542 178V168.352H353.225C353.986 168.352 354.626 168.413 355.146 168.537C355.665 168.655 356.086 168.822 356.407 169.038C356.729 169.248 356.958 169.505 357.094 169.808C357.236 170.111 357.307 170.448 357.307 170.819C357.307 171.401 357.149 171.861 356.834 172.202C356.519 172.536 356.095 172.758 355.563 172.87V173C356.219 173.098 356.732 173.343 357.103 173.732C357.48 174.122 357.669 174.626 357.669 175.245C357.669 175.622 357.604 175.978 357.474 176.312C357.35 176.639 357.137 176.93 356.834 177.184C356.531 177.437 356.123 177.638 355.609 177.787C355.096 177.929 354.459 178 353.698 178H349.542ZM352.223 176.135H353.457C353.902 176.135 354.252 176.046 354.505 175.866C354.765 175.681 354.895 175.418 354.895 175.078C354.895 174.713 354.765 174.441 354.505 174.261C354.246 174.082 353.896 173.992 353.457 173.992H352.223V176.135ZM352.223 172.146H353.151C353.633 172.146 353.98 172.053 354.19 171.868C354.406 171.676 354.515 171.435 354.515 171.144C354.515 170.853 354.397 170.628 354.162 170.467C353.933 170.306 353.596 170.226 353.151 170.226H352.223V172.146ZM358.94 173.213C358.94 172.415 359.057 171.707 359.292 171.088C359.534 170.464 359.865 169.935 360.285 169.502C360.706 169.063 361.201 168.729 361.77 168.5C362.339 168.271 362.951 168.157 363.606 168.157C364.262 168.157 364.874 168.271 365.443 168.5C366.019 168.729 366.516 169.06 366.937 169.493C367.364 169.919 367.698 170.445 367.939 171.07C368.18 171.688 368.301 172.396 368.301 173.194C368.301 173.992 368.18 174.7 367.939 175.319C367.698 175.931 367.367 176.454 366.946 176.887C366.532 177.313 366.034 177.638 365.453 177.861C364.877 178.077 364.262 178.186 363.606 178.186C362.951 178.186 362.339 178.077 361.77 177.861C361.201 177.638 360.706 177.317 360.285 176.896C359.865 176.469 359.534 175.95 359.292 175.337C359.057 174.719 358.94 174.011 358.94 173.213ZM361.732 173.213C361.732 174.141 361.912 174.796 362.271 175.18C362.629 175.563 363.075 175.755 363.606 175.755C363.872 175.755 364.123 175.708 364.358 175.616C364.593 175.523 364.794 175.375 364.961 175.17C365.134 174.966 365.27 174.703 365.369 174.382C365.474 174.06 365.527 173.664 365.527 173.194C365.527 172.724 365.474 172.325 365.369 171.998C365.27 171.67 365.131 171.401 364.952 171.19C364.778 170.98 364.577 170.829 364.349 170.736C364.12 170.637 363.872 170.587 363.606 170.587C363.075 170.587 362.629 170.788 362.271 171.19C361.912 171.586 361.732 172.26 361.732 173.213ZM369.535 173.213C369.535 172.427 369.637 171.725 369.841 171.107C370.051 170.482 370.348 169.953 370.731 169.521C371.121 169.081 371.594 168.744 372.151 168.509C372.708 168.274 373.329 168.157 374.016 168.157C374.609 168.157 375.157 168.24 375.658 168.407C376.159 168.568 376.589 168.815 376.947 169.149C377.312 169.477 377.59 169.889 377.782 170.383C377.98 170.878 378.079 171.459 378.079 172.127C378.079 172.468 378.057 172.78 378.014 173.064C377.971 173.343 377.931 173.544 377.894 173.667H372.457C372.507 174.391 372.717 174.942 373.088 175.319C373.465 175.69 374.028 175.875 374.776 175.875C375.308 175.875 375.825 175.823 376.326 175.718C376.827 175.606 377.278 175.424 377.68 175.17V177.471C377.352 177.688 376.91 177.861 376.354 177.991C375.803 178.121 375.2 178.186 374.544 178.186C372.949 178.186 371.715 177.777 370.843 176.961C369.971 176.145 369.535 174.895 369.535 173.213ZM372.346 172.072H375.519C375.494 171.478 375.342 171.027 375.064 170.717C374.792 170.402 374.418 170.244 373.941 170.244C373.434 170.244 373.057 170.414 372.81 170.754C372.562 171.088 372.408 171.528 372.346 172.072ZM265.035 198.527V196.208C265.962 196.777 266.924 197.061 267.92 197.061C268.885 197.061 269.367 196.727 269.367 196.059C269.367 195.731 269.247 195.493 269.005 195.345C268.764 195.196 268.433 195.122 268.013 195.122H266.436V193.053H267.883C268.272 193.053 268.557 192.979 268.736 192.831C268.916 192.676 269.005 192.472 269.005 192.218C269.005 191.89 268.885 191.659 268.644 191.522C268.402 191.38 268.059 191.309 267.614 191.309C267.156 191.309 266.736 191.362 266.352 191.467C265.969 191.572 265.573 191.751 265.165 192.005V189.713C265.554 189.534 266 189.398 266.5 189.305C267.008 189.206 267.512 189.157 268.013 189.157C268.668 189.157 269.225 189.222 269.683 189.352C270.14 189.475 270.514 189.648 270.805 189.871C271.102 190.094 271.315 190.357 271.445 190.66C271.581 190.963 271.649 191.291 271.649 191.643C271.649 192.125 271.535 192.562 271.306 192.951C271.077 193.335 270.66 193.628 270.054 193.833V193.962C270.697 194.117 271.182 194.402 271.51 194.816C271.844 195.224 272.011 195.744 272.011 196.375C272.011 196.727 271.949 197.073 271.826 197.414C271.708 197.748 271.501 198.048 271.204 198.313C270.913 198.579 270.521 198.793 270.026 198.954C269.537 199.108 268.919 199.186 268.17 199.186C267.917 199.186 267.651 199.173 267.373 199.148C267.094 199.124 266.819 199.087 266.547 199.037C266.275 198.988 266.006 198.923 265.74 198.842C265.474 198.756 265.239 198.651 265.035 198.527ZM273.514 196.412C273.514 195.88 273.613 195.416 273.811 195.02C274.009 194.618 274.327 194.278 274.767 194C275.212 193.721 275.784 193.514 276.483 193.378C277.188 193.236 278.054 193.165 279.081 193.165V192.747C279.081 192.326 278.941 192.005 278.663 191.782C278.385 191.553 277.955 191.439 277.374 191.439C276.792 191.439 276.239 191.504 275.713 191.634C275.187 191.757 274.683 191.965 274.201 192.255V189.88C274.671 189.627 275.196 189.444 275.778 189.333C276.359 189.215 276.972 189.157 277.615 189.157C279.031 189.157 280.076 189.469 280.75 190.094C281.425 190.712 281.762 191.615 281.762 192.803V199H279.173V197.497H279.043C278.92 197.726 278.781 197.945 278.626 198.156C278.471 198.366 278.283 198.549 278.06 198.703C277.844 198.852 277.587 198.969 277.29 199.056C276.999 199.142 276.659 199.186 276.27 199.186C275.397 199.186 274.72 198.935 274.238 198.434C273.755 197.927 273.514 197.253 273.514 196.412ZM276.214 195.901C276.214 196.204 276.319 196.455 276.529 196.653C276.74 196.851 277.027 196.95 277.392 196.95C277.596 196.95 277.797 196.913 277.995 196.838C278.199 196.758 278.382 196.637 278.542 196.477C278.709 196.31 278.839 196.105 278.932 195.864C279.031 195.623 279.081 195.339 279.081 195.011V194.667C278.128 194.667 277.411 194.757 276.928 194.937C276.452 195.11 276.214 195.431 276.214 195.901ZM282.884 196.644H283.701C283.979 196.353 284.214 195.972 284.406 195.502C284.597 195.032 284.749 194.485 284.86 193.86C284.978 193.236 285.061 192.543 285.111 191.782C285.16 191.021 285.191 190.211 285.204 189.352H292.069V196.644H293.544V201.505H291.15L290.965 199H285.491L285.296 201.505H282.884V196.644ZM286.308 196.644H289.369V191.727H287.375C287.375 192.042 287.353 192.422 287.31 192.868C287.272 193.307 287.214 193.761 287.133 194.231C287.053 194.701 286.945 195.153 286.809 195.586C286.679 196.013 286.512 196.365 286.308 196.644ZM294.555 196.412C294.555 195.88 294.654 195.416 294.852 195.02C295.05 194.618 295.368 194.278 295.808 194C296.253 193.721 296.825 193.514 297.524 193.378C298.229 193.236 299.095 193.165 300.122 193.165V192.747C300.122 192.326 299.982 192.005 299.704 191.782C299.426 191.553 298.996 191.439 298.415 191.439C297.833 191.439 297.28 191.504 296.754 191.634C296.228 191.757 295.724 191.965 295.242 192.255V189.88C295.712 189.627 296.237 189.444 296.819 189.333C297.4 189.215 298.013 189.157 298.656 189.157C300.072 189.157 301.117 189.469 301.792 190.094C302.466 190.712 302.803 191.615 302.803 192.803V199H300.214V197.497H300.084C299.961 197.726 299.822 197.945 299.667 198.156C299.512 198.366 299.324 198.549 299.101 198.703C298.885 198.852 298.628 198.969 298.331 199.056C298.04 199.142 297.7 199.186 297.311 199.186C296.438 199.186 295.761 198.935 295.279 198.434C294.796 197.927 294.555 197.253 294.555 196.412ZM297.255 195.901C297.255 196.204 297.36 196.455 297.57 196.653C297.781 196.851 298.068 196.95 298.433 196.95C298.637 196.95 298.838 196.913 299.036 196.838C299.24 196.758 299.423 196.637 299.583 196.477C299.75 196.31 299.88 196.105 299.973 195.864C300.072 195.623 300.122 195.339 300.122 195.011V194.667C299.169 194.667 298.452 194.757 297.969 194.937C297.493 195.11 297.255 195.431 297.255 195.901ZM304.881 199V189.352H307.562V192.858H310.614V189.352H313.295V199H310.614V195.215H307.562V199H304.881ZM315.457 199V189.352H318.138V194.779H318.287L321.404 189.352H323.872V199H321.19V193.545H321.061L317.906 199H315.457ZM325.56 194.213C325.56 193.427 325.662 192.725 325.866 192.107C326.076 191.482 326.373 190.953 326.757 190.521C327.146 190.081 327.62 189.744 328.176 189.509C328.733 189.274 329.354 189.157 330.041 189.157C330.635 189.157 331.182 189.24 331.683 189.407C332.184 189.568 332.614 189.815 332.973 190.149C333.338 190.477 333.616 190.889 333.808 191.383C334.006 191.878 334.104 192.459 334.104 193.127C334.104 193.468 334.083 193.78 334.04 194.064C333.996 194.343 333.956 194.544 333.919 194.667H328.482C328.532 195.391 328.742 195.942 329.113 196.319C329.491 196.69 330.053 196.875 330.802 196.875C331.334 196.875 331.85 196.823 332.351 196.718C332.852 196.606 333.304 196.424 333.706 196.17V198.471C333.378 198.688 332.936 198.861 332.379 198.991C331.828 199.121 331.225 199.186 330.57 199.186C328.974 199.186 327.74 198.777 326.868 197.961C325.996 197.145 325.56 195.895 325.56 194.213ZM328.371 193.072H331.544C331.519 192.478 331.368 192.027 331.089 191.717C330.817 191.402 330.443 191.244 329.967 191.244C329.46 191.244 329.082 191.414 328.835 191.754C328.588 192.088 328.433 192.528 328.371 193.072Z" fill="#1F2229"/>
<path d="M463.112 302V287.75H473.243V302H470.469V290.273H465.886V302H463.112ZM475.655 306.75V292.352H478.234V293.697H478.373C478.614 293.251 478.961 292.883 479.412 292.593C479.87 292.302 480.448 292.157 481.147 292.157C481.728 292.157 482.254 292.28 482.724 292.528C483.2 292.775 483.602 293.118 483.93 293.558C484.264 293.991 484.518 294.51 484.691 295.116C484.87 295.716 484.96 296.378 484.96 297.102C484.96 297.862 484.87 298.552 484.691 299.17C484.518 299.789 484.261 300.324 483.921 300.775C483.587 301.227 483.182 301.576 482.706 301.824C482.236 302.065 481.704 302.186 481.11 302.186C480.454 302.186 479.904 302.062 479.458 301.814C479.013 301.561 478.651 301.187 478.373 300.692H478.234L478.336 302.186V306.75H475.655ZM478.336 297.417C478.336 298.264 478.518 298.867 478.883 299.226C479.248 299.579 479.697 299.755 480.229 299.755C480.482 299.755 480.726 299.712 480.961 299.625C481.196 299.538 481.401 299.39 481.574 299.18C481.753 298.969 481.895 298.694 482 298.354C482.112 298.008 482.167 297.59 482.167 297.102C482.167 296.644 482.115 296.257 482.01 295.942C481.911 295.62 481.772 295.361 481.592 295.163C481.419 294.958 481.215 294.813 480.98 294.727C480.745 294.634 480.494 294.587 480.229 294.587C479.975 294.587 479.731 294.631 479.496 294.717C479.267 294.798 479.066 294.928 478.893 295.107C478.719 295.28 478.583 295.509 478.484 295.793C478.385 296.078 478.336 296.418 478.336 296.814V297.417ZM486.185 297.213C486.185 296.415 486.302 295.707 486.537 295.088C486.778 294.464 487.109 293.935 487.53 293.502C487.95 293.063 488.445 292.729 489.014 292.5C489.583 292.271 490.195 292.157 490.851 292.157C491.507 292.157 492.119 292.271 492.688 292.5C493.263 292.729 493.761 293.06 494.182 293.493C494.608 293.919 494.942 294.445 495.184 295.07C495.425 295.688 495.545 296.396 495.545 297.194C495.545 297.992 495.425 298.7 495.184 299.319C494.942 299.931 494.611 300.454 494.191 300.887C493.777 301.313 493.279 301.638 492.697 301.861C492.122 302.077 491.507 302.186 490.851 302.186C490.195 302.186 489.583 302.077 489.014 301.861C488.445 301.638 487.95 301.317 487.53 300.896C487.109 300.469 486.778 299.95 486.537 299.337C486.302 298.719 486.185 298.011 486.185 297.213ZM488.977 297.213C488.977 298.141 489.156 298.796 489.515 299.18C489.874 299.563 490.319 299.755 490.851 299.755C491.117 299.755 491.368 299.708 491.603 299.616C491.838 299.523 492.039 299.375 492.206 299.17C492.379 298.966 492.515 298.703 492.614 298.382C492.719 298.06 492.771 297.664 492.771 297.194C492.771 296.724 492.719 296.325 492.614 295.998C492.515 295.67 492.376 295.401 492.196 295.19C492.023 294.98 491.822 294.829 491.593 294.736C491.364 294.637 491.117 294.587 490.851 294.587C490.319 294.587 489.874 294.788 489.515 295.19C489.156 295.586 488.977 296.26 488.977 297.213ZM497.252 302V292.352H499.934V297.779H500.082L503.199 292.352H505.667V302H502.986V296.545H502.856L499.702 302H497.252ZM498.032 288.167H500.37C500.37 288.532 500.438 288.823 500.574 289.04C500.716 289.256 500.988 289.364 501.39 289.364C501.767 289.364 502.033 289.256 502.188 289.04C502.343 288.823 502.42 288.532 502.42 288.167H504.758C504.758 288.811 504.659 289.343 504.461 289.763C504.263 290.184 504.006 290.518 503.691 290.765C503.375 291.013 503.017 291.183 502.615 291.275C502.219 291.368 501.811 291.415 501.39 291.415C500.97 291.415 500.561 291.368 500.166 291.275C499.77 291.183 499.411 291.013 499.089 290.765C498.774 290.518 498.517 290.187 498.319 289.772C498.128 289.352 498.032 288.817 498.032 288.167ZM506.873 299.644H507.689C507.968 299.353 508.203 298.972 508.395 298.502C508.586 298.032 508.738 297.485 508.849 296.86C508.967 296.236 509.05 295.543 509.1 294.782C509.149 294.021 509.18 293.211 509.192 292.352H516.058V299.644H517.533V304.505H515.139L514.954 302H509.48L509.285 304.505H506.873V299.644ZM510.296 299.644H513.358V294.727H511.363C511.363 295.042 511.342 295.422 511.298 295.868C511.261 296.307 511.202 296.761 511.122 297.231C511.042 297.701 510.933 298.153 510.797 298.586C510.667 299.013 510.5 299.365 510.296 299.644ZM518.832 302V292.352H521.513V297.779H521.661L524.778 292.352H527.246V302H524.565V296.545H524.435L521.281 302H518.832ZM533.647 297.213C533.647 296.427 533.762 295.725 533.991 295.107C534.226 294.482 534.55 293.953 534.965 293.521C535.385 293.081 535.886 292.744 536.468 292.509C537.055 292.274 537.699 292.157 538.397 292.157C538.88 292.157 539.307 292.194 539.678 292.268C540.049 292.336 540.392 292.457 540.708 292.63V295.218C540.417 295.014 540.098 294.872 539.752 294.792C539.406 294.705 539.059 294.662 538.713 294.662C538.026 294.662 537.476 294.869 537.062 295.283C536.647 295.698 536.44 296.341 536.44 297.213C536.44 298.085 536.65 298.719 537.071 299.115C537.498 299.504 538.063 299.699 538.769 299.699C539.121 299.699 539.48 299.653 539.845 299.56C540.21 299.461 540.519 299.306 540.772 299.096V301.712C540.593 301.836 540.29 301.944 539.863 302.037C539.443 302.136 538.979 302.186 538.472 302.186C536.925 302.186 535.735 301.753 534.9 300.887C534.065 300.021 533.647 298.796 533.647 297.213ZM542.053 297.213C542.053 296.415 542.17 295.707 542.405 295.088C542.646 294.464 542.977 293.935 543.398 293.502C543.819 293.063 544.313 292.729 544.882 292.5C545.451 292.271 546.064 292.157 546.719 292.157C547.375 292.157 547.987 292.271 548.556 292.5C549.131 292.729 549.629 293.06 550.05 293.493C550.477 293.919 550.811 294.445 551.052 295.07C551.293 295.688 551.414 296.396 551.414 297.194C551.414 297.992 551.293 298.7 551.052 299.319C550.811 299.931 550.48 300.454 550.059 300.887C549.645 301.313 549.147 301.638 548.565 301.861C547.99 302.077 547.375 302.186 546.719 302.186C546.064 302.186 545.451 302.077 544.882 301.861C544.313 301.638 543.819 301.317 543.398 300.896C542.977 300.469 542.646 299.95 542.405 299.337C542.17 298.719 542.053 298.011 542.053 297.213ZM544.845 297.213C544.845 298.141 545.025 298.796 545.383 299.18C545.742 299.563 546.187 299.755 546.719 299.755C546.985 299.755 547.236 299.708 547.471 299.616C547.706 299.523 547.907 299.375 548.074 299.17C548.247 298.966 548.383 298.703 548.482 298.382C548.587 298.06 548.64 297.664 548.64 297.194C548.64 296.724 548.587 296.325 548.482 295.998C548.383 295.67 548.244 295.401 548.064 295.19C547.891 294.98 547.69 294.829 547.461 294.736C547.233 294.637 546.985 294.587 546.719 294.587C546.187 294.587 545.742 294.788 545.383 295.19C545.025 295.586 544.845 296.26 544.845 297.213ZM552.647 296.016C552.647 294.625 552.759 293.434 552.981 292.444C553.21 291.455 553.572 290.638 554.067 289.995C554.562 289.346 555.196 288.854 555.969 288.52C556.742 288.186 557.667 287.966 558.743 287.861C559.262 287.824 559.782 287.781 560.301 287.731C560.821 287.682 561.207 287.626 561.461 287.564V290.162C561.207 290.224 560.839 290.277 560.357 290.32C559.875 290.357 559.386 290.406 558.891 290.468C558.205 290.53 557.623 290.641 557.147 290.802C556.677 290.957 556.293 291.183 555.997 291.479C555.7 291.77 555.477 292.147 555.329 292.611C555.186 293.069 555.097 293.641 555.06 294.328H555.189C555.264 294.124 555.375 293.91 555.523 293.688C555.678 293.465 555.879 293.264 556.126 293.084C556.374 292.899 556.671 292.75 557.017 292.639C557.37 292.522 557.781 292.463 558.251 292.463C558.82 292.463 559.349 292.58 559.837 292.815C560.326 293.05 560.743 293.378 561.09 293.799C561.436 294.213 561.708 294.714 561.906 295.302C562.104 295.889 562.203 296.545 562.203 297.269C562.203 298.005 562.086 298.676 561.851 299.282C561.616 299.888 561.288 300.407 560.867 300.84C560.453 301.273 559.955 301.607 559.374 301.842C558.792 302.071 558.146 302.186 557.435 302.186C556.791 302.186 556.176 302.093 555.588 301.907C555.007 301.715 554.497 301.385 554.058 300.915C553.618 300.444 553.272 299.814 553.019 299.022C552.771 298.23 552.647 297.228 552.647 296.016ZM555.458 297.287C555.458 298.134 555.641 298.759 556.006 299.161C556.377 299.557 556.853 299.755 557.435 299.755C558.004 299.755 558.477 299.554 558.854 299.152C559.237 298.744 559.429 298.116 559.429 297.269C559.429 296.421 559.237 295.812 558.854 295.441C558.477 295.064 558.004 294.875 557.435 294.875C556.853 294.875 556.377 295.067 556.006 295.45C555.641 295.827 555.458 296.44 555.458 297.287ZM563.428 297.213C563.428 296.427 563.53 295.725 563.734 295.107C563.944 294.482 564.241 293.953 564.625 293.521C565.014 293.081 565.487 292.744 566.044 292.509C566.601 292.274 567.222 292.157 567.909 292.157C568.502 292.157 569.05 292.24 569.551 292.407C570.052 292.568 570.482 292.815 570.84 293.149C571.205 293.477 571.484 293.889 571.675 294.383C571.873 294.878 571.972 295.459 571.972 296.127C571.972 296.468 571.951 296.78 571.907 297.064C571.864 297.343 571.824 297.544 571.787 297.667H566.35C566.4 298.391 566.61 298.942 566.981 299.319C567.358 299.69 567.921 299.875 568.669 299.875C569.201 299.875 569.718 299.823 570.219 299.718C570.72 299.606 571.171 299.424 571.573 299.17V301.471C571.245 301.688 570.803 301.861 570.247 301.991C569.696 302.121 569.093 302.186 568.438 302.186C566.842 302.186 565.608 301.777 564.736 300.961C563.864 300.145 563.428 298.895 563.428 297.213ZM566.239 296.072H569.412C569.387 295.478 569.235 295.027 568.957 294.717C568.685 294.402 568.311 294.244 567.834 294.244C567.327 294.244 566.95 294.414 566.703 294.754C566.455 295.088 566.301 295.528 566.239 296.072ZM573.206 297.213C573.206 296.427 573.32 295.725 573.549 295.107C573.784 294.482 574.109 293.953 574.523 293.521C574.944 293.081 575.445 292.744 576.026 292.509C576.614 292.274 577.257 292.157 577.956 292.157C578.438 292.157 578.865 292.194 579.236 292.268C579.607 292.336 579.951 292.457 580.266 292.63V295.218C579.975 295.014 579.657 294.872 579.311 294.792C578.964 294.705 578.618 294.662 578.271 294.662C577.585 294.662 577.035 294.869 576.62 295.283C576.206 295.698 575.999 296.341 575.999 297.213C575.999 298.085 576.209 298.719 576.629 299.115C577.056 299.504 577.622 299.699 578.327 299.699C578.68 299.699 579.038 299.653 579.403 299.56C579.768 299.461 580.077 299.306 580.331 299.096V301.712C580.152 301.836 579.849 301.944 579.422 302.037C579.001 302.136 578.537 302.186 578.03 302.186C576.484 302.186 575.293 301.753 574.458 300.887C573.624 300.021 573.206 298.796 573.206 297.213ZM581.611 297.213C581.611 296.427 581.713 295.725 581.917 295.107C582.128 294.482 582.425 293.953 582.808 293.521C583.198 293.081 583.671 292.744 584.228 292.509C584.784 292.274 585.406 292.157 586.092 292.157C586.686 292.157 587.233 292.24 587.734 292.407C588.235 292.568 588.665 292.815 589.024 293.149C589.389 293.477 589.667 293.889 589.859 294.383C590.057 294.878 590.156 295.459 590.156 296.127C590.156 296.468 590.134 296.78 590.091 297.064C590.048 297.343 590.007 297.544 589.97 297.667H584.534C584.583 298.391 584.793 298.942 585.165 299.319C585.542 299.69 586.105 299.875 586.853 299.875C587.385 299.875 587.901 299.823 588.402 299.718C588.903 299.606 589.355 299.424 589.757 299.17V301.471C589.429 301.688 588.987 301.861 588.43 301.991C587.88 302.121 587.277 302.186 586.621 302.186C585.025 302.186 583.792 301.777 582.919 300.961C582.047 300.145 581.611 298.895 581.611 297.213ZM584.422 296.072H587.595C587.57 295.478 587.419 295.027 587.141 294.717C586.868 294.402 586.494 294.244 586.018 294.244C585.511 294.244 585.134 294.414 584.886 294.754C584.639 295.088 584.484 295.528 584.422 296.072ZM590.907 299.644H591.724C592.002 299.353 592.237 298.972 592.429 298.502C592.62 298.032 592.772 297.485 592.883 296.86C593.001 296.236 593.084 295.543 593.134 294.782C593.183 294.021 593.214 293.211 593.227 292.352H600.092V299.644H601.567V304.505H599.173L598.988 302H593.514L593.319 304.505H590.907V299.644ZM594.331 299.644H597.392V294.727H595.397C595.397 295.042 595.376 295.422 595.333 295.868C595.295 296.307 595.237 296.761 595.156 297.231C595.076 297.701 594.968 298.153 594.832 298.586C594.702 299.013 594.535 299.365 594.331 299.644ZM602.393 297.213C602.393 296.415 602.51 295.707 602.745 295.088C602.986 294.464 603.317 293.935 603.738 293.502C604.158 293.063 604.653 292.729 605.222 292.5C605.791 292.271 606.403 292.157 607.059 292.157C607.715 292.157 608.327 292.271 608.896 292.5C609.471 292.729 609.969 293.06 610.39 293.493C610.816 293.919 611.15 294.445 611.392 295.07C611.633 295.688 611.753 296.396 611.753 297.194C611.753 297.992 611.633 298.7 611.392 299.319C611.15 299.931 610.819 300.454 610.399 300.887C609.985 301.313 609.487 301.638 608.905 301.861C608.33 302.077 607.715 302.186 607.059 302.186C606.403 302.186 605.791 302.077 605.222 301.861C604.653 301.638 604.158 301.317 603.738 300.896C603.317 300.469 602.986 299.95 602.745 299.337C602.51 298.719 602.393 298.011 602.393 297.213ZM605.185 297.213C605.185 298.141 605.364 298.796 605.723 299.18C606.082 299.563 606.527 299.755 607.059 299.755C607.325 299.755 607.576 299.708 607.811 299.616C608.046 299.523 608.247 299.375 608.414 299.17C608.587 298.966 608.723 298.703 608.822 298.382C608.927 298.06 608.979 297.664 608.979 297.194C608.979 296.724 608.927 296.325 608.822 295.998C608.723 295.67 608.584 295.401 608.404 295.19C608.231 294.98 608.03 294.829 607.801 294.736C607.572 294.637 607.325 294.587 607.059 294.587C606.527 294.587 606.082 294.788 605.723 295.19C605.364 295.586 605.185 296.26 605.185 297.213ZM613.46 302V292.352H617.144C617.904 292.352 618.544 292.413 619.064 292.537C619.583 292.655 620.004 292.822 620.326 293.038C620.647 293.248 620.876 293.505 621.012 293.808C621.154 294.111 621.226 294.448 621.226 294.819C621.226 295.401 621.068 295.861 620.752 296.202C620.437 296.536 620.013 296.758 619.481 296.87V297C620.137 297.098 620.65 297.343 621.021 297.732C621.399 298.122 621.587 298.626 621.587 299.245C621.587 299.622 621.522 299.978 621.393 300.312C621.269 300.639 621.056 300.93 620.752 301.184C620.449 301.437 620.041 301.638 619.528 301.787C619.014 301.929 618.377 302 617.617 302H613.46ZM616.142 300.135H617.375C617.821 300.135 618.17 300.046 618.424 299.866C618.684 299.681 618.813 299.418 618.813 299.078C618.813 298.713 618.684 298.441 618.424 298.261C618.164 298.082 617.815 297.992 617.375 297.992H616.142V300.135ZM616.142 296.146H617.069C617.552 296.146 617.898 296.053 618.108 295.868C618.325 295.676 618.433 295.435 618.433 295.144C618.433 294.853 618.316 294.628 618.081 294.467C617.852 294.306 617.515 294.226 617.069 294.226H616.142V296.146ZM623.044 299.412C623.044 298.88 623.143 298.416 623.341 298.02C623.539 297.618 623.857 297.278 624.296 297C624.742 296.721 625.314 296.514 626.013 296.378C626.718 296.236 627.584 296.165 628.61 296.165V295.747C628.61 295.326 628.471 295.005 628.193 294.782C627.915 294.553 627.485 294.439 626.903 294.439C626.322 294.439 625.768 294.504 625.243 294.634C624.717 294.757 624.213 294.965 623.73 295.255V292.88C624.201 292.627 624.726 292.444 625.308 292.333C625.889 292.215 626.501 292.157 627.145 292.157C628.561 292.157 629.606 292.469 630.28 293.094C630.954 293.712 631.292 294.615 631.292 295.803V302H628.703V300.497H628.573C628.45 300.726 628.31 300.945 628.156 301.156C628.001 301.366 627.812 301.549 627.59 301.703C627.373 301.852 627.117 301.969 626.82 302.056C626.529 302.142 626.189 302.186 625.799 302.186C624.927 302.186 624.25 301.935 623.768 301.434C623.285 300.927 623.044 300.253 623.044 299.412ZM625.744 298.901C625.744 299.204 625.849 299.455 626.059 299.653C626.269 299.851 626.557 299.95 626.922 299.95C627.126 299.95 627.327 299.913 627.525 299.838C627.729 299.758 627.911 299.637 628.072 299.477C628.239 299.31 628.369 299.105 628.462 298.864C628.561 298.623 628.61 298.339 628.61 298.011V297.667C627.658 297.667 626.94 297.757 626.458 297.937C625.982 298.11 625.744 298.431 625.744 298.901ZM633.37 302V292.352H636.051V295.858H639.103V292.352H641.784V302H639.103V298.215H636.051V302H633.37ZM643.946 302V292.352H646.627V297.779H646.775L649.893 292.352H652.36V302H649.679V296.545H649.549L646.395 302H643.946ZM654.049 297.213C654.049 296.427 654.151 295.725 654.355 295.107C654.565 294.482 654.862 293.953 655.246 293.521C655.635 293.081 656.108 292.744 656.665 292.509C657.222 292.274 657.843 292.157 658.53 292.157C659.124 292.157 659.671 292.24 660.172 292.407C660.673 292.568 661.103 292.815 661.461 293.149C661.826 293.477 662.105 293.889 662.296 294.383C662.494 294.878 662.593 295.459 662.593 296.127C662.593 296.468 662.572 296.78 662.528 297.064C662.485 297.343 662.445 297.544 662.408 297.667H656.971C657.021 298.391 657.231 298.942 657.602 299.319C657.979 299.69 658.542 299.875 659.291 299.875C659.822 299.875 660.339 299.823 660.84 299.718C661.341 299.606 661.792 299.424 662.194 299.17V301.471C661.867 301.688 661.424 301.861 660.868 301.991C660.317 302.121 659.714 302.186 659.059 302.186C657.463 302.186 656.229 301.777 655.357 300.961C654.485 300.145 654.049 298.895 654.049 297.213ZM656.86 296.072H660.033C660.008 295.478 659.856 295.027 659.578 294.717C659.306 294.402 658.932 294.244 658.456 294.244C657.948 294.244 657.571 294.414 657.324 294.754C657.076 295.088 656.922 295.528 656.86 296.072Z" fill="#1F2229"/>
<path d="M985.573 290.273V287.75H995.546V290.273H991.956V302H989.163V290.273H985.573ZM997.021 302V292.352H999.702V295.125H1000.65C1001.41 295.125 1002.06 295.212 1002.6 295.385C1003.13 295.552 1003.58 295.784 1003.93 296.081C1004.29 296.378 1004.55 296.734 1004.71 297.148C1004.88 297.556 1004.96 298.001 1004.96 298.484C1004.96 298.979 1004.88 299.443 1004.71 299.875C1004.55 300.302 1004.29 300.673 1003.93 300.989C1003.58 301.298 1003.13 301.545 1002.6 301.731C1002.06 301.91 1001.41 302 1000.65 302H997.021ZM999.702 299.875H1000.59C1001.16 299.875 1001.57 299.749 1001.82 299.495C1002.06 299.242 1002.19 298.929 1002.19 298.558C1002.19 298.181 1002.06 297.872 1001.82 297.63C1001.57 297.389 1001.16 297.269 1000.59 297.269H999.702V299.875ZM1005.78 302V292.352H1008.46V302H1005.78ZM1015.35 302V292.352H1018.03V295.858H1021.09V292.352H1023.77V302H1021.09V298.215H1018.03V302H1015.35ZM1025.64 299.412C1025.64 298.88 1025.74 298.416 1025.94 298.02C1026.14 297.618 1026.45 297.278 1026.89 297C1027.34 296.721 1027.91 296.514 1028.61 296.378C1029.32 296.236 1030.18 296.165 1031.21 296.165V295.747C1031.21 295.326 1031.07 295.005 1030.79 294.782C1030.51 294.553 1030.08 294.439 1029.5 294.439C1028.92 294.439 1028.37 294.504 1027.84 294.634C1027.31 294.757 1026.81 294.965 1026.33 295.255V292.88C1026.8 292.627 1027.32 292.444 1027.91 292.333C1028.49 292.215 1029.1 292.157 1029.74 292.157C1031.16 292.157 1032.2 292.469 1032.88 293.094C1033.55 293.712 1033.89 294.615 1033.89 295.803V302H1031.3V300.497H1031.17C1031.05 300.726 1030.91 300.945 1030.75 301.156C1030.6 301.366 1030.41 301.549 1030.19 301.703C1029.97 301.852 1029.71 301.969 1029.42 302.056C1029.13 302.142 1028.79 302.186 1028.4 302.186C1027.52 302.186 1026.85 301.935 1026.37 301.434C1025.88 300.927 1025.64 300.253 1025.64 299.412ZM1028.34 298.901C1028.34 299.204 1028.45 299.455 1028.66 299.653C1028.87 299.851 1029.15 299.95 1029.52 299.95C1029.72 299.95 1029.92 299.913 1030.12 299.838C1030.33 299.758 1030.51 299.637 1030.67 299.477C1030.84 299.31 1030.97 299.105 1031.06 298.864C1031.16 298.623 1031.21 298.339 1031.21 298.011V297.667C1030.26 297.667 1029.54 297.757 1029.06 297.937C1028.58 298.11 1028.34 298.431 1028.34 298.901ZM1040.68 302V292.352H1043.36V295.858H1046.41V292.352H1049.09V302H1046.41V298.215H1043.36V302H1040.68ZM1050.78 297.213C1050.78 296.415 1050.9 295.707 1051.14 295.088C1051.38 294.464 1051.71 293.935 1052.13 293.502C1052.55 293.063 1053.04 292.729 1053.61 292.5C1054.18 292.271 1054.79 292.157 1055.45 292.157C1056.11 292.157 1056.72 292.271 1057.29 292.5C1057.86 292.729 1058.36 293.06 1058.78 293.493C1059.21 293.919 1059.54 294.445 1059.78 295.07C1060.02 295.688 1060.14 296.396 1060.14 297.194C1060.14 297.992 1060.02 298.7 1059.78 299.319C1059.54 299.931 1059.21 300.454 1058.79 300.887C1058.38 301.313 1057.88 301.638 1057.3 301.861C1056.72 302.077 1056.11 302.186 1055.45 302.186C1054.79 302.186 1054.18 302.077 1053.61 301.861C1053.04 301.638 1052.55 301.317 1052.13 300.896C1051.71 300.469 1051.38 299.95 1051.14 299.337C1050.9 298.719 1050.78 298.011 1050.78 297.213ZM1053.58 297.213C1053.58 298.141 1053.76 298.796 1054.11 299.18C1054.47 299.563 1054.92 299.755 1055.45 299.755C1055.72 299.755 1055.97 299.708 1056.2 299.616C1056.44 299.523 1056.64 299.375 1056.8 299.17C1056.98 298.966 1057.11 298.703 1057.21 298.382C1057.32 298.06 1057.37 297.664 1057.37 297.194C1057.37 296.724 1057.32 296.325 1057.21 295.998C1057.11 295.67 1056.97 295.401 1056.79 295.19C1056.62 294.98 1056.42 294.829 1056.19 294.736C1055.96 294.637 1055.72 294.587 1055.45 294.587C1054.92 294.587 1054.47 294.788 1054.11 295.19C1053.76 295.586 1053.58 296.26 1053.58 297.213ZM1061.85 302V292.352H1065.53C1066.29 292.352 1066.94 292.413 1067.45 292.537C1067.97 292.655 1068.39 292.822 1068.72 293.038C1069.04 293.248 1069.27 293.505 1069.4 293.808C1069.55 294.111 1069.62 294.448 1069.62 294.819C1069.62 295.401 1069.46 295.861 1069.14 296.202C1068.83 296.536 1068.4 296.758 1067.87 296.87V297C1068.53 297.098 1069.04 297.343 1069.41 297.732C1069.79 298.122 1069.98 298.626 1069.98 299.245C1069.98 299.622 1069.91 299.978 1069.78 300.312C1069.66 300.639 1069.45 300.93 1069.14 301.184C1068.84 301.437 1068.43 301.638 1067.92 301.787C1067.41 301.929 1066.77 302 1066.01 302H1061.85ZM1064.53 300.135H1065.77C1066.21 300.135 1066.56 300.046 1066.81 299.866C1067.07 299.681 1067.2 299.418 1067.2 299.078C1067.2 298.713 1067.07 298.441 1066.81 298.261C1066.55 298.082 1066.21 297.992 1065.77 297.992H1064.53V300.135ZM1064.53 296.146H1065.46C1065.94 296.146 1066.29 296.053 1066.5 295.868C1066.72 295.676 1066.82 295.435 1066.82 295.144C1066.82 294.853 1066.71 294.628 1066.47 294.467C1066.24 294.306 1065.91 294.226 1065.46 294.226H1064.53V296.146ZM1071.25 297.213C1071.25 296.415 1071.37 295.707 1071.6 295.088C1071.84 294.464 1072.17 293.935 1072.59 293.502C1073.01 293.063 1073.51 292.729 1074.08 292.5C1074.65 292.271 1075.26 292.157 1075.92 292.157C1076.57 292.157 1077.18 292.271 1077.75 292.5C1078.33 292.729 1078.83 293.06 1079.25 293.493C1079.67 293.919 1080.01 294.445 1080.25 295.07C1080.49 295.688 1080.61 296.396 1080.61 297.194C1080.61 297.992 1080.49 298.7 1080.25 299.319C1080.01 299.931 1079.68 300.454 1079.26 300.887C1078.84 301.313 1078.34 301.638 1077.76 301.861C1077.19 302.077 1076.57 302.186 1075.92 302.186C1075.26 302.186 1074.65 302.077 1074.08 301.861C1073.51 301.638 1073.01 301.317 1072.59 300.896C1072.17 300.469 1071.84 299.95 1071.6 299.337C1071.37 298.719 1071.25 298.011 1071.25 297.213ZM1074.04 297.213C1074.04 298.141 1074.22 298.796 1074.58 299.18C1074.94 299.563 1075.38 299.755 1075.92 299.755C1076.18 299.755 1076.43 299.708 1076.67 299.616C1076.9 299.523 1077.1 299.375 1077.27 299.17C1077.44 298.966 1077.58 298.703 1077.68 298.382C1077.78 298.06 1077.84 297.664 1077.84 297.194C1077.84 296.724 1077.78 296.325 1077.68 295.998C1077.58 295.67 1077.44 295.401 1077.26 295.19C1077.09 294.98 1076.89 294.829 1076.66 294.736C1076.43 294.637 1076.18 294.587 1075.92 294.587C1075.38 294.587 1074.94 294.788 1074.58 295.19C1074.22 295.586 1074.04 296.26 1074.04 297.213ZM1082.32 302V292.352H1085V297.779H1085.15L1088.26 292.352H1090.73V302H1088.05V296.545H1087.92L1084.77 302H1082.32ZM1083.1 288.167H1085.43C1085.43 288.532 1085.5 288.823 1085.64 289.04C1085.78 289.256 1086.05 289.364 1086.45 289.364C1086.83 289.364 1087.1 289.256 1087.25 289.04C1087.41 288.823 1087.48 288.532 1087.48 288.167H1089.82C1089.82 288.811 1089.72 289.343 1089.53 289.763C1089.33 290.184 1089.07 290.518 1088.76 290.765C1088.44 291.013 1088.08 291.183 1087.68 291.275C1087.28 291.368 1086.88 291.415 1086.45 291.415C1086.03 291.415 1085.63 291.368 1085.23 291.275C1084.83 291.183 1084.48 291.013 1084.15 290.765C1083.84 290.518 1083.58 290.187 1083.38 289.772C1083.19 289.352 1083.1 288.817 1083.1 288.167ZM1000.6 323V313.352H1008.83V323H1006.15V315.708H1003.28V323H1000.6ZM1010.52 318.213C1010.52 317.415 1010.64 316.707 1010.87 316.088C1011.11 315.464 1011.44 314.935 1011.86 314.502C1012.29 314.063 1012.78 313.729 1013.35 313.5C1013.92 313.271 1014.53 313.157 1015.19 313.157C1015.84 313.157 1016.45 313.271 1017.02 313.5C1017.6 313.729 1018.1 314.06 1018.52 314.493C1018.94 314.919 1019.28 315.445 1019.52 316.07C1019.76 316.688 1019.88 317.396 1019.88 318.194C1019.88 318.992 1019.76 319.7 1019.52 320.319C1019.28 320.931 1018.95 321.454 1018.53 321.887C1018.11 322.313 1017.61 322.638 1017.03 322.861C1016.46 323.077 1015.84 323.186 1015.19 323.186C1014.53 323.186 1013.92 323.077 1013.35 322.861C1012.78 322.638 1012.29 322.317 1011.86 321.896C1011.44 321.469 1011.11 320.95 1010.87 320.337C1010.64 319.719 1010.52 319.011 1010.52 318.213ZM1013.31 318.213C1013.31 319.141 1013.49 319.796 1013.85 320.18C1014.21 320.563 1014.65 320.755 1015.19 320.755C1015.45 320.755 1015.7 320.708 1015.94 320.616C1016.17 320.523 1016.37 320.375 1016.54 320.17C1016.71 319.966 1016.85 319.703 1016.95 319.382C1017.05 319.06 1017.11 318.664 1017.11 318.194C1017.11 317.724 1017.05 317.325 1016.95 316.998C1016.85 316.67 1016.71 316.401 1016.53 316.19C1016.36 315.98 1016.16 315.829 1015.93 315.736C1015.7 315.637 1015.45 315.587 1015.19 315.587C1014.65 315.587 1014.21 315.788 1013.85 316.19C1013.49 316.586 1013.31 317.26 1013.31 318.213ZM1021.26 322.527V320.208C1022.19 320.777 1023.15 321.061 1024.15 321.061C1025.11 321.061 1025.6 320.727 1025.6 320.059C1025.6 319.731 1025.47 319.493 1025.23 319.345C1024.99 319.196 1024.66 319.122 1024.24 319.122H1022.66V317.053H1024.11C1024.5 317.053 1024.78 316.979 1024.96 316.831C1025.14 316.676 1025.23 316.472 1025.23 316.218C1025.23 315.89 1025.11 315.659 1024.87 315.522C1024.63 315.38 1024.29 315.309 1023.84 315.309C1023.38 315.309 1022.96 315.362 1022.58 315.467C1022.2 315.572 1021.8 315.751 1021.39 316.005V313.713C1021.78 313.534 1022.23 313.398 1022.73 313.305C1023.24 313.206 1023.74 313.157 1024.24 313.157C1024.9 313.157 1025.45 313.222 1025.91 313.352C1026.37 313.475 1026.74 313.648 1027.03 313.871C1027.33 314.094 1027.54 314.357 1027.67 314.66C1027.81 314.963 1027.88 315.291 1027.88 315.643C1027.88 316.125 1027.76 316.562 1027.53 316.951C1027.31 317.335 1026.89 317.628 1026.28 317.833V317.962C1026.92 318.117 1027.41 318.402 1027.74 318.816C1028.07 319.224 1028.24 319.744 1028.24 320.375C1028.24 320.727 1028.18 321.073 1028.05 321.414C1027.94 321.748 1027.73 322.048 1027.43 322.313C1027.14 322.579 1026.75 322.793 1026.25 322.954C1025.77 323.108 1025.15 323.186 1024.4 323.186C1024.14 323.186 1023.88 323.173 1023.6 323.148C1023.32 323.124 1023.05 323.087 1022.77 323.037C1022.5 322.988 1022.23 322.923 1021.97 322.842C1021.7 322.756 1021.47 322.651 1021.26 322.527ZM1030.03 323V313.352H1032.71V318.779H1032.86L1035.98 313.352H1038.44V323H1035.76V317.545H1035.63L1032.48 323H1030.03ZM1040.61 323V313.352H1043.29V320.644H1046.17V313.352H1048.87V320.644H1050.35V325.663H1047.95L1047.77 323H1040.61ZM1051.65 323V313.352H1054.33V318.779H1054.48L1057.59 313.352H1060.06V323H1057.38V317.545H1057.25L1054.1 323H1051.65ZM1062.22 323V313.352H1064.9V318.779H1065.05L1068.17 313.352H1070.64V323H1067.96V317.545H1067.83L1064.67 323H1062.22ZM1072.97 321.608C1072.97 321.151 1073.12 320.761 1073.43 320.439C1073.74 320.118 1074.13 319.957 1074.6 319.957C1074.81 319.957 1075.02 320.003 1075.23 320.096C1075.43 320.183 1075.61 320.3 1075.76 320.449C1075.91 320.591 1076.03 320.764 1076.12 320.968C1076.21 321.172 1076.25 321.386 1076.25 321.608C1076.25 321.837 1076.21 322.054 1076.12 322.258C1076.03 322.462 1075.91 322.638 1075.76 322.787C1075.61 322.929 1075.43 323.043 1075.23 323.13C1075.02 323.223 1074.81 323.269 1074.6 323.269C1074.13 323.269 1073.74 323.108 1073.43 322.787C1073.12 322.459 1072.97 322.066 1072.97 321.608ZM1072.98 308.75H1076.16L1075.61 318.231H1073.52L1072.98 308.75Z" fill="#1F2229"/>
<path d="M736.995 170.875C736.995 169.762 737.122 168.757 737.375 167.86C737.629 166.957 737.997 166.19 738.479 165.559C738.968 164.922 739.568 164.43 740.279 164.084C740.991 163.738 741.807 163.564 742.729 163.564C743.669 163.564 744.497 163.735 745.215 164.075C745.938 164.415 746.545 164.907 747.033 165.55C747.522 166.187 747.89 166.957 748.137 167.86C748.385 168.757 748.508 169.756 748.508 170.856C748.508 171.97 748.382 172.978 748.128 173.881C747.874 174.778 747.503 175.548 747.015 176.191C746.526 176.828 745.923 177.32 745.206 177.666C744.494 178.012 743.669 178.186 742.729 178.186C741.801 178.186 740.981 178.012 740.27 177.666C739.565 177.32 738.968 176.828 738.479 176.191C737.997 175.548 737.629 174.778 737.375 173.881C737.122 172.978 736.995 171.976 736.995 170.875ZM739.88 170.875C739.88 172.495 740.122 173.711 740.604 174.521C741.093 175.331 741.801 175.736 742.729 175.736C744.652 175.736 745.617 174.11 745.623 170.856C745.623 169.248 745.382 168.039 744.899 167.229C744.417 166.419 743.693 166.014 742.729 166.014C741.801 166.014 741.093 166.419 740.604 167.229C740.122 168.039 739.88 169.255 739.88 170.875ZM749.816 172.016C749.816 170.625 749.928 169.434 750.15 168.444C750.379 167.455 750.741 166.638 751.236 165.995C751.731 165.346 752.365 164.854 753.138 164.52C753.911 164.186 754.835 163.966 755.912 163.861C756.431 163.824 756.951 163.781 757.47 163.731C757.99 163.682 758.376 163.626 758.63 163.564V166.162C758.376 166.224 758.008 166.277 757.526 166.32C757.043 166.357 756.555 166.406 756.06 166.468C755.374 166.53 754.792 166.641 754.316 166.802C753.846 166.957 753.462 167.183 753.166 167.479C752.869 167.77 752.646 168.147 752.498 168.611C752.355 169.069 752.266 169.641 752.229 170.328H752.358C752.433 170.124 752.544 169.91 752.692 169.688C752.847 169.465 753.048 169.264 753.295 169.084C753.543 168.899 753.84 168.75 754.186 168.639C754.539 168.522 754.95 168.463 755.42 168.463C755.989 168.463 756.518 168.58 757.006 168.815C757.495 169.05 757.912 169.378 758.259 169.799C758.605 170.213 758.877 170.714 759.075 171.302C759.273 171.889 759.372 172.545 759.372 173.269C759.372 174.005 759.255 174.676 759.02 175.282C758.785 175.888 758.457 176.407 758.036 176.84C757.622 177.273 757.124 177.607 756.542 177.842C755.961 178.071 755.315 178.186 754.604 178.186C753.96 178.186 753.345 178.093 752.757 177.907C752.176 177.715 751.666 177.385 751.227 176.915C750.787 176.444 750.441 175.814 750.188 175.022C749.94 174.23 749.816 173.228 749.816 172.016ZM752.627 173.287C752.627 174.134 752.81 174.759 753.175 175.161C753.546 175.557 754.022 175.755 754.604 175.755C755.173 175.755 755.646 175.554 756.023 175.152C756.406 174.744 756.598 174.116 756.598 173.269C756.598 172.421 756.406 171.812 756.023 171.441C755.646 171.064 755.173 170.875 754.604 170.875C754.022 170.875 753.546 171.067 753.175 171.45C752.81 171.827 752.627 172.44 752.627 173.287ZM759.929 168.352H762.74L764.771 174.354H764.901L766.822 168.352H769.373L764.484 182.75H761.942L763.5 178.148L759.929 168.352ZM769.985 170.968V168.352H772.657V170.856C772.657 171.425 772.775 171.831 773.01 172.072C773.245 172.313 773.604 172.434 774.086 172.434C774.278 172.434 774.485 172.412 774.708 172.369C774.936 172.325 775.159 172.251 775.375 172.146V168.352H778.075V178H775.375V174.484C775.159 174.57 774.902 174.648 774.605 174.716C774.309 174.778 773.965 174.809 773.576 174.809C772.32 174.809 771.408 174.478 770.839 173.816C770.27 173.148 769.985 172.199 769.985 170.968ZM780.237 178V168.352H782.918V173.779H783.066L786.184 168.352H788.651V178H785.97V172.545H785.84L782.686 178H780.237ZM790.34 173.213C790.34 172.427 790.454 171.725 790.683 171.107C790.918 170.482 791.243 169.953 791.657 169.521C792.078 169.081 792.579 168.744 793.16 168.509C793.748 168.274 794.391 168.157 795.09 168.157C795.572 168.157 795.999 168.194 796.37 168.268C796.741 168.336 797.084 168.457 797.4 168.63V171.218C797.109 171.014 796.791 170.872 796.444 170.792C796.098 170.705 795.752 170.662 795.405 170.662C794.719 170.662 794.168 170.869 793.754 171.283C793.34 171.698 793.132 172.341 793.132 173.213C793.132 174.085 793.343 174.719 793.763 175.115C794.19 175.504 794.756 175.699 795.461 175.699C795.813 175.699 796.172 175.653 796.537 175.56C796.902 175.461 797.211 175.306 797.465 175.096V177.712C797.285 177.836 796.982 177.944 796.556 178.037C796.135 178.136 795.671 178.186 795.164 178.186C793.618 178.186 792.427 177.753 791.592 176.887C790.757 176.021 790.34 174.796 790.34 173.213ZM799.218 178V168.352H801.899V171.125H802.846C803.606 171.125 804.256 171.212 804.794 171.385C805.332 171.552 805.777 171.784 806.13 172.081C806.489 172.378 806.748 172.734 806.909 173.148C807.076 173.556 807.16 174.001 807.16 174.484C807.16 174.979 807.076 175.443 806.909 175.875C806.748 176.302 806.489 176.673 806.13 176.989C805.777 177.298 805.332 177.545 804.794 177.731C804.256 177.91 803.606 178 802.846 178H799.218ZM801.899 175.875H802.79C803.359 175.875 803.767 175.749 804.015 175.495C804.262 175.242 804.386 174.929 804.386 174.558C804.386 174.181 804.262 173.872 804.015 173.63C803.767 173.389 803.359 173.269 802.79 173.269H801.899V175.875ZM812.977 173.649V171.729H823.506V173.649H812.977ZM830.205 178V168.352H834.055L836.012 174.697H836.151L838.09 168.352H841.94V178H839.25V171.292H839.055L836.986 178H834.741L832.672 171.292H832.478V178H830.205ZM844.176 178V168.352H846.857V171.125H847.804C848.564 171.125 849.214 171.212 849.752 171.385C850.29 171.552 850.735 171.784 851.088 172.081C851.447 172.378 851.706 172.734 851.867 173.148C852.034 173.556 852.118 174.001 852.118 174.484C852.118 174.979 852.034 175.443 851.867 175.875C851.706 176.302 851.447 176.673 851.088 176.989C850.735 177.298 850.29 177.545 849.752 177.731C849.214 177.91 848.564 178 847.804 178H844.176ZM846.857 175.875H847.748C848.317 175.875 848.725 175.749 848.973 175.495C849.22 175.242 849.344 174.929 849.344 174.558C849.344 174.181 849.22 173.872 848.973 173.63C848.725 173.389 848.317 173.269 847.748 173.269H846.857V175.875ZM852.934 178V168.352H855.615V178H852.934ZM755.587 199V189.352H763.816V199H761.135V191.708H758.268V199H755.587ZM765.504 194.213C765.504 193.415 765.622 192.707 765.857 192.088C766.098 191.464 766.429 190.935 766.85 190.502C767.27 190.063 767.765 189.729 768.334 189.5C768.903 189.271 769.515 189.157 770.171 189.157C770.826 189.157 771.439 189.271 772.008 189.5C772.583 189.729 773.081 190.06 773.501 190.493C773.928 190.919 774.262 191.445 774.503 192.07C774.745 192.688 774.865 193.396 774.865 194.194C774.865 194.992 774.745 195.7 774.503 196.319C774.262 196.931 773.931 197.454 773.511 197.887C773.096 198.313 772.598 198.638 772.017 198.861C771.442 199.077 770.826 199.186 770.171 199.186C769.515 199.186 768.903 199.077 768.334 198.861C767.765 198.638 767.27 198.317 766.85 197.896C766.429 197.469 766.098 196.95 765.857 196.337C765.622 195.719 765.504 195.011 765.504 194.213ZM768.297 194.213C768.297 195.141 768.476 195.796 768.835 196.18C769.194 196.563 769.639 196.755 770.171 196.755C770.437 196.755 770.687 196.708 770.922 196.616C771.157 196.523 771.358 196.375 771.525 196.17C771.699 195.966 771.835 195.703 771.934 195.382C772.039 195.06 772.091 194.664 772.091 194.194C772.091 193.724 772.039 193.325 771.934 192.998C771.835 192.67 771.695 192.401 771.516 192.19C771.343 191.98 771.142 191.829 770.913 191.736C770.684 191.637 770.437 191.587 770.171 191.587C769.639 191.587 769.194 191.788 768.835 192.19C768.476 192.586 768.297 193.26 768.297 194.213ZM776.572 199V189.352H780.422L782.38 195.697H782.519L784.458 189.352H788.308V199H785.618V192.292H785.423L783.354 199H781.109L779.04 192.292H778.845V199H776.572ZM790.071 194.213C790.071 193.415 790.188 192.707 790.423 192.088C790.665 191.464 790.995 190.935 791.416 190.502C791.837 190.063 792.331 189.729 792.9 189.5C793.469 189.271 794.082 189.157 794.737 189.157C795.393 189.157 796.005 189.271 796.574 189.5C797.149 189.729 797.647 190.06 798.068 190.493C798.495 190.919 798.829 191.445 799.07 192.07C799.311 192.688 799.432 193.396 799.432 194.194C799.432 194.992 799.311 195.7 799.07 196.319C798.829 196.931 798.498 197.454 798.077 197.887C797.663 198.313 797.165 198.638 796.583 198.861C796.008 199.077 795.393 199.186 794.737 199.186C794.082 199.186 793.469 199.077 792.9 198.861C792.331 198.638 791.837 198.317 791.416 197.896C790.995 197.469 790.665 196.95 790.423 196.337C790.188 195.719 790.071 195.011 790.071 194.213ZM792.863 194.213C792.863 195.141 793.043 195.796 793.401 196.18C793.76 196.563 794.205 196.755 794.737 196.755C795.003 196.755 795.254 196.708 795.489 196.616C795.724 196.523 795.925 196.375 796.092 196.17C796.265 195.966 796.401 195.703 796.5 195.382C796.605 195.06 796.658 194.664 796.658 194.194C796.658 193.724 796.605 193.325 796.5 192.998C796.401 192.67 796.262 192.401 796.083 192.19C795.909 191.98 795.708 191.829 795.479 191.736C795.251 191.637 795.003 191.587 794.737 191.587C794.205 191.587 793.76 191.788 793.401 192.19C793.043 192.586 792.863 193.26 792.863 194.213ZM800.165 199L803.356 193.814L800.267 189.352H802.92L805.675 193.285L806.056 193.378V189.352H808.737V193.396L809.08 193.304L811.835 189.352H814.47L811.455 193.721L814.628 199H811.474L809.154 195.261L808.737 195.373V199H806.056V195.373L805.62 195.233L803.226 199H800.165ZM815.361 194.213C815.361 193.427 815.463 192.725 815.667 192.107C815.877 191.482 816.174 190.953 816.558 190.521C816.947 190.081 817.42 189.744 817.977 189.509C818.534 189.274 819.155 189.157 819.842 189.157C820.436 189.157 820.983 189.24 821.484 189.407C821.985 189.568 822.415 189.815 822.773 190.149C823.138 190.477 823.417 190.889 823.608 191.383C823.806 191.878 823.905 192.459 823.905 193.127C823.905 193.468 823.884 193.78 823.84 194.064C823.797 194.343 823.757 194.544 823.72 194.667H818.283C818.333 195.391 818.543 195.942 818.914 196.319C819.291 196.69 819.854 196.875 820.603 196.875C821.134 196.875 821.651 196.823 822.152 196.718C822.653 196.606 823.104 196.424 823.506 196.17V198.471C823.179 198.688 822.736 198.861 822.18 198.991C821.629 199.121 821.026 199.186 820.371 199.186C818.775 199.186 817.541 198.777 816.669 197.961C815.797 197.145 815.361 195.895 815.361 194.213ZM818.172 193.072H821.345C821.32 192.478 821.168 192.027 820.89 191.717C820.618 191.402 820.244 191.244 819.768 191.244C819.26 191.244 818.883 191.414 818.636 191.754C818.388 192.088 818.234 192.528 818.172 193.072ZM825.612 199V189.352H829.462L831.42 195.697H831.559L833.498 189.352H837.348V199H834.658V192.292H834.463L832.394 199H830.149L828.08 192.292H827.885V199H825.612Z" fill="#1F2229"/>
<path d="M84 253.141H148.712C160.844 253.141 172.48 248.324 181.058 239.75C189.637 231.175 194.456 219.546 194.456 207.421V176.362C194.456 164.236 199.276 152.607 207.854 144.033C216.433 135.459 228.068 130.642 240.2 130.642H370.448C382.58 130.642 394.215 135.459 402.794 144.033C411.373 152.607 416.192 164.236 416.192 176.362V209.28C416.192 221.406 421.011 233.035 429.59 241.609C438.169 250.183 449.804 255 461.936 255H620.82C632.952 255 644.587 250.183 653.165 241.609C661.744 233.035 666.564 221.406 666.564 209.28V173.72C666.564 161.594 671.383 149.965 679.962 141.391C688.54 132.817 700.175 128 712.307 128H886.022C898.154 128 909.79 132.817 918.368 141.391C926.947 149.965 931.766 161.594 931.766 173.72V203.794C931.766 215.919 936.586 227.548 945.164 236.123C953.743 244.697 965.378 249.514 977.51 249.514H1039" stroke="black" stroke-width="0.86" stroke-miterlimit="10" stroke-linecap="round" stroke-dasharray="4.28 4.28"/>

<g id="circles">
<path class="circl1" d="M85 267C92.732 267 99 260.732 99 253C99 245.268 92.732 239 85 239C77.268 239 71 245.268 71 253C71 260.732 77.268 267 85 267Z" fill="white" stroke="black" stroke-width="4.21" stroke-miterlimit="10" stroke-linecap="round"/>
<path class="circl2" d="M300 143C307.732 143 314 136.732 314 129C314 121.268 307.732 115 300 115C292.268 115 286 121.268 286 129C286 136.732 292.268 143 300 143Z" fill="white" stroke="black" stroke-width="4.21" stroke-miterlimit="10" stroke-linecap="round"/>
<path class="circl3" d="M563 267C570.732 267 577 260.732 577 253C577 245.268 570.732 239 563 239C555.268 239 549 245.268 549 253C549 260.732 555.268 267 563 267Z" fill="white" stroke="black" stroke-width="4.21" stroke-miterlimit="10" stroke-linecap="round"/>
<path class="circl4" d="M797 143C804.732 143 811 136.732 811 129C811 121.268 804.732 115 797 115C789.268 115 783 121.268 783 129C783 136.732 789.268 143 797 143Z" fill="white" stroke="black" stroke-width="4.21" stroke-miterlimit="10" stroke-linecap="round"/>
<path class="circl5" d="M1039 263C1046.73 263 1053 256.732 1053 249C1053 241.268 1046.73 235 1039 235C1031.27 235 1025 241.268 1025 249C1025 256.732 1031.27 263 1039 263Z" fill="white" stroke="black" stroke-width="4.21" stroke-miterlimit="10" stroke-linecap="round"/>
</g>

<path d="M292.82 54.1696L257.646 74.3365C253.649 76.6104 251.65 79.8077 252.05 83.2731C252.45 86.7386 255.138 90.055 259.625 92.6268C264.635 95.3448 270.226 96.8358 275.933 96.9759C281.928 97.1844 287.474 96.0326 291.431 93.7588L326.595 73.5521C330.592 71.2882 332.591 68.0909 332.201 64.6155C331.811 61.1402 329.103 57.8237 324.627 55.252" stroke="black" stroke-linejoin="round"/>
<path d="M292.821 58.8561L257.647 79.023C255.236 80.2401 253.361 82.2976 252.381 84.802C253.3 87.6717 255.828 90.4122 259.625 92.5868C264.636 95.3048 270.227 96.7958 275.933 96.9359C281.929 97.1445 287.475 95.9926 291.432 93.7188L326.596 73.5518C329.007 72.3348 330.882 70.2773 331.862 67.7728C330.953 64.9032 328.415 62.1626 324.627 59.9881" stroke="black" stroke-linejoin="round"/>
<path fill-rule="evenodd" clip-rule="evenodd" d="M292.851 54.8547L296.848 60.9912H312.167L320.91 54.8845H327.805V63.8211C327.805 66.8992 325.707 69.9675 321.61 72.3208C313.386 77.0373 300.065 77.0671 291.891 72.3208C287.794 69.9675 285.756 66.8695 285.796 63.7714V54.8348L292.851 54.8547Z" fill="black"/>
<path d="M286.045 67.9719L277.631 72.7877L286.045 67.9719ZM279.15 39.7322L287.504 44.4885L279.15 39.7322ZM328.174 67.8229L336.528 72.6189L328.174 67.8229ZM307.329 33V39.8017V33ZM335.468 39.6329L327.015 44.4885L335.468 39.6329ZM347 55.7883H335.149H347ZM307.119 73.2842V80.0859V73.2842ZM279.26 55.8777H267.409H279.26Z" fill="#BE88F8"/>
<path d="M279.26 55.8777H267.409M286.045 67.9719L277.631 72.7877L286.045 67.9719ZM279.15 39.7322L287.504 44.4885L279.15 39.7322ZM328.174 67.8229L336.528 72.6189L328.174 67.8229ZM307.329 33V39.8017V33ZM335.468 39.6329L327.015 44.4885L335.468 39.6329ZM347 55.7883H335.149H347ZM307.119 73.2842V80.0859V73.2842Z" stroke="#BE88F8" stroke-linejoin="round"/>
<path fill-rule="evenodd" clip-rule="evenodd" d="M291.961 46.4738C300.184 41.7474 313.495 41.7275 321.669 46.4143C329.843 51.101 329.803 58.7468 321.579 63.4633C313.355 68.1798 300.035 68.2096 291.861 63.513C283.687 58.8163 283.737 51.1904 291.961 46.4738ZM305.86 57.3963H296.867V61.0107H312.186L312.266 46.3348H305.97L305.86 57.3963Z" fill="#BE88F8"/>
<path d="M1058.49 115.06C1058.84 115.06 1061.28 115.06 1061.52 115.151C1087.66 123.76 1092.51 149.769 1084.16 174.139C1076.12 197.612 1055.46 212.993 1032.21 204.232C1034.71 205.939 1037.42 207.302 1040.28 208.286C1061.39 215.559 1085.56 200.968 1094.15 175.718C1102.74 150.468 1092.73 124.094 1071.63 116.867C1067.41 115.414 1062.95 114.801 1058.49 115.06Z" fill="#BE88F8"/>
<path d="M1055.31 115.238C1082.61 115.238 1093.82 146.902 1085.29 172.267C1075.88 200.273 1053.67 211.402 1032.48 204.251M1047.37 116.685C1034.14 121.35 1022.45 133.179 1017.04 149.279C1010.07 170.011 1015.66 191.408 1029.5 202.437" stroke="black" stroke-width="1.00245" stroke-linejoin="round"/>
<path d="M1072.44 169.366C1077.92 153.402 1072.7 137.136 1060.78 133.036C1048.87 128.935 1034.77 138.553 1029.3 154.517C1023.83 170.482 1029.05 186.748 1040.96 190.848C1052.87 194.948 1066.97 185.331 1072.44 169.366Z" fill="#BE88F8"/>
<path d="M1060.46 163.792C1063.25 155.647 1060.59 147.348 1054.51 145.256C1048.43 143.163 1041.24 148.07 1038.44 156.214C1035.65 164.359 1038.32 172.658 1044.39 174.75C1050.47 176.843 1057.67 171.937 1060.46 163.792Z" fill="white"/>
<path d="M1049.45 161.256L1039.04 152.192" stroke="black" stroke-linecap="round" stroke-linejoin="round"/>
<path d="M1027.05 148.654C1027.45 149.251 1027.83 149.843 1028.19 150.43C1029.07 152.047 1030.32 153.424 1031.86 154.439C1032.51 154.85 1033.23 155.119 1033.99 155.228C1034.8 155.353 1035.63 155.317 1036.42 155.123C1037.21 154.928 1037.96 154.577 1038.62 154.092C1039.28 153.607 1039.84 152.996 1040.26 152.295C1040.68 151.593 1040.96 150.815 1041.09 150.005C1041.32 148.213 1040.83 146.401 1039.74 144.964C1038.52 144.017 1037.23 143.169 1035.87 142.429C1034.9 141.897 1034.14 141.503 1033.51 141.184" fill="black"/>
<path d="M1027.05 148.654C1027.45 149.251 1027.83 149.843 1028.19 150.43C1029.07 152.047 1030.32 153.424 1031.86 154.439C1032.51 154.85 1033.23 155.119 1033.99 155.228C1034.8 155.353 1035.63 155.317 1036.42 155.123C1037.21 154.928 1037.96 154.577 1038.62 154.092C1039.28 153.607 1039.84 152.996 1040.26 152.295C1040.68 151.593 1040.96 150.815 1041.09 150.005C1041.32 148.213 1040.83 146.401 1039.74 144.964C1038.52 144.017 1037.23 143.169 1035.87 142.429C1034.9 141.897 1034.14 141.503 1033.51 141.184" stroke="black" stroke-linecap="round" stroke-linejoin="round"/>
<path d="M1029.61 133.744C1029.09 133.298 1028.55 132.882 1027.98 132.499C1023.92 129.705 1019.41 127.458 1015.17 124.907L993.666 112.396C992.521 111.93 991.449 111.301 990.484 110.528L999.956 122.235L1014.91 140.774C1017.38 143.81 1019.63 147.955 1023.87 148.608C1024.93 148.772 1026.02 148.724 1027.07 148.467C1028.11 148.211 1029.1 147.749 1029.97 147.111C1030.84 146.472 1031.57 145.668 1032.13 144.745C1032.69 143.822 1033.06 142.797 1033.22 141.73C1033.68 138.405 1031.95 135.748 1029.61 133.744Z" fill="white" stroke="black" stroke-linecap="round" stroke-linejoin="round"/>
<path d="M993.667 112.396C993.667 112.396 982.407 100.052 994.061 93.8113C1005.72 87.5709 1005.88 119.38 1005.88 119.38" stroke="black" stroke-linejoin="round"/>
<path d="M992.227 112.912C992.227 112.912 976.982 107.719 977.36 120.473C977.739 133.227 1002.32 124.922 1002.32 124.922" stroke="black" stroke-linejoin="round"/>
<path d="M982.422 112.076C982.422 112.076 973.329 107.415 978.694 104.09C984.059 100.765 991.53 109.495 991.53 109.495" stroke="black" stroke-linejoin="round"/>
<path d="M150.236 201.048L150.177 208.979L142.483 212.123L135.515 208.833L127.881 212.502L114.593 193.194L127.881 190.363L135.406 200.883L142.114 204.016L150.236 201.048Z" fill="#1F2229"/>
<path d="M157.204 197.496L157.144 205.428L149.45 208.571L142.483 205.282L134.848 208.95L121.561 189.643L121.431 181.945L134.61 200.338L142.373 197.331L149.082 200.464L157.204 197.496Z" fill="#C882FF"/>
<path d="M142.483 197.233L134.848 200.912L121.561 181.604L158 189.536L149.988 193.506L157.492 197.214L149.45 200.532L142.483 197.233Z" stroke="#1F2229" stroke-linejoin="bevel"/>
<path d="M157.204 197.496L157.144 205.427L149.45 208.571L142.483 205.281L134.848 208.95L121.561 189.643L121.591 183.95" stroke="#1F2229" stroke-linejoin="bevel"/>
<path d="M157.751 189.186V195.17" stroke="#1F2229" stroke-linejoin="bevel"/>
<path d="M149.341 200.62V208.132" stroke="#1F2229" stroke-linejoin="bevel"/>
<path d="M142.552 197.7V205.213" stroke="#1F2229" stroke-linejoin="bevel"/>
<path d="M134.938 200.834V208.347" stroke="#1F2229" stroke-linejoin="bevel"/>
<path d="M0.00032217 207.643C0.0439423 210.45 2.18134 213.173 7.51026 215.632C13.9951 218.639 23.2717 220.416 36.2196 214.921C36.5249 214.793 46.9864 209.149 46.9864 209.149L99.8249 178.585C99.8249 178.585 109.021 173.29 111.05 170.66C114.263 166.495 116.107 172.167 116.674 165.969C114.58 169.736 111.45 169.707 99.8249 176.275C74.2999 191.962 22.9599 218.589 25.0714 210.749C11.6291 215.724 10.5314 205.773 7.51026 198.665C4.35185 200.087 -0.0432979 204.835 0.00032217 207.643Z" fill="#1F2229"/>
<path d="M8.00864 209.166C8.05226 211.973 10.1897 214.696 15.5186 217.155C22.0034 220.162 31.28 221.939 44.2279 216.444C44.5332 216.316 54.9948 210.672 54.9948 210.672L107.833 180.108C107.833 180.108 117.03 174.812 119.058 172.182C122.271 168.017 120.745 163.383 121.312 157.184C119.218 160.952 120.716 162.253 109.091 168.82C83.5659 184.508 49.4768 202.612 43.9153 206.209C30.473 211.184 18.1503 211.042 8.13949 201.354C7.9432 203.7 8.00864 209.166 8.00864 209.166Z" fill="#C882FF"/>
<path d="M109.469 168.615C130.065 158.407 118.92 148.854 111.948 146.679C103.457 144.028 92.5372 144.17 83.0789 149.629L81.414 150.56C60.1419 162.516 56.4633 164.364 33.2283 177.471L32.0506 178.125C17.7723 185.674 -3.44163 197.757 15.5477 206.571C22.0325 209.578 31.3091 211.355 44.257 205.86C44.5623 205.733 55.0239 200.096 55.0239 200.096L107.862 169.532L109.469 168.615Z" stroke="#1F2229" stroke-linejoin="round"/>
<path d="M110.785 178.487C119.342 173.952 121.748 169.574 121.196 165.956" stroke="#1F2229" stroke-linejoin="round"/>
<path d="M8.00867 209.166C8.05229 211.973 10.1897 214.696 15.5186 217.155C22.0035 220.162 31.28 221.939 44.2279 216.444C44.5332 216.316 54.9948 210.673 54.9948 210.673L107.833 180.108" stroke="#1F2229" stroke-linejoin="round"/>
<path d="M7.98682 203.827V209.905" stroke="#1F2229" stroke-linejoin="round"/>
<path d="M121.29 156.246V166.766" stroke="#1F2229" stroke-linejoin="round"/>
<path d="M45.3204 191.151L41.5884 188.08L39.7382 189.202L38.5398 188.206L44.1114 184.863L45.3204 185.848L43.4596 186.959L47.1706 190.019L45.3204 191.151Z" fill="#D5D8DC"/>
<path d="M34.0194 194.452C33.6609 194.176 33.3758 193.816 33.1889 193.404C33.0546 193.072 33.0111 192.711 33.0628 192.356C33.1494 191.967 33.3339 191.607 33.5989 191.308C33.9129 190.938 34.2901 190.625 34.7133 190.386L34.8289 190.323C35.2526 190.081 35.7045 189.891 36.1745 189.757C36.6844 189.616 37.2115 189.545 37.7409 189.548C38.2475 189.546 38.7513 189.623 39.2336 189.778C39.7229 189.944 40.1786 190.197 40.5793 190.522C40.9364 190.798 41.2184 191.158 41.3992 191.57C41.5413 191.901 41.578 192.267 41.5043 192.618C41.4238 193.01 41.2386 193.372 40.9682 193.666C40.6436 194.034 40.2599 194.346 39.8328 194.588L39.7067 194.662C39.289 194.902 38.8444 195.092 38.3821 195.228C37.8798 195.373 37.3596 195.447 36.8367 195.448C36.3335 195.44 35.8341 195.359 35.3545 195.207C34.8668 195.039 34.4142 194.783 34.0194 194.452ZM35.3125 192.199C35.3125 192.524 35.4807 192.88 35.9642 193.247C36.3457 193.597 36.8349 193.807 37.3519 193.844C37.7754 193.857 38.194 193.752 38.5608 193.54C38.7355 193.446 38.8892 193.318 39.0128 193.163C39.1254 193.042 39.1954 192.887 39.2126 192.723C39.2266 192.549 39.1902 192.374 39.1075 192.22C38.9697 192.003 38.7954 191.812 38.5924 191.654C38.3779 191.475 38.1367 191.33 37.8775 191.224C37.6542 191.128 37.4159 191.072 37.1731 191.057C36.9505 191.046 36.7274 191.067 36.5109 191.12C36.3252 191.175 36.1456 191.249 35.9748 191.34C35.8134 191.417 35.6718 191.53 35.5607 191.669C35.4495 191.809 35.3718 191.972 35.3335 192.147" fill="#D5D8DC"/>
<path d="M78.6556 171.113L73.7357 167.068L75.6069 165.947L78.3822 168.221L78.4874 168.158L77.8987 164.574L79.6332 163.536L84.5531 167.571L82.6819 168.703L79.896 166.408L79.8014 166.481L80.3796 170.086L78.6556 171.113Z" fill="#D5D8DC"/>
<path d="M71.7488 175.274L66.8185 171.218L69.3941 169.678L69.6253 169.541C70.0152 169.317 70.419 169.117 70.8343 168.944C71.2029 168.794 71.5873 168.685 71.9802 168.619C72.2715 168.56 72.5718 168.56 72.8632 168.619C73.1026 168.685 73.3274 168.795 73.5255 168.944C73.652 169.03 73.753 169.148 73.8177 169.287C73.8825 169.425 73.9086 169.578 73.8934 169.73C73.8102 170.054 73.6171 170.339 73.3468 170.537L73.4098 170.6C73.8667 170.383 74.3649 170.265 74.8711 170.254C75.2914 170.248 75.7005 170.389 76.0274 170.652C76.2088 170.787 76.3504 170.968 76.4374 171.176C76.5221 171.381 76.5221 171.611 76.4374 171.816C76.3126 172.11 76.122 172.371 75.8803 172.581C75.5076 172.921 75.0987 173.22 74.6608 173.471L71.7488 175.274ZM74.0091 171.795C73.9137 171.716 73.802 171.659 73.6821 171.628C73.5621 171.597 73.4369 171.593 73.3152 171.616C73.0243 171.656 72.745 171.756 72.4953 171.91L71.6332 172.434L72.6845 173.325L73.5465 172.811C73.7924 172.683 73.9993 172.491 74.1457 172.256C74.1877 172.172 74.1981 172.076 74.1749 171.986C74.1517 171.895 74.0966 171.816 74.0196 171.763L74.0091 171.795ZM70.3192 170.464L69.6569 170.851L70.6345 171.658L71.2968 171.271C71.5511 171.149 71.7607 170.951 71.896 170.705C71.9218 170.626 71.9225 170.542 71.898 170.463C71.8735 170.384 71.8251 170.315 71.7594 170.265C71.6749 170.201 71.5778 170.155 71.4745 170.132C71.3712 170.109 71.264 170.107 71.1602 170.128C70.8838 170.173 70.6194 170.273 70.3822 170.422H70.3192" fill="#D5D8DC"/>
<path d="M62.8448 176.993C63.0761 176.613 63.3754 176.279 63.7278 176.008C64.2654 175.567 64.8385 175.171 65.4413 174.824L65.2205 174.645C65.1114 174.556 64.9853 174.49 64.8499 174.45C64.7144 174.41 64.5723 174.398 64.4321 174.415C64.0881 174.458 63.7579 174.576 63.465 174.761L63.3599 174.824C62.985 175.047 62.6329 175.307 62.3086 175.599C62.0205 175.858 61.7725 176.158 61.5727 176.49L60.3638 175.505C60.5898 175.165 60.8663 174.861 61.1838 174.603C61.5663 174.292 61.9703 174.009 62.3927 173.755L62.5504 173.671C63.3061 173.19 64.169 172.902 65.0629 172.832C65.8272 172.808 66.5744 173.061 67.1654 173.545L70.3191 176.144L68.511 177.192L67.7541 176.563L67.6595 176.626C67.6757 176.776 67.6757 176.927 67.6595 177.077C67.6638 177.237 67.6277 177.395 67.5544 177.538C67.4594 177.712 67.3389 177.871 67.1969 178.009C67.0039 178.2 66.7844 178.363 66.5451 178.492H66.4715C65.9487 178.809 65.3492 178.979 64.737 178.984C64.1738 178.988 63.6269 178.795 63.1916 178.439C62.9556 178.262 62.7796 178.017 62.6871 177.737C62.6553 177.478 62.7108 177.216 62.8448 176.993ZM64.8421 176.479C64.6003 176.752 64.5898 176.982 64.8421 177.182C65.0087 177.313 65.219 177.376 65.4308 177.36C65.6852 177.355 65.933 177.279 66.1456 177.14C66.287 177.059 66.4147 176.956 66.5241 176.836C66.6226 176.729 66.6915 176.599 66.7239 176.458C66.7654 176.322 66.7654 176.176 66.7239 176.039C66.6486 175.876 66.5328 175.736 66.3875 175.63L66.2087 175.484C65.7083 175.771 65.2487 176.123 64.8421 176.532" fill="#D5D8DC"/>
<path d="M59.6384 185.984L52.2797 179.958L54.0878 178.91L54.7712 179.476L54.8658 179.413C54.8157 179.103 54.8752 178.784 55.034 178.512C55.2896 178.117 55.6547 177.804 56.0852 177.611L56.1798 177.548C56.5484 177.334 56.9497 177.182 57.3677 177.097C57.8193 176.995 58.285 176.97 58.7449 177.024C59.2012 177.06 59.6486 177.169 60.0695 177.349C60.5043 177.526 60.9087 177.77 61.2679 178.072C61.6149 178.342 61.9104 178.672 62.1404 179.047C62.3196 179.348 62.4174 179.692 62.4243 180.042C62.4161 180.384 62.3063 180.716 62.1089 180.996C61.8604 181.336 61.5412 181.618 61.1733 181.824L61.0682 181.887C60.6807 182.113 60.2578 182.272 59.8172 182.358C59.3761 182.442 58.9231 182.442 58.4821 182.358H58.3979L59.2285 182.945L61.5517 184.852L59.6384 185.984ZM56.0326 180.199C56.1256 180.398 56.2665 180.571 56.4426 180.702L56.7475 180.954C57.1116 181.275 57.5759 181.46 58.0615 181.478C58.4756 181.473 58.8815 181.361 59.239 181.153C59.4055 181.056 59.5547 180.932 59.6805 180.786C59.7964 180.662 59.87 180.504 59.8908 180.336C59.9129 180.151 59.8682 179.966 59.7646 179.812C59.6386 179.577 59.4628 179.374 59.2495 179.214C59.0389 179.043 58.8054 178.902 58.5557 178.795C58.33 178.708 58.0927 178.655 57.8513 178.638C57.6311 178.633 57.4114 178.662 57.1996 178.722C57.0122 178.777 56.8322 178.854 56.6634 178.952C56.4933 179.049 56.3377 179.169 56.2009 179.309C56.0864 179.424 56.0064 179.57 55.9696 179.728C55.948 179.885 55.9736 180.046 56.0432 180.189" fill="#D5D8DC"/>
<path d="M49.9249 188.363L45.005 184.329L50.7659 180.87L55.6962 184.905L53.825 186.037L50.0931 182.977L48.0852 184.182L51.8066 187.242L49.9249 188.363Z" fill="#D5D8DC"/>
<path d="M87.2968 165.926L83.5754 162.866L81.7252 163.987L80.5267 162.991L86.0984 159.648L87.2968 160.634L85.4361 161.755L89.1575 164.815L87.2968 165.926Z" fill="#D5D8DC"/>
<path d="M91.9118 163.149L86.9919 159.114L88.8632 157.982L90.2824 159.145L90.9447 158.747L91.0603 158.684C91.4953 158.42 91.9569 158.203 92.4374 158.035C92.8589 157.89 93.2968 157.799 93.741 157.762C94.0961 157.741 94.4521 157.784 94.7922 157.888C95.1045 157.985 95.3966 158.137 95.6542 158.338C95.886 158.523 96.0698 158.76 96.1904 159.03C96.2855 159.284 96.2855 159.563 96.1904 159.816C96.0764 160.146 95.8855 160.444 95.6333 160.686C95.268 161.054 94.8542 161.372 94.4032 161.629L91.9118 163.149ZM92.0064 159.669L91.3756 160.047L92.7002 161.095L93.331 160.717C93.7305 160.476 93.9513 160.256 93.9933 160.047C94.0185 159.944 94.0107 159.836 93.971 159.739C93.9314 159.641 93.862 159.558 93.7725 159.502C93.5697 159.333 93.3107 159.247 93.0472 159.261C92.6942 159.285 92.3536 159.401 92.059 159.596" fill="#D5D8DC"/>
<path d="M576.052 218.892L611.345 198.428C613.91 196.933 615.118 194.95 614.968 192.998C614.834 191.262 614.968 183.482 614.897 182.481L563.268 160.526C558.411 157.742 550.514 157.752 545.647 160.526L508.029 173.967C508.029 177.973 507.964 183.594 508.029 185.486C508.09 187.282 509.303 189.064 511.669 190.425L522.446 196.637L521.744 199.712V211.54L543.6 210.348L558.461 218.912C563.318 221.706 571.216 221.686 576.073 218.912" fill="#C882FF"/>
<path d="M611.357 185.957C616.214 183.132 616.214 178.564 611.357 175.76L563.291 148.115C558.434 145.29 550.536 145.3 545.669 148.115L511.661 167.747C506.815 170.571 506.815 175.139 511.661 177.933L525.198 185.736L525.118 186.027L521.736 199.048L543.592 197.856L558.454 206.42C563.311 209.255 571.208 209.235 576.065 206.42L611.357 185.957Z" fill="white"/>
<path d="M569.426 162.291C567.99 165.818 563.129 169.632 562.836 169.777L555.186 167.336C545.952 171.539 548.63 183.171 548.777 183.745L556.308 186.235L556.116 195.363L545.747 193.985C544.971 193.876 544.222 193.622 543.541 193.236C543.189 193.03 542.865 192.783 542.573 192.499C542.398 192.313 542.247 192.105 542.125 191.88C530.273 170.468 549.419 159.714 556.083 156.743C556.771 156.472 557.517 156.378 558.251 156.47C559.095 156.577 559.911 156.843 560.656 157.256L569.426 162.291Z" fill="#C882FF"/>
<path d="M568.042 171.593C570.249 172.865 571.413 174.547 571.243 176.27C571.062 178.173 569.236 179.926 566.366 181.048C565.929 181.189 565.458 181.189 565.021 181.048C564.906 181.017 564.795 180.973 564.69 180.918C564.595 180.875 564.514 180.807 564.457 180.72C564.4 180.633 564.37 180.531 564.369 180.427C564.411 180.309 564.482 180.204 564.575 180.12C564.667 180.036 564.78 179.977 564.901 179.946C567.219 179.055 568.634 177.663 568.764 176.14C568.895 174.778 567.972 173.446 566.225 172.434C566.035 172.324 565.834 172.224 565.613 172.113H565.543C565.102 171.863 565.092 171.482 565.543 171.232C565.818 171.098 566.12 171.028 566.426 171.028C566.732 171.028 567.034 171.098 567.309 171.232C567.56 171.339 567.804 171.459 568.042 171.593Z" fill="black"/>
<path d="M572.758 169.079C576.18 171.082 577.996 173.736 577.775 176.471C577.504 179.415 574.886 182.12 570.621 183.863C570.233 184.015 569.805 184.033 569.407 183.913C569.309 183.886 569.215 183.849 569.126 183.803C568.905 183.672 568.784 183.502 568.814 183.322C568.844 183.142 568.985 182.961 569.266 182.841C572.979 181.329 575.287 178.965 575.508 176.401C575.728 174.007 574.143 171.673 571.163 169.96L570.47 169.579C570.169 169.409 570.049 169.189 570.139 168.978C570.218 168.845 570.329 168.733 570.462 168.652C570.595 168.572 570.746 168.526 570.902 168.518C571.279 168.449 571.667 168.498 572.015 168.658L572.758 169.079Z" fill="black"/>
<path d="M577.073 165.673C582.091 168.528 584.66 172.564 584.238 176.691C583.817 180.818 580.375 184.704 574.815 187.198C574.453 187.333 574.054 187.333 573.691 187.198L573.461 187.098C573.364 187.058 573.282 186.989 573.225 186.902C573.167 186.814 573.138 186.712 573.14 186.607C573.161 186.495 573.212 186.391 573.288 186.306C573.364 186.222 573.462 186.159 573.571 186.126C578.589 183.863 581.77 180.367 582.151 176.571C582.532 172.775 580.144 169.129 575.638 166.554L575.528 166.484C575.412 166.439 575.317 166.353 575.261 166.242C575.206 166.131 575.193 166.003 575.227 165.883C575.3 165.753 575.405 165.642 575.53 165.56C575.656 165.478 575.8 165.427 575.949 165.413C576.29 165.348 576.643 165.398 576.953 165.553L577.073 165.673Z" fill="black"/>
<path d="M545.647 148.507C550.514 145.732 558.411 145.722 563.268 148.507L611.345 176.212C616.192 179.016 616.192 183.584 611.345 186.409L593.699 196.64L584.876 201.756L576.073 206.892C571.216 209.667 563.318 209.687 558.461 206.892L543.6 198.328L521.744 199.52L525.126 186.499L525.206 186.208L511.669 178.405C506.812 175.611 506.812 171.043 511.669 168.219L539.452 152.101" stroke="black" stroke-linejoin="bevel"/>
<path d="M790.569 96.562L821.039 79.4315L822.78 80.3373L830.619 75.6989V74.2456L859.926 56.8164V54.756L855.867 51.8594V54.2085L790.569 91.0377L740.759 62.6096V55.9007L733.408 60.2605V62.6096L790.569 96.562Z" fill="#C882FF"/>
<path d="M790.917 94.6409H790.419L733.249 60.6686V59.8125L740.342 55.4926L740.859 56.3386L734.472 60.2306L790.678 93.6357L820.9 76.6445L821.367 76.6345L822.86 77.381L830.221 73.0213V71.8567L830.46 71.4287L859.08 54.4176L855.28 51.9689L855.817 51.1328L860.294 54.0095L860.284 54.8555L831.216 72.1354V73.3099L830.967 73.728L823.138 78.3764L822.661 78.3964L821.159 77.6399L790.917 94.6409Z" fill="black"/>
<path d="M791.394 97H790.947L733.249 62.729L733 62.301V60.0315H733.995V62.0223L791.156 95.9947L821.377 79.0035H821.845L823.337 79.75L830.221 75.659V73.1208H831.216V75.9377L830.967 76.3657L823.616 80.7454H823.138L821.636 79.989L791.394 97ZM832.569 73.9868L832.061 73.1308L860.005 56.4979V54.5071H861V56.7766L860.761 57.2046L832.569 73.9868Z" fill="black"/>
<path d="M792.18 71.4784L791.862 71.4088L743.117 41.7862L743.326 40.8704L774.085 37.3866L774.393 37.4463L824.591 66.7802L824.402 67.696L792.18 71.4784ZM744.868 41.6966L792.23 70.4632L822.78 66.8897L774.035 38.3919L744.868 41.6966Z" fill="black"/>
<path d="M824.372 67.9249L773.876 38.3123L773.727 38.1829L756.03 14.6421L756.686 13.9155L805.431 42.9508L805.57 43.0602L825.008 67.1684L824.372 67.9249ZM774.463 37.5359L822.521 65.7152L804.844 43.8167L758.347 16.1252L774.463 37.5359Z" fill="black"/>
<path d="M824.989 68.0941L824.024 67.8652L833.056 30.2795L784.6 1.19447L778.263 25.4221L777.298 25.1732L783.804 0.298633L784.54 0L833.872 29.6126L834.101 30.1601L824.989 68.0941Z" fill="black"/>
<path d="M824.67 68.2036L823.924 67.5467L850.266 37.4264L801.601 8.72952L802.108 7.87347L851.281 36.869L851.41 37.6255L824.67 68.2036Z" fill="black"/>
<path d="M790.42 91.7444L740.511 62.9978L740.262 62.5598V54.7261L740.531 54.2782L754.03 47.3702L754.488 48.2562L741.257 55.0247V62.2712L790.668 90.7291L823.914 71.4287L854.882 53.8502V46.6038L847.461 42.7418L847.919 41.8559L855.618 45.8573L855.877 46.3052V54.1388L855.628 54.5768L824.412 72.2847L790.927 91.7344L790.42 91.7444Z" fill="black"/>
<path d="M780.042 44.8983L760.595 47.5534L760.729 48.5397L780.176 45.8845L780.042 44.8983Z" fill="black"/>
<path d="M853.481 46.4471L823.938 67.3461L824.512 68.1588L854.055 47.2598L853.481 46.4471Z" fill="black"/>
<path d="M790.598 84.2094L790.131 84.1894L740.083 54.9053L740.58 54.0393L790.4 83.1941L824.571 66.83L824.998 67.7358L790.598 84.2094Z" fill="black"/>
<path d="M784.373 47.6375L765.392 50.3946L765.535 51.3797L784.516 48.6226L784.373 47.6375Z" fill="black"/>
<path d="M797.796 54.5849L778.815 57.3419L778.958 58.327L797.939 55.5699L797.796 54.5849Z" fill="black"/>
<path d="M802.446 58.0714L783.465 60.8285L783.608 61.8136L802.589 59.0565L802.446 58.0714Z" fill="black"/>
<path d="M791.497 11.1343L786.287 29.2205L787.243 29.4962L792.453 11.41L791.497 11.1343Z" fill="black"/>
<path d="M796.135 13.4516L790.925 31.5379L791.881 31.8136L797.091 13.7273L796.135 13.4516Z" fill="black"/>
<path d="M791.016 83.5524H790.022V89.3356H791.016V83.5524Z" fill="black"/>
</svg>
