<svg viewBox="0 0 1115 327"   width="1115" height="327" fill="none" xmlns="http://www.w3.org/2000/svg"><path d="M7.327 303v-14.25h10.13V303h-2.773v-11.727H10.1V303H7.327Zm12.07-4.787c0-.798.117-1.506.352-2.125a4.65 4.65 0 0 1 .993-1.586c.42-.439.915-.773 1.484-1.002a4.873 4.873 0 0 1 1.837-.343c.656 0 1.268.114 1.837.343.575.229 1.073.56 1.494.993.426.426.76.952 1.002 1.577.24.618.361 1.326.361 2.124s-.12 1.506-.362 2.125a4.686 4.686 0 0 1-.992 1.568 4.105 4.105 0 0 1-1.494.974 5.209 5.209 0 0 1-1.846.325 5.133 5.133 0 0 1-1.837-.325 4.278 4.278 0 0 1-1.484-.965 4.577 4.577 0 0 1-.993-1.559c-.235-.618-.352-1.326-.352-2.124Zm2.792 0c0 .928.18 1.583.538 1.967.359.383.804.575 1.336.575.266 0 .516-.047.752-.139.234-.093.435-.241.602-.446.174-.204.31-.467.409-.788.105-.322.157-.718.157-1.188s-.052-.869-.157-1.196a2.22 2.22 0 0 0-.418-.808 1.52 1.52 0 0 0-.603-.454 1.85 1.85 0 0 0-.742-.149c-.532 0-.977.201-1.336.603-.359.396-.538 1.07-.538 2.023Zm7.32 2.431h.816c.279-.291.514-.672.705-1.142.192-.47.343-1.017.455-1.642.117-.624.2-1.317.25-2.078.05-.761.08-1.571.093-2.43h6.865v7.292h1.476v4.861h-2.394L37.589 303h-5.473l-.195 2.505h-2.412v-4.861Zm3.423 0h3.062v-4.917h-1.995c0 .315-.022.695-.065 1.141a16.16 16.16 0 0 1-.176 1.363c-.08.47-.189.922-.325 1.355-.13.427-.297.779-.5 1.058Zm8.248-.232c0-.532.099-.996.297-1.392.198-.402.516-.742.955-1.02.445-.279 1.017-.486 1.716-.622.705-.142 1.571-.213 2.598-.213v-.418c0-.421-.14-.742-.417-.965-.279-.229-.709-.343-1.29-.343-.581 0-1.135.065-1.66.195a5.243 5.243 0 0 0-1.513.621v-2.375c.47-.253.996-.436 1.577-.547a9.22 9.22 0 0 1 1.837-.176c1.417 0 2.462.312 3.136.937.674.618 1.011 1.521 1.011 2.709V303H46.84v-1.503h-.13a5.683 5.683 0 0 1-.418.659c-.154.21-.343.393-.565.547a2.675 2.675 0 0 1-.77.353c-.291.086-.631.13-1.02.13-.873 0-1.55-.251-2.033-.752-.482-.507-.723-1.181-.723-2.022Zm2.7-.511c0 .303.104.554.315.752.21.198.498.297.863.297a1.598 1.598 0 0 0 1.15-.473c.167-.167.297-.372.39-.613.099-.241.148-.525.148-.853v-.344c-.952 0-1.67.09-2.152.27-.477.173-.715.494-.715.964ZM51.504 303v-9.648h2.681v5.427h.149l3.117-5.427h2.468V303h-2.681v-5.455h-.13L53.955 303h-2.45Zm.78-13.833h2.338c0 .365.068.656.204.873.142.216.414.324.816.324.377 0 .643-.108.798-.324.154-.217.232-.508.232-.873h2.338c0 .644-.1 1.176-.297 1.596a2.705 2.705 0 0 1-.77 1.002 2.688 2.688 0 0 1-1.076.51c-.396.093-.804.14-1.225.14-.42 0-.829-.047-1.224-.14a2.768 2.768 0 0 1-1.077-.51 2.721 2.721 0 0 1-.77-.993c-.192-.42-.287-.955-.287-1.605Zm14.185 13.36v-2.319c.927.569 1.89.853 2.885.853.965 0 1.447-.334 1.447-1.002 0-.328-.12-.566-.362-.714-.24-.149-.572-.223-.992-.223H67.87v-2.069h1.447c.39 0 .674-.074.853-.222a.77.77 0 0 0 .27-.613c0-.328-.121-.559-.362-.696-.242-.142-.585-.213-1.03-.213-.458 0-.878.053-1.262.158-.383.105-.78.284-1.187.538v-2.292a5.68 5.68 0 0 1 1.336-.408 7.877 7.877 0 0 1 1.512-.148c.655 0 1.212.065 1.67.195.457.123.832.296 1.122.519.297.223.51.486.64.789.136.303.205.631.205.983 0 .482-.115.919-.344 1.308-.229.384-.646.677-1.252.882v.129c.643.155 1.129.44 1.456.854.334.408.501.928.501 1.559 0 .352-.062.698-.185 1.039a2.165 2.165 0 0 1-.622.899c-.29.266-.683.48-1.178.641-.489.154-1.107.232-1.855.232-.254 0-.52-.013-.798-.038a8.71 8.71 0 0 1-.826-.111 7.069 7.069 0 0 1-.807-.195 3.325 3.325 0 0 1-.705-.315Zm8.48-2.115c0-.532.098-.996.296-1.392.198-.402.517-.742.956-1.02.445-.279 1.017-.486 1.716-.622.705-.142 1.57-.213 2.598-.213v-.418c0-.421-.14-.742-.418-.965-.278-.229-.708-.343-1.29-.343-.58 0-1.134.065-1.66.195a5.244 5.244 0 0 0-1.512.621v-2.375c.47-.253.996-.436 1.577-.547a9.22 9.22 0 0 1 1.837-.176c1.416 0 2.461.312 3.136.937.674.618 1.01 1.521 1.01 2.709V303h-2.588v-1.503h-.13a5.67 5.67 0 0 1-.417.659c-.155.21-.343.393-.566.547a2.674 2.674 0 0 1-.77.353c-.29.086-.63.13-1.02.13-.873 0-1.55-.251-2.032-.752-.483-.507-.724-1.181-.724-2.022Zm2.699-.511c0 .303.105.554.315.752.21.198.498.297.863.297a1.598 1.598 0 0 0 1.15-.473c.167-.167.297-.372.39-.613.1-.241.149-.525.149-.853v-.344c-.953 0-1.67.09-2.153.27-.476.173-.714.494-.714.964Zm6.94 3.099 2.541-3.553c-.674-.217-1.193-.566-1.558-1.049-.365-.488-.548-1.1-.548-1.836 0-.365.065-.74.195-1.123.136-.383.356-.73.659-1.039.303-.309.699-.56 1.187-.752.489-.197 1.083-.296 1.782-.296h4.119V303h-2.7v-2.959h-.529L87.594 303h-3.006Zm3.21-6.234c0 .34.12.646.361.918.241.266.61.399 1.104.399h1.002v-2.625h-1.002c-.495 0-.863.136-1.104.408-.241.272-.362.572-.362.9ZM95.126 303v-9.648h3.684c.76 0 1.4.061 1.92.185.519.118.94.285 1.262.501.321.21.55.467.686.77.142.303.214.64.214 1.011 0 .582-.158 1.042-.474 1.383-.315.334-.739.556-1.271.668v.13c.656.098 1.169.343 1.54.732.378.39.566.894.566 1.513 0 .377-.065.733-.194 1.067a2.116 2.116 0 0 1-.641.872c-.303.253-.711.454-1.224.603-.514.142-1.151.213-1.911.213h-4.157Zm2.682-1.865h1.234c.445 0 .794-.089 1.048-.269.26-.185.389-.448.389-.788 0-.365-.129-.637-.389-.817-.26-.179-.61-.269-1.048-.269h-1.234v2.143Zm0-3.989h.927c.483 0 .83-.093 1.04-.278a.926.926 0 0 0 .324-.724.774.774 0 0 0-.352-.677c-.23-.161-.566-.241-1.012-.241h-.927v1.92Zm7.19 5.854v-9.648h2.681v3.887l.51-.093 2.598-3.794h2.644l-2.96 4.332 3.173 5.316h-3.173l-2.264-3.665-.528.149V303h-2.681Zm8.692-9.648h2.811l2.032 6.002h.13l1.92-6.002h2.552l-4.889 14.398h-2.542l1.558-4.602-3.572-9.796ZM221.626 178v-14.25h4.583c.81 0 1.506.093 2.087.278.582.18 1.061.433 1.438.761.384.322.665.708.845 1.16.179.445.269.94.269 1.484 0 .724-.192 1.336-.576 1.837-.377.501-.903.878-1.577 1.132v.13c.835.179 1.491.55 1.967 1.113s.714 1.28.714 2.152c0 .594-.089 1.151-.269 1.67a3.181 3.181 0 0 1-.853 1.327c-.39.371-.897.665-1.522.881-.618.217-1.37.325-2.254.325h-4.852Zm2.774-2.375h1.753c.316 0 .616-.028.9-.083.285-.056.535-.158.752-.307.216-.148.383-.337.501-.566.123-.235.185-.538.185-.909 0-.377-.068-.686-.204-.927a1.564 1.564 0 0 0-.519-.576 2.004 2.004 0 0 0-.761-.306 4.264 4.264 0 0 0-.891-.093H224.4v3.767Zm0-6.095h1.484c.582 0 1.07-.136 1.466-.408.402-.273.603-.727.603-1.364 0-.303-.052-.56-.158-.77a1.273 1.273 0 0 0-.436-.501 1.814 1.814 0 0 0-.658-.279 3.853 3.853 0 0 0-.817-.083H224.4v3.405Zm8.823 8.47v-9.648h2.681v2.773h.946c.761 0 1.41.087 1.948.26.538.167.984.399 1.336.696.359.297.619.653.78 1.067.167.408.25.853.25 1.336 0 .495-.083.959-.25 1.391a2.771 2.771 0 0 1-.78 1.114c-.352.309-.798.556-1.336.742-.538.179-1.187.269-1.948.269h-3.627Zm2.681-2.125h.89c.569 0 .978-.126 1.225-.38a1.29 1.29 0 0 0 .371-.937c0-.377-.124-.686-.371-.928-.247-.241-.656-.361-1.225-.361h-.89v2.606ZM241.98 178v-9.648h2.682V178h-2.682Zm4.862 0v-9.648h8.229V178h-2.681v-7.292h-2.867V178h-2.681Zm9.917-4.787c0-.798.118-1.506.353-2.125a4.654 4.654 0 0 1 .992-1.586 4.213 4.213 0 0 1 1.485-1.002 4.872 4.872 0 0 1 1.837-.343c.655 0 1.268.114 1.837.343.575.229 1.073.56 1.493.993.427.426.761.952 1.002 1.577.242.618.362 1.326.362 2.124s-.12 1.506-.362 2.125a4.69 4.69 0 0 1-.992 1.568 4.115 4.115 0 0 1-1.494.974 5.21 5.21 0 0 1-1.846.325 5.132 5.132 0 0 1-1.837-.325 4.284 4.284 0 0 1-1.485-.965 4.581 4.581 0 0 1-.992-1.559c-.235-.618-.353-1.326-.353-2.124Zm2.793 0c0 .928.179 1.583.538 1.967.359.383.804.575 1.336.575.266 0 .516-.047.751-.139.235-.093.436-.241.603-.446.173-.204.31-.467.408-.788.106-.322.158-.718.158-1.188s-.052-.869-.158-1.196a2.21 2.21 0 0 0-.417-.808 1.516 1.516 0 0 0-.603-.454 1.849 1.849 0 0 0-.742-.149c-.532 0-.977.201-1.336.603-.359.396-.538 1.07-.538 2.023Zm7.375 4.843v-2.431c.037.012.084.025.139.037a.429.429 0 0 0 .13.019h.158c.353 0 .637-.146.854-.436.216-.291.383-.736.5-1.336.118-.606.198-1.367.242-2.283.049-.921.074-2.013.074-3.274h7.004V178h-2.69v-7.292h-2.032c0 1.039-.043 2.01-.13 2.913-.08.903-.241 1.695-.482 2.375-.241.68-.585 1.212-1.03 1.596-.439.383-1.02.575-1.744.575a3.56 3.56 0 0 1-.724-.056 1.636 1.636 0 0 1-.269-.055Zm11.272-.056v-9.648h2.681v3.506h3.053v-3.506h2.681V178h-2.681v-3.785h-3.053V178h-2.681Zm10.576 0v-9.648h2.682v5.427h.148l3.117-5.427h2.468V178h-2.681v-5.455h-.13L291.225 178h-2.45Zm14.39-7.292v-2.356h7.969v2.356h-2.663V178h-2.662v-7.292h-2.644Zm8.776 2.505c0-.786.102-1.488.306-2.106.21-.625.507-1.154.891-1.586.389-.44.862-.777 1.419-1.012s1.178-.352 1.865-.352c.594 0 1.141.083 1.642.25.501.161.931.408 1.29.742.364.328.643.74.834 1.234.198.495.297 1.076.297 1.744a6.145 6.145 0 0 1-.185 1.54h-5.437c.05.724.26 1.275.631 1.652.377.371.94.556 1.689.556a7.53 7.53 0 0 0 1.549-.157 4.244 4.244 0 0 0 1.354-.548v2.301c-.327.217-.77.39-1.326.52a7.876 7.876 0 0 1-1.809.195c-1.596 0-2.83-.409-3.702-1.225-.872-.816-1.308-2.066-1.308-3.748Zm2.811-1.141h3.173c-.025-.594-.176-1.045-.455-1.355-.272-.315-.646-.473-1.122-.473-.508 0-.885.17-1.132.51-.248.334-.402.774-.464 1.318Zm6.967 1.141c0-.786.115-1.488.343-2.106a4.6 4.6 0 0 1 .975-1.586 4.25 4.25 0 0 1 1.503-1.012 5.144 5.144 0 0 1 1.929-.352c.483 0 .909.037 1.281.111.371.068.714.189 1.029.362v2.588a2.705 2.705 0 0 0-.955-.426 4.256 4.256 0 0 0-1.039-.13c-.687 0-1.237.207-1.652.621-.414.415-.621 1.058-.621 1.93 0 .872.21 1.506.631 1.902.426.389.992.584 1.697.584a4.35 4.35 0 0 0 1.077-.139 2.43 2.43 0 0 0 .927-.464v2.616c-.179.124-.482.232-.909.325a6.076 6.076 0 0 1-1.392.149c-1.546 0-2.736-.433-3.571-1.299-.835-.866-1.253-2.091-1.253-3.674Zm7.979-2.505v-2.356h7.969v2.356h-2.663V178h-2.662v-7.292h-2.644Zm8.776 2.505c0-.798.118-1.506.353-2.125a4.654 4.654 0 0 1 .992-1.586 4.213 4.213 0 0 1 1.485-1.002 4.872 4.872 0 0 1 1.837-.343c.655 0 1.268.114 1.837.343.575.229 1.073.56 1.493.993.427.426.761.952 1.002 1.577.241.618.362 1.326.362 2.124s-.121 1.506-.362 2.125a4.677 4.677 0 0 1-.993 1.568 4.103 4.103 0 0 1-1.493.974 5.21 5.21 0 0 1-1.846.325 5.132 5.132 0 0 1-1.837-.325 4.284 4.284 0 0 1-1.485-.965 4.581 4.581 0 0 1-.992-1.559c-.235-.618-.353-1.326-.353-2.124Zm2.793 0c0 .928.179 1.583.538 1.967.358.383.804.575 1.336.575.266 0 .516-.047.751-.139.235-.093.436-.241.603-.446.173-.204.309-.467.408-.788.105-.322.158-.718.158-1.188s-.053-.869-.158-1.196a2.226 2.226 0 0 0-.417-.808 1.516 1.516 0 0 0-.603-.454 1.849 1.849 0 0 0-.742-.149c-.532 0-.978.201-1.336.603-.359.396-.538 1.07-.538 2.023Zm8.275 4.787v-9.648h3.683c.761 0 1.401.061 1.921.185.519.118.94.285 1.261.501.322.21.551.467.687.77.142.303.213.64.213 1.011 0 .582-.158 1.042-.473 1.383-.315.334-.739.556-1.271.668v.13c.656.098 1.169.343 1.54.732.377.39.566.894.566 1.513 0 .377-.065.733-.195 1.067a2.113 2.113 0 0 1-.64.872c-.303.253-.711.454-1.225.603-.513.142-1.15.213-1.911.213h-4.156Zm2.681-1.865h1.234c.445 0 .795-.089 1.048-.269.26-.185.39-.448.39-.788 0-.365-.13-.637-.39-.817-.259-.179-.609-.269-1.048-.269h-1.234v2.143Zm0-3.989h.928c.482 0 .829-.093 1.039-.278a.928.928 0 0 0 .325-.724.774.774 0 0 0-.353-.677c-.229-.161-.566-.241-1.011-.241h-.928v1.92Zm6.717 1.067c0-.798.117-1.506.352-2.125a4.671 4.671 0 0 1 .993-1.586 4.213 4.213 0 0 1 1.485-1.002 4.87 4.87 0 0 1 1.836-.343c.656 0 1.268.114 1.837.343.576.229 1.073.56 1.494.993.427.426.761.952 1.002 1.577.241.618.362 1.326.362 2.124s-.121 1.506-.362 2.125a4.677 4.677 0 0 1-.993 1.568 4.103 4.103 0 0 1-1.493.974 5.215 5.215 0 0 1-1.847.325 5.13 5.13 0 0 1-1.836-.325 4.284 4.284 0 0 1-1.485-.965 4.598 4.598 0 0 1-.993-1.559c-.235-.618-.352-1.326-.352-2.124Zm2.792 0c0 .928.18 1.583.539 1.967.358.383.804.575 1.335.575.266 0 .517-.047.752-.139.235-.093.436-.241.603-.446.173-.204.309-.467.408-.788.105-.322.158-.718.158-1.188s-.053-.869-.158-1.196a2.226 2.226 0 0 0-.417-.808 1.53 1.53 0 0 0-.603-.454 1.854 1.854 0 0 0-.743-.149c-.531 0-.977.201-1.335.603-.359.396-.539 1.07-.539 2.023Zm7.803 0c0-.786.102-1.488.306-2.106.21-.625.507-1.154.89-1.586a3.89 3.89 0 0 1 1.42-1.012c.557-.235 1.178-.352 1.865-.352.593 0 1.141.083 1.642.25.501.161.931.408 1.289.742.365.328.643.74.835 1.234.198.495.297 1.076.297 1.744a6.275 6.275 0 0 1-.185 1.54h-5.437c.05.724.26 1.275.631 1.652.377.371.94.556 1.688.556a7.54 7.54 0 0 0 1.55-.157 4.244 4.244 0 0 0 1.354-.548v2.301c-.328.217-.77.39-1.326.52a7.878 7.878 0 0 1-1.81.195c-1.595 0-2.829-.409-3.701-1.225-.872-.816-1.308-2.066-1.308-3.748Zm2.811-1.141h3.173c-.025-.594-.177-1.045-.455-1.355-.272-.315-.646-.473-1.123-.473-.507 0-.884.17-1.131.51-.248.334-.402.774-.464 1.318Zm-107.311 26.455v-2.319c.927.569 1.889.853 2.885.853.965 0 1.447-.334 1.447-1.002 0-.328-.12-.566-.362-.714-.241-.149-.572-.223-.992-.223h-1.577v-2.069h1.447c.389 0 .674-.074.853-.222a.768.768 0 0 0 .269-.613c0-.328-.12-.559-.361-.696-.242-.142-.585-.213-1.03-.213-.458 0-.878.053-1.262.158a4.528 4.528 0 0 0-1.187.538v-2.292a5.675 5.675 0 0 1 1.335-.408 7.89 7.89 0 0 1 1.513-.148c.655 0 1.212.065 1.67.195.457.123.831.296 1.122.519.297.223.51.486.64.789.136.303.204.631.204.983 0 .482-.114.919-.343 1.308-.229.384-.646.677-1.252.882v.129c.643.155 1.128.44 1.456.854.334.408.501.928.501 1.559 0 .352-.062.698-.185 1.039a2.17 2.17 0 0 1-.622.899c-.291.266-.683.48-1.178.641-.489.154-1.107.232-1.856.232-.253 0-.519-.013-.797-.038a8.676 8.676 0 0 1-.826-.111 7.072 7.072 0 0 1-.807-.195 3.32 3.32 0 0 1-.705-.315Zm8.479-2.115c0-.532.099-.996.297-1.392.198-.402.516-.742.956-1.02.445-.279 1.017-.486 1.716-.622.705-.142 1.571-.213 2.598-.213v-.418c0-.421-.14-.742-.418-.965-.278-.229-.708-.343-1.289-.343-.582 0-1.135.065-1.661.195a5.234 5.234 0 0 0-1.512.621v-2.375c.47-.253.995-.436 1.577-.547a9.22 9.22 0 0 1 1.837-.176c1.416 0 2.461.312 3.135.937.675.618 1.012 1.521 1.012 2.709V199h-2.589v-1.503h-.13a5.536 5.536 0 0 1-.417.659c-.155.21-.343.393-.566.547a2.666 2.666 0 0 1-.77.353c-.291.086-.631.13-1.02.13-.873 0-1.55-.251-2.032-.752-.483-.507-.724-1.181-.724-2.022Zm2.7-.511a.99.99 0 0 0 .315.752c.211.198.498.297.863.297a1.59 1.59 0 0 0 1.15-.473 1.74 1.74 0 0 0 .39-.613c.099-.241.149-.525.149-.853v-.344c-.953 0-1.67.09-2.153.27-.476.173-.714.494-.714.964Zm6.67.743h.817c.278-.291.513-.672.705-1.142.191-.47.343-1.017.454-1.642.118-.624.201-1.317.251-2.078.049-.761.08-1.571.093-2.43h6.865v7.292h1.475v4.861h-2.394l-.185-2.505h-5.474l-.195 2.505h-2.412v-4.861Zm3.424 0h3.061v-4.917h-1.994c0 .315-.022.695-.065 1.141-.038.439-.096.893-.177 1.363-.08.47-.188.922-.324 1.355-.13.427-.297.779-.501 1.058Zm8.247-.232c0-.532.099-.996.297-1.392.198-.402.516-.742.956-1.02.445-.279 1.017-.486 1.716-.622.705-.142 1.571-.213 2.598-.213v-.418c0-.421-.14-.742-.418-.965-.278-.229-.708-.343-1.289-.343-.582 0-1.135.065-1.661.195a5.234 5.234 0 0 0-1.512.621v-2.375c.47-.253.995-.436 1.577-.547a9.22 9.22 0 0 1 1.837-.176c1.416 0 2.461.312 3.136.937.674.618 1.011 1.521 1.011 2.709V199h-2.589v-1.503h-.13a5.536 5.536 0 0 1-.417.659c-.155.21-.343.393-.566.547a2.666 2.666 0 0 1-.77.353c-.291.086-.631.13-1.02.13-.873 0-1.55-.251-2.032-.752-.483-.507-.724-1.181-.724-2.022Zm2.7-.511a.99.99 0 0 0 .315.752c.211.198.498.297.863.297a1.59 1.59 0 0 0 1.15-.473 1.74 1.74 0 0 0 .39-.613c.099-.241.149-.525.149-.853v-.344c-.953 0-1.67.09-2.153.27-.476.173-.714.494-.714.964Zm7.626 3.099v-9.648h2.681v3.506h3.052v-3.506h2.681V199h-2.681v-3.785h-3.052V199h-2.681Zm10.576 0v-9.648h2.681v5.427h.149l3.117-5.427h2.468V199h-2.682v-5.455h-.129L317.906 199h-2.449Zm10.103-4.787c0-.786.102-1.488.306-2.106.21-.625.507-1.154.891-1.586.389-.44.863-.777 1.419-1.012.557-.235 1.178-.352 1.865-.352.594 0 1.141.083 1.642.25.501.161.931.408 1.29.742.365.328.643.74.835 1.234.198.495.296 1.076.296 1.744 0 .341-.021.653-.064.937-.044.279-.084.48-.121.603h-5.437c.05.724.26 1.275.631 1.652.378.371.94.556 1.689.556a7.53 7.53 0 0 0 1.549-.157 4.25 4.25 0 0 0 1.355-.548v2.301c-.328.217-.77.39-1.327.52a7.876 7.876 0 0 1-1.809.195c-1.596 0-2.83-.409-3.702-1.225-.872-.816-1.308-2.066-1.308-3.748Zm2.811-1.141h3.173c-.025-.594-.176-1.045-.455-1.355-.272-.315-.646-.473-1.122-.473-.507 0-.885.17-1.132.51-.247.334-.402.774-.464 1.318ZM463.112 302v-14.25h10.131V302h-2.774v-11.727h-4.583V302h-2.774Zm12.543 4.75v-14.398h2.579v1.345h.139a2.996 2.996 0 0 1 1.039-1.104c.458-.291 1.036-.436 1.735-.436.581 0 1.107.123 1.577.371.476.247.878.59 1.206 1.03.334.433.588.952.761 1.558.179.6.269 1.262.269 1.986 0 .76-.09 1.45-.269 2.068a4.768 4.768 0 0 1-.77 1.605 3.52 3.52 0 0 1-1.215 1.049 3.448 3.448 0 0 1-1.596.362c-.656 0-1.206-.124-1.652-.372-.445-.253-.807-.627-1.085-1.122h-.139l.102 1.494v4.564h-2.681Zm2.681-9.333c0 .847.182 1.45.547 1.809.365.353.814.529 1.346.529.253 0 .497-.043.732-.13.235-.087.44-.235.613-.445a2.32 2.32 0 0 0 .426-.826c.112-.346.167-.764.167-1.252 0-.458-.052-.845-.157-1.16a2.021 2.021 0 0 0-.418-.779 1.44 1.44 0 0 0-.612-.436 2.116 2.116 0 0 0-1.484-.01c-.229.081-.43.211-.603.39-.174.173-.31.402-.409.686a3.121 3.121 0 0 0-.148 1.021v.603Zm7.849-.204c0-.798.117-1.506.352-2.125a4.64 4.64 0 0 1 .993-1.586 4.2 4.2 0 0 1 1.484-1.002 4.872 4.872 0 0 1 1.837-.343c.656 0 1.268.114 1.837.343.575.229 1.073.56 1.494.993.426.426.76.952 1.002 1.577.241.618.361 1.326.361 2.124s-.12 1.506-.361 2.125a4.709 4.709 0 0 1-.993 1.568 4.098 4.098 0 0 1-1.494.974 5.205 5.205 0 0 1-1.846.325 5.132 5.132 0 0 1-1.837-.325 4.271 4.271 0 0 1-1.484-.965 4.568 4.568 0 0 1-.993-1.559c-.235-.618-.352-1.326-.352-2.124Zm2.792 0c0 .928.179 1.583.538 1.967.359.383.804.575 1.336.575.266 0 .517-.047.752-.139.235-.093.436-.241.603-.446.173-.204.309-.467.408-.788.105-.322.157-.718.157-1.188s-.052-.869-.157-1.196a2.212 2.212 0 0 0-.418-.808 1.516 1.516 0 0 0-.603-.454 1.849 1.849 0 0 0-.742-.149c-.532 0-.977.201-1.336.603-.359.396-.538 1.07-.538 2.023Zm8.275 4.787v-9.648h2.682v5.427h.148l3.117-5.427h2.468V302h-2.681v-5.455h-.13L499.702 302h-2.45Zm.78-13.833h2.338c0 .365.068.656.204.873.142.216.414.324.816.324.377 0 .643-.108.798-.324.155-.217.232-.508.232-.873h2.338c0 .644-.099 1.176-.297 1.596a2.71 2.71 0 0 1-.77 1.002 2.691 2.691 0 0 1-1.076.51c-.396.093-.804.14-1.225.14a5.33 5.33 0 0 1-1.224-.14 2.774 2.774 0 0 1-1.077-.51 2.727 2.727 0 0 1-.77-.993c-.191-.42-.287-.955-.287-1.605Zm8.841 11.477h.816c.279-.291.514-.672.706-1.142.191-.47.343-1.017.454-1.642.118-.624.201-1.317.251-2.078.049-.761.08-1.571.092-2.43h6.866v7.292h1.475v4.861h-2.394l-.185-2.505h-5.474l-.195 2.505h-2.412v-4.861Zm3.423 0h3.062v-4.917h-1.995c0 .315-.021.695-.065 1.141a16.28 16.28 0 0 1-.176 1.363c-.08.47-.189.922-.325 1.355-.13.427-.297.779-.501 1.058Zm8.536 2.356v-9.648h2.681v5.427h.148l3.117-5.427h2.468V302h-2.681v-5.455h-.13L521.281 302h-2.449Zm14.815-4.787c0-.786.115-1.488.344-2.106a4.583 4.583 0 0 1 .974-1.586 4.25 4.25 0 0 1 1.503-1.012 5.148 5.148 0 0 1 1.929-.352 6.6 6.6 0 0 1 1.281.111c.371.068.714.189 1.03.362v2.588a2.717 2.717 0 0 0-.956-.426 4.25 4.25 0 0 0-1.039-.13c-.687 0-1.237.207-1.651.621-.415.415-.622 1.058-.622 1.93 0 .872.21 1.506.631 1.902.427.389.992.584 1.698.584.352 0 .711-.046 1.076-.139.365-.099.674-.254.927-.464v2.616c-.179.124-.482.232-.909.325-.42.099-.884.149-1.391.149-1.547 0-2.737-.433-3.572-1.299-.835-.866-1.253-2.091-1.253-3.674Zm8.406 0c0-.798.117-1.506.352-2.125a4.64 4.64 0 0 1 .993-1.586 4.209 4.209 0 0 1 1.484-1.002 4.876 4.876 0 0 1 1.837-.343c.656 0 1.268.114 1.837.343.575.229 1.073.56 1.494.993.427.426.761.952 1.002 1.577.241.618.362 1.326.362 2.124s-.121 1.506-.362 2.125a4.677 4.677 0 0 1-.993 1.568 4.098 4.098 0 0 1-1.494.974 5.205 5.205 0 0 1-1.846.325 5.136 5.136 0 0 1-1.837-.325 4.28 4.28 0 0 1-1.484-.965 4.568 4.568 0 0 1-.993-1.559c-.235-.618-.352-1.326-.352-2.124Zm2.792 0c0 .928.18 1.583.538 1.967.359.383.804.575 1.336.575.266 0 .517-.047.752-.139.235-.093.436-.241.603-.446.173-.204.309-.467.408-.788.105-.322.158-.718.158-1.188s-.053-.869-.158-1.196a2.212 2.212 0 0 0-.418-.808 1.516 1.516 0 0 0-.603-.454 1.845 1.845 0 0 0-.742-.149c-.532 0-.977.201-1.336.603-.358.396-.538 1.07-.538 2.023Zm7.802-1.197c0-1.391.112-2.582.334-3.572.229-.989.591-1.806 1.086-2.449a4.684 4.684 0 0 1 1.902-1.475c.773-.334 1.698-.554 2.774-.659.519-.037 1.039-.08 1.558-.13.52-.049.906-.105 1.16-.167v2.598a7.94 7.94 0 0 1-1.104.158 30.71 30.71 0 0 0-1.466.148c-.686.062-1.268.173-1.744.334-.47.155-.854.381-1.15.677-.297.291-.52.668-.668 1.132-.143.458-.232 1.03-.269 1.717h.129c.075-.204.186-.418.334-.64.155-.223.356-.424.603-.604.248-.185.545-.334.891-.445a3.924 3.924 0 0 1 1.234-.176c.569 0 1.098.117 1.586.352a3.66 3.66 0 0 1 1.253.984c.346.414.618.915.816 1.503.198.587.297 1.243.297 1.967 0 .736-.117 1.407-.352 2.013a4.58 4.58 0 0 1-.984 1.558 4.233 4.233 0 0 1-1.493 1.002 5.253 5.253 0 0 1-1.939.344 6.084 6.084 0 0 1-1.847-.279 3.627 3.627 0 0 1-1.53-.992c-.44-.471-.786-1.101-1.039-1.893-.248-.792-.372-1.794-.372-3.006Zm2.811 1.271c0 .847.183 1.472.548 1.874.371.396.847.594 1.429.594.569 0 1.042-.201 1.419-.603.383-.408.575-1.036.575-1.883 0-.848-.192-1.457-.575-1.828-.377-.377-.85-.566-1.419-.566-.582 0-1.058.192-1.429.575-.365.377-.548.99-.548 1.837Zm7.97-.074c0-.786.102-1.488.306-2.106.21-.625.507-1.154.891-1.586.389-.44.862-.777 1.419-1.012s1.178-.352 1.865-.352c.593 0 1.141.083 1.642.25.501.161.931.408 1.289.742.365.328.644.74.835 1.234.198.495.297 1.076.297 1.744a6.145 6.145 0 0 1-.185 1.54h-5.437c.05.724.26 1.275.631 1.652.377.371.94.556 1.688.556a7.54 7.54 0 0 0 1.55-.157 4.244 4.244 0 0 0 1.354-.548v2.301c-.328.217-.77.39-1.326.52a7.876 7.876 0 0 1-1.809.195c-1.596 0-2.83-.409-3.702-1.225-.872-.816-1.308-2.066-1.308-3.748Zm2.811-1.141h3.173c-.025-.594-.177-1.045-.455-1.355-.272-.315-.646-.473-1.123-.473-.507 0-.884.17-1.131.51-.248.334-.402.774-.464 1.318Zm6.967 1.141c0-.786.114-1.488.343-2.106.235-.625.56-1.154.974-1.586.421-.44.922-.777 1.503-1.012a5.153 5.153 0 0 1 1.93-.352c.482 0 .909.037 1.28.111a3.4 3.4 0 0 1 1.03.362v2.588a2.712 2.712 0 0 0-.955-.426 4.258 4.258 0 0 0-1.04-.13c-.686 0-1.236.207-1.651.621-.414.415-.621 1.058-.621 1.93 0 .872.21 1.506.63 1.902.427.389.993.584 1.698.584.353 0 .711-.046 1.076-.139.365-.099.674-.254.928-.464v2.616c-.179.124-.482.232-.909.325a6.082 6.082 0 0 1-1.392.149c-1.546 0-2.737-.433-3.572-1.299-.834-.866-1.252-2.091-1.252-3.674Zm8.405 0c0-.786.102-1.488.306-2.106.211-.625.508-1.154.891-1.586a3.89 3.89 0 0 1 1.42-1.012c.556-.235 1.178-.352 1.864-.352.594 0 1.141.083 1.642.25.501.161.931.408 1.29.742.365.328.643.74.835 1.234.198.495.297 1.076.297 1.744 0 .341-.022.653-.065.937-.043.279-.084.48-.121.603h-5.436c.049.724.259 1.275.631 1.652.377.371.94.556 1.688.556a7.53 7.53 0 0 0 1.549-.157 4.25 4.25 0 0 0 1.355-.548v2.301c-.328.217-.77.39-1.327.52-.55.13-1.153.195-1.809.195-1.596 0-2.829-.409-3.702-1.225-.872-.816-1.308-2.066-1.308-3.748Zm2.811-1.141h3.173c-.025-.594-.176-1.045-.454-1.355-.273-.315-.647-.473-1.123-.473-.507 0-.884.17-1.132.51-.247.334-.402.774-.464 1.318Zm6.485 3.572h.817c.278-.291.513-.672.705-1.142.191-.47.343-1.017.454-1.642.118-.624.201-1.317.251-2.078.049-.761.08-1.571.093-2.43h6.865v7.292h1.475v4.861h-2.394l-.185-2.505h-5.474l-.195 2.505h-2.412v-4.861Zm3.424 0h3.061v-4.917h-1.995c0 .315-.021.695-.064 1.141-.038.439-.096.893-.177 1.363-.08.47-.188.922-.324 1.355-.13.427-.297.779-.501 1.058Zm8.062-2.431c0-.798.117-1.506.352-2.125a4.64 4.64 0 0 1 .993-1.586 4.2 4.2 0 0 1 1.484-1.002 4.872 4.872 0 0 1 1.837-.343c.656 0 1.268.114 1.837.343.575.229 1.073.56 1.494.993.426.426.76.952 1.002 1.577.241.618.361 1.326.361 2.124s-.12 1.506-.361 2.125a4.709 4.709 0 0 1-.993 1.568 4.098 4.098 0 0 1-1.494.974 5.205 5.205 0 0 1-1.846.325 5.132 5.132 0 0 1-1.837-.325 4.271 4.271 0 0 1-1.484-.965 4.568 4.568 0 0 1-.993-1.559c-.235-.618-.352-1.326-.352-2.124Zm2.792 0c0 .928.179 1.583.538 1.967.359.383.804.575 1.336.575.266 0 .517-.047.752-.139.235-.093.436-.241.603-.446.173-.204.309-.467.408-.788.105-.322.157-.718.157-1.188s-.052-.869-.157-1.196a2.212 2.212 0 0 0-.418-.808 1.516 1.516 0 0 0-.603-.454 1.849 1.849 0 0 0-.742-.149c-.532 0-.977.201-1.336.603-.359.396-.538 1.07-.538 2.023ZM613.46 302v-9.648h3.684c.76 0 1.4.061 1.92.185.519.118.94.285 1.262.501.321.21.55.467.686.77.142.303.214.64.214 1.011 0 .582-.158 1.042-.474 1.383-.315.334-.739.556-1.271.668v.13c.656.098 1.169.343 1.54.732.378.39.566.894.566 1.513 0 .377-.065.733-.194 1.067a2.107 2.107 0 0 1-.641.872c-.303.253-.711.454-1.224.603-.514.142-1.151.213-1.911.213h-4.157Zm2.682-1.865h1.233c.446 0 .795-.089 1.049-.269.26-.185.389-.448.389-.788 0-.365-.129-.637-.389-.817-.26-.179-.609-.269-1.049-.269h-1.233v2.143Zm0-3.989h.927c.483 0 .829-.093 1.039-.278a.925.925 0 0 0 .325-.724.773.773 0 0 0-.352-.677c-.229-.161-.566-.241-1.012-.241h-.927v1.92Zm6.902 3.266c0-.532.099-.996.297-1.392.198-.402.516-.742.955-1.02.446-.279 1.018-.486 1.717-.622.705-.142 1.571-.213 2.597-.213v-.418c0-.421-.139-.742-.417-.965-.278-.229-.708-.343-1.29-.343-.581 0-1.135.065-1.66.195a5.251 5.251 0 0 0-1.513.621v-2.375a5.48 5.48 0 0 1 1.578-.547 9.213 9.213 0 0 1 1.837-.176c1.416 0 2.461.312 3.135.937.674.618 1.012 1.521 1.012 2.709V302h-2.589v-1.503h-.13a5.666 5.666 0 0 1-.417.659c-.155.21-.344.393-.566.547a2.679 2.679 0 0 1-.77.353c-.291.086-.631.13-1.021.13-.872 0-1.549-.251-2.031-.752-.483-.507-.724-1.181-.724-2.022Zm2.7-.511a.99.99 0 0 0 .315.752c.21.198.498.297.863.297a1.6 1.6 0 0 0 1.15-.473 1.74 1.74 0 0 0 .39-.613c.099-.241.148-.525.148-.853v-.344c-.952 0-1.67.09-2.152.27-.476.173-.714.494-.714.964ZM633.37 302v-9.648h2.681v3.506h3.052v-3.506h2.681V302h-2.681v-3.785h-3.052V302h-2.681Zm10.576 0v-9.648h2.681v5.427h.148l3.118-5.427h2.467V302h-2.681v-5.455h-.13L646.395 302h-2.449Zm10.103-4.787c0-.786.102-1.488.306-2.106.21-.625.507-1.154.891-1.586.389-.44.862-.777 1.419-1.012s1.178-.352 1.865-.352c.594 0 1.141.083 1.642.25.501.161.931.408 1.289.742.365.328.644.74.835 1.234.198.495.297 1.076.297 1.744a6.145 6.145 0 0 1-.185 1.54h-5.437c.05.724.26 1.275.631 1.652.377.371.94.556 1.689.556.531 0 1.048-.052 1.549-.157a4.244 4.244 0 0 0 1.354-.548v2.301c-.327.217-.77.39-1.326.52a7.876 7.876 0 0 1-1.809.195c-1.596 0-2.83-.409-3.702-1.225-.872-.816-1.308-2.066-1.308-3.748Zm2.811-1.141h3.173c-.025-.594-.177-1.045-.455-1.355-.272-.315-.646-.473-1.122-.473-.508 0-.885.17-1.132.51-.248.334-.402.774-.464 1.318ZM985.573 290.273v-2.523h9.973v2.523h-3.59V302h-2.793v-11.727h-3.59ZM997.021 302v-9.648h2.681v2.773h.948c.76 0 1.41.087 1.95.26.53.167.98.399 1.33.696.36.297.62.653.78 1.067.17.408.25.853.25 1.336 0 .495-.08.959-.25 1.391-.16.427-.42.798-.78 1.114-.35.309-.8.556-1.33.742-.54.179-1.19.269-1.95.269h-3.629Zm2.681-2.125h.888c.57 0 .98-.126 1.23-.38.24-.253.37-.566.37-.937 0-.377-.13-.686-.37-.928-.25-.241-.66-.361-1.23-.361h-.888v2.606Zm6.078 2.125v-9.648h2.68V302h-2.68Zm9.57 0v-9.648h2.68v3.506h3.06v-3.506h2.68V302h-2.68v-3.785h-3.06V302h-2.68Zm10.29-2.588c0-.532.1-.996.3-1.392.2-.402.51-.742.95-1.02.45-.279 1.02-.486 1.72-.622.71-.142 1.57-.213 2.6-.213v-.418c0-.421-.14-.742-.42-.965-.28-.229-.71-.343-1.29-.343-.58 0-1.13.065-1.66.195-.53.123-1.03.331-1.51.621v-2.375a5.4 5.4 0 0 1 1.58-.547 9.164 9.164 0 0 1 1.83-.176c1.42 0 2.46.312 3.14.937.67.618 1.01 1.521 1.01 2.709V302h-2.59v-1.503h-.13c-.12.229-.26.448-.42.659-.15.21-.34.393-.56.547a2.81 2.81 0 0 1-.77.353c-.29.086-.63.13-1.02.13-.88 0-1.55-.251-2.03-.752-.49-.507-.73-1.181-.73-2.022Zm2.7-.511c0 .303.11.554.32.752.21.198.49.297.86.297.2 0 .4-.037.6-.112a1.66 1.66 0 0 0 .94-.974c.1-.241.15-.525.15-.853v-.344c-.95 0-1.67.09-2.15.27-.48.173-.72.494-.72.964Zm12.34 3.099v-9.648h2.68v3.506h3.05v-3.506h2.68V302h-2.68v-3.785h-3.05V302h-2.68Zm10.1-4.787c0-.798.12-1.506.36-2.125.24-.624.57-1.153.99-1.586.42-.439.91-.773 1.48-1.002a4.877 4.877 0 0 1 1.84-.343c.66 0 1.27.114 1.84.343.57.229 1.07.56 1.49.993.43.426.76.952 1 1.577.24.618.36 1.326.36 2.124s-.12 1.506-.36 2.125a4.67 4.67 0 0 1-.99 1.568c-.41.426-.91.751-1.49.974-.58.216-1.19.325-1.85.325-.66 0-1.27-.109-1.84-.325a4.246 4.246 0 0 1-1.48-.965 4.562 4.562 0 0 1-.99-1.559c-.24-.618-.36-1.326-.36-2.124Zm2.8 0c0 .928.18 1.583.53 1.967.36.383.81.575 1.34.575.27 0 .52-.047.75-.139.24-.093.44-.241.6-.446.18-.204.31-.467.41-.788.11-.322.16-.718.16-1.188s-.05-.869-.16-1.196a2.23 2.23 0 0 0-.42-.808 1.48 1.48 0 0 0-.6-.454 1.829 1.829 0 0 0-.74-.149c-.53 0-.98.201-1.34.603-.35.396-.53 1.07-.53 2.023Zm8.27 4.787v-9.648h3.68c.76 0 1.41.061 1.92.185.52.118.94.285 1.27.501.32.21.55.467.68.77.15.303.22.64.22 1.011 0 .582-.16 1.042-.48 1.383-.31.334-.74.556-1.27.668v.13c.66.098 1.17.343 1.54.732.38.39.57.894.57 1.513 0 .377-.07.733-.2 1.067a2.02 2.02 0 0 1-.64.872c-.3.253-.71.454-1.22.603-.51.142-1.15.213-1.91.213h-4.16Zm2.68-1.865h1.24c.44 0 .79-.089 1.04-.269.26-.185.39-.448.39-.788 0-.365-.13-.637-.39-.817-.26-.179-.6-.269-1.04-.269h-1.24v2.143Zm0-3.989h.93c.48 0 .83-.093 1.04-.278a.911.911 0 0 0 .32-.724c0-.291-.11-.516-.35-.677-.23-.161-.56-.241-1.01-.241h-.93v1.92Zm6.72 1.067c0-.798.12-1.506.35-2.125.24-.624.57-1.153.99-1.586.42-.439.92-.773 1.49-1.002a4.877 4.877 0 0 1 1.84-.343c.65 0 1.26.114 1.83.343.58.229 1.08.56 1.5.993.42.426.76.952 1 1.577.24.618.36 1.326.36 2.124s-.12 1.506-.36 2.125a4.67 4.67 0 0 1-.99 1.568 4.19 4.19 0 0 1-1.5.974c-.57.216-1.19.325-1.84.325-.66 0-1.27-.109-1.84-.325a4.286 4.286 0 0 1-1.49-.965 4.562 4.562 0 0 1-.99-1.559c-.23-.618-.35-1.326-.35-2.124Zm2.79 0c0 .928.18 1.583.54 1.967.36.383.8.575 1.34.575.26 0 .51-.047.75-.139.23-.093.43-.241.6-.446.17-.204.31-.467.41-.788.1-.322.16-.718.16-1.188s-.06-.869-.16-1.196a2.23 2.23 0 0 0-.42-.808 1.48 1.48 0 0 0-.6-.454 1.864 1.864 0 0 0-.74-.149c-.54 0-.98.201-1.34.603-.36.396-.54 1.07-.54 2.023Zm8.28 4.787v-9.648h2.68v5.427h.15l3.11-5.427h2.47V302h-2.68v-5.455h-.13l-3.15 5.455h-2.45Zm.78-13.833h2.33c0 .365.07.656.21.873.14.216.41.324.81.324.38 0 .65-.108.8-.324.16-.217.23-.508.23-.873h2.34c0 .644-.1 1.176-.29 1.596-.2.421-.46.755-.77 1.002-.32.248-.68.418-1.08.51-.4.093-.8.14-1.23.14-.42 0-.82-.047-1.22-.14-.4-.092-.75-.262-1.08-.51a2.803 2.803 0 0 1-.77-.993c-.19-.42-.28-.955-.28-1.605ZM1000.6 323v-9.648h8.23V323h-2.68v-7.292h-2.87V323h-2.68Zm9.92-4.787c0-.798.12-1.506.35-2.125.24-.624.57-1.153.99-1.586.43-.439.92-.773 1.49-1.002a4.877 4.877 0 0 1 1.84-.343c.65 0 1.26.114 1.83.343.58.229 1.08.56 1.5.993.42.426.76.952 1 1.577.24.618.36 1.326.36 2.124s-.12 1.506-.36 2.125a4.67 4.67 0 0 1-.99 1.568 4.19 4.19 0 0 1-1.5.974c-.57.216-1.19.325-1.84.325-.66 0-1.27-.109-1.84-.325a4.38 4.38 0 0 1-1.49-.965 4.562 4.562 0 0 1-.99-1.559c-.23-.618-.35-1.326-.35-2.124Zm2.79 0c0 .928.18 1.583.54 1.967.36.383.8.575 1.34.575.26 0 .51-.047.75-.139.23-.093.43-.241.6-.446.17-.204.31-.467.41-.788.1-.322.16-.718.16-1.188s-.06-.869-.16-1.196a2.23 2.23 0 0 0-.42-.808 1.48 1.48 0 0 0-.6-.454 1.864 1.864 0 0 0-.74-.149c-.54 0-.98.201-1.34.603-.36.396-.54 1.07-.54 2.023Zm7.95 4.314v-2.319c.93.569 1.89.853 2.89.853.96 0 1.45-.334 1.45-1.002 0-.328-.13-.566-.37-.714-.24-.149-.57-.223-.99-.223h-1.58v-2.069h1.45c.39 0 .67-.074.85-.222a.769.769 0 0 0 .27-.613c0-.328-.12-.559-.36-.696-.24-.142-.58-.213-1.03-.213-.46 0-.88.053-1.26.158-.38.105-.78.284-1.19.538v-2.292c.39-.179.84-.315 1.34-.408a7.883 7.883 0 0 1 1.51-.148c.66 0 1.21.065 1.67.195.46.123.83.296 1.12.519.3.223.51.486.64.789.14.303.21.631.21.983 0 .482-.12.919-.35 1.308-.22.384-.64.677-1.25.882v.129c.64.155 1.13.44 1.46.854.33.408.5.928.5 1.559 0 .352-.06.698-.19 1.039-.11.334-.32.634-.62.899-.29.266-.68.48-1.18.641-.48.154-1.1.232-1.85.232-.26 0-.52-.013-.8-.038a9.075 9.075 0 0 1-.83-.111 6.761 6.761 0 0 1-.8-.195 3.41 3.41 0 0 1-.71-.315Zm8.77.473v-9.648h2.68v5.427h.15l3.12-5.427h2.46V323h-2.68v-5.455h-.13l-3.15 5.455h-2.45Zm10.58 0v-9.648h2.68v7.292h2.88v-7.292h2.7v7.292h1.48v5.019h-2.4l-.18-2.663h-7.16Zm11.04 0v-9.648h2.68v5.427h.15l3.11-5.427h2.47V323h-2.68v-5.455h-.13L1054.1 323h-2.45Zm10.57 0v-9.648h2.68v5.427h.15l3.12-5.427h2.47V323h-2.68v-5.455h-.13l-3.16 5.455h-2.45Zm10.75-1.392c0-.457.15-.847.46-1.169.31-.321.7-.482 1.17-.482.21 0 .42.046.63.139.2.087.38.204.53.353a1.587 1.587 0 0 1 .49 1.159c0 .229-.04.446-.13.65-.09.204-.21.38-.36.529-.15.142-.33.256-.53.343-.21.093-.42.139-.63.139-.47 0-.86-.161-1.17-.482a1.652 1.652 0 0 1-.46-1.179Zm.01-12.858h3.18l-.55 9.481h-2.09l-.54-9.481ZM736.995 170.875c0-1.113.127-2.118.38-3.015.254-.903.622-1.67 1.104-2.301a5.004 5.004 0 0 1 1.8-1.475c.712-.346 1.528-.52 2.45-.52.94 0 1.768.171 2.486.511.723.34 1.33.832 1.818 1.475.489.637.857 1.407 1.104 2.31.248.897.371 1.896.371 2.996 0 1.114-.126 2.122-.38 3.025-.254.897-.625 1.667-1.113 2.31a4.983 4.983 0 0 1-1.809 1.475c-.712.346-1.537.52-2.477.52-.928 0-1.748-.174-2.459-.52a5.025 5.025 0 0 1-1.791-1.475c-.482-.643-.85-1.413-1.104-2.31-.253-.903-.38-1.905-.38-3.006Zm2.885 0c0 1.62.242 2.836.724 3.646.489.81 1.197 1.215 2.125 1.215 1.923 0 2.888-1.626 2.894-4.88 0-1.608-.241-2.817-.724-3.627-.482-.81-1.206-1.215-2.17-1.215-.928 0-1.636.405-2.125 1.215-.482.81-.724 2.026-.724 3.646Zm9.936 1.141c0-1.391.112-2.582.334-3.572.229-.989.591-1.806 1.086-2.449a4.684 4.684 0 0 1 1.902-1.475c.773-.334 1.697-.554 2.774-.659.519-.037 1.039-.08 1.558-.13.52-.049.906-.105 1.16-.167v2.598a7.94 7.94 0 0 1-1.104.158 30.58 30.58 0 0 0-1.466.148c-.686.062-1.268.173-1.744.334-.47.155-.854.381-1.15.677-.297.291-.52.668-.668 1.132-.143.458-.232 1.03-.269 1.717h.129c.075-.204.186-.418.334-.64.155-.223.356-.424.603-.604.248-.185.545-.334.891-.445a3.924 3.924 0 0 1 1.234-.176c.569 0 1.098.117 1.586.352a3.66 3.66 0 0 1 1.253.984c.346.414.618.915.816 1.503.198.587.297 1.243.297 1.967 0 .736-.117 1.407-.352 2.013a4.58 4.58 0 0 1-.984 1.558 4.228 4.228 0 0 1-1.494 1.002 5.244 5.244 0 0 1-1.938.344 6.084 6.084 0 0 1-1.847-.279 3.627 3.627 0 0 1-1.53-.992c-.44-.471-.786-1.101-1.039-1.893-.248-.792-.372-1.794-.372-3.006Zm2.811 1.271c0 .847.183 1.472.548 1.874.371.396.847.594 1.429.594.569 0 1.042-.201 1.419-.603.383-.408.575-1.036.575-1.883 0-.848-.192-1.457-.575-1.828-.377-.377-.85-.566-1.419-.566-.582 0-1.058.192-1.429.575-.365.377-.548.99-.548 1.837Zm7.302-4.935h2.811l2.031 6.002h.13l1.921-6.002h2.551l-4.889 14.398h-2.542l1.558-4.602-3.571-9.796Zm10.056 2.616v-2.616h2.672v2.504c0 .569.118.975.353 1.216s.594.362 1.076.362c.192 0 .399-.022.622-.065.228-.044.451-.118.667-.223v-3.794h2.7V178h-2.7v-3.516a5.293 5.293 0 0 1-.77.232c-.296.062-.64.093-1.029.093-1.256 0-2.168-.331-2.737-.993-.569-.668-.854-1.617-.854-2.848ZM780.237 178v-9.648h2.681v5.427h.148l3.118-5.427h2.467V178h-2.681v-5.455h-.13L782.686 178h-2.449Zm10.103-4.787c0-.786.114-1.488.343-2.106.235-.625.56-1.154.974-1.586.421-.44.922-.777 1.503-1.012a5.153 5.153 0 0 1 1.93-.352c.482 0 .909.037 1.28.111.371.068.714.189 1.03.362v2.588a2.71 2.71 0 0 0-.956-.426 4.244 4.244 0 0 0-1.039-.13c-.686 0-1.237.207-1.651.621-.414.415-.622 1.058-.622 1.93 0 .872.211 1.506.631 1.902.427.389.993.584 1.698.584.352 0 .711-.046 1.076-.139.365-.099.674-.254.928-.464v2.616c-.18.124-.483.232-.909.325a6.082 6.082 0 0 1-1.392.149c-1.546 0-2.737-.433-3.572-1.299-.835-.866-1.252-2.091-1.252-3.674Zm8.878 4.787v-9.648h2.681v2.773h.947c.76 0 1.41.087 1.948.26.538.167.983.399 1.336.696.359.297.618.653.779 1.067.167.408.251.853.251 1.336 0 .495-.084.959-.251 1.391-.161.427-.42.798-.779 1.114-.353.309-.798.556-1.336.742-.538.179-1.188.269-1.948.269h-3.628Zm2.681-2.125h.891c.569 0 .977-.126 1.225-.38a1.29 1.29 0 0 0 .371-.937c0-.377-.124-.686-.371-.928-.248-.241-.656-.361-1.225-.361h-.891v2.606Zm11.078-2.226v-1.92h10.529v1.92h-10.529ZM830.205 178v-9.648h3.85l1.957 6.345h.139l1.939-6.345h3.85V178h-2.69v-6.708h-.195L836.986 178h-2.245l-2.069-6.708h-.194V178h-2.273Zm13.971 0v-9.648h2.681v2.773h.947c.76 0 1.41.087 1.948.26.538.167.983.399 1.336.696.359.297.618.653.779 1.067.167.408.251.853.251 1.336 0 .495-.084.959-.251 1.391-.161.427-.42.798-.779 1.114-.353.309-.798.556-1.336.742-.538.179-1.188.269-1.948.269h-3.628Zm2.681-2.125h.891c.569 0 .977-.126 1.225-.38a1.29 1.29 0 0 0 .371-.937c0-.377-.124-.686-.371-.928-.248-.241-.656-.361-1.225-.361h-.891v2.606Zm6.077 2.125v-9.648h2.681V178h-2.681Zm-97.347 21v-9.648h8.229V199h-2.681v-7.292h-2.867V199h-2.681Zm9.917-4.787c0-.798.118-1.506.353-2.125a4.64 4.64 0 0 1 .993-1.586 4.2 4.2 0 0 1 1.484-1.002 4.872 4.872 0 0 1 1.837-.343c.655 0 1.268.114 1.837.343.575.229 1.073.56 1.493.993.427.426.761.952 1.002 1.577.242.618.362 1.326.362 2.124s-.12 1.506-.362 2.125a4.69 4.69 0 0 1-.992 1.568 4.115 4.115 0 0 1-1.494.974 5.21 5.21 0 0 1-1.846.325 5.132 5.132 0 0 1-1.837-.325 4.271 4.271 0 0 1-1.484-.965 4.568 4.568 0 0 1-.993-1.559c-.235-.618-.353-1.326-.353-2.124Zm2.793 0c0 .928.179 1.583.538 1.967.359.383.804.575 1.336.575.266 0 .516-.047.751-.139.235-.093.436-.241.603-.446.174-.204.31-.467.409-.788.105-.322.157-.718.157-1.188s-.052-.869-.157-1.196a2.227 2.227 0 0 0-.418-.808 1.516 1.516 0 0 0-.603-.454 1.849 1.849 0 0 0-.742-.149c-.532 0-.977.201-1.336.603-.359.396-.538 1.07-.538 2.023Zm8.275 4.787v-9.648h3.85l1.958 6.345h.139l1.939-6.345h3.85V199h-2.69v-6.708h-.195L783.354 199h-2.245l-2.069-6.708h-.195V199h-2.273Zm13.499-4.787c0-.798.117-1.506.352-2.125a4.656 4.656 0 0 1 .993-1.586 4.209 4.209 0 0 1 1.484-1.002 4.876 4.876 0 0 1 1.837-.343c.656 0 1.268.114 1.837.343.575.229 1.073.56 1.494.993.427.426.761.952 1.002 1.577.241.618.362 1.326.362 2.124s-.121 1.506-.362 2.125a4.677 4.677 0 0 1-.993 1.568 4.098 4.098 0 0 1-1.494.974 5.205 5.205 0 0 1-1.846.325 5.136 5.136 0 0 1-1.837-.325 4.28 4.28 0 0 1-1.484-.965 4.583 4.583 0 0 1-.993-1.559c-.235-.618-.352-1.326-.352-2.124Zm2.792 0c0 .928.18 1.583.538 1.967.359.383.804.575 1.336.575.266 0 .517-.047.752-.139.235-.093.436-.241.603-.446.173-.204.309-.467.408-.788.105-.322.158-.718.158-1.188s-.053-.869-.158-1.196a2.226 2.226 0 0 0-.417-.808 1.526 1.526 0 0 0-.604-.454 1.845 1.845 0 0 0-.742-.149c-.532 0-.977.201-1.336.603-.358.396-.538 1.07-.538 2.023Zm7.302 4.787 3.191-5.186-3.089-4.462h2.653l2.755 3.933.381.093v-4.026h2.681v4.044l.343-.092 2.755-3.952h2.635l-3.015 4.369 3.173 5.279h-3.154l-2.32-3.739-.417.112V199h-2.681v-3.627l-.436-.14-2.394 3.767h-3.061Zm15.196-4.787c0-.786.102-1.488.306-2.106.21-.625.507-1.154.891-1.586.389-.44.862-.777 1.419-1.012s1.178-.352 1.865-.352c.594 0 1.141.083 1.642.25.501.161.931.408 1.289.742.365.328.644.74.835 1.234.198.495.297 1.076.297 1.744a6.145 6.145 0 0 1-.185 1.54h-5.437c.05.724.26 1.275.631 1.652.377.371.94.556 1.689.556.531 0 1.048-.052 1.549-.157a4.244 4.244 0 0 0 1.354-.548v2.301c-.327.217-.77.39-1.326.52a7.876 7.876 0 0 1-1.809.195c-1.596 0-2.83-.409-3.702-1.225-.872-.816-1.308-2.066-1.308-3.748Zm2.811-1.141h3.173c-.025-.594-.177-1.045-.455-1.355-.272-.315-.646-.473-1.122-.473-.508 0-.885.17-1.132.51-.248.334-.402.774-.464 1.318Zm7.44 5.928v-9.648h3.85l1.958 6.345h.139l1.939-6.345h3.85V199h-2.69v-6.708h-.195L832.394 199h-2.245l-2.069-6.708h-.195V199h-2.273Z" fill="#1F2229"/><path d="M84 253.141h64.712a45.756 45.756 0 0 0 32.346-13.391 45.71 45.71 0 0 0 13.398-32.329v-31.059a45.71 45.71 0 0 1 13.398-32.329 45.758 45.758 0 0 1 32.346-13.391h130.248a45.758 45.758 0 0 1 32.346 13.391 45.706 45.706 0 0 1 13.398 32.329v32.918a45.706 45.706 0 0 0 13.398 32.329A45.758 45.758 0 0 0 461.936 255H620.82a45.754 45.754 0 0 0 32.345-13.391 45.707 45.707 0 0 0 13.399-32.329v-35.56a45.706 45.706 0 0 1 13.398-32.329A45.754 45.754 0 0 1 712.307 128h173.715a45.756 45.756 0 0 1 32.346 13.391 45.706 45.706 0 0 1 13.398 32.329v30.074a45.713 45.713 0 0 0 13.398 32.329 45.758 45.758 0 0 0 32.346 13.391H1039" stroke="#000" stroke-width=".86" stroke-miterlimit="10" stroke-linecap="round" stroke-dasharray="4.28 4.28"/><g fill="#fff" stroke="#000" stroke-width="4.21" stroke-miterlimit="10" stroke-linecap="round" class="sircle-g"><path class="circl1" d="M85 267c7.732 0 14-6.268 14-14s-6.268-14-14-14-14 6.268-14 14 6.268 14 14 14Z"/><path class="circl2" d="M300 143c7.732 0 14-6.268 14-14s-6.268-14-14-14-14 6.268-14 14 6.268 14 14 14Z"/><path class="circl3" d="M563 267c7.732 0 14-6.268 14-14s-6.268-14-14-14-14 6.268-14 14 6.268 14 14 14Z"/><path class="circl4" d="M797 143c7.732 0 14-6.268 14-14s-6.268-14-14-14-14 6.268-14 14 6.268 14 14 14Z"/><path class="circl5" d="M1039 263c7.73 0 14-6.268 14-14s-6.27-14-14-14-14 6.268-14 14 6.27 14 14 14Z"/></g><path d="m292.82 54.17-35.174 20.166c-3.997 2.274-5.996 5.472-5.596 8.937.4 3.466 3.088 6.782 7.575 9.354a36.058 36.058 0 0 0 16.308 4.349c5.995.208 11.541-.943 15.498-3.217l35.164-20.207c3.997-2.264 5.996-5.461 5.606-8.937-.39-3.475-3.098-6.791-7.574-9.363" stroke="#000" stroke-linejoin="round"/><path d="m292.821 58.856-35.174 20.167a10.947 10.947 0 0 0-5.266 5.779c.919 2.87 3.447 5.61 7.244 7.785a36.065 36.065 0 0 0 16.308 4.349c5.996.208 11.542-.943 15.499-3.217l35.164-20.167a10.946 10.946 0 0 0 5.266-5.78c-.909-2.869-3.447-5.61-7.235-7.784" stroke="#000" stroke-linejoin="round"/><path fill-rule="evenodd" clip-rule="evenodd" d="m292.851 54.855 3.997 6.136h15.319l8.743-6.106h6.895v8.936c0 3.078-2.098 6.147-6.195 8.5-8.224 4.716-21.545 4.746-29.719 0-4.097-2.353-6.135-5.451-6.095-8.55v-8.936l7.055.02Z" fill="#000"/><path d="m286.045 67.972-8.414 4.816 8.414-4.816Zm-6.895-28.24 8.354 4.757-8.354-4.757Zm49.024 28.09 8.354 4.797-8.354-4.796ZM307.329 33v6.802V33Zm28.139 6.633-8.453 4.855 8.453-4.855ZM347 55.788h-11.851H347Zm-39.881 17.496v6.802-6.802ZM279.26 55.878h-11.851 11.851Z" fill="#BE88F8"/><path d="M279.26 55.878h-11.851m18.636 12.094-8.414 4.816 8.414-4.816Zm-6.895-28.24 8.354 4.757-8.354-4.757Zm49.024 28.09 8.354 4.797-8.354-4.796ZM307.329 33v6.802V33Zm28.139 6.633-8.453 4.855 8.453-4.855ZM347 55.788h-11.851H347Zm-39.881 17.496v6.802-6.802Z" stroke="#BE88F8" stroke-linejoin="round"/><path fill-rule="evenodd" clip-rule="evenodd" d="M291.961 46.474c8.223-4.727 21.534-4.746 29.708-.06 8.174 4.687 8.134 12.333-.09 17.05-8.224 4.716-21.544 4.746-29.718.049s-8.124-12.323.1-17.04Zm13.899 10.922h-8.993v3.615h15.319l.08-14.676h-6.296l-.11 11.061Z" fill="#BE88F8"/><path d="M1058.49 115.06c.35 0 2.79 0 3.03.091 26.14 8.609 30.99 34.618 22.64 58.988-8.04 23.473-28.7 38.854-51.95 30.093 2.5 1.707 5.21 3.07 8.07 4.054 21.11 7.273 45.28-7.318 53.87-32.568 8.59-25.25-1.42-51.624-22.52-58.851a34.246 34.246 0 0 0-13.14-1.807Z" fill="#BE88F8"/><path d="M1055.31 115.238c27.3 0 38.51 31.664 29.98 57.029-9.41 28.006-31.62 39.135-52.81 31.984m14.89-87.566c-13.23 4.665-24.92 16.494-30.33 32.594-6.97 20.732-1.38 42.129 12.46 53.158" stroke="#000" stroke-width="1.002" stroke-linejoin="round"/><path d="M1072.44 169.366c5.48-15.964.26-32.23-11.66-36.33-11.91-4.101-26.01 5.517-31.48 21.481-5.47 15.965-.25 32.231 11.66 36.331 11.91 4.1 26.01-5.517 31.48-21.482Z" fill="#BE88F8"/><path d="M1060.46 163.792c2.79-8.145.13-16.444-5.95-18.536-6.08-2.093-13.27 2.814-16.07 10.958-2.79 8.145-.12 16.444 5.95 18.536 6.08 2.093 13.28-2.813 16.07-10.958Z" fill="#fff"/><path d="m1049.45 161.256-10.41-9.064" stroke="#000" stroke-linecap="round" stroke-linejoin="round"/><path d="M1027.05 148.654c.4.597.78 1.189 1.14 1.776a11.19 11.19 0 0 0 3.67 4.009c.65.411 1.37.68 2.13.789a6.23 6.23 0 0 0 2.43-.105 6.252 6.252 0 0 0 2.2-1.031 6.171 6.171 0 0 0 1.64-1.797c.42-.702.7-1.48.83-2.29a6.898 6.898 0 0 0-1.35-5.041 28.6 28.6 0 0 0-3.87-2.535 78.77 78.77 0 0 0-2.36-1.245" fill="#000"/><path d="M1027.05 148.654c.4.597.78 1.189 1.14 1.776a11.19 11.19 0 0 0 3.67 4.009c.65.411 1.37.68 2.13.789a6.23 6.23 0 0 0 2.43-.105 6.252 6.252 0 0 0 2.2-1.031 6.171 6.171 0 0 0 1.64-1.797c.42-.702.7-1.48.83-2.29a6.898 6.898 0 0 0-1.35-5.041 28.6 28.6 0 0 0-3.87-2.535 78.77 78.77 0 0 0-2.36-1.245" stroke="#000" stroke-linecap="round" stroke-linejoin="round"/><path d="M1029.61 133.744c-.52-.446-1.06-.862-1.63-1.245-4.06-2.794-8.57-5.041-12.81-7.592l-21.504-12.511a12.819 12.819 0 0 1-3.182-1.868l9.472 11.707 14.954 18.539c2.47 3.036 4.72 7.181 8.96 7.834a8.202 8.202 0 0 0 6.1-1.497 8.216 8.216 0 0 0 3.25-5.381c.46-3.325-1.27-5.982-3.61-7.986Z" fill="#fff" stroke="#000" stroke-linecap="round" stroke-linejoin="round"/><path d="M993.667 112.396s-11.26-12.344.394-18.585c11.659-6.24 11.819 25.569 11.819 25.569M992.227 112.912s-15.245-5.193-14.867 7.561c.379 12.754 24.96 4.449 24.96 4.449" stroke="#000" stroke-linejoin="round"/><path d="M982.422 112.076s-9.093-4.661-3.728-7.986 12.836 5.405 12.836 5.405" stroke="#000" stroke-linejoin="round"/><path d="m150.236 201.048-.059 7.931-7.694 3.144-6.968-3.29-7.634 3.669-13.288-19.308 13.288-2.831 7.525 10.52 6.708 3.133 8.122-2.968Z" fill="#1F2229"/><path d="m157.204 197.496-.06 7.932-7.694 3.143-6.967-3.289-7.635 3.668-13.287-19.307-.13-7.698 13.179 18.393 7.763-3.007 6.709 3.133 8.122-2.968Z" fill="#C882FF"/><path d="m142.483 197.233-7.635 3.679-13.287-19.308L158 189.536l-8.012 3.97 7.504 3.708-8.042 3.318-6.967-3.299Z" stroke="#1F2229" stroke-linejoin="bevel"/><path d="m157.204 197.496-.06 7.931-7.694 3.144-6.967-3.29-7.635 3.669-13.287-19.307.03-5.693M157.751 189.186v5.984M149.341 200.62v7.512M142.552 197.7v7.513M134.938 200.834v7.513" stroke="#1F2229" stroke-linejoin="bevel"/><path d="M0 207.643c.044 2.807 2.181 5.53 7.51 7.989 6.485 3.007 15.762 4.784 28.71-.711.305-.128 10.766-5.772 10.766-5.772l52.839-30.564s9.196-5.295 11.225-7.925c3.213-4.165 5.057 1.507 5.624-4.691-2.094 3.767-5.224 3.738-16.85 10.306-25.524 15.687-76.864 42.314-74.753 34.474-13.442 4.975-14.54-4.976-17.56-12.084-3.16 1.422-7.554 6.17-7.51 8.978Z" fill="#1F2229"/><path d="M8.009 209.166c.043 2.807 2.18 5.53 7.51 7.989 6.484 3.007 15.761 4.784 28.709-.711.305-.128 10.767-5.772 10.767-5.772l52.838-30.564s9.197-5.296 11.225-7.926c3.213-4.165 1.687-8.799 2.254-14.998-2.094 3.768-.596 5.069-12.221 11.636-25.525 15.688-59.614 33.792-65.176 37.389-13.442 4.975-25.765 4.833-35.776-4.855-.196 2.346-.13 7.812-.13 7.812Z" fill="#C882FF"/><path d="M109.469 168.615c20.596-10.208 9.451-19.761 2.479-21.936-8.491-2.651-19.41-2.509-28.87 2.95l-1.664.931c-21.272 11.956-24.95 13.804-48.186 26.911l-1.177.654c-14.279 7.549-35.493 19.632-16.503 28.446 6.484 3.007 15.761 4.784 28.709-.711.305-.127 10.767-5.764 10.767-5.764l52.838-30.564 1.607-.917ZM110.785 178.487c8.557-4.535 10.963-8.913 10.411-12.531" stroke="#1F2229" stroke-linejoin="round"/><path d="M8.009 209.166c.043 2.807 2.18 5.53 7.51 7.989 6.484 3.007 15.761 4.784 28.709-.711.305-.128 10.767-5.771 10.767-5.771l52.838-30.565M7.987 203.827v6.078M121.29 156.246v10.52" stroke="#1F2229" stroke-linejoin="round"/><path d="m45.32 191.151-3.732-3.071-1.85 1.122-1.198-.996 5.571-3.343 1.21.985-1.861 1.111 3.71 3.06-1.85 1.132ZM34.02 194.452a2.763 2.763 0 0 1-.831-1.048 2.017 2.017 0 0 1-.126-1.048 2.35 2.35 0 0 1 .536-1.048 4.12 4.12 0 0 1 1.114-.922l.116-.063a6.067 6.067 0 0 1 1.346-.566 5.756 5.756 0 0 1 1.566-.209 4.816 4.816 0 0 1 1.493.23c.489.166.945.419 1.345.744.357.276.64.636.82 1.048.142.331.179.697.105 1.048-.08.392-.265.754-.536 1.048a4.42 4.42 0 0 1-1.135.922l-.126.074c-.418.24-.863.43-1.325.566a5.61 5.61 0 0 1-1.545.22 5.179 5.179 0 0 1-1.483-.241 4.215 4.215 0 0 1-1.335-.755Zm1.292-2.253c0 .325.169.681.652 1.048.382.35.87.56 1.388.597.423.013.842-.092 1.209-.304.175-.094.328-.222.452-.377a.763.763 0 0 0 .2-.44.91.91 0 0 0-.105-.503 2.237 2.237 0 0 0-.516-.566 2.726 2.726 0 0 0-.715-.43 2.112 2.112 0 0 0-1.366-.104 2.88 2.88 0 0 0-.536.22 1.183 1.183 0 0 0-.642.807M78.656 171.113l-4.92-4.045 1.87-1.121 2.776 2.274.105-.063-.588-3.584 1.734-1.038 4.92 4.035-1.871 1.132-2.786-2.295-.095.073.579 3.605-1.724 1.027ZM71.749 175.274l-4.93-4.056 2.575-1.54.231-.137c.39-.224.794-.424 1.21-.597.368-.15.752-.259 1.145-.325.291-.059.592-.059.883 0 .24.066.464.176.662.325a.847.847 0 0 1 .368.786 1.446 1.446 0 0 1-.546.807l.063.063a3.589 3.589 0 0 1 1.461-.346c.42-.006.83.135 1.156.398.182.135.323.316.41.524a.838.838 0 0 1 0 .64 2.1 2.1 0 0 1-.557.765c-.372.34-.781.639-1.22.89l-2.911 1.803Zm2.26-3.479a.844.844 0 0 0-.694-.179c-.29.04-.57.14-.82.294l-.862.524 1.052.891.861-.514a1.55 1.55 0 0 0 .6-.555.388.388 0 0 0-.126-.493l-.01.032Zm-3.69-1.331-.662.387.978.807.662-.387a1.35 1.35 0 0 0 .599-.566.398.398 0 0 0-.137-.44.739.739 0 0 0-.599-.137c-.276.045-.54.145-.778.294h-.063M62.845 176.993c.231-.38.53-.714.883-.985.537-.441 1.11-.837 1.713-1.184l-.22-.179a1.062 1.062 0 0 0-.789-.23 2.359 2.359 0 0 0-.967.346l-.105.063a6.662 6.662 0 0 0-1.051.775 3.907 3.907 0 0 0-.736.891l-1.21-.985c.227-.34.503-.644.82-.902a10.46 10.46 0 0 1 1.21-.848l.157-.084a5.475 5.475 0 0 1 2.513-.839 3.162 3.162 0 0 1 2.102.713l3.154 2.599-1.808 1.048-.757-.629-.095.063c.017.15.017.301 0 .451a.953.953 0 0 1-.105.461 1.98 1.98 0 0 1-.357.471 2.85 2.85 0 0 1-.652.483h-.073a3.4 3.4 0 0 1-1.735.492 2.415 2.415 0 0 1-1.545-.545 1.443 1.443 0 0 1-.505-.702 1.168 1.168 0 0 1 .158-.744Zm1.997-.514c-.242.273-.252.503 0 .703a.849.849 0 0 0 .589.178c.254-.005.502-.081.715-.22.141-.081.269-.184.378-.304a.834.834 0 0 0 .2-.378.72.72 0 0 0 0-.419 1.052 1.052 0 0 0-.337-.409l-.178-.146c-.5.287-.96.639-1.367 1.048M59.638 185.984l-7.358-6.026 1.808-1.048.683.566.095-.063c-.05-.31.01-.629.168-.901.256-.395.62-.708 1.051-.901l.095-.063c.368-.214.77-.366 1.188-.451a4.088 4.088 0 0 1 1.377-.073 4.21 4.21 0 0 1 1.325.325c.434.177.839.421 1.198.723.347.27.642.6.872.975.18.301.277.645.284.995a1.728 1.728 0 0 1-.315.954c-.249.34-.568.622-.936.828l-.105.063c-.387.226-.81.385-1.25.471a3.568 3.568 0 0 1-1.336 0h-.084l.83.587 2.324 1.907-1.914 1.132Zm-3.605-5.785c.093.199.233.372.41.503l.305.252c.364.321.828.506 1.314.524a2.4 2.4 0 0 0 1.177-.325c.167-.097.316-.221.442-.367a.805.805 0 0 0 .21-.45.772.772 0 0 0-.126-.524 1.826 1.826 0 0 0-.516-.598 2.934 2.934 0 0 0-.693-.419 2.433 2.433 0 0 0-.705-.157c-.22-.005-.44.024-.651.084a2.43 2.43 0 0 0-.537.23c-.17.097-.325.217-.462.357a.876.876 0 0 0-.231.419.805.805 0 0 0 .073.461M49.925 188.363l-4.92-4.034 5.76-3.459 4.931 4.035-1.871 1.132-3.732-3.06-2.008 1.205 3.722 3.06-1.882 1.121ZM87.297 165.926l-3.722-3.06-1.85 1.121-1.198-.996 5.571-3.343 1.199.986-1.86 1.121 3.72 3.06-1.86 1.111ZM91.912 163.149l-4.92-4.035 1.871-1.132 1.42 1.163.662-.398.115-.063a7.292 7.292 0 0 1 1.377-.649c.422-.145.86-.236 1.304-.273.355-.021.711.022 1.051.126.313.097.605.249.862.45.232.185.416.422.536.692.096.254.096.533 0 .786-.114.33-.305.628-.557.87-.365.368-.779.686-1.23.943l-2.491 1.52Zm.094-3.48-.63.378 1.324 1.048.631-.378c.4-.241.62-.461.662-.67a.5.5 0 0 0-.22-.545 1.046 1.046 0 0 0-.726-.241c-.353.024-.693.14-.988.335" fill="#D5D8DC"/><path d="m576.052 218.892 35.293-20.464c2.565-1.495 3.773-3.478 3.623-5.43-.134-1.736 0-9.516-.071-10.517l-51.629-21.955c-4.857-2.784-12.754-2.774-17.621 0l-37.618 13.441c0 4.006-.065 9.627 0 11.519.061 1.796 1.274 3.578 3.64 4.939l10.777 6.212-.702 3.075v11.828l21.856-1.192 14.861 8.564c4.857 2.794 12.755 2.774 17.612 0" fill="#C882FF"/><path d="M611.357 185.957c4.857-2.825 4.857-7.393 0-10.197l-48.066-27.645c-4.857-2.825-12.755-2.815-17.622 0l-34.008 19.632c-4.846 2.824-4.846 7.392 0 10.186l13.537 7.803-.08.291-3.382 13.021 21.856-1.192 14.862 8.564c4.857 2.835 12.754 2.815 17.611 0l35.292-20.463Z" fill="#fff"/><path d="M569.426 162.291c-1.436 3.527-6.297 7.341-6.59 7.486l-7.65-2.441c-9.234 4.203-6.556 15.835-6.409 16.409l7.531 2.49-.192 9.128-10.369-1.378a6.233 6.233 0 0 1-2.206-.749 5.032 5.032 0 0 1-.968-.737 2.97 2.97 0 0 1-.448-.619c-11.852-21.412 7.294-32.166 13.958-35.137a4.418 4.418 0 0 1 2.168-.273c.844.107 1.66.373 2.405.786l8.77 5.035Z" fill="#C882FF"/><path d="M568.042 171.593c2.207 1.272 3.371 2.954 3.201 4.677-.181 1.903-2.007 3.656-4.877 4.778a2.191 2.191 0 0 1-1.345 0 1.627 1.627 0 0 1-.331-.13.547.547 0 0 1-.321-.491.755.755 0 0 1 .532-.481c2.318-.891 3.733-2.283 3.863-3.806.131-1.362-.792-2.694-2.539-3.706-.19-.11-.391-.21-.612-.321h-.07c-.441-.25-.451-.631 0-.881a2.016 2.016 0 0 1 1.766 0c.251.107.495.227.733.361Z" fill="#000"/><path d="M572.758 169.079c3.422 2.003 5.238 4.657 5.017 7.392-.271 2.944-2.889 5.649-7.154 7.392a1.859 1.859 0 0 1-1.495-.06c-.221-.131-.342-.301-.312-.481.03-.18.171-.361.452-.481 3.713-1.512 6.021-3.876 6.242-6.44.22-2.394-1.365-4.728-4.345-6.441l-.693-.381c-.301-.17-.421-.39-.331-.601a.947.947 0 0 1 .763-.46 1.86 1.86 0 0 1 1.113.14l.743.421Z" fill="#000"/><path d="M577.073 165.673c5.018 2.855 7.587 6.891 7.165 11.018-.421 4.127-3.863 8.013-9.423 10.507a1.61 1.61 0 0 1-1.124 0l-.23-.1a.52.52 0 0 1-.321-.491.624.624 0 0 1 .431-.481c5.018-2.263 8.199-5.759 8.58-9.555.381-3.796-2.007-7.442-6.513-10.017l-.11-.07a.502.502 0 0 1-.301-.601.937.937 0 0 1 .722-.47 1.583 1.583 0 0 1 1.004.14l.12.12Z" fill="#000"/><path d="M545.647 148.507c4.867-2.775 12.764-2.785 17.621 0l48.077 27.705c4.847 2.804 4.847 7.372 0 10.197l-17.646 10.231-8.823 5.116-8.803 5.136c-4.857 2.775-12.755 2.795-17.612 0l-14.861-8.564-21.856 1.192 3.382-13.021.08-.291-13.537-7.803c-4.857-2.794-4.857-7.362 0-10.186l27.783-16.118" stroke="#000" stroke-linejoin="bevel"/><path d="m790.569 96.562 30.47-17.13 1.741.905 7.839-4.638v-1.453l29.307-17.43v-2.06l-4.059-2.897v2.35l-65.298 36.829-49.81-28.428V55.9l-7.351 4.36v2.35l57.161 33.952Z" fill="#C882FF"/><path d="M790.917 94.64h-.498l-57.17-33.971v-.856l7.093-4.32.517.846-6.387 3.892 56.206 33.405L820.9 76.644l.467-.01 1.493.747 7.361-4.36v-1.164l.239-.428 28.62-17.011-3.8-2.45.537-.835 4.477 2.877-.01.846-29.068 17.28v1.174l-.249.418-7.829 4.648-.477.02-1.502-.756-30.242 17Z" fill="#000"/><path d="M791.394 97h-.447l-57.698-34.271-.249-.428v-2.27h.995v1.991l57.161 33.973 30.221-16.992h.468l1.492.747 6.884-4.091v-2.538h.995v2.817l-.249.428-7.351 4.38h-.478l-1.502-.757L791.394 97Zm41.175-23.013-.508-.856 27.944-16.633v-1.99H861v2.269l-.239.428-28.192 16.782Z" fill="#000"/><path d="m792.18 71.478-.318-.07-48.745-29.622.209-.916 30.759-3.483.308.06 50.198 29.333-.189.916-32.222 3.782Zm-47.312-29.781 47.362 28.766 30.55-3.573-48.745-28.498-29.167 3.305Z" fill="#000"/><path d="m824.372 67.925-50.496-29.613-.149-.13-17.697-23.54.656-.726 48.745 29.035.139.11 19.438 24.107-.636.757Zm-49.909-30.39 48.058 28.18-17.677-21.898-46.497-27.692 16.116 21.41Z" fill="#000"/><path d="m824.989 68.094-.965-.229 9.032-37.585L784.6 1.194l-6.337 24.228-.965-.249L783.804.3 784.54 0l49.332 29.613.229.547-9.112 37.934Z" fill="#000"/><path d="m824.67 68.204-.746-.657 26.342-30.12L801.601 8.73l.507-.857 49.173 28.996.129.757-26.74 30.578Z" fill="#000"/><path d="m790.42 91.744-49.909-28.746-.249-.438v-7.834l.269-.448 13.499-6.908.458.886-13.231 6.769v7.246l49.411 28.458 33.246-19.3 30.968-17.579v-7.246l-7.421-3.862.458-.886 7.699 4.001.259.448v7.834l-.249.438-31.216 17.708-33.485 19.45-.507.01Z" fill="#000"/><path d="m780.042 44.898-19.447 2.655.134.987 19.447-2.655-.134-.987ZM853.481 46.447l-29.543 20.9.574.812 29.543-20.9-.574-.812Z" fill="#000"/><path d="m790.598 84.21-.467-.02-50.048-29.285.497-.866 49.82 29.155 34.171-16.364.427.906-34.4 16.473ZM784.373 47.638l-18.981 2.757.143.985 18.981-2.757-.143-.985ZM797.796 54.585l-18.981 2.757.143.985 18.981-2.757-.143-.985Z" fill="#000"/><path d="m802.446 58.071-18.981 2.758.143.985 18.981-2.758-.143-.985ZM791.497 11.134l-5.21 18.087.956.275 5.21-18.086-.956-.276ZM796.135 13.452l-5.21 18.086.956.276 5.21-18.087-.956-.275ZM791.016 83.552h-.994v5.784h.994v-5.784Z" fill="#000"/></svg>
