<svg xmlns="http://www.w3.org/2000/svg" width="68" height="68" viewBox="0 0 68 68">
    <g fill="none" fill-rule="evenodd">
        <g fill="#8964A8" fill-rule="nonzero">
            <g>
                <g>
                    <g>
                        <path d="M62.333 0H5.667C2.539.004.004 2.539 0 5.667v56.666C.004 65.461 2.539 67.996 5.667 68h56.666c3.128-.004 5.663-2.539 5.667-5.667V5.667C67.996 2.539 65.461.004 62.333 0zM5.667 2.267h56.666c1.877.002 3.398 1.523 3.4 3.4V13.6H2.267V5.667c.002-1.877 1.523-3.398 3.4-3.4zm56.666 63.466H5.667c-1.877-.002-3.398-1.523-3.4-3.4V15.867h63.466v46.466c-.002 1.877-1.523 3.398-3.4 3.4z" transform="translate(-894 -6072) translate(162 5716) translate(0 184) translate(732 172)"/>
                        <path d="M7.933 11.333c1.878 0 3.4-1.522 3.4-3.4 0-1.877-1.522-3.4-3.4-3.4-1.877 0-3.4 1.523-3.4 3.4.002 1.877 1.523 3.398 3.4 3.4zm0-4.533c.626 0 1.134.507 1.134 1.133s-.508 1.134-1.134 1.134c-.626 0-1.133-.508-1.133-1.134 0-.625.508-1.132 1.133-1.133zM17 11.333c1.878 0 3.4-1.522 3.4-3.4 0-1.877-1.522-3.4-3.4-3.4s-3.4 1.523-3.4 3.4c.002 1.877 1.523 3.398 3.4 3.4zM17 6.8c.626 0 1.133.507 1.133 1.133S17.626 9.067 17 9.067s-1.133-.508-1.133-1.134c0-.625.507-1.132 1.133-1.133zM26.067 11.333c1.877 0 3.4-1.522 3.4-3.4 0-1.877-1.523-3.4-3.4-3.4-1.878 0-3.4 1.523-3.4 3.4.002 1.877 1.523 3.398 3.4 3.4zm0-4.533c.626 0 1.133.507 1.133 1.133s-.507 1.134-1.133 1.134-1.134-.508-1.134-1.134c0-.625.508-1.132 1.134-1.133zM45.333 37.4H54.4c1.251-.001 2.265-1.015 2.267-2.267v-9.066C56.665 24.815 55.65 23.8 54.4 23.8h-9.067c-1.25.001-2.265 1.015-2.266 2.267v9.066c.001 1.252 1.015 2.266 2.266 2.267zm0-11.333H54.4v9.066h-9.067v-9.066zM55.533 52.133c-.626 0-1.133.508-1.133 1.134v2.266h-9.067v-9.066H51c.626 0 1.133-.508 1.133-1.134 0-.626-.507-1.133-1.133-1.133h-5.667c-1.25.001-2.265 1.015-2.266 2.267v9.066c.001 1.252 1.015 2.266 2.266 2.267H54.4c1.251-.001 2.265-1.015 2.267-2.267v-2.266c0-.626-.508-1.134-1.134-1.134zM10.2 27.2h9.067c.626 0 1.133-.507 1.133-1.133s-.507-1.134-1.133-1.134H10.2c-.626 0-1.133.508-1.133 1.134 0 .626.507 1.133 1.133 1.133zM37.4 24.933H23.8c-.626 0-1.133.508-1.133 1.134 0 .626.507 1.133 1.133 1.133h13.6c.626 0 1.133-.507 1.133-1.133s-.507-1.134-1.133-1.134zM37.4 29.467H10.2c-.626 0-1.133.507-1.133 1.133s.507 1.133 1.133 1.133h27.2c.626 0 1.133-.507 1.133-1.133s-.507-1.133-1.133-1.133zM10.2 36.267h13.6c.626 0 1.133-.508 1.133-1.134 0-.626-.507-1.133-1.133-1.133H10.2c-.626 0-1.133.507-1.133 1.133s.507 1.134 1.133 1.134zM37.4 34h-9.067c-.626 0-1.133.507-1.133 1.133s.507 1.134 1.133 1.134H37.4c.626 0 1.133-.508 1.133-1.134 0-.626-.507-1.133-1.133-1.133zM10.2 47.6h9.067c.626 0 1.133-.507 1.133-1.133s-.507-1.134-1.133-1.134H10.2c-.626 0-1.133.508-1.133 1.134 0 .626.507 1.133 1.133 1.133zM37.4 45.333H23.8c-.626 0-1.133.508-1.133 1.134 0 .626.507 1.133 1.133 1.133h13.6c.626 0 1.133-.507 1.133-1.133s-.507-1.134-1.133-1.134zM37.4 49.867H10.2c-.626 0-1.133.507-1.133 1.133s.507 1.133 1.133 1.133h27.2c.626 0 1.133-.507 1.133-1.133s-.507-1.133-1.133-1.133zM23.8 54.4H10.2c-.626 0-1.133.507-1.133 1.133s.507 1.134 1.133 1.134h13.6c.626 0 1.133-.508 1.133-1.134 0-.626-.507-1.133-1.133-1.133zM37.4 54.4h-9.067c-.626 0-1.133.507-1.133 1.133s.507 1.134 1.133 1.134H37.4c.626 0 1.133-.508 1.133-1.134 0-.626-.507-1.133-1.133-1.133z" transform="translate(-894 -6072) translate(162 5716) translate(0 184) translate(732 172)"/>
                        <path d="M56.893 42.387l-6.016 8.02-1.342-1.342c-.445-.43-1.152-.423-1.59.014-.436.437-.442 1.144-.013 1.589l2.267 2.267c.212.212.5.332.801.332.027 0 .053-.001.08-.003.328-.023.63-.188.827-.45l6.8-9.067c.375-.501.274-1.211-.227-1.587-.5-.376-1.211-.274-1.587.227z" transform="translate(-894 -6072) translate(162 5716) translate(0 184) translate(732 172)"/>
                    </g>
                </g>
            </g>
        </g>
    </g>
</svg>
